<svg xmlns="http://www.w3.org/2000/svg" viewBox="0 0 512 512" enable-background="new 0 0 512 512"><path d="M445.988 448.125v25.869c0 15.467 12.539 28.006 28.006 28.006s28.006-12.539 28.006-28.006v-379.994c0-22.091-17.909-40-40-40h-378.176c-22.091 0-40 17.909-40 40v354.125h402.164z" fill="#fff"/><path d="M446 474v-25.852l-.012-.023h-435.988v25.875c0 15.464 12.536 28 28 28h435.994c-15.461-.003-27.994-12.538-27.994-28z" fill="#C7EAFF"/><path d="M501.5 137h-457v-43c0-22.091 17.909-40 40-40h377c22.091 0 40 17.909 40 40v43z" fill="#BAEE83"/><path d="M226.245 370c-15.464 0-28-12.536-28-28s12.536-28 28-28 28 12.536 28 28-12.536 28-28 28zm93.333 0c-15.464 0-28-12.536-28-28s12.536-28 28-28 28 12.536 28 28-12.536 28-28 28z" fill="#A5DDFF"/><path d="M412.912 370c-15.464 0-28-12.536-28-28s12.536-28 28-28 28 12.536 28 28-12.536 28-28 28z" fill="#FE6663"/><path d="M132.912 266c-15.464 0-28-12.536-28-28s12.536-28 28-28 28 12.536 28 28-12.536 28-28 28zm186.666 0c-15.464 0-28-12.536-28-28s12.536-28 28-28 28 12.536 28 28-12.536 28-28 28zm-93.333 0c-15.464 0-28-12.536-28-28s12.536-28 28-28 28 12.536 28 28-12.536 28-28 28z" fill="#A5DDFF"/><g fill="#FE6663"><path d="M412.912 266c-15.464 0-28-12.536-28-28s12.536-28 28-28 28 12.536 28 28-12.536 28-28 28z"/><circle cx="90.48" cy="376" r="72"/></g><path d="M156.333 96.5c-11.046 0-20-8.954-20-20v-46.5c0-11.046 8.954-20 20-20s20 8.954 20 20v46.5c0 11.046-8.954 20-20 20zm228 0c-11.046 0-20-8.954-20-20v-46.5c0-11.046 8.954-20 20-20s20 8.954 20 20v46.5c0 11.046-8.954 20-20 20z" fill="#fff"/><path d="M462 44h-47.667v-14c0-16.542-13.458-30-30-30s-30 13.458-30 30v14h-168v-14c0-16.542-13.458-30-30-30s-30 13.458-30 30v14.37c-.85-.235-1.741-.37-2.666-.37h-39.844c-27.57 0-50 22.43-50 50v170.333c0 5.523 4.478 10 10 10s10-4.477 10-10v-117.333h360.51c5.522 0 10-4.477 10-10s-4.478-10-10-10h-360.51v-33c0-16.542 13.458-30 30-30h39.844c.925 0 1.816-.136 2.666-.37v12.87c0 16.542 13.458 30 30 30s30-13.458 30-30v-12.5h168v12.5c0 16.542 13.458 30 30 30s30-13.458 30-30v-12.5h47.667c16.542 0 30 13.458 30 30v379.994c0 9.928-8.077 18.006-18.006 18.006s-18.006-8.078-18.006-18.006v-25.869c0-5.523-4.478-10-10-10h-116.321c-5.522 0-10 4.477-10 10s4.478 10 10 10h106.321v15.869c0 6.511 1.648 12.643 4.545 18.006h-402.533c-9.925 0-18-8.075-18-18v-15.875h223.825c5.522 0 10-4.477 10-10s-4.478-10-10-10h-99.916c17.474-15.049 28.57-37.309 28.57-62.125 0-45.215-36.785-82-82-82s-82 36.785-82 82c0 24.816 11.096 47.076 28.57 62.125h-27.049c-5.522 0-10 4.477-10 10v25.875c0 20.953 17.047 38 38 38h435.994c20.956 0 38.006-17.049 38.006-38.006v-379.994c0-27.57-22.43-50-50-50zm-295.667 32.5c0 5.514-4.486 10-10 10s-10-4.486-10-10v-46.5c0-5.514 4.486-10 10-10s10 4.486 10 10v46.5zm228 0c0 5.514-4.486 10-10 10s-10-4.486-10-10v-46.5c0-5.514 4.486-10 10-10s10 4.486 10 10v46.5zm-365.854 299.5c0-34.187 27.813-62 62-62s62 27.813 62 62-27.813 62-62 62-62-27.813-62-62zm432.761-229c2.63 0 5.21-1.07 7.069-2.93 1.86-1.86 2.931-4.44 2.931-7.07s-1.07-5.21-2.931-7.07c-1.859-1.86-4.439-2.93-7.069-2.93-2.631 0-5.21 1.07-7.07 2.93-1.86 1.86-2.93 4.44-2.93 7.07s1.069 5.21 2.93 7.07 4.439 2.93 7.07 2.93zm-176.73 294.05c-1.86 1.87-2.93 4.44-2.93 7.07 0 2.64 1.069 5.21 2.93 7.08 1.86 1.86 4.44 2.92 7.07 2.92s5.21-1.06 7.069-2.92c1.86-1.87 2.931-4.45 2.931-7.08s-1.07-5.2-2.931-7.07c-1.859-1.86-4.439-2.92-7.069-2.92s-5.21 1.06-7.07 2.92zm-58.265-61.05c20.953 0 38-17.047 38-38s-17.047-38-38-38-38 17.047-38 38 17.047 38 38 38zm0-56c9.925 0 18 8.075 18 18s-8.075 18-18 18-18-8.075-18-18 8.075-18 18-18zm93.333 56c20.953 0 38-17.047 38-38s-17.047-38-38-38-38 17.047-38 38 17.047 38 38 38zm0-56c9.925 0 18 8.075 18 18s-8.075 18-18 18-18-8.075-18-18 8.075-18 18-18zm93.334 56c20.953 0 38-17.047 38-38s-17.047-38-38-38-38 17.047-38 38 17.047 38 38 38zm0-56c9.925 0 18 8.075 18 18s-8.075 18-18 18-18-8.075-18-18 8.075-18 18-18zm-242-86c0-20.953-17.047-38-38-38s-38 17.047-38 38 17.047 38 38 38 38-17.047 38-38zm-56 0c0-9.925 8.075-18 18-18s18 8.075 18 18-8.075 18-18 18-18-8.075-18-18zm204.666 38c20.953 0 38-17.047 38-38s-17.047-38-38-38-38 17.047-38 38 17.047 38 38 38zm0-56c9.925 0 18 8.075 18 18s-8.075 18-18 18-18-8.075-18-18 8.075-18 18-18zm93.334 56c20.953 0 38-17.047 38-38s-17.047-38-38-38-38 17.047-38 38 17.047 38 38 38zm0-56c9.925 0 18 8.075 18 18s-8.075 18-18 18-18-8.075-18-18 8.075-18 18-18zm-186.667 56c20.953 0 38-17.047 38-38s-17.047-38-38-38-38 17.047-38 38 17.047 38 38 38zm0-56c9.925 0 18 8.075 18 18s-8.075 18-18 18-18-8.075-18-18 8.075-18 18-18zm-153.921 185.409c1.876 1.875 4.419 2.929 7.071 2.929s5.195-1.054 7.071-2.929l39.638-39.638c3.905-3.905 3.905-10.237 0-14.142-3.906-3.905-10.236-3.905-14.143 0l-32.566 32.567-11.129-11.129c-3.906-3.905-10.236-3.905-14.143 0-3.905 3.905-3.905 10.237 0 14.143l18.201 18.199z"/></svg>