<svg xmlns="http://www.w3.org/2000/svg" viewBox="0 0 512 512" enable-background="new 0 0 512 512"><path d="M483.739 324.878l-357.924 130.274c-16.372 5.959-34.476-2.482-40.435-18.854l-75.975-208.741c-5.959-16.372 2.483-34.476 18.854-40.435l357.926-130.274c16.372-5.959 34.476 2.483 40.435 18.854l75.976 208.741c5.958 16.372-2.484 34.476-18.857 40.435z" fill="#69BFE2"/><path d="M387.664 159.788l-41.587 15.136c-13.369 4.866-20.262 19.648-15.396 33.018l6.375 17.515c4.866 13.369 19.648 20.262 33.018 15.396l41.588-15.136c13.369-4.866 20.262-19.648 15.396-33.018l-6.375-17.515c-4.867-13.369-19.649-20.262-33.019-15.396z" fill="#FDBA6D"/><path d="M94.503 311.324c-3.064 0-5.94-1.892-7.049-4.937-1.417-3.892.591-8.196 4.482-9.613l34.849-12.684c3.894-1.415 8.196.591 9.613 4.482 1.417 3.893-.591 8.196-4.482 9.613l-34.849 12.684c-.846.308-1.713.455-2.564.455zm80.999-29.482c-3.064 0-5.94-1.892-7.049-4.936-1.417-3.893.591-8.196 4.482-9.613l34.849-12.684c3.894-1.415 8.197.592 9.613 4.482 1.417 3.893-.591 8.196-4.482 9.613l-34.849 12.684c-.846.308-1.713.454-2.564.454zm80.998-29.481c-3.065 0-5.94-1.892-7.049-4.937-1.417-3.893.591-8.196 4.482-9.613l34.849-12.684c3.893-1.414 8.196.591 9.613 4.482 1.417 3.893-.591 8.196-4.482 9.613l-34.849 12.684c-.846.308-1.712.455-2.564.455z" fill="#fff"/><circle cx="394.8" cy="297.56" r="28.825" fill="#FDBA6D"/><circle cx="429.16" cy="285.05" r="28.825" fill="#D77458"/><path d="M386.185 56.848l-357.924 130.274c-16.372 5.959-24.814 24.063-18.854 40.435l8.653 23.774 417.213-151.854-8.653-23.774c-5.96-16.372-24.062-24.815-40.435-18.855z" fill="#97D68F"/><path d="M228.736 366.389c-10.18 3.705-21.437-1.544-25.142-11.723l-4.914-13.502c-.989-2.716.412-5.72 3.128-6.708l27.029-9.837c2.716-.989 5.72.412 6.708 3.128l4.914 13.502c3.707 10.178-1.542 21.434-11.723 25.14z" fill="#445258"/><path d="M428.315 204.169l-36.848-8.433 22.807-30.147.091-.133c-3.625-3.492-8.201-5.844-13.123-6.775l-26.883 35.534-42.981 15.643 4.98 13.683 42.983-15.644 43.433 9.94c3.171-3.877 5.165-8.62 5.697-13.624l-.156-.044z" opacity=".1" enable-background="new"/><path d="M205.633 203.993l-118.573 43.157c-6.43 2.34-13.539-.975-15.879-7.405l-4.981-13.686c-2.34-6.43.975-13.539 7.405-15.879l118.573-43.157c6.43-2.34 13.539.975 15.879 7.405l4.981 13.686c2.34 6.429-.975 13.539-7.405 15.879z" fill="#445258"/><path d="M502.595 284.443l-75.976-208.74c-4.401-12.093-15.429-19.85-27.491-20.683 1.472 2.147 2.7 4.512 3.631 7.071l75.975 208.741c5.959 16.372-2.482 34.476-18.854 40.434l-357.925 130.274c-4.279 1.557-8.675 2.123-12.944 1.828 7.944 11.588 22.99 16.811 36.803 11.784l357.925-130.274c16.373-5.959 24.815-24.063 18.856-40.435z" opacity=".1" enable-background="new"/><path d="M509.643 281.878l-75.976-208.741c-7.364-20.231-29.817-30.7-50.048-23.338l-357.924 130.275c-20.231 7.364-30.702 29.816-23.338 50.049l8.652 23.771.001.002.001.001 47.984 131.833c1.416 3.892 5.72 5.896 9.613 4.482 3.892-1.417 5.899-5.721 4.482-9.613l-45.418-124.787 36.544-13.3c2.992 7.947 10.571 12.886 18.628 12.886 2.254 0 4.545-.386 6.782-1.2l118.572-43.157h-.001c10.237-3.725 15.557-15.032 11.953-25.285l139.126-50.638c3.892-1.417 5.899-5.721 4.482-9.613s-5.722-5.898-9.613-4.482l-139.126 50.638c-3.829-10.17-15.172-15.412-25.409-11.687l-118.57 43.156c-10.237 3.725-15.557 15.032-11.953 25.285l-36.546 13.301-6.087-16.725c-2.197-6.035-1.912-12.565.803-18.387 2.715-5.822 7.533-10.238 13.569-12.435l357.924-130.273c12.457-4.537 26.287 1.912 30.821 14.372l6.087 16.725-33.423 12.165c-3.893 1.417-5.899 5.721-4.482 9.613 1.108 3.046 3.984 4.937 7.049 4.937.852 0 1.718-.146 2.564-.454l33.423-12.165 64.758 177.918c2.197 6.035 1.912 12.565-.803 18.387s-7.533 10.238-13.569 12.435l-357.925 130.275c-12.457 4.538-26.287-1.913-30.821-14.372l-5.383-14.788c-1.416-3.893-5.72-5.898-9.613-4.482-3.893 1.417-5.899 5.721-4.482 9.613l5.383 14.788c5.766 15.839 20.775 25.695 36.731 25.695 4.425-.001 8.924-.759 13.316-2.357l357.924-130.273c20.232-7.366 30.702-29.818 23.338-50.05zm-433.473-64.652l118.571-43.157c.551-.2 1.113-.295 1.667-.295 1.998 0 3.879 1.234 4.601 3.218l2.487 6.834.003.009.002.005 2.489 6.837c.922 2.533-.389 5.345-2.922 6.267h-.001l-118.571 43.158c-2.534.923-5.346-.389-6.268-2.923l-2.488-6.834-.003-.009-.004-.008-2.488-6.835c-.92-2.534.391-5.345 2.925-6.267zm351.56-44.608c-6.272-17.234-25.398-26.15-42.631-19.878l-41.588 15.136c-17.233 6.273-26.151 25.398-19.878 42.632l6.375 17.514c3.038 8.348 9.146 15.013 17.197 18.768 4.472 2.085 9.245 3.134 14.036 3.134 3.837 0 7.685-.673 11.396-2.023l41.587-15.136c17.233-6.272 26.151-25.397 19.879-42.631l-6.373-17.516zm-18.635 46.05l-41.587 15.136c-4.585 1.67-9.544 1.451-13.962-.609-4.421-2.061-7.773-5.721-9.441-10.304l-6.375-17.515c-3.444-9.461 1.452-19.96 10.913-23.405l41.588-15.136c2.055-.748 4.157-1.102 6.227-1.102 7.461 0 14.48 4.609 17.177 12.016l6.375 17.516c3.442 9.461-1.453 19.96-10.915 23.403zm-254.13 151.75c.852 0 1.718-.146 2.564-.454 3.892-1.417 5.899-5.721 4.482-9.613l-3.975-10.92c-1.416-3.892-5.72-5.898-9.613-4.482-3.892 1.417-5.899 5.721-4.482 9.613l3.975 10.92c1.108 3.044 3.984 4.936 7.049 4.936zm246.267-108.606c-6.28-1.126-12.806-.594-18.853 1.608-9.118 3.318-16.398 9.988-20.499 18.782-4.1 8.794-4.53 18.658-1.212 27.776 5.363 14.734 19.327 23.904 34.171 23.903 4.116 0 8.301-.705 12.388-2.192 6.063-2.207 11.415-6.006 15.505-10.922 2.123.386 4.284.608 6.471.608 4.116 0 8.301-.705 12.387-2.192 9.117-3.319 16.397-9.989 20.498-18.783 4.1-8.793 4.53-18.657 1.212-27.774-3.318-9.118-9.988-16.398-18.782-20.499-8.795-4.1-18.657-4.531-27.776-1.212-6.144 2.233-11.446 5.994-15.51 10.897zm.863 55.781c-11.049 4.021-23.311-1.696-27.332-12.745-1.948-5.353-1.696-11.143.711-16.305 2.407-5.163 6.681-9.078 12.034-11.026 2.096-.763 4.248-1.172 6.406-1.264-1.756 6.975-1.398 14.31 1.116 21.219 2.573 7.068 7.138 12.837 12.818 16.946-1.721 1.329-3.643 2.407-5.753 3.175zm27.083-53.883c3.071 0 6.132.673 8.998 2.009 5.163 2.407 9.078 6.681 11.026 12.033v.001c1.948 5.352 1.696 11.143-.711 16.305s-6.681 9.078-12.034 11.026c-11.047 4.02-23.31-1.695-27.332-12.745-4.022-11.049 1.695-23.31 12.745-27.332 2.381-.865 4.848-1.297 7.308-1.297zm-218.611 108.822c3.645 1.699 7.537 2.554 11.442 2.554 3.128 0 6.266-.548 9.292-1.649 6.806-2.478 12.239-7.456 15.301-14.021 3.061-6.564 3.382-13.928.904-20.732l-4.914-13.503c-1.163-3.196-3.502-5.748-6.585-7.186-3.082-1.439-6.541-1.587-9.736-.426l-27.027 9.838c-3.197 1.163-5.75 3.501-7.188 6.585-1.438 3.083-1.588 6.541-.425 9.735l4.914 13.504c2.479 6.806 7.459 12.239 14.022 15.301zm18.705-40.093l4.139 11.373c1.107 3.041.964 6.33-.403 9.264-1.368 2.933-3.796 5.157-6.837 6.264-3.039 1.107-6.329.964-9.265-.403-2.933-1.368-5.157-3.796-6.264-6.836l-4.14-11.374 22.77-8.288zm53.747-8.629c.852 0 1.718-.147 2.564-.454 3.892-1.417 5.899-5.721 4.482-9.613l-3.975-10.92c-1.417-3.892-5.722-5.897-9.613-4.482-3.892 1.417-5.9 5.721-4.483 9.613l3.975 10.92c1.109 3.045 3.985 4.936 7.05 4.936z"/></svg>