<svg xmlns="http://www.w3.org/2000/svg" viewBox="0 0 512 512" enable-background="new 0 0 512 512"><ellipse cx="256.001" cy="397.486" rx="245.973" ry="104.518" fill="#C9F3FF"/><ellipse cx="256.001" cy="376.708" rx="141.854" ry="47.245" fill="#72D8FF"/><path d="M392.98 147.106c0-75.722-61.385-137.107-137.107-137.107s-137.108 61.385-137.108 137.107c0 33.155 11.769 63.561 31.357 87.269h-.08l105.831 135.584 106.337-136.298h-.009c19.238-23.604 30.779-53.73 30.779-86.555zm-137.107 82.178c-44.178 0-79.991-35.813-79.991-79.991s35.813-79.991 79.991-79.991 79.991 35.813 79.991 79.991-35.814 79.991-79.991 79.991z" fill="#FF5D5D"/><path d="M255.874 379.958c-3.08 0-5.988-1.419-7.883-3.847l-105.83-135.584c-.182-.232-.352-.471-.51-.716-21.215-26.115-32.883-58.987-32.883-92.706-.001-81.113 65.99-147.105 147.105-147.105s147.106 65.992 147.106 147.106c0 33.624-11.639 66.482-32.775 92.564l-.109.143-106.339 136.296c-1.895 2.429-4.802 3.849-7.882 3.849zm-97.229-150.812l97.226 124.56 98.217-125.889.363-.474c18.398-22.573 28.531-51.069 28.531-80.238-.001-70.087-57.022-127.107-127.109-127.107s-127.108 57.02-127.108 127.108c0 29.483 10.322 58.214 29.066 80.901.3.364.572.745.814 1.139zm97.228 10.138c-24.037 0-46.636-9.361-63.633-26.358s-26.357-39.595-26.357-63.632 9.361-46.636 26.357-63.633c23.353-23.353 57.549-32.033 89.245-22.651 5.294 1.567 8.317 7.13 6.749 12.426-1.567 5.295-7.128 8.318-12.426 6.749-24.66-7.3-51.263-.549-69.428 17.617-13.221 13.22-20.501 30.797-20.501 49.492s7.28 36.272 20.5 49.492c13.221 13.221 30.797 20.501 49.492 20.501 18.696 0 36.272-7.28 49.492-20.5 18.147-18.147 24.904-44.728 17.635-69.369-1.563-5.296 1.464-10.857 6.761-12.42 5.295-1.562 10.857 1.464 12.42 6.761 9.344 31.671.656 65.84-22.674 89.169-16.997 16.995-39.595 26.356-63.632 26.356zm56.739-136.376c-2.559 0-5.118-.976-7.07-2.929l-.177-.178c-3.905-3.905-3.905-10.236 0-14.141 3.905-3.905 10.236-3.905 14.141 0l.177.178c3.905 3.905 3.905 10.236 0 14.141-1.953 1.953-4.513 2.929-7.071 2.929zm-56.612 409.092c-67.015 0-130.173-11.155-177.839-31.409-50.384-21.409-78.132-50.923-78.132-83.107 0-27.611 20.026-53.004 57.913-73.435 34.525-18.618 82.877-32.042 136.15-37.802 5.488-.598 10.422 3.376 11.016 8.866s-3.376 10.422-8.866 11.016c-50.76 5.487-96.505 18.102-128.807 35.521-30.572 16.486-47.408 36.314-47.408 55.834 0 23.308 24.039 46.892 65.955 64.702 45.25 19.227 105.63 29.816 170.019 29.816s124.769-10.589 170.019-29.816c41.915-17.81 65.955-41.393 65.955-64.702 0-27.565-33.127-54.924-88.617-73.184-5.245-1.727-8.098-7.378-6.372-12.624 1.726-5.246 7.378-8.095 12.624-6.372 65.054 21.408 102.364 55.006 102.364 92.18 0 32.183-27.748 61.698-78.132 83.107-47.669 20.254-110.827 31.409-177.842 31.409zm105.891-198.88c-.656 0-1.32-.065-1.988-.199l-.348-.07c-5.413-1.092-8.916-6.365-7.825-11.779 1.092-5.413 6.365-8.916 11.779-7.825l.348.07c5.413 1.092 8.916 6.365 7.825 11.779-.958 4.745-5.129 8.024-9.791 8.024zm-191.317 35.867c-4.398 0-8.428-2.924-9.641-7.371-1.453-5.327 1.688-10.824 7.015-12.277.222-.061.461-.117.686-.162 5.415-1.081 10.683 2.43 11.766 7.844 1.057 5.281-2.258 10.423-7.446 11.678-.797.195-1.594.288-2.38.288zm85.426 84.965c-75.463 0-151.856-19.663-151.856-57.244 0-9.49 5.224-23.357 30.113-35.535 4.96-2.428 10.949-.374 13.376 4.586 2.427 4.96.374 10.949-4.586 13.376-11.837 5.791-18.904 12.361-18.904 17.572 0 5.702 9.09 15.388 34.709 23.92 25.801 8.593 60.303 13.326 97.149 13.326s71.347-4.732 97.149-13.326c25.619-8.532 34.709-18.218 34.709-23.92 0-11.819-34.771-30.914-100.056-36.024-5.505-.431-9.619-5.243-9.188-10.749.431-5.505 5.237-9.613 10.749-9.188 54.662 4.279 118.494 21.502 118.494 55.961-.002 37.582-76.395 57.245-151.858 57.245z"/></svg>