<svg height="512pt" viewBox="0 0 512 512" width="512pt" xmlns="http://www.w3.org/2000/svg"><path d="M512 256c0 141.387-114.613 256-256 256-60.918 0-116.863-21.273-160.809-56.813-14.43-11.648-27.566-24.848-39.152-39.34-35.066-43.801-56.039-99.379-56.039-159.848 0-39.008 8.727-75.984 24.336-109.078 9.07-19.234 20.469-37.156 33.824-53.395 46.945-57.113 118.145-93.527 197.84-93.527 72.727 0 138.367 30.324 184.957 79.016 7.586 7.91 14.648 16.309 21.172 25.141 1.91 2.59 3.77 5.215 5.578 7.879 4.367 6.402 8.453 13.02 12.234 19.832 20.43 36.77 32.059 79.098 32.059 124.133zm0 0" fill="#f2f2f2"/><path d="M506.984 99.953c-4.516 9.48-15.977 21.59-27.043 31.914-11.012 10.25-21.605 18.723-24.563 21.055.156 4.043.25 8.105.25 12.203 0 163.957-132.922 296.887-296.887 296.887-21.82 0-43.082-2.352-63.551-6.824-14.43-11.648-27.566-24.848-39.152-39.34 58.922-9.172 96.922-43.508 96.922-43.508-79.945-6.227-95.742-72.758-95.742-72.758 28.242 4.777 45.953-1.934 45.953-1.934-89.984-21.055-82.336-103.402-82.336-103.402 20.844 12.457 44.992 13.418 44.992 13.418-23.895-21.016-36.102-41.859-41.492-60.742-12.527-43.895 11.828-77.133 11.828-77.133 7.086 8.578 14.449 16.469 21.996 23.738 81.301 78.273 184.453 84.055 191.82 84.344-1.766-7.574-2.707-15.473-2.707-23.594 0-57.5 46.637-104.121 104.188-104.121 30 0 57.031 12.672 76.047 32.965 4.621-1.297 9.113-2.684 13.449-4.105l1.82-.598c29.496-9.832 50.563-21.074 50.563-21.074-3.18 19.07-19.094 36.215-31.211 46.813-7.234 6.34-13.117 10.332-14.117 11.004l-.156.102.188-.02c6.645-.668 13.32-1.82 19.664-3.207 21.516-4.703 39.277-12.082 39.277-12.082zm0 0" fill="#1da1f2"/></svg>