<svg height="512pt" viewBox="0 0 512 512" width="512pt" xmlns="http://www.w3.org/2000/svg"><path d="M512 256c0 64.637-23.949 123.684-63.469 168.73-46.926 53.5-115.785 87.27-192.531 87.27-77.258 0-146.527-34.219-193.461-88.348-38.965-44.906-62.539-103.539-62.539-167.652 0-70.887 28.809-135.043 75.367-181.395 46.301-46.109 110.133-74.605 180.633-74.605s134.332 28.496 180.633 74.605c46.559 46.352 75.367 110.508 75.367 181.395zm0 0" fill="#f2f2f2"/><path d="M506.984 150.957l-.012-.137c-.07-.492-.68-4.691-2.059-10.68-2.789-12.109-8.734-31.574-19.684-42.652-2.988-3.125-6.02-5.809-9.051-8.109-14.754-11.219-29.633-13.719-39.547-14.773-1.223-.137-2.375-.238-3.438-.344l-3.273-.324c-68.785-5.004-172.73-5.551-174.098-5.559-1.035.008-104.984.555-174.145 5.602l-2.875.281c-1.063.105-2.215.207-3.438.344-9.926 1.055-24.824 3.555-39.539 14.754-3.02 2.289-6.027 4.953-8.973 8.035-10.984 11.117-16.938 30.531-19.75 42.695-1.41 6.059-2.027 10.324-2.102 10.867-.063.395-5.004 40.918-5.004 80.918v24.125c0 64.113 23.574 122.746 62.539 167.652 6.551 1.59 12.547 2.32 17.375 2.906 2.328.273 4.41.5 6.926.949 39.531 3.793 163.801 4.953 169.172 5.008 1.043 0 105.117-.23 174.34-5.203l2.977-.316c4.023-.395 9.27-.906 15.203-2.266 39.52-45.047 63.469-104.094 63.469-168.73v-24.117c0-40.008-4.965-80.531-5.016-80.926zm0 0" fill="#f00"/><path d="M337.129 250.449l-133.805-77.25v154.5zm0 0" fill="#f2f2f2"/></svg>