<svg xmlns="http://www.w3.org/2000/svg" viewBox="0 0 169 169"><circle cx="84.5" cy="84.5" r="84.5" transform="matrix(.358205 -.933643 .933643 .358205 -24.66 133.11)" fill="#ede941"/><path d="M22.26 81.35a.12.12 0 0 1 .14.14.13.13 0 0 1-.14.14c-.07 0-.1 0-.1-.14zM24.38 86h.1a.26.26 0 0 1-.09.14.12.12 0 0 1 0-.14zm1.34-5.5l.05.2a.11.11 0 0 0-.12.07s0 .06-.1.06h-.1l-.1-.37zm1.4-.6a.45.45 0 0 1-.09.23.29.29 0 0 1-.23.14h-.05c0-.27.12-.4.37-.4zm.55 3.65c.1 0 .14.06.14.2a.08.08 0 0 1-.09.09h-.05a.13.13 0 0 1-.14-.14s.05-.1.14-.17zm.14-4.2h.05c.06 0 .1 0 .1.13s0 .14-.1.14-.14-.06-.14-.18zm7.26 23.52a.39.39 0 0 0 .07-.18v-1.1a4 4 0 0 0-.63-1 12.91 12.91 0 0 1-.8-1.13h-.14a.53.53 0 0 1-.21.09h-.2v.1a.74.74 0 0 0-.09.3.6.6 0 0 1-.14.35h-.23a2.06 2.06 0 0 0 .07.35 1.38 1.38 0 0 1 .07.35.11.11 0 0 1-.05.09.12.12 0 0 0 0 .09l-.23.05a1.17 1.17 0 0 0-.21-.26 1.18 1.18 0 0 1-.21-.25l-.18-.1a.7.7 0 0 0-.23 0c-.1 0-.14.06-.14.1l-.28-.74-.3-.25a1 1 0 0 0-.14-.21v.37a1.75 1.75 0 0 0 .07.26 3.9 3.9 0 0 0 .19.44l.2.43c.07.14.13.2.2.2h-.23c-.1 0-.2-.1-.35-.27a4.81 4.81 0 0 1-.39-.63 5 5 0 0 1-.28-.6l-.1-.2-.8-4.85a3.75 3.75 0 0 0 0-.42c0-.18 0-.4-.07-.62l-.07-.62v-1.44a1.67 1.67 0 0 0 0-.25v-.1l-.1-.13c-.13-.13-.2-.48-.2-1.07a2.87 2.87 0 0 1 .09-.65.16.16 0 0 0 0-.09.28.28 0 0 1 0-.14 3 3 0 0 1 .11-.76c.08-.26.15-.55.2-.85a.5.5 0 0 0 0-.28.79.79 0 0 1 0-.32.16.16 0 0 0 0-.1.26.26 0 0 1 0-.14 4.15 4.15 0 0 1 .09-.74v-1.68a5.63 5.63 0 0 1 .16-1 6.16 6.16 0 0 0 .12-1.26v-1.34a2 2 0 0 1 .07-.48 2.34 2.34 0 0 0 .07-.35 11.8 11.8 0 0 1 .12-1.56 10.43 10.43 0 0 0 .11-1.27v-.8a2.07 2.07 0 0 0 .14-.67c0-.32.05-.53.05-.62l.23-.7.23-.47h.1a.67.67 0 0 1 .26.07.74.74 0 0 0 .25.06l-.05-.18v-.2l.32-.46c0-.06-.1-.12-.28-.18a1.71 1.71 0 0 0-.55-.09 4.29 4.29 0 0 0 .39-.42.35.35 0 0 0 .07-.23l.28.14 1.72-.28h-.37c.06-.25.17-.36.34-.35a.49.49 0 0 0 .44-.16h.5l.5.1.6.17a1.51 1.51 0 0 1 .51.23h.18a.26.26 0 0 0 .14 0h.74l1 .1a9.75 9.75 0 0 1 1 .19 3.36 3.36 0 0 1 .76.25L43 73.63l.3.1c.17.06.35.14.55.23l.6.26a3.84 3.84 0 0 0 .49.16l.6.28a1.49 1.49 0 0 0 .44.23c.23.1.35.15.35.18l2.45 1.7a6.57 6.57 0 0 0 .69.7q.27.27.5.48l.32.3L51.57 80l1.1 1.73a1.88 1.88 0 0 0 .37 1 2.05 2.05 0 0 1 .37 1 4.83 4.83 0 0 1 .23.67l.14.53.14.6.14.86.1.85a6 6 0 0 1 0 .61v.8a6.42 6.42 0 0 1-.23 1.18c0 .1-.08.25-.14.47l-.16.62-.14.55a1.64 1.64 0 0 0-.07.3 1.29 1.29 0 0 1-.09.3l-.23.6-.28.7a4.08 4.08 0 0 0-.19.56 2.89 2.89 0 0 1-.3.62l-.62 1a11.51 11.51 0 0 1-.88 1.11 6.13 6.13 0 0 1-1.11 1l-.16.13a2.45 2.45 0 0 1-.3.19c0 .06-.1.14-.26.23l-1.06.6c-.17.1-.25.15-.25.18a.91.91 0 0 0-.49.17 3.05 3.05 0 0 1-.76.3l-.88.23a1.09 1.09 0 0 0-.25 0 2.57 2.57 0 0 0-.44.11l-.44.12h-2.3a9.92 9.92 0 0 1-1.27-.07c-.4 0-.67-.07-.86-.07h-.5c-.22 0-.33.07-.33.23v-.2a1.26 1.26 0 0 1-.14-.18.37.37 0 0 0-.33-.14h-.53a1.2 1.2 0 0 0-.57.12l-.24-.5v-.2a.12.12 0 0 0-.09 0h-.1s0 .07-.1.14l-.1.13c0 .1 0 .14-.14.14h-.23a.33.33 0 0 1 0 .14c0 .06-.06.1-.1.1l-.2.55-.18-1.16c-.44 0-.7 0-.77-.16s-.1-.13-.1-.07a1.36 1.36 0 0 0-.44-.21c-.23-.07-.35-.2-.35-.34a.64.64 0 0 1 .12-.33.59.59 0 0 1 .2-.23h-.18l-.62.77a.39.39 0 0 0-.23-.32l-.14.23v.1a3.73 3.73 0 0 0 .21.37 1.12 1.12 0 0 0 .3.37 1.07 1.07 0 0 0 .14.28 4.53 4.53 0 0 0 .3.46l.3.44a2.29 2.29 0 0 0 .18.26 1.09 1.09 0 0 0 .4.78 1.18 1.18 0 0 1 .39.88 1.33 1.33 0 0 0 0 .21 1.37 1.37 0 0 0 .09.25v.3s-.05.1-.16.18a1.52 1.52 0 0 0-.21.19h-.18a.46.46 0 0 1-.21-.12c-.1-.08-.17-.13-.17-.16v-.05zM29.8 74c.15 0 .23.06.23.2s0 .1-.14.1c-.1 0-.14 0-.14-.14zm.46 17.9a.14.14 0 0 0 0 .28h.05a.08.08 0 0 0 .09-.09zm.05-1.94a.13.13 0 0 0-.14.14c0 .1.06.14.18.14s.1-.05.1-.14a.13.13 0 0 0-.14-.19zm-.05.83l-.05.1s0 .24.1.24l.1-.14zm.1-2c-.06 0-.1 0-.1.1s.05.18.14.18.1 0 .1-.14a.12.12 0 0 0-.14-.18zm0-1.15V88h.05c.06 0 .1 0 .1-.14s-.04-.2-.14-.27zm.14-.83c-.1.06-.14.12-.14.18a.17.17 0 0 0 .19.19c.06 0 .1 0 .1-.14zm0 11.32a.13.13 0 0 0-.14.14.17.17 0 0 0 .19.18c.06 0 .1 0 .1-.14s-.04-.22-.14-.22zm.05.5a.13.13 0 0 0-.14.14c0 .1.06.14.2.14s.1-.05.1-.14a.13.13 0 0 0-.14-.18zm.1-13.45c-.1.06-.14.12-.14.18a.12.12 0 0 0 .14.14h.05c.06 0 .1 0 .1-.14zm.1-.46c-.06 0-.1 0-.1.14s.05.18.14.18a.13.13 0 0 0 .14-.14c0-.16-.06-.22-.2-.22zm.14-9.85l-.1-.05a.09.09 0 0 0 0 .18zm.28 4.35c-.15 0-.23 0-.23.14s.1.13.28.13.1 0 .1-.13a.12.12 0 0 0-.14-.18zm.1 7.72c-.1 0-.14 0-.14.13a.17.17 0 0 0 .19.19c.06 0 .1-.06.1-.2s-.05-.17-.14-.17zm0 .78c-.07 0-.1 0-.1.1a.09.09 0 0 0 .1.1.16.16 0 0 0 0-.1zm0 9a.12.12 0 0 0 0 .09h.05a.12.12 0 0 0 .14.14h.6v-.14h-.1a.6.6 0 0 1-.28-.12.31.31 0 0 1-.18-.25zm.18.83c-.1.06-.14.12-.14.2s.05.13.14.13h.05c.06 0 .1 0 .1-.13zm.05-1.9c-.06 0-.1 0-.1.14s.05.2.14.2a.26.26 0 0 0-.09.14.18.18 0 0 0 .19.13c.06 0 .1 0 .1-.13s0-.14-.1-.14h-.1c.06 0 .1 0 .1-.14a.17.17 0 0 0-.18-.26zm.37-.18c0-.06-.05-.1-.14-.1s-.23 0-.23.14h.14zm-.2-23.85a.14.14 0 1 1 0 .28c-.07 0-.1 0-.1-.1s-.03-.2.06-.26zm.1 28.52h-.18l.1.1zm0-10c-.06 0-.1 0-.1.14a.84.84 0 0 0 0 .27c0 .1.08.14.14.14v-.23zm-.05 1.2v.1a1 1 0 0 0 0 .23c0 .1.05.14.1.14v-.18zm.05 1.43h-.05v.14c0 .25 0 .37.13.37a.29.29 0 0 0 .1-.23zm0-4.85l-.05.1s.05.23.14.23a.26.26 0 0 0 .09-.18zm0 6.42l-.05.1v.23a1.24 1.24 0 0 1 0 .27h.1s.05-.06.05-.18a.68.68 0 0 0-.17-.52zm.1-5c-.06 0-.1 0-.1.13s0 .2.14.2a.08.08 0 0 0 .09-.09zm.05 11.7h.1a.14.14 0 0 1-.05.09c-.1 0-.14 0-.14-.1s-.05-.13.02-.13zm0-13.77s-.05 0-.05.13h.05a.08.08 0 0 0 .09-.09zm.1-15.95a.16.16 0 0 1 .18.18c0 .1 0 .14-.1.14-.1 0-.14-.06-.14-.18zm-.05 15v.28h.05c.06 0 .1 0 .1-.14zm.1 9.04c-.1.07-.14.13-.14.2a.13.13 0 0 0 .14.14c.06 0 .1-.05.1-.14zm0 4.16c-.1.07-.14.13-.14.2s.06.18.2.18.14 0 .14-.13-.1-.24-.2-.24zm0 1.5c.1 0 .14.08.14.23a.09.09 0 0 1-.1.1.13.13 0 0 1-.14-.14.26.26 0 0 1 .1-.19zm0-28.56c-.06 0-.1 0-.1.14s0 .18.14.18a.12.12 0 0 0 .14-.14c.05-.13-.01-.2-.14-.2zm0 15.48v.1s0 .1.1.1h.05c.1 0 .14 0 .14-.1h-.05zm0 1.1a.08.08 0 0 0-.09.09v.1a.14.14 0 0 0 .09 0zm0 1.34v.33c.07 0 .1 0 .1-.14a.26.26 0 0 0-.1-.2zm0 1.43l-.1.14s0 .2.1.2h.05c.06 0 .1-.05.1-.14zm.05 1.48a.13.13 0 0 0-.14.14.17.17 0 0 0 .19.19c.06 0 .1 0 .1-.14s0-.2-.1-.2zm0-11.64c-.1.06-.14.1-.14.13s.06.2.18.2h.05a.08.08 0 0 0 .09-.09c.1-.17.04-.24-.08-.24zm0 16.13a.08.08 0 0 0-.09.09v.1a.13.13 0 0 0 .1 0l.1-.05zm0-15.12H32c0 .15 0 .23.1.23s.1 0 .1-.14zm0 .42c-.06 0-.1 0-.1.14s.05.18.14.18h.05c.1 0 .14 0 .14-.1a.21.21 0 0 0-.13-.24zm0-11.56h.92l-.55.1.18.2h-.1a.12.12 0 0 0-.09 0h-.2l-.14-.1zm.14 8.32a.12.12 0 0 0-.14.14.17.17 0 0 0 .18.19c.1 0 .14-.07.14-.2s.04-.15-.08-.15zm0 18.86a2.46 2.46 0 0 0 .16.28.69.69 0 0 1 .12.23s.06 0 .1-.1a.33.33 0 0 0 0-.14.12.12 0 0 1 0-.09v-.46a.53.53 0 0 0-.41-.14v.18l.14.1.1.1zm0-17.84l-.05.1s0 .1.1.1.1 0 .1-.1zm0 18.67v.1h.13zm.8-25.7c-.06 0-.1 0-.1.14s0 .2.1.2c.13 0 .2 0 .2-.1a.21.21 0 0 0-.05-.25zm0 22.1l-.1.14s0 .13.1.13c.13 0 .2 0 .2-.1s.1-.2-.05-.2zm0 3.84c.1 0 .14.06.14.18s0 .14-.1.14l-.02-.2zm.14-2.87a.14.14 0 0 0 0 .28c.12 0 .18 0 .18-.14s.08-.15-.04-.15zm.18-25.33c-.1.06-.14.1-.14.14a.13.13 0 0 0 .14.14h.05c.06 0 .1 0 .1-.14zm.46 25.38c-.1 0-.14 0-.14.13s.05.2.14.2H34c.06 0 .1 0 .1-.14zm.33-20.34a6.45 6.45 0 0 1 .32.67 5.51 5.51 0 0 0 .32.67v-.37c-.12 0-.2-.18-.2-.44a1.17 1.17 0 0 0-.35-.72l-.14-.14v.14zm5.3 19.46l.2.1a.26.26 0 0 0 .18 0h.93a.57.57 0 0 0 .3.07 4 4 0 0 0 .48 0 .65.65 0 0 0 .19 0h.46a3.29 3.29 0 0 1 .51 0h.27c-.1.07-.13.13-.13.2a.17.17 0 0 0 .18.19l.1-.1v-.1a.3.3 0 0 0-.09-.19h.7l.8-.27a3.14 3.14 0 0 0 .53-.23c.17-.1.26-.2.26-.28L45 95.2l.14-.1h.1a.78.78 0 0 0 .53-.24 2.91 2.91 0 0 0 .48-.55 3.16 3.16 0 0 0 .37-.62l.2-.4s.1-.18.27-.37a1.9 1.9 0 0 0 .33-.37 3.77 3.77 0 0 0 .28-.5l.27-.65a3.44 3.44 0 0 0 .33-.83v-.2h-.2l-.1-.14.16-.53a2.38 2.38 0 0 0 .12-.49.13.13 0 0 1 0-.1l.1-.14a1 1 0 0 0 0-.41v-.7a.41.41 0 0 0-.09-.26 1.59 1.59 0 0 1-.19-.48 2.79 2.79 0 0 0-.43-1.69 2.57 2.57 0 0 1-.44-.67l-.37-.65a3.67 3.67 0 0 0-.47-.9q-.22-.3-.6-.9a2.86 2.86 0 0 0-.44-.58q-.34-.4-.48-.4c0 .12-.12.23-.35.32a1.49 1.49 0 0 0-.44.23h-.23l-.55-.3a4.23 4.23 0 0 1-.83-.58l-.37.05c-.2.06-.46.34-.8.83l-1.2 1.96a2.67 2.67 0 0 0-.63.79c0 .15-.1.23-.16.23a4.75 4.75 0 0 1-.74 1.25 2.15 2.15 0 0 0-.51.83 1.76 1.76 0 0 1-.09.55 1.62 1.62 0 0 0-.09.37v1.6a6.94 6.94 0 0 1 0 .76 3.36 3.36 0 0 1-.32.51 2.8 2.8 0 0 1-.35.46 2.92 2.92 0 0 1-.49.42 1.48 1.48 0 0 0-.46.09l-.14.14c-.25-.06-.4-.16-.42-.28a1 1 0 0 0-.27-.42l-.42.8a.6.6 0 0 0-.05.32 1 1 0 0 1 0 .37l-.24.7a3 3 0 0 1-.11.37.81.81 0 0 0-.07.23v.48a.34.34 0 0 1-.07.16.32.32 0 0 1 0 .19v.2a1.68 1.68 0 0 1-.09.44 1.16 1.16 0 0 1-.18.4l.32-.24h.5l.34.05h.14a.2.2 0 0 0 .14-.05 2.11 2.11 0 0 1 .37.05.73.73 0 0 1 .28.09l.18.14a2.42 2.42 0 0 0 .9.11 1.11 1.11 0 0 1 .86.35h.23a.69.69 0 0 0 .23-.12l.28-.16h.1a.26.26 0 0 0 .18 0zM34.46 96c-.07 0-.1 0-.1.1s0 .18.13.18a.12.12 0 0 0 .14-.14c0-.14-.06-.14-.18-.14zm.27-.83h.05c.06 0 .1 0 .1.14s0 .2-.14.2-.13 0-.13-.14zm.2-22.17c-.1.07-.14.13-.14.2s.06.14.2.14.1 0 .1-.14zm.18 3.2v-.32L35 76zm.2 1.3a.12.12 0 0 0-.14.14c0 .1.06.13.2.13s.1 0 .1-.13a.12.12 0 0 0-.14-.16zm.1-1.16c-.07 0-.1 0-.1.1a.09.09 0 0 0 .1.1l.1-.14zm.23.6v-.37l-.14.23zm.1-.83c-.1.06-.14.1-.14.14s.07.18.23.18c.07 0 .1 0 .1-.1a.21.21 0 0 0-.19-.25zm.46 16c.1 0 .14.06.14.2s0 .14-.1.14a.13.13 0 0 1-.14-.14.26.26 0 0 1 .1-.22zm0 4.3a.08.08 0 0 0-.09.09c0 .06 0 .1.1.1h.1s-.01-.16-.1-.22zm.5-22.93a.12.12 0 0 0-.14.14c0 .13.06.2.18.2h.05a.08.08 0 0 0 .09-.09q0-.27-.18-.27zm0 18.6c.1 0 .13.1.13.27v.2s-.1 0-.14-.14a.8.8 0 0 1-.05-.23V92zm.55-19.88a.13.13 0 0 0-.14.14c0 .1.06.14.2.14s.1-.05.1-.14a.13.13 0 0 0-.14-.17zm.1 24l-.1.07a.26.26 0 0 0-.14.07v1.43a1 1 0 0 0 .07.35 1.37 1.37 0 0 1 .07.53.62.62 0 0 0 .05-.33v-.7a1.9 1.9 0 0 0 0-.6zm-.1-17.47c0 .15 0 .25.1.28a.72.72 0 0 1 .19.13l.1.1a.67.67 0 0 0 .19.37c.12.15.2.23.27.23l.37-.23v-.14a1.85 1.85 0 0 0-.16-.26l-.2-.25-.37-.37c-.12 0-.18-.06-.18-.2h-.2s0 .08-.1.14l-.1.1zm.42-4.86a.14.14 0 0 0-.09 0h-.1v.1zm0 12.1s-.05 0-.05.1l.05.1.1-.1zm0 10.3a.13.13 0 0 0-.14.14.17.17 0 0 0 .18.19c.06 0 .1 0 .1-.14s-.05-.23-.14-.23zm.1-14.84c-.1 0-.14.07-.14.2s.06.18.2.18.1 0 .1-.13zm0 1.3c-.1.06-.14.12-.14.18a.12.12 0 0 0 .14.14c.06 0 .1 0 .1-.14zm.26 1.9a.08.08 0 0 0-.09.09c0 .13 0 .2.14.2s.18 0 .18-.14-.1-.14-.23-.14zm.1-.83c-.1 0-.14 0-.14.1h.1c.1 0 .14 0 .14-.1zm.14.46c-.15.06-.23.12-.23.18s.08.14.23.14h.1v.5h-.23l.18.93s.08-.06.14-.2a2.27 2.27 0 0 0 .16-.39 1.64 1.64 0 0 0 .09-.35V85h.23a.74.74 0 0 1 .23-.51l.2-.18.28-.33a5.85 5.85 0 0 0 .34-.48l.3-.46a.71.71 0 0 0 .14-.26l.74-1.2.2-.58v-.13s-.1-.3-.32-.4a1.52 1.52 0 0 0-.65-.16h-.18a3.14 3.14 0 0 0-.88.09c0-.1 0-.13.14-.13l-.05-.14v-.03A.74.74 0 0 1 39 80a.66.66 0 0 0-.34-.14l-.14.1a.27.27 0 0 0-.23.18.93.93 0 0 0-.09.42.15.15 0 0 0 0 .09.46.46 0 0 1 0 .14h.1a.47.47 0 0 0 .07.16.42.42 0 0 1 .07.16l-.14.15a1.65 1.65 0 0 0-.11.52v.35a2.56 2.56 0 0 0 .09.6 2.79 2.79 0 0 1 .09.47v.37a4.93 4.93 0 0 0 0 .55.68.68 0 0 0 0 .19 1.1 1.1 0 0 1 0 .18zm.23-10.17h-.1a.08.08 0 0 0-.09.09c0 .06 0 .1.1.1zm0 21.77a.12.12 0 0 1 .14.14c0 .12 0 .18-.14.18a.16.16 0 0 1-.18-.18c-.03-.1.03-.14.15-.14zm0-14.2a.26.26 0 0 1 .14.19c0 .1 0 .14-.1.14h-.05q-.1 0-.1-.24a.08.08 0 0 1 .11-.09zm.1.46a.13.13 0 0 1 .14.14c0 .13 0 .2-.14.2s-.14-.06-.14-.2zm0 4.44a.51.51 0 0 1 .14.37.29.29 0 0 1 0 .19h-.05s-.06 0-.1-.14a.84.84 0 0 1 0-.27zm.18-14.14c-.12 0-.18 0-.18.14a.12.12 0 0 0 .14.14.12.12 0 0 0 .14-.14zm.14 8c.1 0 .14.08.14.23a.08.08 0 0 1-.09.09h-.05c-.1 0-.14-.06-.14-.18zM39 84c.1 0 .14.07.14.2s0 .18-.1.18-.18-.07-.18-.23zm.18-9.8c-.1 0-.14.06-.14.18a.14.14 0 0 0 .28 0zm.37.1c-.06 0-.1 0-.1.14a.16.16 0 0 0 .18.18c.07 0 .1 0 .1-.14a.17.17 0 0 0-.2-.2zm.37.14c-.06 0-.1 0-.1.13s0 .2.14.2.1 0 .1-.14-.06-.2-.15-.2zm.33-.65c-.1 0-.14 0-.14.14a.16.16 0 0 0 .18.18c.06 0 .1 0 .1-.14zm.7 1c-.06 0-.1 0-.1.13s0 .2.14.2.13-.06.13-.2-.07-.13-.2-.13zm.28-1.62c-.07 0-.1 0-.1.1s0 .18.14.18.1 0 .1-.13-.05-.14-.14-.14zm.74 1.2a.12.12 0 0 0-.14.14c0 .12.07.18.23.18s.1 0 .1-.14a.16.16 0 0 0-.14-.18zm.4.14a.12.12 0 0 0-.14.14c0 .12.06.18.2.18s.1 0 .1-.14-.06-.18-.15-.18zm.88 24.4a.91.91 0 0 1-.46.14l-.37.14h.5a1.29 1.29 0 0 0 .34-.09 1 1 0 0 0 .35-.18h-.2zm-.5-24.12l.05-.05h-.1s-.1 0-.1.1 0 .1.1.1zm.88 6.5c-.06 0-.1 0-.1.14s0 .2.14.2.1 0 .1-.14-.06-.2-.15-.2zm0-.13h.18V81zm1.1-.17h-.2c-.1 0-.16 0-.16.07l-.14.1h.5zm-.2 17.62a.11.11 0 0 0-.09 0h-.1a.08.08 0 0 0 .09.09zm.47-.22h-.2a.26.26 0 0 0 .14.09s.05.01.05-.1zm2.68-1.4l-1.3.65c-.1.06-.26.16-.5.3l-.46.26h.2l1.2-.6.48-.28c.27-.13.4-.24.4-.32zm-1.3-20.34l-.14.1a.14.14 0 0 0 0-.09v-.05a.08.08 0 0 0-.09-.09h-.1l-.13-.14h-.1c0-.12 0-.18-.13-.18h-.05c0-.1 0-.14-.1-.14s-.14.12-.14.18 0 .14.14.14c0 .13.08.2.14.2 0 .12.07.18.14.18a.28.28 0 0 0 .19.09v.23h.14a.16.16 0 0 0 .18.18c.07 0 .1-.06.1-.18s-.05-.2-.14-.2zm-.74-.28a.14.14 0 0 0 0-.09v-.1zm.37.28h.1v-.14zm1.34 17.2a.13.13 0 0 0-.14.14.17.17 0 0 0 .19.19l-.32.14-.28.55a.44.44 0 0 0-.12.19.23.23 0 0 1-.07.13v.14c0 .1-.1.25-.32.47l-.1.2h.14a.43.43 0 0 0 .23-.11l.33-.26.46-.37a.2.2 0 0 1 .05-.14v-.14h.2c.12 0 .2-.1.25-.28a1.89 1.89 0 0 0 .07-.51V94a1.29 1.29 0 0 1 0-.19s.06 0 .07-.14a1.05 1.05 0 0 0 0-.18v-.14l-.14.14a1.34 1.34 0 0 1-.16.28c-.1.15-.18.23-.2.23a.16.16 0 0 1 0 .1.12.12 0 0 0 0-.09.12.12 0 0 0-.13-.15zM46.43 77h.1v-.14zm.37.27c0 .06.07.1.2.14l.14.14v-.2c0-.12-.1-.18-.28-.18a.18.18 0 0 0-.05.05zM48.32 95a.14.14 0 0 1-.09 0h-.14l-.64.55a.75.75 0 0 0-.26.16l-.25.2v.14a1.28 1.28 0 0 0 .62-.37 1.18 1.18 0 0 1 .58-.37l.1-.1a.14.14 0 0 0 .05-.1zm.1 2.4c-.1.07-.14.1-.14.14s.06.2.18.2l-.37.18c0 .13 0 .2-.14.2h-.13a6.91 6.91 0 0 1-.51.48 2.53 2.53 0 0 1-.37.12h.46l.28-.1a.9.9 0 0 1 .27-.1 1.31 1.31 0 0 0 .56-.32c.15 0 .32-.15.5-.46a.79.79 0 0 1 .69-.46l1.48-1.53a.55.55 0 0 1 .07-.19 1 1 0 0 1 .11-.18v-.2a2.42 2.42 0 0 1-.3.37l-.88.98a1.87 1.87 0 0 1-.35.32l-1 .55s0 .1-.14.2l-.2.14s.1-.05.1-.14zm-1-19.92c-.13 0-.2.08-.2.14a.17.17 0 0 0 .19.19c.06 0 .1 0 .1-.14zm.18.37a.2.2 0 0 0 .23.23v-.18a.27.27 0 0 1-.2-.02zm.42.23a.12.12 0 0 0-.14.14c0 .13.06.2.18.2s.1 0 .1-.14-.02-.16-.1-.16zm0 1.62a.08.08 0 0 0-.09.09c0 .07 0 .1.1.1a.09.09 0 0 0 .1-.1zm.23 15.76s0 .07-.13.12a.58.58 0 0 0-.19.11h.2c.15 0 .23 0 .23-.14l-.03-.06zm-.18 1.34a.14.14 0 0 1 .09 0h.14a.26.26 0 0 0 .09-.18zm.18-16.9c-.1 0-.13 0-.13.14s0 .13.13.13a.08.08 0 0 0 .09-.09zm0 11.78a.12.12 0 0 0 0 .09l-.05.2a.26.26 0 0 0 .09-.19zm.84 1.53c-.1 0-.14 0-.14.14s.06.13.18.13l-.18.2-.1.37h-.27l-.23.65.32-.2.3-.37a3.36 3.36 0 0 0 .35-.51l.58-.6c0-.1.1-.27.2-.54l.2-.53v-.18a.39.39 0 0 0-.23.23 1.06 1.06 0 0 1-.12.26l-.25.43-.25.44a.91.91 0 0 0-.12.26c0 .06-.05.1-.14.13s.1 0 .1-.13-.04-.14-.13-.14zm-.6-12.9c-.07 0-.1 0-.1.14s0 .2.14.2a.13.13 0 0 0 .14-.14c.07-.1.01-.16-.1-.16zm.23-1.15l.44.62a3 3 0 0 0 .48.58v-.1c-.06 0-.1 0-.1-.1v-.06l-.37-.5-.37-.46zM49 96.42h-.18l.18.14zM49 95l.14-.18H49zm.32-3.42s-.08 0-.14.1l-.1.1v.14zm0 2.78c-.12 0-.18 0-.18.14s0 .13.13.13h.05c.1 0 .14 0 .14-.13zm0 1.7c-.1 0-.14 0-.14.13s0 .2.14.2.14-.06.14-.2-.03-.15-.12-.15zm.42-17.8a.24.24 0 0 0-.14.19.16.16 0 0 0 .18.18c.06 0 .1 0 .1-.14zm1.75 7.63a3.61 3.61 0 0 0 0 .39 2.63 2.63 0 0 0 .07.49l.1.55s0 .16-.05.37l-.1.74-.12.83-.05.65a9.45 9.45 0 0 1-.34 1 2.37 2.37 0 0 0-.21.88 3 3 0 0 1-.62 1.2 1.53 1.53 0 0 0-.44 1.07.17.17 0 0 0 .14-.07.15.15 0 0 1 .15 0l.14-.23a4.38 4.38 0 0 1 .2-.51 2.57 2.57 0 0 1 .44-.7c0-.1.1-.27.2-.53a2.55 2.55 0 0 1 .21-.44 4.9 4.9 0 0 1 .14-.71l.18-.77.23-1.34a6.2 6.2 0 0 0 .14-.76V86.3a6.29 6.29 0 0 0-.16-1.38 14.45 14.45 0 0 0-.59-1.91.41.41 0 0 1-.16-.21c0-.1-.08-.2-.1-.26a.75.75 0 0 0 0 .21V83a1.74 1.74 0 0 1 .19.4 1.91 1.91 0 0 1 .18.67v.78s0 .38.07.58a3 3 0 0 0 .2.45zm-1.66-5.13a.52.52 0 0 0 0 .11 3.22 3.22 0 0 0 .26.44l.27.42v-.2a.15.15 0 0 0 0-.09.29.29 0 0 1 0-.09l-.1-.28-.1-.23c-.06 0-.12 0-.18-.14a.46.46 0 0 1-.09-.18zm.17 10.6a.08.08 0 0 0-.09.09.17.17 0 0 0 .18.19.13.13 0 0 0 .14-.14c-.01-.1-.1-.14-.23-.14zm.23-.37c-.16 0-.23.06-.23.18s.07.14.23.14h.05c.06 0 .1 0 .1-.14zm.23-.83a.12.12 0 0 0-.14.14c0 .12.06.18.2.18s.1 0 .1-.14-.06-.18-.15-.18zm.14-.33a.3.3 0 0 0-.09.19.08.08 0 0 0 .09.09c.07 0 .1 0 .1-.1zm.1-10.2a.12.12 0 0 0-.14.14c0 .12.06.18.2.18s.1 0 .1-.14-.06-.18-.15-.18zm0 2.3s-.05 0-.05.14.05.32.14.32v-.18zm.1 11.88l-.1.14s0 .18.14.18a.08.08 0 0 0 .09-.09c-.01-.15-.07-.23-.2-.23zm.2-6.52c-.1 0-.13 0-.13.14h.2zm.2 6.93c-.1.07-.14.13-.14.2s0 .14.1.14a.13.13 0 0 0 .14-.14zm.32-.32a.17.17 0 0 0-.19.19c.13.04.2-.03.2-.2zm.28-.5c-.1 0-.13 0-.13.14.08.05.13-.01.13-.14zm.23-.92c-.1 0-.14 0-.14.1s.08.2.23.2.1 0 .1-.14-.07-.14-.2-.14zm.37-1.25c-.1.06-.14.1-.14.14s.06.18.2.18c.06 0 .1 0 .1-.14a.17.17 0 0 0-.15-.18zm.32-.8c-.06 0-.1 0-.1.1h.1c.07 0 .1 0 .1-.1zm.1-.64l-.1.14s0 .13.14.13.1 0 .1-.1zm.32-1.8a.12.12 0 0 0-.14.14c0 .12.06.18.2.18s.1 0 .1-.14zm1.43 4.44c.1 0 .14.08.14.23s0 .2-.14.2-.14-.06-.14-.2zm19 5.23c-.1 0-.14.07-.14.23a.26.26 0 0 0 0 .18h-.1v-.4h-.14a1.15 1.15 0 0 1-.4-.21 1.2 1.2 0 0 1-.34-.3l-.2.37a.81.81 0 0 1-.23-.23 2.81 2.81 0 0 1-.13-.3v-.4l-.56-1.06s0-.1-.14-.16l-.2-.2h-.14a2.74 2.74 0 0 0-.09-.46 2.79 2.79 0 0 1-.09-.47l-.42-.5a4 4 0 0 0-.46-.84c-.22-.3-.3-.46-.28-.46h-.55a2.24 2.24 0 0 0-.42.09l-1.45.5a2 2 0 0 0-.4.16 1.22 1.22 0 0 0-.64.16 1.25 1.25 0 0 1-.65.16h-.2a.66.66 0 0 1-.39.14 1.46 1.46 0 0 0-.39.1l-.32.06a4.89 4.89 0 0 0-.58.19 3.42 3.42 0 0 1-.6.18 2.34 2.34 0 0 1-.35.07.82.82 0 0 1-.67.21 1.06 1.06 0 0 0-.81.35l-.2.2a2.25 2.25 0 0 1-.12.21.37.37 0 0 0-.07.16l-.1.42a3.41 3.41 0 0 0-.07.81 3.22 3.22 0 0 1-.16.9v.2a1.5 1.5 0 0 0-.14.59 2.42 2.42 0 0 1-.09.56 8 8 0 0 1-.35 2.63c-.23.65-.38 1-.44 1v-.5l-.18.37-.14-.2v-.18a.59.59 0 0 0-.07-.23c0-.1-.1-.14-.12-.14l-.18-.2s-.1 0-.2.14l-.23.23a2.06 2.06 0 0 1 0 .33 1.5 1.5 0 0 1-.09.36l-.78.93-.17.18-.16.2-.23.5a.16.16 0 0 1-.07.14.08.08 0 0 1-.11 0v-2.45l-.05 1.43a2.32 2.32 0 0 1-.11-.81v-.8a8.75 8.75 0 0 1 .19-1.48 9.65 9.65 0 0 0 .18-1.61l.23-1.3a2 2 0 0 1 0-.23v-.8a.64.64 0 0 0 0-.27V95h-.32l.23-.2a1.17 1.17 0 0 0 .21-.3.8.8 0 0 0 .12-.26v-.32a.4.4 0 0 0-.1-.18.48.48 0 0 1-.09-.24v-.13l-.32-.2a.41.41 0 0 0 .32-.11l.14-.17h.05c0-.25-.07-.4-.2-.42h-.37s-.1.07-.32.12a4.21 4.21 0 0 1-.42.07h-.37l.37-.2a.9.9 0 0 0 .44-.07.6.6 0 0 0 .19-.16 1.74 1.74 0 0 0 .11-.18c0-.07.1-.1.23-.14a.2.2 0 0 1 .05-.14l.1-.14V91H56l.2-.2a.41.41 0 0 0 .19 0l.14-.1.48-.3a2.46 2.46 0 0 1 .44-.26 3.49 3.49 0 0 1 .6-.09 2.55 2.55 0 0 0 .56-.09l.18-.2h-1.26l.74-.37h-.55v-3.54c0-.2 0-.64.07-1.36l.13-2.34.14-2.36.07-1.38v-.28h-.18a1.18 1.18 0 0 0-.21.07.67.67 0 0 1-.21.07H57a1.37 1.37 0 0 1-.41-.32 2.64 2.64 0 0 1-.37-.42V77a.26.26 0 0 0 .18 0l.2-.1.3-.12.25-.07h.23a.16.16 0 0 0 0 .1v.1l-.1.1a.14.14 0 0 1-.09 0 .32.32 0 0 0 .19.32.81.81 0 0 0 .37.09.48.48 0 0 0 .41-.41v-.33a.61.61 0 0 1-.11-.16.33.33 0 0 1-.07-.16c0-.2.08-.34.25-.37s.26-.23.26-.6l.2-.55.33-1 .27-1a3.26 3.26 0 0 0 .12-.6l.2-.4a5.59 5.59 0 0 0 .41-1l.35-1.2a10.54 10.54 0 0 1 .39-1.2 2.67 2.67 0 0 1 .6-1c0-.06.1-.2.33-.37a1.66 1.66 0 0 1 .6-.37v1.8h.14c.12-.06.27-.15.46-.27a1.21 1.21 0 0 0 .32-.28v-.05a1.6 1.6 0 0 0-.11-.44 1.32 1.32 0 0 1-.12-.44H63v-.18s0-.1.13-.16a1.1 1.1 0 0 1 .24-.16l.46 1.06V65.9l.6 1.3a.42.42 0 0 1 .14.12c0 .05.06.07.1.07a.4.4 0 0 0 .21-.07.82.82 0 0 0 .13-.12v.2c0 .1.06.14.18.14h.74a1.42 1.42 0 0 1 .37.09 1.62 1.62 0 0 0 .37.09l.14.1a.14.14 0 0 1 0 .09v.18a.29.29 0 0 1 0 .09.15.15 0 0 0 0 .09l-.1.14v.6a.94.94 0 0 0 .14.34l.3.5.3.44.1.14L68.66 73l.28.5c0 .1.1.24.18.46l.28.65.28.6a1.89 1.89 0 0 0 .18.32q0 .14.33.72l.62 1.25.67 1.27a8.4 8.4 0 0 0 .42.74l.18.37a7.09 7.09 0 0 1 .63 1.17 6.54 6.54 0 0 1 .2.67 1 1 0 0 1 0 .31l.07.06s.12.07.18.2l.2.4.16.42a2.25 2.25 0 0 1 .07.25l.37.93.25.7a2.44 2.44 0 0 1 .12.37l.13.1a.31.31 0 0 0 .19.05.62.62 0 0 0 .37.14l.32.14h-.88l.2.23a.74.74 0 0 0 .37 0h.32l-.5.32-.05.14.05.05a.75.75 0 0 0 .25.11 1 1 0 0 0 .31.07l-.37.37c0 .13.06.2.18.2h.2a1.27 1.27 0 0 0 .11-.17.33.33 0 0 0 .07-.16l.37.14a1.64 1.64 0 0 0-.23.16c-.1.08-.14.15-.14.2v.37l-.18.2.18.14a1.71 1.71 0 0 0 .16.46l.2.46.18.18v.56a.26.26 0 0 0 .05.18l.18.42a2.15 2.15 0 0 1 .33.71 2.72 2.72 0 0 0 .13.63v.23l-.1.32a1.06 1.06 0 0 0 0 .33v1.7h-.2v.7a3.61 3.61 0 0 0 .1.56l.1.5v.4h-.37v1.42a.17.17 0 0 0-.19.18 2 2 0 0 0 .1.28 1.11 1.11 0 0 1 .09.28v.18l-.1.1a.14.14 0 0 1-.1 0v.18a6.22 6.22 0 0 1 .28.67 3.85 3.85 0 0 0 .28.63h-.2l-.37-.2H76a.55.55 0 0 1-.19-.07.63.63 0 0 1-.18-.11v.55l-.14-.1-.23-.1-.18.18h-.18c-.15 0-.26-.13-.32-.4a3.32 3.32 0 0 1-.1-.53h.24v-.2a.56.56 0 0 0-.1-.18.48.48 0 0 1-.09-.19l-.18-.1a.16.16 0 0 0-.09 0h-.1l-.13.1.18-.32v-.18l-.14-.1a.18.18 0 0 1 0-.14h-.2v-.32h-.14a.28.28 0 0 0 .1-.18zm-17.38-6a.26.26 0 0 1-.14.09.32.32 0 0 1-.23-.09c0-.06.07-.1.23-.1s.2.06.2.12zm.55-.32a.09.09 0 1 1-.09-.09.08.08 0 0 1 .14.12zm0 .32h-.18l.32-.1h-.05zm0 8.37l-.05.1a.08.08 0 0 0 .09.09h.1zm0 .55s-.05 0-.05.1a.09.09 0 1 0 .18 0zm.23-1.8v.7a.41.41 0 0 0 .1-.32 1.27 1.27 0 0 0-.06-.34zm.14-.74v.37c.06 0 .1 0 .1-.14zm0 3.47v.1a.08.08 0 0 0 .09.09c.1 0 .14-.07.14-.14zm0 .74q-.1 0-.1.18c0 .1 0 .14.1.14a.13.13 0 0 0 .14-.14zm.2 1.24c.1 0 .14.07.14.2s0 .18-.14.18-.14-.06-.14-.18zm0-6.2h-.05v.2h.05c.1 0 .14 0 .14-.1zm0 3.47h-.05v.1s0 .1.1.1.14 0 .14-.1zm.18-4.2h-.18a.08.08 0 0 0 .09.09zm0 2.9c-.1 0-.14.08-.14.24s0 .13.1.13a.27.27 0 0 0-.1.19c0 .12 0 .18.14.18s.14-.06.14-.18a.3.3 0 0 0-.09-.19c.06 0 .1 0 .1-.13zm.42-1.3l-.23.6v.32c.15 0 .23-.06.23-.18zm0-11.6c-.13 0-.2.07-.2.23s.06.18.2.18.14-.06.14-.18zm0 .55v.74a.53.53 0 0 0 .09-.37 1.62 1.62 0 0 0-.04-.34zm1.34 9.06a7.19 7.19 0 0 0-.33.93l-.18.74-.2.83q-.12.47-.4 1.3a2.82 2.82 0 0 0-.28 1.11v.9a.78.78 0 0 1 0 .32v-.18a8.4 8.4 0 0 1 .53-2.64 32.57 32.57 0 0 0 .9-3.23V96zm-1.3-10.14h.18v-.5zm.5 9.3l-.14.65a2.92 2.92 0 0 0-.19.76v.67a1.33 1.33 0 0 0 0 .26v.2l.2-.74a4.4 4.4 0 0 0 .14-.7l.23-.92v-.37zm0 2.32s-.05 0-.05.13 0 .1.05.1.18 0 .18-.1-.06-.1-.18-.13zm.23-6.85a.17.17 0 0 0-.19.19c0 .12.06.18.2.18s.14-.06.14-.18zm0-2.9v.37c.06 0 .1 0 .1-.14zm.18-1.85c-.1 0-.14.07-.14.2s.05.18.14.18.14-.06.14-.18zm0 4c-.1 0-.14.07-.14.2s.05.18.14.18.14-.06.14-.18zm.74 9.43l-.23.37v.54a1.47 1.47 0 0 1-.13.57v.56h.18s.07-.2.12-.58l.1-.9zm-.23-12.7c-.1 0-.14.06-.14.2s.05.18.14.18a.17.17 0 0 0 .19-.18.17.17 0 0 0-.19-.19zm0 2.73c-.1 0-.14.06-.14.18s.05.2.14.2a.17.17 0 0 0 .19-.19.17.17 0 0 0-.19-.18zm0 1.48c-.1 0-.14.06-.14.18s.05.2.14.2a.17.17 0 1 0 0-.38zm.23 4a.17.17 0 0 0-.18.19.16.16 0 0 0 .18.18c.1 0 .14-.06.14-.18zm.2-12.52c-.1 0-.14.06-.14.18s0 .14.14.14a.12.12 0 0 0 .14-.14zm0 1.3c-.1 0-.14.06-.14.2a.12.12 0 0 0 .14.14.13.13 0 0 0 .14-.14zm0 7.26c-.1 0-.14.06-.14.18s0 .2.14.2.14-.06.14-.2zm.6-1.48c0-.06-.08-.1-.23-.1s-.2 0-.2.1.06.1.2.1zm.14-17.93h-.1v.65h.05a.53.53 0 0 0 .09-.37zm.18-1.48h-.05v.1a.08.08 0 0 0 .09.09.29.29 0 0 0 .09-.13zm.2 17.56c-.1 0-.14.08-.14.23s0 .2.14.2.1-.13.1-.22zm1.84-1.06l-.07.1-.1.1a1.52 1.52 0 0 1-.12.51 2.11 2.11 0 0 0-.11.42h.14a.14.14 0 0 0 .09 0 1.09 1.09 0 0 0 .25-.05 4 4 0 0 0 .44-.11l.42-.12h.23a2.61 2.61 0 0 0 .37-.07 2.25 2.25 0 0 0 .37-.12 2.48 2.48 0 0 0 .44-.09l.76-.18.76-.2a2.67 2.67 0 0 1 .44-.09.8.8 0 0 0 .23-.05.26.26 0 0 0 .19-.14v-.14a7.27 7.27 0 0 1-.9-1.94 13.9 13.9 0 0 0-.81-2.08 1.55 1.55 0 0 1-.37-.74c-.1-.34-.22-.5-.37-.5a1.85 1.85 0 0 0-.46-.23 2 2 0 0 0-.46-.13l-.28-.2a.71.71 0 0 0-.33-.16h-.13c-.07 0-.13.16-.2.48l-.18 1.13-.17 1.32-.07 1zm.42 3.83c-.1 0-.14.07-.14.2s0 .18.14.18.14-.06.14-.18zm1.48-23.66c.1 0 .14.08.14.23s0 .18-.14.18a.16.16 0 0 1-.18-.18c0-.18.06-.26.18-.26zm2.82 20l-.72.2q-.4.1-.4.18l-.1.1a.19.19 0 0 0-.05.1h.33l1.1-.2v-.4zm-.2-12.52a.16.16 0 0 0-.18.18.17.17 0 0 0 .18.19c.1 0 .14-.07.14-.2zm.37 8v.1a.08.08 0 0 0 .09.09c.07 0 .1 0 .1-.1zm.14 5.1q-.1 0-.1.18c0 .1 0 .14.1.14s.2-.05.2-.14-.06-.2-.2-.2zm.42-14c-.1 0-.14.08-.14.23s0 .2.14.2.14-.06.14-.2zm0 10.17c-.06 0-.1 0-.1.14a.08.08 0 0 0 .09.09.12.12 0 0 0 0-.18zm.18.42c-.1 0-.14.06-.14.18a.12.12 0 0 0 .14.14c.1 0 .14 0 .14-.14zm0-10.17v.1a.08.08 0 0 0 .09.09h.05l-.14-.22zm.74 11.78c-.1 0-.14.07-.14.2a.14.14 0 1 0 .28 0zm0 3.6c-.1 0-.14.06-.14.18s0 .2.14.2.14-.06.14-.2zm.2-10.72c-.1 0-.14.06-.14.18s0 .2.14.2.14-.06.14-.2zM69.5 85h.23v-.1a.57.57 0 0 1-.07-.3.61.61 0 0 0-.12-.35h-.14zm0-2.36v.2h.05a.16.16 0 0 1-.05-.19zm.14-3.46v.1a.08.08 0 0 0 .09.09c.1 0 .14 0 .14-.1zm0 3.83v.1a.09.09 0 1 0 .18 0zm0 2.36v.1a.09.09 0 1 0 .18 0zm0 2.17c-.06 0-.1.06-.1.2s0 .18.1.18a.17.17 0 0 0 .19-.18.17.17 0 0 0-.19-.19zm.37-2.68c0 .22.08.32.23.32V85a.85.85 0 0 0-.07-.28c0-.12-.08-.2-.1-.28v.14zm.23 2.5c-.1 0-.14.06-.14.18a.14.14 0 0 0 .28 0zm.42-2.68c-.13 0-.2.06-.2.18s.06.14.2.14a.13.13 0 0 0 .14-.14zm.18-3.1c-.1 0-.14.06-.14.18a.12.12 0 0 0 .14.14c.06 0 .1 0 .1-.14zM71 95.35c.1 0 .14.07.14.2s0 .18-.14.18-.1-.06-.1-.18zm.28.65a.14.14 0 0 0 .09 0 .12.12 0 0 0 0 .09v.1l-.18-.23v-.14zm.1-13.36c-.1 0-.14.07-.14.2s0 .18.14.18a.17.17 0 0 0 .19-.18.17.17 0 0 0-.22-.19zm0 10c-.1 0-.14.06-.14.18s0 .2.14.2a.17.17 0 0 0 .19-.19.17.17 0 0 0-.22-.19zm.23-12.7a.16.16 0 0 0-.18.18.17.17 0 0 0 .18.19c.1 0 .14-.07.14-.2zm0 13.08c-.07 0-.1 0-.1.1s0 .1.14.1h.05a.12.12 0 0 0 0-.07.09.09 0 0 1-.12-.12zm.1.5a.58.58 0 0 0 0 .19.19.19 0 0 0 .11.14l.1.1v-.18a.44.44 0 0 0-.07-.21.37.37 0 0 1-.07-.16zm.24-5.82a.16.16 0 0 0-.1-.05l-.1.05h.05v.14zm0-4.16c-.07 0-.1.08-.1.23s0 .2.1.2a.13.13 0 0 0 .14.14c.12 0 .2 0 .2-.14a.17.17 0 0 0-.19-.19zm.18-2.3c-.1 0-.14.06-.14.18s0 .2.14.2a.17.17 0 0 0 .19-.19.17.17 0 0 0-.22-.19zm-.14 2.73c.06 0 .1-.06.1-.2zm.14 10.3l.42.74c0 .13.06.2.18.2V95l-.2-.37a1.06 1.06 0 0 1-.16-.37zm.23-10.16a.18.18 0 1 0 0 .36c.1 0 .14-.06.14-.18zm.2 13.6a.48.48 0 0 0 .09.23l.23.36.2.38h-.14a.78.78 0 0 1-.23-.28.9.9 0 0 1-.14-.28l-.2-.18zm0-13.23a.12.12 0 0 0-.14.14c0 .07 0 .1.14.1v-.14zm0 2.92c-.1 0-.14.06-.14.18a.12.12 0 0 0 .14.14.13.13 0 0 0 .14-.14zm0-4.8a.2.2 0 0 0 .07.16 1 1 0 0 1 .16.3v-.37a.46.46 0 0 0-.09-.18.48.48 0 0 1-.09-.19.14.14 0 0 0 0 .1zm.23 2.13c-.1 0-.14.06-.14.18a.14.14 0 1 0 .28 0zm.2-1.48h-.05v.18h.05a.26.26 0 0 0 .09-.14zm0 12.15h-.05v.1s0 .1.1.1a.08.08 0 0 0 .09-.09zM73 83.52c-.07 0-.1.08-.1.23v.2h.1c.06 0 .1-.06.1-.2l-.1-.23zm0 12c-.07 0-.1.06-.1.18s0 .14.1.14.18 0 .18-.14a.16.16 0 0 0-.18-.16zm.23-9.25a.17.17 0 0 0-.19.19c0 .1.06.14.2.14a.13.13 0 0 0 .14-.14zm0-2.2c-.07 0-.1.07-.1.23v.18c.06 0 .1 0 .1-.13s.08-.08.02-.26zm0 11.78v.2h.1zm.18.2c-.1 0-.14.07-.14.23s0 .18.14.18c0 .1 0 .14.14.14a.12.12 0 0 0 .14-.14c0-.12 0-.18-.14-.18zm0-11h.2l-.2-.32zm0 11.46q.1 0 .1-.18zm.14 4.72c.1 0 .14.06.14.18s0 .2-.14.2-.14-.06-.14-.2zm.18-14.56c-.1 0-.14.07-.14.23s0 .18.14.18.14-.06.14-.18zm0 14.93c.1 0 .14.06.14.18s-.05.2-.14.2-.14-.07-.14-.2zm.56-2.22a.26.26 0 0 1 .09.14h-.1s-.1 0-.1-.1zm.37-7.63c-.1 0-.14.08-.14.23s0 .2.14.2.13-.06.13-.2zm.18.42c-.1 0-.14.06-.14.18a.14.14 0 1 0 .28 0zm.01 7.85q0 .27.24.27v-.18l-.1-.1-.07-.1zm.42-7.12c-.1 0-.14.06-.14.18a.14.14 0 0 0 .28 0zm0 7.76c.1 0 .14.06.14.2s0 .18-.14.18-.14-.06-.14-.18zm.2-7.44c-.1 0-.14.06-.14.2s0 .13.14.13c0 .12 0 .2.14.2s.14-.07.14-.2 0-.18-.14-.18zm0 7.8l.18.2v.18l-.18-.18zm0-7.5c.06 0 .1 0 .1-.13zm.14 3.66c-.1 0-.14.06-.14.18s0 .2.14.2c0 .1 0 .14.13.14a.12.12 0 0 0 .14-.14c0-.13 0-.2-.14-.2zm.18-3.24c-.1 0-.13.06-.13.2s0 .13.13.13.14 0 .14-.13zm-.13 3.6c.06 0 .1-.07.1-.2zm.13 3.1c.1 0 .14.06.14.2s0 .18-.14.18-.13-.06-.13-.18zm.22-13.1c.1 0 .14.06.14.2s-.05.18-.14.18-.14-.06-.14-.18zm0 10.13c-.1 0-.14.07-.14.23s0 .18.14.18.14-.06.14-.18zm0-3.2v.1a.09.09 0 1 0 .18 0zm0 3.92c-.06 0-.1 0-.1.14s0 .1.1.1.1 0 .1-.1zm.18-3.6c-.1 0-.13.06-.13.18s0 .2.13.2.14-.06.14-.2zm0-3.6s-.05 0-.05.1a.08.08 0 0 0 .09.09c.07 0 .1 0 .1-.1zm0 5.83h-.1c0 .06 0 .1.1.1a.09.09 0 0 0 .1-.1zm.2-5.32v.2h.1zm.18 6.2c.1 0 .14.06.14.18a.12.12 0 0 1-.14.14c-.1 0-.13 0-.13-.14zm0-5.6v.18c.07 0 .1 0 .1-.1zm0 6.66c.07 0 .1 0 .1.1s0 .1-.1.1h-.1zm.2.18c.1 0 .14.07.14.2s0 .18-.14.18-.14-.06-.14-.18zm.18.74c.1 0 .14.07.14.2s0 .18-.14.18-.13-.06-.13-.18zm0 .56c.1 0 .14.06.14.18s0 .2-.14.2-.13-.06-.13-.2zm0-7.58h.1c0 .07 0 .1-.1.1s-.1 0-.1-.1h.1zm0 1.8h.1c0 .06 0 .1-.1.1a.08.08 0 0 1-.09-.09h.1zm0 4.85c.07 0 .1 0 .1.1s0 .1-.1.1a.08.08 0 0 1-.09-.09zm0-2.9l.37.2v.88a2.45 2.45 0 0 1-.18-.4l-.2-.48zm.2-4.3c.1 0 .14.06.14.2a.14.14 0 1 1-.28 0zm0 8.5c.1 0 .14.06.14.18s-.05.2-.14.2-.1-.06-.1-.18zm0-7.63a.08.08 0 0 1 .09.09c0 .07 0 .1-.1.1h-.05v-.1a.08.08 0 0 1 .06-.09zm.18.56c.07 0 .1 0 .1.1s0 .1-.1.1a.09.09 0 0 1 0-.18zm7.36 17.65v.6h-.23a2.89 2.89 0 0 0-.28-1.25 3 3 0 0 1-.27-1.25 8.89 8.89 0 0 1-.42-2.29v-2l.27-.05.1-.1a1.14 1.14 0 0 0 .17-.37 1.78 1.78 0 0 0 .11-.46v-3.2a4.22 4.22 0 0 0-.07-.44 2.11 2.11 0 0 0-.11-.48v-.46a3.81 3.81 0 0 0-.19-1.37l-.32-.85v1.65l-.28-.93a.81.81 0 0 1-.07-.34v-1.27a1.5 1.5 0 0 0-.07-.38.62.62 0 0 0 0-.27v-.46c0-.16-.05-.55-.14-1.18a17.67 17.67 0 0 1-.14-2.43v-.23c0-.06 0-.28-.1-.67a6.47 6.47 0 0 1-.12-.67v-3.74a3.86 3.86 0 0 0 0-.88l-.2-1.1-.18-.7-.42-.4c-.06-.2-.13-.5-.23-.93a5.49 5.49 0 0 1-.14-.87 4.26 4.26 0 0 0 .44-.49.91.91 0 0 0 .16-.58v-.27a.54.54 0 0 1 .11-.26.59.59 0 0 0 .12-.21v-.1a1.08 1.08 0 0 1-.25-.09.91.91 0 0 0-.3-.09l-.3.34a1.36 1.36 0 0 0-.26.4 3.09 3.09 0 0 0-.09.5c0 .25-.07.52-.1.8l-.12.83a4.82 4.82 0 0 1-.09.58v.23l.4-.23-.83 1.53a9.75 9.75 0 0 1-.6 1.75c-.25.56-.5.88-.74 1a17.78 17.78 0 0 1 .7-2 5.73 5.73 0 0 0 .41-2.19v-.28l.25-1.22a8 8 0 0 0 .16-1.5.5.5 0 0 1 .1-.26.58.58 0 0 0 .09-.25v-.2a.46.46 0 0 1 0-.14.15.15 0 0 0 0-.09.3.3 0 0 0 0-.12.63.63 0 0 1 0-.16v-.18a2.13 2.13 0 0 0-.09-.33 1.19 1.19 0 0 1-.1-.37v-1.2q0-.18.12-.6a4 4 0 0 0 .07-.51l.23-.46a4 4 0 0 0 .25-.51 1.64 1.64 0 0 0 .12-.65 1.69 1.69 0 0 0 .18-.37l.33-.74.32-.76a2.82 2.82 0 0 0 .14-.39 1.06 1.06 0 0 0 .09-.4c0-.23.06-.4.1-.53v-.23l-.3-.32a2.76 2.76 0 0 1-.3-.37v-.65a2.36 2.36 0 0 0 .14-.62 3.39 3.39 0 0 1 .28-.86l.18-.74a.48.48 0 0 1 .28-.28h.37a.61.61 0 0 0 .51.21c.2 0 .28.1.28.3l.1.2a.2.2 0 0 0 0 .11.09.09 0 0 1 0 .07v.05a2 2 0 0 0 0 .25c0 .14.07.3.1.44l.14.44a1.1 1.1 0 0 1 .07.26l.2.18h.1a.41.41 0 0 0 .16 0 3 3 0 0 0 .44 0h.3l.28.23c.16.13.26.2.32.2l.05.1.14-.1c.06 0 .14-.06.23-.17a2.06 2.06 0 0 0 .19-.25v-.18H86l.23-.23.28-.1 1-.44 1.07-.4a2.9 2.9 0 0 1 .74-.23 6.73 6.73 0 0 0 .83-.23l1.2-.23.63-.14h1.2q.4 0 .78.06a6.62 6.62 0 0 0 .7.07 1.42 1.42 0 0 1 .39.07h.23a4.11 4.11 0 0 1 1.06.14l.88.28-.18.23a6.63 6.63 0 0 0-.74-.07c-.34 0-.7 0-1.07-.07l-1.08-.07H92.1c-.28 0-.55 0-.8.07a3.21 3.21 0 0 0-.53.09l.2.28a4.82 4.82 0 0 0-1.07.14q-.65.14-1.1.27a.48.48 0 0 1-.09-.13c0-.07-.06-.1-.1-.1h-.42a1.4 1.4 0 0 0-.69.19c-.22.12-.32.2-.32.28a.14.14 0 0 1 .13.09.56.56 0 0 0 .1.14l-.05.18h.23a2 2 0 0 0 .83-.21 2.31 2.31 0 0 1 1-.2h.2a3.33 3.33 0 0 1 .69-.14h.5l1.57-.32h-.83l1.4-.1.18.18.37-.18a.32.32 0 0 1 .23-.09h.2v.27h.6l-.2-.18h1v.55h.7l-.46.14c-.3.06-.48.14-.5.23s-.07.14-.14.14a3.42 3.42 0 0 0 .49.14 3.23 3.23 0 0 0 .48.09l.2.2a1 1 0 0 0 .42.16 2.37 2.37 0 0 0 .37.07l.23.28-.23.23h1.38l-.37.18v.23a.2.2 0 0 0 .23.23q0 .15-.3.3a1.12 1.12 0 0 1-.53.17.28.28 0 0 0 .09.19l.1.14h1.43l-1.15.74h-.23a.7.7 0 0 1-.3.13.7.7 0 0 0-.3.14 3.13 3.13 0 0 1 .41.21.39.39 0 0 1 .19.35h2l-2.35.83a2.68 2.68 0 0 0-.28.3c-.1.1-.17.16-.23.16a.39.39 0 0 1-.16 0 .44.44 0 0 0-.17 0s-.08.07-.25.13a1.31 1.31 0 0 1-.3.1h-.37a1.72 1.72 0 0 0-.39.11 6.4 6.4 0 0 1-.7.23l-.8.23a2.5 2.5 0 0 1-.69.12 11.68 11.68 0 0 0-1.39.09l-1.4.23-1.55.37v3.62s0 .66.07 1a5.58 5.58 0 0 0 .09.65 8.41 8.41 0 0 1 .81-.28 2.62 2.62 0 0 1 .76-.14.27.27 0 0 1 .25-.28 2.26 2.26 0 0 1 .35 0v.32h.2a.75.75 0 0 1 .21 0h.13a.58.58 0 0 0 .1.11l.1.1h1.36l1.44.12a10.46 10.46 0 0 1 1.11.16c.3.06.43.1.43.14v.23h-.36v.23l.1.1v.1l-.27.1-.2.1a.12.12 0 0 1-.09 0 6 6 0 0 0-1.03.09 2 2 0 0 0-.93.34l.32.05c.16 0 .25.08.28.14l.05.1a.12.12 0 0 0 0 .09h-.5a.26.26 0 0 0 .09.14l.1.1a.89.89 0 0 0 .44.17 3.6 3.6 0 0 0 .58.07h.18l.23.23a.2.2 0 0 0 .14 0h.14a.48.48 0 0 1-.14.26.44.44 0 0 1-.37.16c0 .12 0 .2.12.23a2 2 0 0 0 .58 0h.46l-1.34.74h1a1.68 1.68 0 0 1-.7.9 3.45 3.45 0 0 1-1.11.57v.5h.1a.13.13 0 0 0 .1 0l.32.34a2.49 2.49 0 0 1 .28.35.91.91 0 0 0-.3.09 1 1 0 0 1-.3.1v.27c0 .06-.1.13-.26.2a4.18 4.18 0 0 1-.53.21 6.41 6.41 0 0 1-.78.23l-1.76 1.85h-1.24a1.22 1.22 0 0 1-.42-.19 2.34 2.34 0 0 1-.41-.27h-.2L88 92.3c-.1.06-.2.34-.28.84a8 8 0 0 0-.14 1.43 1.18 1.18 0 0 0-.21.85 2.44 2.44 0 0 1-.07.9V96l-.32 1.23a7.17 7.17 0 0 0-.18 1.64l-.2 1.62h-.18c0-.12 0-.4.06-.8l.12-.83v-.23l-.12-.5-.06-.4-.33-.14a.12.12 0 0 1-.09 0v-.32c0-.07.1-.1.2-.14a.64.64 0 0 1 .21 0 2.32 2.32 0 0 0-.21-1 2.22 2.22 0 0 0-.4-.65h-.23l.42.88h-.6l-.2-.2v1a.42.42 0 0 0 .14-.09.26.26 0 0 1 .14-.09h.1v2.3a.93.93 0 0 1 .19-.46.53.53 0 0 1 .46-.28v1.4a.21.21 0 0 1-.09.16.35.35 0 0 1-.14.07l-.2-.46-.4.46v.23a.22.22 0 0 0 .14.21.68.68 0 0 0 .27.07.27.27 0 0 0 .19 0 3.21 3.21 0 0 1 .14.55 4.24 4.24 0 0 1 .09.6 6.24 6.24 0 0 1-.07.86c0 .35-.1.72-.14 1.1l-.14 1.06a7.68 7.68 0 0 0-.07.83c0 .1 0 .3.07.6a3.22 3.22 0 0 0 .12.56s-.07 0-.12.1a.35.35 0 0 0-.07.14v.7c0 .06 0 .25.1.56a3.87 3.87 0 0 1 .09.6v1.15a4.37 4.37 0 0 1-.07.53 3.33 3.33 0 0 1-.12.58l-.23-.23-.27.23v3a.91.91 0 0 1-.1-.35c0-.2 0-.43-.07-.7s0-.52-.06-.77a5 5 0 0 0-.1-.51v-.46zm-4.53-15.9c.06 0 .1 0 .1.1s0 .08-.1.14-.1 0-.1-.14a.08.08 0 0 1 .09-.09zm.6-13.86c.1 0 .14.07.14.23s0 .23-.14.23-.18-.08-.18-.23.06-.23.18-.23zm.2 2.9a.26.26 0 0 1 .09.14.08.08 0 0 1-.09.09v-.1zm.37 9.1c.1 0 .14.1.14.28s0 .23-.14.23-.14-.07-.14-.23zm.18-11.55h.2v-.23h-.2zm.2 8.6a.08.08 0 0 1-.09.09c-.07 0-.1 0-.1-.1s.05-.1.14-.1h.05zm.6-13.6v.4c.1 0 .14-.06.14-.18zm.42 1.1l-.05.1s0 .14.1.14.1 0 .1-.14zm.46-6.6v.46l.42.23.1-.1a.26.26 0 0 0 .09-.14v-.46l-.6-.7h-.23l-.1.23-.14.37v.1zm-.28 5.73c-.12 0-.18.06-.18.2h.14c.1 0 .14 0 .14-.1zm.23 22.18v.24l-.23-.24zm.2 4.8a.08.08 0 0 1 .09.09c0 .1 0 .14-.1.14s-.1 0-.1-.14.03-.1.1-.1zm.23-.92h-.23v-1.34zm.55-6.1c-.1 0-.14.07-.14.23s0 .18.14.18.14-.06.14-.18zm.1-1l-.14-.16-.05.1s0 .14.1.14a.08.08 0 0 0 .1-.09zm0 .7l-.14-.16s-.05 0-.05.14 0 .14.1.14a.26.26 0 0 0 .1-.11zm.5 1.43c0 .1-.07.26-.14.5a2.48 2.48 0 0 0-.09.44v2.5a1.77 1.77 0 0 0 .07-.46c0-.2 0-.44.07-.7s0-.48.07-.7v-.47zm.2 5.7c-.1 0-.14.08-.14.23s0 .23.14.23.14-.08.14-.23zm0 8.18a6.89 6.89 0 0 1 0 2.22v.05-1.4a2.32 2.32 0 0 1 0-.46zm.18-8.64c-.13 0-.2.08-.2.23a.12.12 0 0 0 .09 0c.1 0 .14 0 .14-.13zm.23-4.8c-.15 0-.23.1-.23.28v1.34c.06 0 .12-.14.16-.33a1.6 1.6 0 0 0 .07-.36zm-.23 16a6 6 0 0 1 .1 1.15A5.85 5.85 0 0 1 85 117zm.23-21.54c-.12 0-.18.07-.18.23s.05.18.14.18a.34.34 0 0 0-.14.28c0 .16.06.23.18.23s.14-.07.14-.23a.41.41 0 0 0-.09-.28q.1 0 .1-.18zm0 1.57c-.12 0-.18.08-.18.23s.06.23.18.23.14-.08.14-.23zm0-.46v.1s0 .14.1.14.1 0 .1-.14zm0 1.15v.1s0 .14.1.14l.1-.14zm.37-3.42c-.1 0-.14.08-.14.23s0 .2.1.2a.38.38 0 0 0-.1.28c0 .15 0 .23.14.23s.2-.08.2-.23a.31.31 0 0 0-.14-.28c.1 0 .14-.06.14-.2s-.06-.3-.2-.3zm0 1.57c-.1 0-.14.1-.14.28s0 .23.14.23.2-.07.2-.23-.06-.35-.2-.35zm0 12.94c-.1 0-.14.08-.14.24s0 .23.14.23.2-.08.2-.23-.06-.3-.2-.3zm0-15.2v.1s0 .14.1.14.1 0 .1-.14zm0 10.17q-.1 0-.1.18v.1a.17.17 0 0 0 0-.13zm0-7a1.18 1.18 0 0 0 .07.21 1 1 0 0 0 .16.25v-.46a.3.3 0 0 0-.06-.14.21.21 0 0 0-.17-.09zm.23 6.33c-.12 0-.18.08-.18.23s.06.23.18.23.14-.08.14-.23zm0 2q-.18 0-.18.24c0 .15.06.23.18.23s.14-.08.14-.23zm.15-4.78c.12 0 .18.08.18.23s-.06.2-.18.2-.14-.06-.14-.2zm.42-27.68a.09.09 0 0 0-.1-.1c-.06 0-.1 0-.1.1a.08.08 0 0 0 .09.09zm0 30.18c.1 0 .13.08.13.23s0 .23-.13.23-.14-.08-.14-.23zm0 1.4c.1 0 .13.07.13.23s0 .18-.13.18-.14-.06-.14-.18zm.18-8.83s-.06.07-.1.23a2.38 2.38 0 0 0 0 .46 3.1 3.1 0 0 0 0 .44c0 .14 0 .2.1.2a2.33 2.33 0 0 0 .09-.7 2.06 2.06 0 0 0-.07-.64zm0-22.33l.1.1.1-.1s.06 0 .1-.1a.25.25 0 0 0 .07-.14zm.2 3.47c-.1 0-.14.08-.14.23s0 .2.14.2.13-.07.13-.2zm0 22c-.1 0-.14.1-.14.28s0 .23.14.23.13-.08.13-.23zm1.2-24.3l-.74.1c-.3 0-.46.08-.46.14v.23h2.8l.37-.46zm-1 21.58c-.1 0-.14.1-.14.28s0 .23.14.23.14-.07.14-.23zm.1-23.3l.14-.14h-.1s-.14 0-.14.1a.08.08 0 0 0 .1.05zm0 24.08a.12.12 0 0 0 0 .09V95l.42-.46zm.33-1.2c-.13 0-.2.07-.2.23s.06.18.2.18.13-.06.13-.18zm0 4.48c.1 0 .13.08.13.23s0 .23-.13.23-.2-.07-.2-.23.07-.23.2-.23zm.37-28c-.1 0-.14.1-.14.27s0 .24.14.24.2-.04.2-.22-.08-.25-.2-.25zm0 27.13c.12 0 .18.08.18.23a.17.17 0 0 1-.18.19c-.1 0-.14-.07-.14-.2zM88 70.5c0-.07 0-.1-.14-.1s-.1 0-.1.1a.08.08 0 0 0 .09.09zm0 27.22c.1 0 .14.08.14.23s0 .23-.14.23-.2-.07-.2-.23.1-.23.2-.23zm.18-28.15c-.1 0-.14.08-.14.23s.05.2.14.2.14-.06.14-.2zm0 16.32c-.1 0-.14.1-.14.28s.05.23.14.23.14-.08.14-.23zm0 6.6a.08.08 0 0 1 .09.09.3.3 0 0 1-.09.19c-.06 0-.1 0-.1-.14zm.2-23.8a.21.21 0 0 1 0 .14c0 .1 0 .14-.14.14s-.13 0-.13-.14a.16.16 0 0 1 .18-.18zM88.4 90c-.1 0-.14.08-.14.23s0 .23.14.23.18-.07.18-.23-.06-.23-.18-.23zm.23-19.73c-.13 0-.2.07-.2.23s.06.18.2.18.14-.06.14-.18zm0 23.38c.1 0 .14.1.14.28s0 .23-.14.23-.2-.07-.2-.23.06-.3.2-.3zm0-2.26a.12.12 0 0 1 0 .09v.14c-.06 0-.1 0-.1-.14a.08.08 0 0 1 .09-.1zm0 1.1a.12.12 0 0 1 0 .09.15.15 0 0 1 0 .09.3.3 0 0 0 0 .1c-.06 0-.1 0-.1-.14zm.18 6.1c.1 0 .14.1.14.28s0 .23-.14.23-.14-.08-.14-.23zm0-9.06a.08.08 0 0 0-.09.09V90c.06 0 .1-.06.1-.18zm1-21.26q0-.1-.27-.1c-.2 0-.28 0-.28.1a.38.38 0 0 0 .28.09zm.42 4.25c0-.06 0-.1-.14-.1a.08.08 0 0 0-.09.09c0 .1 0 .14.1.14l.1-.15zm0-2.26c-.12 0-.2.07-.2.23a.17.17 0 0 0 .19.18c.1 0 .14-.06.14-.18zm.18 18.85c-.1 0-.13.08-.13.23s0 .2.13.2.14-.06.14-.2zm1.34-1a.14.14 0 0 1-.09 0h-.1a.19.19 0 0 1-.07.12.16.16 0 0 0-.07.11h.32zm.6-18.4h-.1a.08.08 0 0 0-.09.09c0 .1 0 .14.1.14zm0 5.5c-.1 0-.14.08-.14.23s0 .23.14.23.18-.08.18-.23-.1-.2-.2-.2zm.6 8.36h-.6a.48.48 0 0 0 .32.14.31.31 0 0 0 .25-.12zm1.15-1.06v-.1a.14.14 0 0 0-.09 0 .12.12 0 0 0-.14.14.08.08 0 0 0 .09.09zm0-13.22h.42l-.28-.23-.14.05zm.23 17.93c.1 0 .14.08.14.24s0 .23-.14.23-.18-.08-.18-.23.03-.22.15-.22zm.2-3c-.1 0-.14.07-.14.23s0 .23.14.23.14-.08.14-.23zm.18-1.76v-.1a.14.14 0 0 0-.09 0 .12.12 0 0 0-.14.14.08.08 0 0 0 .09.09zm.8 4.52c.1 0 .13.08.13.23s0 .24-.13.24-.14-.08-.14-.24zm.55-18.76a.08.08 0 0 1-.09.09c-.06 0-.1 0-.1-.1s0-.14.1-.14.1.08.1.17zm0 17.38c0 .1 0 .14-.1.14s-.1-.05-.1-.14a.09.09 0 0 1 .1-.1l.1.13zm.18-3.33a.09.09 0 0 1-.18 0 .13.13 0 0 1 .14-.14h.1zm.24-14c.1 0 .13.07.13.23s0 .18-.13.18-.2-.06-.2-.18.06-.25.2-.25zm.78 17.6c-.06.1-.12.14-.18.14a.21.21 0 0 1-.23-.14q0-.1.18-.1zm0 3.46h1.4l.28.1.18.1H97.7l-.28-.1zm.2-15.7c-.1 0-.14.08-.14.23s0 .23.14.23.18-.08.18-.23-.06-.25-.18-.25zm1 12.76h-.36a.17.17 0 0 1 .07-.14l.12-.1h.18zm4.13 13.84V100a1.18 1.18 0 0 1-.37 0l-1-.18-.4-.14a1.09 1.09 0 0 0-.34-.1l.83-.32V99a3 3 0 0 0-.4-.3c-.2-.13-.3-.22-.3-.25a6.39 6.39 0 0 0 .72 0q.4 0 .4-.27h-.6a1.07 1.07 0 0 0 .12-.19.49.49 0 0 0 .07-.23c0-.06-.06-.1-.2-.14l-.18-.14h.32c0-.06 0-.13.14-.23a.39.39 0 0 0 .14-.23l-.46-.14-.37-.1a.56.56 0 0 0 .41-.14v-.14l-.1-.1a.53.53 0 0 0-.37-.09v-.23h.8v-.23l-.18-.2.18-.14V93.4h-.18a3 3 0 0 0-.07-.51c0-.24-.1-.5-.14-.78l-.12-.8a4.41 4.41 0 0 1 0-.51l-.1-.18a1.79 1.79 0 0 1-.28-.46 6 6 0 0 1-.28-.65l-.65-.74-.4-.65V88a1 1 0 0 0 .32.18 1.32 1.32 0 0 1 .28.14h.14a.67.67 0 0 1 .07-.21.92.92 0 0 0 .07-.26 1.36 1.36 0 0 1-.17-.25l-.27-.46-.28-.47a2.3 2.3 0 0 0-.16-.25V86l.88.64V86a.16.16 0 0 1-.1 0l-.13-.1c.15 0 .23-.06.23-.2a.72.72 0 0 0-.33-.57.72.72 0 0 1-.32-.54 1.12 1.12 0 0 0-.19-.32 3.19 3.19 0 0 0-.23-.32l-1.24-1.1a2.72 2.72 0 0 1-.72-.93l-.2-.5h.32a12.67 12.67 0 0 0 1.41.77 4.66 4.66 0 0 1 1.37 1v-.7l.32.2a10.21 10.21 0 0 1 .19-2 11.22 11.22 0 0 0 .18-2v-2.3a1.74 1.74 0 0 1 .23-.67 1.92 1.92 0 0 0 .23-.94v-.05a.36.36 0 0 1 0-.19l.1-.18a5 5 0 0 1 .44-.35c.23-.17.34-.28.34-.34v-.8l.23-.5.56-.27.5-.2a1.37 1.37 0 0 1 .55-.12l.23-.18h1.2l.62-.07a3.1 3.1 0 0 0 .76-.17l1-.18a1.27 1.27 0 0 1 .37-.05l.37.14h3.1a6.71 6.71 0 0 1 2 .3l1.9.67.56.23a.14.14 0 0 0 .09 0l.18.37a2.27 2.27 0 0 0 .42.19l.37.18a1.82 1.82 0 0 0-.56.09l-.23.1-.18.1.32.18c.2.06.28.14.28.23a.46.46 0 0 1 0 .14.17.17 0 0 0 0 .1.8.8 0 0 1 .23.16 1.64 1.64 0 0 0 .24.16q-.24 0-.24.18c0 .13-.07.22-.23.28h.5v.16a.6.6 0 0 0 0 .16l-.24.33a.19.19 0 0 0 .1 0 .41.41 0 0 1 .14 0l.1.05h.1l.32.1.28.14h-1.25l.47.32h-.65l.4.6a3.82 3.82 0 0 0-.83.12 1.48 1.48 0 0 0-.6.21v.13l.23.24h-1.25a2.05 2.05 0 0 0 .33.11 1.16 1.16 0 0 1 .28.12v.18l.1.1a.18.18 0 0 0 .14 0l-1.44.2a4.09 4.09 0 0 0-.62.13 3.49 3.49 0 0 1-.62.14h-.6c-.37 0-.67-.06-.88-.1a8.42 8.42 0 0 1-2.11-.27 10.8 10.8 0 0 0-1.45-.33 2 2 0 0 0-.37 0 .52.52 0 0 1-.23 0h.7a.41.41 0 0 0-.18-.16.56.56 0 0 1-.19-.12h-1.25q0 .33-.18.33h-.05a.41.41 0 0 1-.18 0 .46.46 0 0 0-.19 0v.2a1.11 1.11 0 0 0 0 .21.12.12 0 0 1 0 .09.49.49 0 0 0 0 .23l.1.28a.62.62 0 0 1 0 .33 2.54 2.54 0 0 1 0 .41v.23a1.52 1.52 0 0 1 .09.35c0 .17.06.35.1.55a4.16 4.16 0 0 1 .07.58v1.18l.12.92.14.77.07.37a.63.63 0 0 0 .46.13h5.57a5.61 5.61 0 0 1 .58.09 2.42 2.42 0 0 1 1 .26 2.26 2.26 0 0 0 1 .25l-.23.33a.47.47 0 0 1-.19.09.65.65 0 0 1-.18 0c0 .07.18.17.55.3a3.24 3.24 0 0 1 .88.49l-.64.2c-.13 0-.2 0-.2.13h.2a2.24 2.24 0 0 1 .25.17c.1.07.16.13.16.16l-.18.14.18.18a.64.64 0 0 0 .33.14l.27.1h-1.62l1.67.23.18.2h-.4a.79.79 0 0 0-.42.14l-.14.14a.2.2 0 0 0 0 .14l-.42-.14-2.26.1h2c0 .16.24.28.74.37l.14.05a4.49 4.49 0 0 0-1.64.18 2.63 2.63 0 0 0-.44.28l-.18.1a.16.16 0 0 1-.14 0l-.14.1a.14.14 0 0 1-.09 0l.18.18-2.68.2v-.2l-.7.07c-.37 0-.62.1-.74.12h-1.53l-.58-.12-.48-.07c-.16 0-.26.14-.33.42s-.17.45-.32.5v1.15l-.18.2v.65a2.07 2.07 0 0 1-.14.34l-.23.44-.24.33a3.51 3.51 0 0 0 0 .37 2.93 2.93 0 0 1 .05.41h.7a5.76 5.76 0 0 0 1.34-.16 5.23 5.23 0 0 1 1.2-.16h3.28a3.55 3.55 0 0 1 .65.11l1 .26.85.25a1.84 1.84 0 0 1 .42.16h-.42v.2a3.76 3.76 0 0 0 1 .53c.4.14.6.3.6.44a.8.8 0 0 1 0 .24.48.48 0 0 0 0 .18h.74l-.42.14.42.2c-.16 0-.23.06-.23.18v.14l.18.14a.26.26 0 0 0 .14.09h-.5l.42.37-.23.18h.6l-.2.2.37.32-1.6.28c0 .22-.07.34-.2.37h-.23l.1.1a.2.2 0 0 0 .14 0v.23a1 1 0 0 0 0 .19h1.25a1.63 1.63 0 0 1-.46.09l-.9.07h-2.1a1 1 0 0 1-.3.11 1.46 1.46 0 0 1-.35.07h-1.2l-.32.1-.28.12H110v-.1a1 1 0 0 1-.28 0 2.14 2.14 0 0 0-.32 0c-.15 0-.23.06-.25.18a.57.57 0 0 1-.16.33h-.8a1.41 1.41 0 0 0-.34.07l-.3.07h-.14q0-.1-.2-.18a1 1 0 0 0-.44-.1h-.2a1 1 0 0 0-.34.16 1.27 1.27 0 0 1-.3.17h-.46c-.1 0-.33 0-.7-.07a6.37 6.37 0 0 0-.74-.07c0 .1-.06.14-.18.14h-.42a3.75 3.75 0 0 1-.41-.07l-.37-.07h-.1l-.42-.28-.28-.2zm-3.52-14.7c.1 0 .14.07.14.2a.12.12 0 0 1-.14.14.13.13 0 0 1-.14-.14zm.6-.32a.26.26 0 0 1 .14.23c0 .16 0 .23-.14.23v-.28s-.06-.18 0-.18zm1.48-9.48c-.1 0-.14.07-.14.2a.13.13 0 0 0 .14.14.12.12 0 0 0 .14-.14zm.1 2.13l.1-.37v-.28h-.2v.84zm.1-1.66c-.1 0-.14.06-.14.18s0 .2.14.2.14-.06.14-.2zm.6 17.38a.12.12 0 0 0-.14.14c0 .1 0 .13.14.13s.14 0 .14-.13zm0 1.57c-.1 0-.14.06-.14.18a.14.14 0 0 0 .28 0zm0-1.16v.97a.73.73 0 0 0 .09-.46 1.72 1.72 0 0 0-.09-.52zm.4-19.82a.16.16 0 0 0-.18.18c0 .1.06.14.18.14s.2-.05.2-.14-.06-.18-.2-.18zm.24 9.42a.17.17 0 0 0-.19.19c0 .1.06.14.2.14s.13 0 .13-.14zm0-1.1c0 .13.06.2.18.2l.1-.1.14-.1a1.05 1.05 0 0 0 0-.13.65.65 0 0 1 0-.19v-.14a.27.27 0 0 1 .07-.18l.12-.14h-.2a.27.27 0 0 0-.18.07c-.07 0-.13.2-.2.44zm.6-1.3c-.1 0-.14.06-.14.18s0 .2.14.2.14-.06.14-.2zm.18-4.3c-.1 0-.14.06-.14.2s0 .13.14.13.14 0 .14-.13zm0 1.43v.33a.08.08 0 0 0 .09-.09zm.2 2.87c.12 0 .22-.08.3-.25a1.25 1.25 0 0 0 .11-.35c0-.22-.06-.34-.18-.37l-.23.7a.16.16 0 0 0-.1 0l-.1.1zm0 1.1c-.1 0-.14.06-.14.18s0 .2.14.2.18-.06.18-.2a.16.16 0 0 0-.18-.18zm0-2.87s-.05 0-.05.1h.1c.1 0 .14 0 .14-.1h-.14zm0 2.27c-.07 0-.1 0-.1.1h.1c.1 0 .14 0 .14-.1h-.14zM104 92c-.1 0-.14.06-.14.2s0 .13.14.13c0 .13.06.2.18.2a.17.17 0 0 0 .19-.19c0-.12-.06-.18-.2-.18zm0 .8c-.1 0-.14.06-.14.18a.13.13 0 0 0 .14.14c.13 0 .2 0 .2-.14a.18.18 0 0 0-.19-.2zm0 1.1s-.05 0-.05.1h.1a.14.14 0 0 1-.04-.12zm.23-3.05a.17.17 0 0 0-.23.16c0 .1.06.14.18.14s.2-.05.2-.14a.17.17 0 0 0-.17-.18zM104 92.3c.1 0 .14 0 .14-.13zm.4-11.88a.17.17 0 0 0-.18.19c0 .1.06.14.18.14a.12.12 0 0 0 .14-.14zm.2 1.3h-.05v.1h.1c.06 0 .1 0 .1-.1zm.6-9.34c-.1 0-.14.06-.14.2a.14.14 0 0 0 .28 0zm0 1a.12.12 0 0 0-.14.14.14.14 0 1 0 .28 0zm.65 26.76a.14.14 0 0 0-.1 0 .17.17 0 0 0-.18.19h.14c.1.01.16-.05.16-.17zm.37-27.78h-.37q0 .1.18.1zm0 27.6c-.1 0-.14.06-.14.18a.12.12 0 0 0 .14.14c.15 0 .23 0 .23-.14s-.06-.14-.2-.14zm.46.32c0-.06 0-.1-.14-.1h-.1v.1zm2-25.65s-.1-.05-.27-.05h-1.8v.05a.45.45 0 0 0 .32.09h1.25a1 1 0 0 0 .56-.07zm-1.66-2.4h-.14s-.23 0-.23.1 0 .1.14.1zm.42 1q0-.1-.33-.1h-.28v.05a.52.52 0 0 0 .28 0zm0 26.9q0-.1-.24-.1-.24 0-.18.1a.32.32 0 0 0 .23.09zm0-28c-.1 0-.14 0-.14.13a.12.12 0 0 0 .14.14c.1 0 .13 0 .13-.14zm0-.47a.77.77 0 0 0 .18 0 1 1 0 0 1 .23 0l.23-.2h-.64zm.4 28.52a.11.11 0 0 1 .12.07s0 .07.1.07h.2v-.18zm.56-25.74a2 2 0 0 0 .39 0 .55.55 0 0 1 .25.05h1.07a6.1 6.1 0 0 0-1.53-.19 1.22 1.22 0 0 0-.37.05H108a1.37 1.37 0 0 0 .46.08zm.64 15h-.56a.47.47 0 0 0 .33.09zm-.18 10.77h-.2c0 .06 0 .1.1.1zm.4-25.5a.16.16 0 0 0-.18.18c0 .1.06.14.18.14a.12.12 0 0 0 .14-.14zm.72 14.84h-.1a.16.16 0 0 0-.09 0 .26.26 0 0 0-.18 0 .18.18 0 0 0 .18.14.4.4 0 0 0 .18-.14zm-.23-14.88a.16.16 0 0 0-.18.18c0 .1.06.14.18.14s.18 0 .18-.14a.16.16 0 0 0-.2-.18zm.42 22.28c-.1 0-.14.06-.14.18a.12.12 0 0 0 .14.14.13.13 0 0 0 .14-.14zm.6 3h-.5a.37.37 0 0 0 .27.09zm-.42-28.2c-.1 0-.14.06-.14.2a.13.13 0 0 0 .14.14c.12 0 .2 0 .2-.14a.17.17 0 0 0-.21-.14zm.6 2.87v-.05h-.5l-.05.05a.45.45 0 0 0 .32.09zm.46 11.23c-.15 0-.23.06-.23.18s.08.14.23.14.14 0 .14-.14zm.2 3.5h-.2v.1zm.38-14.7c-.1 0-.14.06-.14.18a.13.13 0 0 0 .14.17c.15 0 .23 0 .23-.14s-.1-.2-.23-.2zm0 14.6a.14.14 0 0 0 0 .28c.15 0 .23 0 .23-.14s-.1-.14-.23-.14zm.65 0a.14.14 0 0 0 0 .28c.12 0 .18 0 .18-.14s-.1-.14-.2-.14zm0 10.9c.12 0 .18 0 .18.14a.13.13 0 0 1-.14.14c.1.06.14.12.14.18s-.06.2-.18.2-.14-.06-.14-.2a.26.26 0 0 1 .09-.18c-.06 0-.1 0-.1-.14zm.2-26.16a.17.17 0 0 0-.19.19c0 .12.06.18.2.18s.14-.06.14-.18zm.55 4h-.1a.09.09 0 0 0 0 .18zm.46 11.7c0 .07 0 .1-.1.1s-.1 0-.1-.1h-.05.1zm0-15.52c-.1 0-.13.06-.13.18s0 .14.13.14a.12.12 0 0 0 .14-.14zm.6 14.23c-.1 0-.13.06-.13.2s0 .18.13.18.14-.06.14-.18zm0 11.1c-.1 0-.13.07-.13.2s0 .14.13.14a.12.12 0 0 0 .14-.14zm.42-4.34a.26.26 0 0 1-.14.09.09.09 0 0 1 0-.18zm0-9.3a.16.16 0 0 0-.18.18c0 .1.06.14.18.14a.12.12 0 0 0 .14-.14zm0 3.5c.1 0 .14.06.14.2s0 .13-.14.13-.18 0-.18-.13.06-.17.18-.17zm.2-2.4h-.1s-.14 0-.14.1l.05.1zm.4-1.76a.32.32 0 0 1-.23.09.26.26 0 0 1-.18-.09c0-.06.07-.1.23-.1s.18.05.18.1zm.23-10.58a.16.16 0 0 0-.18.18c0 .1.06.14.18.14a.12.12 0 0 0 .14-.14zm.2 24.68a.08.08 0 0 1-.09.09c-.07 0-.1 0-.1-.1a.14.14 0 0 1 .1 0zm.23-24.68c-.13 0-.2.06-.2.18s.06.14.2.14a.13.13 0 0 0 .14-.14zm0 1.75a.17.17 0 0 0-.19.19c0 .12.06.18.2.18s.14-.06.14-.18zm0 .83a.13.13 0 0 1 .14.14.12.12 0 0 1-.14.14c-.13 0-.2 0-.2-.14s.06-.12.2-.12zm.18-1.75c-.1 0-.13 0-.13.14s0 .13.13.13.14 0 .14-.13zm.84 23.06c.1 0 .13 0 .13.14s0 .14-.13.14-.2 0-.2-.14.04-.12.2-.12zm.64-25.14h-.46s.06-.1.18-.1zm-5.3 7.97c.1 0 .14 0 .14.14a.12.12 0 0 1-.14.14c-.06 0-.1 0-.1-.14zM114.6 86h.1s0 .08-.1.14a.12.12 0 0 1 0-.14zm1.34-5.5v.2a.11.11 0 0 0-.12.07l-.1.06h-.1l-.1-.37zm1.4-.6a.45.45 0 0 1-.09.23.28.28 0 0 1-.23.14h-.05c.04-.27.12-.4.37-.4zm.55 3.65c.1 0 .14.06.14.2a.08.08 0 0 1-.09.09h-.05c-.1 0-.13 0-.13-.14s.04-.1.13-.17zm.14-4.2c.06 0 .1 0 .1.13s0 .14-.1.14-.14-.06-.14-.18zm7.26 23.52a.39.39 0 0 0 .07-.18.89.89 0 0 0 0-.19v-.46a.47.47 0 0 1 0-.28v-.18a4.25 4.25 0 0 0-.62-1 11.31 11.31 0 0 1-.81-1.13h-.14a.53.53 0 0 1-.21.09h-.2v.1a.69.69 0 0 0-.1.3.69.69 0 0 1-.13.35h-.24a2.06 2.06 0 0 0 .07.35 1.38 1.38 0 0 1 .07.35.12.12 0 0 1 0 .09.14.14 0 0 0 0 .09l-.23.05a1.17 1.17 0 0 0-.21-.26 1.18 1.18 0 0 1-.21-.25l-.18-.1a.74.74 0 0 0-.23 0c-.1 0-.14.06-.14.1l-.28-.74-.14-.26a1 1 0 0 0-.14-.21v.37a1.75 1.75 0 0 0 .07.26 3.9 3.9 0 0 0 .19.44l.2.43s.12.2.18.2h-.23c-.1 0-.2-.1-.35-.27a6.19 6.19 0 0 1-.39-.63 5 5 0 0 1-.28-.6l-.1-.2-.8-4.85a3.75 3.75 0 0 0 0-.42c0-.18 0-.4-.07-.62s0-.44-.07-.62V91.2l-.1-.13c-.13-.13-.2-.48-.2-1.07a2.45 2.45 0 0 1 .1-.65.19.19 0 0 0 0-.09.46.46 0 0 1 0-.14 3 3 0 0 1 .11-.76c.08-.26.15-.55.2-.85a.5.5 0 0 0 0-.28.79.79 0 0 1 0-.32.16.16 0 0 0 0-.1.41.41 0 0 1 0-.14 4.15 4.15 0 0 1 .09-.74v-1.68a5.63 5.63 0 0 1 .16-1A6.22 6.22 0 0 0 120 82v-1.34a2 2 0 0 1 .07-.48 2.34 2.34 0 0 0 .07-.35 11.8 11.8 0 0 1 .09-1.46 10.43 10.43 0 0 0 .09-1.31v-.8a1.83 1.83 0 0 0 .14-.67v-.62l.23-.7.23-.47h.1a.63.63 0 0 1 .26.07.79.79 0 0 0 .25.06v-.18a.27.27 0 0 1-.05-.19l.32-.46q0-.1-.27-.18a1.82 1.82 0 0 0-.56-.09 4.29 4.29 0 0 0 .39-.42.35.35 0 0 0 .07-.23l.28.14 1.76-.23h-.37c.06-.25.18-.36.34-.35a.49.49 0 0 0 .44-.16h.44l.5.1.6.17a1.51 1.51 0 0 1 .51.23h.18a.26.26 0 0 0 .14 0h.74l1 .1a9.75 9.75 0 0 1 1 .19 3.36 3.36 0 0 1 .76.25l3.47 1.1.3.1.56.23c.2.1.4.18.6.26a3.79 3.79 0 0 0 .48.16l.6.28a1.49 1.49 0 0 0 .44.23c.23.1.35.15.35.18l2.47 1.57a7.68 7.68 0 0 0 .69.7l.5.48.32.3L141.8 80l1.1 1.73a1.88 1.88 0 0 0 .37 1 2 2 0 0 1 .37 1 4.83 4.83 0 0 1 .23.67l.14.53.14.6a8.11 8.11 0 0 1 .14.86c0 .3.06.58.1.85v1.4a6.42 6.42 0 0 1-.23 1.18c0 .1-.08.25-.14.47l-.16.62a5.48 5.48 0 0 1-.14.55 1.64 1.64 0 0 0-.07.3 1.29 1.29 0 0 1-.09.3l-.23.6-.28.7-.2.56a2.89 2.89 0 0 1-.3.62l-.62 1a11.51 11.51 0 0 1-.88 1.11 6.13 6.13 0 0 1-1.11 1l-.16.13a2.45 2.45 0 0 1-.3.19c0 .06-.1.14-.25.23l-.54.3-.53.3c-.17.1-.25.15-.25.18a.91.91 0 0 0-.49.17 3.05 3.05 0 0 1-.76.3l-.88.23a1.09 1.09 0 0 0-.25 0 2.57 2.57 0 0 0-.44.11l-.44.12h-2.3a10 10 0 0 1-1.27-.07c-.38 0-.67-.07-.85-.07h-.5c-.22 0-.33.07-.33.23v-.2a1.26 1.26 0 0 1-.14-.18.36.36 0 0 0-.32-.14h-.54a1.2 1.2 0 0 0-.57.12l-.24-.5v-.2a.12.12 0 0 0-.09 0h-.1s0 .07-.1.14l-.1.13a.12.12 0 0 1-.14.14h-.23a.39.39 0 0 1 0 .14c0 .06-.06.1-.1.1l-.2.55-.18-1.16c-.43 0-.7 0-.77-.16s-.1-.13-.1-.07a1.36 1.36 0 0 0-.44-.21c-.23-.07-.35-.2-.35-.34a.64.64 0 0 1 .12-.33.6.6 0 0 1 .21-.23h-.2l-.5.55a.37.37 0 0 0-.23-.32l-.14.23v.1a3.73 3.73 0 0 0 .21.37 1.12 1.12 0 0 0 .3.37 1.07 1.07 0 0 0 .14.28 4.53 4.53 0 0 0 .3.46l.3.44a1.93 1.93 0 0 0 .19.26 1.07 1.07 0 0 0 .39.78 1.18 1.18 0 0 1 .39.88 1.33 1.33 0 0 0 0 .21 1.37 1.37 0 0 0 .09.25v.52s0 .1-.16.18a1.52 1.52 0 0 0-.21.19h-.18a.59.59 0 0 1-.21-.12c-.1-.08-.16-.13-.16-.16v-.05zM120 74c.16 0 .23.06.23.2s0 .1-.14.1a.12.12 0 0 1-.14-.14zm.46 17.9a.14.14 0 0 0 0 .28.08.08 0 0 0 .09-.09zm0-1.94a.13.13 0 0 0-.14.14c0 .1.06.14.2.14s.1-.05.1-.14a.13.13 0 0 0-.08-.19zm0 .83l-.05.1s0 .24.1.24l.1-.14zm.1-2c-.07 0-.1 0-.1.1s0 .18.14.18.1 0 .1-.14-.03-.18-.12-.18zm0-1.15V88c.06 0 .1 0 .1-.14s.01-.2-.08-.27zm.13-.83c-.1.06-.13.12-.13.18a.17.17 0 0 0 .18.19c.06 0 .1 0 .1-.14zm0 11.32c-.1 0-.13 0-.13.14a.16.16 0 0 0 .18.18c.06 0 .1 0 .1-.14s-.03-.22-.13-.22zm0 .5a.13.13 0 0 0-.14.14c0 .1.06.14.2.14s.1-.05.1-.14a.13.13 0 0 0-.08-.18zm.1-13.45c-.1.06-.14.12-.14.18a.12.12 0 0 0 .14.14c.06 0 .1 0 .1-.14zm.1-.46c-.07 0-.1 0-.1.14s0 .18.14.18a.13.13 0 0 0 .14-.14.16.16 0 0 0-.12-.22zm.13-9.85l-.1-.05a.09.09 0 0 0 0 .18zm.28 4.35c-.15 0-.23 0-.23.14s.1.13.28.13.1 0 .1-.13a.12.12 0 0 0-.08-.18zm.1 7.72c-.1 0-.13 0-.13.13s.06.2.18.2.1-.06.1-.2.02-.17-.08-.17zm0 .78a.08.08 0 0 0-.09.09c0 .06 0 .1.1.1a.16.16 0 0 0 0-.1zm0 9a.12.12 0 0 0 0 .09.13.13 0 0 0 .14.14h.55v-.14h-.1a.65.65 0 0 1-.28-.12.31.31 0 0 1-.18-.25zm.18.83c-.1.06-.14.12-.14.2s0 .13.14.13c.06 0 .1 0 .1-.13zm0-1.9c-.06 0-.1 0-.1.14s0 .2.14.2l-.1.14a.18.18 0 0 0 .19.13c.06 0 .1 0 .1-.13s0-.14-.1-.14c.06 0 .1 0 .1-.14a.17.17 0 0 0-.16-.26zm.37-.18c0-.06 0-.1-.14-.1s-.23 0-.23.14h.14zm-.2-23.85a.14.14 0 0 1 0 .28.08.08 0 0 1-.09-.09.23.23 0 0 1 .16-.26zm.1 28.52h-.23l.1.1zm0-10c-.06 0-.1 0-.1.14a.84.84 0 0 0 0 .27c0 .1.08.14.14.14v-.23zm0 1.2v.1a1 1 0 0 0 0 .23c0 .1 0 .14.12.14v-.18zm0 1.43v.14c0 .25 0 .37.14.37A.32.32 0 0 0 122 93zm0-4.85v.1s0 .23.14.23A.26.26 0 0 0 122 88zm0 6.42v.1a1.11 1.11 0 0 0 0 .23 2.45 2.45 0 0 1 0 .27h.1v-.18a.68.68 0 0 0-.07-.52zm.1-5c-.06 0-.1 0-.1.13s0 .2.14.2a.08.08 0 0 0 .09-.09zm0 11.7h.1a.14.14 0 0 1 0 .09c-.1 0-.13 0-.13-.1s.05-.13.1-.13zm0-13.77v.13a.08.08 0 0 0 .09-.09zm.1-15.95a.17.17 0 0 1 .19.18c0 .1 0 .14-.1.14s-.14-.06-.14-.18zm0 15v.28c.06 0 .1 0 .1-.14zm.14 9.15c-.1.07-.14.13-.14.2a.13.13 0 0 0 .14.14c.06 0 .1-.05.1-.14zm0 4.16c-.1.07-.14.13-.14.2a.17.17 0 0 0 .19.18c.1 0 .14 0 .14-.13s-.04-.35-.17-.35zm0 1.48c.1 0 .14.08.14.23s0 .1-.1.1a.13.13 0 0 1-.14-.14.26.26 0 0 1 .16-.29zm0-28.56c-.07 0-.1 0-.1.14s0 .18.14.18a.12.12 0 0 0 .14-.14.16.16 0 0 0-.06-.29zm0 15.48v.1s0 .1.1.1c.1 0 .14 0 .14-.1zm0 1.1c-.07 0-.1 0-.1.1v.1a.14.14 0 0 0 .09 0h.05zm0 1.34v.33c.06 0 .1 0 .1-.14a.26.26 0 0 0-.02-.3zm0 1.43l-.1.14s0 .2.1.2c.06 0 .1-.05.1-.14zm0 1.48a.13.13 0 0 0-.14.14.17.17 0 0 0 .19.19c.06 0 .1 0 .1-.14s.1-.3.02-.3zm.05-11.64l-.14.13s.06.2.18.2a.08.08 0 0 0 .09-.09c.2-.27.15-.34.03-.34zm-.05 16.13a.08.08 0 0 0-.09.09v.1a.12.12 0 0 0 .09 0l.1-.05zm0-15.12c0 .15 0 .23.1.23s.1 0 .1-.14zm.05.42c-.06 0-.1 0-.1.14s0 .18.13.18c.1 0 .14 0 .14-.1a.21.21 0 0 0-.02-.34zm0-11.56h.92l-.55.1.18.2h-.1a.12.12 0 0 0-.09 0h-.2l-.14-.1zm.14 8.32a.12.12 0 0 0-.14.14.17.17 0 0 0 .18.19c.1 0 .14-.07.14-.2s.1-.25-.02-.25zm-.05 18.86l.16.28a.69.69 0 0 1 .12.23s.06 0 .1-.1a.39.39 0 0 0 0-.14.14.14 0 0 1 0-.09v-.46a.53.53 0 0 0-.41-.14v.18l.14.1.1.1zm.05-17.84h-.05v.1s0 .1.1.1.1 0 .1-.1zm0 18.67v.1h.14zm.8-25.7c-.06 0-.1 0-.1.14s0 .2.1.2q.18 0 .18-.1a.21.21 0 0 0 .02-.35zm0 22.1a.26.26 0 0 0-.09.14c0 .1 0 .13.1.13.12 0 .18 0 .18-.1s.17-.3.02-.3zm0 3.84c.1 0 .14.06.14.18s0 .14-.1.14-.14-.06-.14-.2zm.14-2.87a.14.14 0 0 0 0 .28c.12 0 .18 0 .18-.14s.14-.25.02-.25zm.18-25.33c-.1.06-.14.1-.14.14a.13.13 0 0 0 .14.14c.06 0 .1 0 .1-.14zm.46 25.38c-.1 0-.13 0-.13.13s0 .2.13.2c.06 0 .1 0 .1-.14zm.33-20.34a4.81 4.81 0 0 1 .32.67 5 5 0 0 0 .33.67v-.37c-.13 0-.2-.18-.2-.44a1.12 1.12 0 0 0-.35-.72l-.14-.14v.14zm5.3 19.46l.2.1a.26.26 0 0 0 .18 0h.93a.57.57 0 0 0 .3.07 4 4 0 0 0 .48 0 .62.62 0 0 0 .19 0h.46a3.08 3.08 0 0 1 .51 0h.28c-.1.07-.14.13-.14.2a.17.17 0 0 0 .18.19l.1-.1v-.1a.32.32 0 0 0-.1-.19h.7l.78-.27a3.14 3.14 0 0 0 .53-.23c.17-.1.26-.2.26-.28l-.23-.23.14-.1h.1a.78.78 0 0 0 .53-.24 2.91 2.91 0 0 0 .48-.55 3.16 3.16 0 0 0 .37-.62l.2-.4s.1-.18.28-.37a2.1 2.1 0 0 0 .32-.37A2.9 2.9 0 0 0 138 92l.27-.65a3.44 3.44 0 0 0 .33-.83v-.2h-.2l-.1-.14.16-.53a2.38 2.38 0 0 0 .12-.49.13.13 0 0 1 0-.1l.1-.14a1 1 0 0 0 0-.41v-.7a.41.41 0 0 0-.09-.26 1.59 1.59 0 0 1-.19-.48 2.79 2.79 0 0 0-.43-1.69 2.57 2.57 0 0 1-.44-.67l-.37-.65a4.09 4.09 0 0 0-.46-.9 10.22 10.22 0 0 1-.61-.9 3.12 3.12 0 0 0-.43-.58c-.24-.26-.4-.4-.5-.4s-.12.23-.35.32a1.64 1.64 0 0 0-.44.23h-.23l-.55-.3a4.23 4.23 0 0 1-.83-.58l-.37.05c-.2.06-.46.34-.8.83l-1.4 1.94a2.67 2.67 0 0 0-.63.79c0 .15-.1.23-.16.23a4.75 4.75 0 0 1-.74 1.25 2.15 2.15 0 0 0-.51.83 1.76 1.76 0 0 1-.09.55 1.62 1.62 0 0 0-.09.37v.7a8.06 8.06 0 0 0 .05.9v.76a3.36 3.36 0 0 1-.32.51 2.8 2.8 0 0 1-.35.46 3.28 3.28 0 0 1-.48.42h.12a1.54 1.54 0 0 0-.46.09l-.14.14c-.25-.06-.4-.16-.42-.28a1 1 0 0 0-.27-.42l-.42.8a.6.6 0 0 0 0 .32 1 1 0 0 1 0 .37l-.23.7a3.16 3.16 0 0 1-.12.37.81.81 0 0 0-.07.23v.48a.34.34 0 0 1-.07.16.31.31 0 0 1 0 .19v.3a1.81 1.81 0 0 1-.1.44 1.16 1.16 0 0 1-.18.4l.32-.24h.46l.34.05h.14a.2.2 0 0 0 .14-.05 2.11 2.11 0 0 1 .37.05.73.73 0 0 1 .28.09l.18.14a2.42 2.42 0 0 0 .9.11 1.11 1.11 0 0 1 .86.35h.23a.69.69 0 0 0 .23-.12l.28-.16h.1a.3.3 0 0 0 .19 0zm-5.08-.1c-.06 0-.1 0-.1.1s0 .18.14.18.13 0 .13-.14.14-.2.02-.2zm.28-.83c.06 0 .1 0 .1.14s0 .2-.14.2a.12.12 0 0 1-.14-.14zm.38-22.23c-.1.07-.14.13-.14.2s.06.14.2.14.1 0 .1-.14zm.2 3.2v-.32l-.14.18zm.18 1.3a.12.12 0 0 0-.14.14c0 .1.06.13.2.13s.1 0 .1-.13a.12.12 0 0 0-.14-.16zm.1-1.16a.08.08 0 0 0-.09.09c0 .06 0 .1.1.1l.1-.14zm.24.6v-.37l-.14.23zm.1-.83c-.1.06-.14.1-.14.14s.08.18.23.18a.08.08 0 0 0 .09-.09.21.21 0 0 0-.18-.25zm.46 16c.1 0 .14.06.14.2s0 .14-.1.14a.13.13 0 0 1-.14-.14.26.26 0 0 1 .09-.22zm0 4.3a.08.08 0 0 0-.09.09c0 .06 0 .1.1.1h.1s0-.16-.1-.22zm.5-22.93a.13.13 0 0 0-.14.14c0 .13.06.2.18.2a.08.08 0 0 0 .09-.09q.05-.27-.13-.27zm0 18.6c.1 0 .14.1.14.27a.27.27 0 0 1-.05.19c-.06 0-.1 0-.14-.14a.74.74 0 0 1 0-.23V92zm.55-19.88a.13.13 0 0 0-.14.14c0 .1.07.14.2.14s.1-.05.1-.14a.13.13 0 0 0-.14-.17zm.1 24l-.1.07a.26.26 0 0 0-.14.07v1.43a1 1 0 0 0 .07.35 1.37 1.37 0 0 1 .07.53.62.62 0 0 0 0-.33v-.7a1.9 1.9 0 0 0 0-.6zm-.1-17.47c0 .15 0 .25.1.28a.59.59 0 0 1 .19.13l.1.1a.67.67 0 0 0 .19.37c.12.15.2.23.27.23l.37-.23v-.14a1.85 1.85 0 0 0-.16-.26 1.38 1.38 0 0 0-.21-.25l-.37-.37c-.12 0-.18-.06-.18-.2h-.2s0 .08-.1.14l-.1.1zm.42-4.86a.12.12 0 0 0-.09 0h-.1v.1zm-.05 12.1v.2l.1-.1zm.05 10.3a.13.13 0 0 0-.14.14.17.17 0 0 0 .18.19c.07 0 .1 0 .1-.14s-.01-.23-.14-.23zM128 81.4c-.1 0-.14.07-.14.2s.06.18.2.18.1 0 .1-.13zm0 1.3c-.1.06-.14.12-.14.18a.12.12 0 0 0 .14.13c.06 0 .1 0 .1-.14zm.23 1.94a.08.08 0 0 0-.09.09c0 .13.05.2.14.2s.18 0 .18-.14-.1-.14-.27-.14zm.1-.83c-.1 0-.13 0-.13.1h.1c.1 0 .14 0 .14-.1zm.14.46c-.15.06-.23.12-.23.18s.08.14.23.14h.1v.28s-.05.1-.05.23h-.23l.18.93s.08-.06.14-.2a2.27 2.27 0 0 0 .16-.39 2.89 2.89 0 0 0 .1-.35V85h.14a.74.74 0 0 1 .23-.51l.2-.18.28-.33a4.14 4.14 0 0 0 .34-.48l.3-.46a.71.71 0 0 0 .14-.26l.74-1.2.28-.56a.16.16 0 0 0 0-.13c0-.16-.1-.3-.33-.4a1.51 1.51 0 0 0-.64-.16h-.2a3.14 3.14 0 0 0-.88.09c0-.1.05-.13.14-.13v-.2a.7.7 0 0 1-.44-.14.72.72 0 0 0-.35-.14l-.14.1a.27.27 0 0 0-.23.18.93.93 0 0 0-.09.42.15.15 0 0 0 0 .09.28.28 0 0 1 0 .14h.1a.4.4 0 0 0 .06.16.42.42 0 0 1 .07.16l-.13.15a1.65 1.65 0 0 0-.12.52v.35a2.56 2.56 0 0 0 .09.6 2.79 2.79 0 0 1 .09.47v.37a5 5 0 0 0 0 .55.65.65 0 0 0 0 .19 1.1 1.1 0 0 1 0 .18zm.23-10.17h-.1a.08.08 0 0 0-.09.09c0 .06 0 .1.1.1zm0 21.77a.12.12 0 0 1 .14.14c0 .12 0 .18-.14.18a.16.16 0 0 1-.18-.18c-.04-.1.02-.14.14-.14zm0-14.2a.26.26 0 0 1 .14.19c0 .1 0 .14-.1.14h-.05q-.1 0-.1-.24a.08.08 0 0 1 .1-.09zm.1.46h.05a.13.13 0 0 1 .14.14c0 .13 0 .2-.14.2s-.14-.06-.14-.2zm.05 4.44a.51.51 0 0 1 .14.37.29.29 0 0 1 0 .19s-.07 0-.1-.14a.84.84 0 0 1 0-.27zm.17-14.14c-.12 0-.18 0-.18.14a.13.13 0 0 0 .14.14.12.12 0 0 0 .14-.14zm.14 8c.1 0 .14.08.14.23a.08.08 0 0 1-.09.09h-.05c-.1 0-.14-.06-.14-.18zm.05 3.5c.1 0 .14.07.14.2s0 .18-.1.18-.18-.07-.18-.23zm.18-9.8c-.1 0-.14.06-.14.18a.13.13 0 0 0 .14.14.12.12 0 0 0 .14-.14zm.37.1c-.06 0-.1 0-.1.14s.06.18.2.18.1 0 .1-.14-.04-.14-.17-.14zm.37.14c-.06 0-.1 0-.1.13s.05.2.14.2.1 0 .1-.14-.02-.14-.12-.14zm.33-.65c-.1 0-.14 0-.14.14a.16.16 0 0 0 .18.18c.06 0 .1 0 .1-.14zm.7 1c-.06 0-.1 0-.1.13s0 .2.14.2.13-.06.13-.2-.04-.07-.16-.07zm.28-1.62c-.06 0-.1 0-.1.1s0 .18.14.18.1 0 .1-.13a.12.12 0 0 0-.12-.08zm.74 1.2a.12.12 0 0 0-.14.14c0 .12.07.18.23.18s.1 0 .1-.14a.16.16 0 0 0-.16-.12zm.4.14a.12.12 0 0 0-.14.14.17.17 0 0 0 .19.18c.06 0 .1 0 .1-.14s-.03-.12-.12-.12zm.88 24.4a.87.87 0 0 1-.46.14l-.37.14h.5a1.29 1.29 0 0 0 .34-.09 1 1 0 0 0 .35-.18h-.18zM133 74.8l.05-.05h-.1s-.1 0-.1.1 0 .1.1.1zm.88 6.5c-.06 0-.1 0-.1.14s0 .2.14.2.1 0 .1-.14-.1-.2-.2-.2zm0-.13h.12V81zm1.1-.15h-.2c-.1 0-.16 0-.16.07l-.14.1h.5zm-.18 17.62a.14.14 0 0 0-.1 0h-.1a.08.08 0 0 0 .09.09zm.46-.24h-.2a.26.26 0 0 0 .14.09v-.1zm2.63-1.4l-1.3.65-.5.3-.47.26h.2l1.2-.6.5-.28c.26-.13.4-.24.4-.32zm-1.3-20.34l-.13.1a.12.12 0 0 0 0-.09v-.05a.08.08 0 0 0-.09-.09h-.1l-.14-.14h-.1c0-.12 0-.18-.14-.18h-.05c0-.1 0-.14-.1-.14s-.14.12-.14.18a.12.12 0 0 0 .14.14h.05c0 .13.07.2.13.2h.05c0 .12.08.18.14.18a.3.3 0 0 0 .19.09h.05v.23h.14c0 .12.06.18.2.18s.1-.06.1-.18-.05-.2-.14-.2zm-.73-.28a.18.18 0 0 0 0-.09v-.1zm.36.28h.1v-.14zm1.34 17.2c-.1 0-.13 0-.13.14s.06.2.18.2l-.32.14-.28.55a.44.44 0 0 0-.12.19.23.23 0 0 1-.06.13v.14c0 .1-.1.25-.32.47l-.14.18h.14a.45.45 0 0 0 .24-.11l.32-.26.46-.37a.2.2 0 0 1 0-.14v-.14h.2c.12 0 .2-.1.25-.28a1.89 1.89 0 0 0 .07-.51V94a.89.89 0 0 1 0-.19l.07-.14v-.32l-.14.14a1 1 0 0 1-.16.28c-.1.15-.18.23-.2.23a.16.16 0 0 1 0 .1.12.12 0 0 0 0-.09.12.12 0 0 0-.04-.13zM136.65 77h.1v-.14zm.37.27c0 .06.06.1.18.14l.14.14.05-.1-.05-.1c0-.12-.1-.18-.28-.18a.18.18 0 0 0-.06.05zM138.54 95a.12.12 0 0 1-.09 0h-.14l-.64.55a.75.75 0 0 0-.26.16l-.25.2v.14a1.23 1.23 0 0 0 .62-.37 1.23 1.23 0 0 1 .58-.37l.1-.1a.14.14 0 0 0 .05-.1zm.1 2.4c-.1.07-.14.1-.14.14s.06.2.18.2l-.37.18c0 .13 0 .2-.13.2H138a6.91 6.91 0 0 1-.51.48 2.53 2.53 0 0 1-.37.12h.46l.28-.1a.88.88 0 0 1 .28-.1 1.27 1.27 0 0 0 .55-.32c.15 0 .32-.15.5-.46a.79.79 0 0 1 .69-.46l1.48-1.53a.55.55 0 0 1 .07-.19.9.9 0 0 1 .12-.18v-.2a2.42 2.42 0 0 1-.3.37l-.88.98a1.87 1.87 0 0 1-.35.32l-1 .55s0 .1-.14.2l-.2.14s.1-.05.1-.14zm-1-19.92c-.13 0-.2.08-.2.14a.17.17 0 0 0 .19.19c.06 0 .1 0 .1-.14zm.18.37a.2.2 0 0 0 .23.23v-.18a.27.27 0 0 1-.2-.02zm.42.23a.13.13 0 0 0-.14.14c0 .13.06.2.18.2s.1 0 .1-.14-.02-.16-.1-.16zm0 1.62a.08.08 0 0 0-.09.09c0 .07 0 .1.1.1s.1 0 .1-.1zm.23 15.76s0 .07-.13.12a.58.58 0 0 0-.19.11h.2c.15 0 .23 0 .23-.14l-.03-.06zm-.18 1.34a.14.14 0 0 1 .09 0h.14a.26.26 0 0 0 .09-.18zm.18-16.9c-.1 0-.13 0-.13.14s0 .13.13.13h.05a.08.08 0 0 0 .09-.09zm0 11.78a.18.18 0 0 0 0 .09l-.05.2a.23.23 0 0 0 .09-.19zm.84 1.53a.12.12 0 0 0-.14.14c0 .1.06.13.18.13l-.18.2-.1.37h-.28l-.23.65.32-.2.3-.37a2.75 2.75 0 0 0 .35-.51l.5-.64c0-.1.1-.27.2-.54l.2-.53v-.18s-.07 0-.14.1a.26.26 0 0 0-.09.14 1.3 1.3 0 0 1-.11.26l-.26.43-.25.44a.91.91 0 0 0-.12.26c0 .06 0 .1-.14.13.07 0 .1 0 .1-.13a.12.12 0 0 0-.07-.11zm-.6-12.9c-.07 0-.1 0-.1.14s0 .2.14.2a.12.12 0 0 0 .14-.14c.1-.1.01-.16-.1-.16zm.23-1.15l.44.62a3 3 0 0 0 .48.58v-.1c-.06 0-.1 0-.1-.1v-.06l-.37-.5a5.57 5.57 0 0 0-.37-.46zm.18 17.24h-.18l.18.14zm.05-1.44l.14-.18h-.2zm.32-3.42s-.07 0-.14.1l-.1.1v.14zm0 2.78c-.12 0-.18 0-.18.14s0 .13.14.13c.1 0 .14 0 .14-.13zm0 1.7c-.1 0-.14 0-.14.13s.05.2.14.2.14-.06.14-.2.02-.1-.07-.1zm.42-17.8a.26.26 0 0 0-.14.19.16.16 0 0 0 .18.18c.07 0 .1 0 .1-.14zm1.75 7.63a3.61 3.61 0 0 0 0 .39 3.85 3.85 0 0 0 .07.49l.1.55v.37l-.1.74-.12.83a6.29 6.29 0 0 0 0 .65l-.35 1a2.37 2.37 0 0 0-.21.88 3 3 0 0 1-.67 1.29 1.53 1.53 0 0 0-.44 1.07.17.17 0 0 0 .14-.07.15.15 0 0 1 .14-.07l.14-.23a3.64 3.64 0 0 1 .21-.51 2.35 2.35 0 0 1 .44-.7c0-.1.1-.27.2-.53a2.55 2.55 0 0 1 .21-.44 4.9 4.9 0 0 1 .14-.71l.18-.77.24-1.34.13-.76.05-.44V86.3a6.29 6.29 0 0 0-.16-1.38 14.45 14.45 0 0 0-.63-1.94.41.41 0 0 1-.16-.21c0-.1-.08-.2-.1-.26a.75.75 0 0 0 0 .21.6.6 0 0 1 0 .16V83a1.74 1.74 0 0 1 .19.4 1.91 1.91 0 0 1 .18.67v.78s0 .38.07.58a3 3 0 0 0 .21.45zM140 80.72a.52.52 0 0 0 0 .11 3.22 3.22 0 0 0 .26.44l.27.42v-.2a.15.15 0 0 0 0-.09.29.29 0 0 1 0-.09l-.1-.28-.1-.23c-.06 0-.12 0-.18-.14a.46.46 0 0 1-.09-.18zm.14 10.63a.08.08 0 0 0-.09.09.17.17 0 0 0 .18.19.13.13 0 0 0 .14-.14c.07-.07-.01-.1-.16-.1zm.23-.37c-.15 0-.23.06-.23.18s.08.14.23.14h.05c.06 0 .1 0 .1-.14zm.23-.83a.12.12 0 0 0-.14.14c0 .12.06.18.2.18s.1 0 .1-.14.02-.15-.07-.15zm.14-.33a.3.3 0 0 0-.09.19.08.08 0 0 0 .09.09h.05a.08.08 0 0 0 .21-.1zm.1-10.2a.12.12 0 0 0-.14.14.17.17 0 0 0 .31.25c.06 0 .1 0 .1-.14s-.1-.22-.2-.22zm0 2.3h-.05s-.05 0-.05.14.05.32.14.32v-.18zm.17 11.9a.26.26 0 0 0-.09.14c0 .12 0 .18.14.18a.08.08 0 0 0 .09-.09c-.01-.15-.07-.23-.14-.23zm.28-6.52a.12.12 0 0 0-.14.14h.18zm.18 6.93c-.1.07-.14.13-.14.2s0 .14.1.14a.13.13 0 0 0 .14-.14zm.32-.32a.17.17 0 0 0-.19.19h.05c.03.04.1-.03.1-.2zm.28-.5a.12.12 0 0 0-.14.14c.08.05.08-.01.08-.14zm.23-.92c-.1 0-.14 0-.14.1s.08.2.24.2.1 0 .1-.14-.1-.14-.24-.14zm.37-1.25c-.1.06-.14.1-.14.14a.17.17 0 0 0 .19.18h.05c.06 0 .1 0 .1-.14s-.1-.18-.24-.18zm.33-.8a.09.09 0 0 0-.1.1h.1a.08.08 0 0 0 .09-.09zm.1-.64a.26.26 0 0 0-.09.14c0 .1 0 .13.13.13s.1 0 .1-.1zm.32-1.85a.12.12 0 0 0-.14.14.17.17 0 0 0 .19.18c.06 0 .1 0 .1-.14z" fill="#231f20"/></svg>