<svg xmlns="http://www.w3.org/2000/svg" viewBox="0 0 448.14 128.53"><path d="M2.83 57.44a9.66 9.66 0 0 0 0 13.66l21.62 21.6L39 78.15l11.38 11.38-14.56 14.56 21.62 21.62a9.65 9.65 0 0 0 13.65 0L92.7 104.1 24.45 35.83z" fill="#221f1f"/><path d="M35.82 24.44l68.26 68.27 21.62-21.6a9.66 9.66 0 0 0 0-13.66L71.1 2.83a9.65 9.65 0 0 0-13.65 0z" fill="#86c4eb"/><path d="M185.13 64.9h-18.78v17.5h21v5.25H160v-48.5h26.26v5.26h-19.9v15.33h18.78zm13.96-20.44v8.34h9.07v4.83h-9.07v18.8c0 4.3 1.23 6.76 4.75 6.76a11.77 11.77 0 0 0 3.67-.43l.3 4.82a17.37 17.37 0 0 1-5.61.86 9 9 0 0 1-6.84-2.66c-1.73-1.94-2.45-5-2.45-9.14v-19h-5.4V52.8h5.4v-6.47zm43.68 25.48c0 12.88-9 18.5-17.34 18.5-9.36 0-16.7-6.9-16.7-17.92 0-11.58 7.7-18.42 17.28-18.42 10 0 16.76 7.27 16.76 17.85zm-27.56.36c0 7.62 4.32 13.38 10.5 13.38 6 0 10.58-5.68 10.58-13.53 0-5.9-3-13.3-10.44-13.3s-10.65 6.9-10.65 13.46zm31.95-8.06c0-3.67-.07-6.55-.3-9.44h5.62l.36 5.77h.15a12.9 12.9 0 0 1 11.51-6.48c4.82 0 12.3 2.88 12.3 14.82v20.73h-6.33V67.56c0-5.6-2.1-10.3-8.06-10.3a9.14 9.14 0 0 0-8.5 6.47 9.42 9.42 0 0 0-.43 3v20.9h-6.33zm36.55-22.4A81.36 81.36 0 0 1 297 38.78c9 0 15.4 2.15 19.64 6s6.9 9.58 6.9 17.42-2.52 14.4-7 18.85-12.1 7-21.52 7a100.31 100.31 0 0 1-11.37-.57zm6.3 42.9a51.35 51.35 0 0 0 6.34.29C309.77 83 317 75.55 317 62.45c.08-11.44-6.4-18.7-19.64-18.7a35.66 35.66 0 0 0-7.35.65zM334.88 43a3.79 3.79 0 0 1-4 3.89A3.73 3.73 0 0 1 327 43a3.86 3.86 0 0 1 4-4 3.81 3.81 0 0 1 3.88 4zm-7.06 44.62V52.8h6.34v34.84zm43.04-5.1c0 8.06-1.66 12.88-5 16s-8.34 4.17-12.74 4.17c-4.17 0-8.78-1-11.58-2.88l1.58-4.9a19 19 0 0 0 10.22 2.81c6.48 0 11.23-3.4 11.23-12.24v-3.83h-.15c-1.87 3.23-5.68 5.83-11.08 5.83-8.63 0-14.83-7.34-14.83-17 0-11.8 7.7-18.42 15.77-18.42 6.05 0 9.28 3.1 10.86 6h.15l.2-5.26h5.62c-.22 2.46-.3 5.34-.3 9.5zm-6.34-16a8.3 8.3 0 0 0-.36-2.81 9 9 0 0 0-8.85-6.72c-6 0-10.36 5.1-10.36 13.17 0 6.84 3.53 12.52 10.3 12.52A9.12 9.12 0 0 0 364 76.2a11 11 0 0 0 .5-3.39zM384.3 43a3.78 3.78 0 0 1-4 3.89 3.72 3.72 0 0 1-3.84-3.89 3.86 3.86 0 0 1 4-4 3.8 3.8 0 0 1 3.84 4zm-7.05 44.62V52.8h6.33v34.84zm20.87-43.16v8.34h9.07v4.83h-9.07v18.8c0 4.3 1.22 6.76 4.75 6.76a11.82 11.82 0 0 0 3.67-.43l.28 4.82a17.28 17.28 0 0 1-5.61.86 9 9 0 0 1-6.84-2.66c-1.72-1.94-2.44-5-2.44-9.14v-19h-5.4V52.8h5.4v-6.47zm37.05 34.83a58.46 58.46 0 0 0 .51 8.35H430l-.5-4.4h-.2a13 13 0 0 1-10.65 5.18c-7.06 0-10.66-5-10.66-10 0-8.42 7.5-13 20.94-13v-.72c0-2.8-.78-8-7.9-8a16.75 16.75 0 0 0-9.14 2.59l-1.44-4.25a22.57 22.57 0 0 1 11.52-3c10.65 0 13.23 7.27 13.23 14.18zm-6.1-9.42c-6.9-.15-14.75 1.07-14.75 7.83 0 4.18 2.73 6.06 5.9 6.06a8.79 8.79 0 0 0 8.56-5.84 7 7 0 0 0 .29-2zm12.74-33.33h6.33v51.1h-6.33z" fill="#221f1f"/></svg>