<svg xmlns="http://www.w3.org/2000/svg" viewBox="0 0 443.81 200.33"><defs><clipPath id="A"><path d="M0 0h443.8v200.33H0z" fill="none"/></clipPath><clipPath ><path d="M0 0h60.65v66.6H0z" fill="none"/></clipPath></defs><g clip-path="url(#A)" fill="#010101"><path d="M86.26 18.1a5.87 5.87 0 0 0 3.27.87c1.83 0 3.34-.94 3.34-3 0-2.9-6.8-3.27-6.8-7.16 0-2.38 2.1-3.86 4.7-3.86a8.88 8.88 0 0 1 2.91.48l-.24 1.34a6.05 6.05 0 0 0-2.69-.55c-1.53 0-3.2.64-3.2 2.55 0 3 6.8 3 6.8 7.33 0 3-2.57 4.18-4.87 4.18a8.62 8.62 0 0 1-3.35-.63zm19.6-7.5a6.09 6.09 0 0 0-2.31-.55c-2.62 0-4.08 1.9-4.08 4.52 0 2.47 1.48 4.52 3.92 4.52a6.89 6.89 0 0 0 2.45-.48l.13 1.25a8.06 8.06 0 0 1-2.79.38c-3.48 0-5.18-2.65-5.18-5.67 0-3.33 2.15-5.67 5.35-5.67a8.44 8.44 0 0 1 2.62.42zm4.04-6.54h1.33V11a3.66 3.66 0 0 1 3.37-2.08c2.9 0 3.7 1.93 3.7 4.6V20H117v-6.47c0-1.87-.36-3.48-2.57-3.48-2.38 0-3.2 2.25-3.2 4.14V20h-1.33zM134.48 20h-1.6l-2.96-9.37h-.04L126.92 20h-1.6l-3.5-10.84h1.47l2.85 9.37h.04l3-9.37h1.62l2.87 9.37h.04l3-9.37h1.34L134.48 20zm13.66-6.18c0-1.9-.76-3.76-2.76-3.76s-3.2 2-3.2 3.76zm.66 5.84a8.88 8.88 0 0 1-3.14.59c-3.6 0-4.93-2.42-4.93-5.67s1.82-5.67 4.56-5.67c3.06 0 4.32 2.47 4.32 5.37V15h-7.42c0 2.3 1.24 4.14 3.57 4.14a7 7 0 0 0 3-.8zm5-10.5h1.34V20h-1.34zm1.34-2.88h-1.34v-1.8h1.34zm4.04 12.6l6.52-8.56h-6.27V9.15h7.82v1.15l-6.52 8.54h6.52V20h-8.07v-1.13zm18.7-5.05c0-1.9-.76-3.76-2.76-3.76s-3.2 2-3.2 3.76zm.66 5.84a9 9 0 0 1-3.15.59c-3.6 0-4.92-2.42-4.92-5.67s1.83-5.7 4.53-5.7c3.06 0 4.3 2.47 4.3 5.37V15h-7.4c0 2.3 1.24 4.14 3.57 4.14a7 7 0 0 0 3-.8zm5-8.07a20.5 20.5 0 0 0-.08-2.42h1.33v2.08a3.22 3.22 0 0 1 2.78-2.34 3.59 3.59 0 0 1 .93.13v1.4a3.25 3.25 0 0 0-1-.13c-2.13 0-2.7 2.38-2.7 4.33V20h-1.34zm8.73-2.43h1.34V20h-1.34zm1.34-2.88h-1.34V4.5h1.34zm4.2 12.15a6.37 6.37 0 0 0 2.82.67c1.28 0 2.4-.7 2.4-1.93 0-2.57-5.2-2.16-5.2-5.3 0-2.15 1.74-2.95 3.52-2.95a8.59 8.59 0 0 1 2.68.49l-.13 1.16a6.25 6.25 0 0 0-2.4-.5c-1.38 0-2.33.42-2.33 1.8 0 2 5.33 1.76 5.33 5.3 0 2.3-2.15 3.08-3.8 3.08a8 8 0 0 1-3-.51zm17.8-7.82a6.19 6.19 0 0 0-2.32-.55c-2.6 0-4.08 1.9-4.08 4.52 0 2.47 1.5 4.52 3.93 4.52a6.84 6.84 0 0 0 2.44-.48l.13 1.25a8 8 0 0 1-2.78.38c-3.48 0-5.18-2.65-5.18-5.67 0-3.33 2.14-5.67 5.35-5.67a8.36 8.36 0 0 1 2.61.42zm4.03-6.54H221V11a3.69 3.69 0 0 1 3.38-2.08c2.9 0 3.7 1.93 3.7 4.6V20h-1.34v-6.47c0-1.87-.36-3.48-2.57-3.48-2.38 0-3.2 2.25-3.2 4.14V20h-1.34zm20.07 9.75c0-1.9-.76-3.76-2.76-3.76s-3.18 2-3.18 3.76zm.66 5.84a8.88 8.88 0 0 1-3.14.59c-3.6 0-4.93-2.42-4.93-5.67s1.83-5.67 4.57-5.67c3.06 0 4.3 2.47 4.3 5.37v.7h-7.4c0 2.3 1.23 4.14 3.56 4.14a7 7 0 0 0 3-.8zm12.73-14.5h7.26v1.27h-5.8v5.3h5.5V13h-5.5v5.7h6.05V20h-7.52V5.16zm12.13 4h1.34V20h-1.34zm1.34-2.88h-1.34V4.5h1.34zm9.07 12.82c2.38 0 3.2-2.54 3.2-4.52s-.82-4.52-3.2-4.52c-2.55 0-3.2 2.42-3.2 4.52s.66 4.52 3.2 4.52m4.54.9h-1.34v-1.73a3.45 3.45 0 0 1-3.38 2c-3 0-4.46-2.46-4.46-5.67s1.27-5.67 4.46-5.67a3.65 3.65 0 0 1 3.34 2.08V4.06h1.34zm8.8-1.15c2.42 0 3.3-2.3 3.3-4.27 0-2.6-.76-4.52-3.2-4.52s-3.2 2.42-3.2 4.52.84 4.27 3.12 4.27m4.63.25c0 3-1.36 5.5-5.08 5.5a11.18 11.18 0 0 1-3.27-.58l.1-1.34a7.24 7.24 0 0 0 3.18.77c3.44 0 3.74-2.5 3.74-5.56A3.36 3.36 0 0 1 289 20c-3.47 0-4.57-3-4.57-5.42 0-3.3 1.28-5.67 4.46-5.67a3.58 3.58 0 0 1 3.38 1.49V9.16h1.34zm11.53-5.28c0-1.9-.77-3.76-2.76-3.76s-3.2 2-3.2 3.76zm.66 5.84a8.89 8.89 0 0 1-3.15.59c-3.6 0-4.92-2.42-4.92-5.67s1.83-5.67 4.57-5.67c3.05 0 4.3 2.47 4.3 5.37v.7h-7.42c0 2.3 1.23 4.14 3.57 4.14a7 7 0 0 0 3-.8zm5-7.95l-.08-2.54H312v1.93a3.45 3.45 0 0 1 3.51-2.19c2.68 0 3.7 1.78 3.7 4.16V20H318v-6.6c0-2-.72-3.35-2.57-3.35-2.44 0-3.2 2.14-3.2 3.95v6h-1.34zm17.7 7.4c2.33 0 3.6-2 3.6-4.52s-1.26-4.52-3.6-4.52-3.6 2-3.6 4.52 1.25 4.52 3.6 4.52m0-10.2c3.5 0 5.05 2.72 5.05 5.67s-1.55 5.67-5.05 5.67-5.06-2.72-5.06-5.67 1.54-5.7 5.07-5.7m8.4 9.52a6.44 6.44 0 0 0 2.82.67c1.28 0 2.4-.7 2.4-1.93 0-2.57-5.2-2.16-5.2-5.3 0-2.15 1.74-2.95 3.53-2.95a8.53 8.53 0 0 1 2.67.49l-.16 1.16a6.25 6.25 0 0 0-2.4-.5c-1.37 0-2.33.42-2.33 1.8 0 2 5.33 1.76 5.33 5.3 0 2.3-2.14 3.08-3.78 3.08a8 8 0 0 1-3-.51zm9.92 0a6.44 6.44 0 0 0 2.82.67c1.28 0 2.4-.7 2.4-1.93 0-2.57-5.2-2.16-5.2-5.3 0-2.15 1.74-2.95 3.53-2.95a8.53 8.53 0 0 1 2.67.49l-.08 1.16a6.34 6.34 0 0 0-2.41-.5c-1.38 0-2.33.42-2.33 1.8 0 2 5.33 1.76 5.33 5.3 0 2.3-2.15 3.08-3.78 3.08a8 8 0 0 1-3-.51zm17.35-4.6c0-1.9-.76-3.76-2.76-3.76s-3.18 2-3.18 3.76zm.66 5.84a8.88 8.88 0 0 1-3.14.59c-3.6 0-4.93-2.42-4.93-5.67s1.83-5.67 4.57-5.67c3.05 0 4.3 2.47 4.3 5.37V15h-7.4c0 2.3 1.23 4.14 3.56 4.14a7 7 0 0 0 3-.8zm5.02-7.95a24.34 24.34 0 0 0-.09-2.54h1.3v1.93h.05a3.42 3.42 0 0 1 3.5-2.19c2.68 0 3.7 1.78 3.7 4.16V20H377v-6.6c0-2-.72-3.35-2.57-3.35-2.44 0-3.2 2.14-3.2 3.95v6h-1.34zm12.64 6.72a6.37 6.37 0 0 0 2.82.67c1.28 0 2.4-.7 2.4-1.93 0-2.57-5.2-2.16-5.2-5.3 0-2.15 1.74-2.95 3.52-2.95a8.59 8.59 0 0 1 2.68.49l-.13 1.16a6.29 6.29 0 0 0-2.4-.5c-1.38 0-2.34.42-2.34 1.8 0 2 5.34 1.76 5.34 5.3 0 2.3-2.15 3.08-3.8 3.08a8 8 0 0 1-3-.51zm17.8-7.82a6.19 6.19 0 0 0-2.32-.55c-2.6 0-4.08 1.9-4.08 4.52 0 2.47 1.5 4.52 3.93 4.52a6.84 6.84 0 0 0 2.44-.48l.13 1.25a8 8 0 0 1-2.78.38c-3.48 0-5.18-2.65-5.18-5.67 0-3.33 2.14-5.67 5.35-5.67a8.3 8.3 0 0 1 2.61.42zm4.03-6.54h1.34V11a3.68 3.68 0 0 1 3.38-2.08c2.9 0 3.7 1.93 3.7 4.6V20h-1.34v-6.47c0-1.87-.37-3.48-2.57-3.48-2.38 0-3.2 2.25-3.2 4.14V20h-1.34zm19.57 10.47h-.38c-2.33 0-5.08.23-5.08 2.6 0 1.43 1 1.95 2.25 1.95 3.14 0 3.2-2.73 3.2-3.9zm.12 3.72a3.81 3.81 0 0 1-3.44 2c-3.08 0-3.57-2.08-3.57-3.06 0-3.63 3.87-3.8 6.67-3.8h.26v-.55c0-1.85-.66-2.78-2.47-2.78a5.7 5.7 0 0 0-3.18.89v-1.3a8.56 8.56 0 0 1 3.18-.74c2.68 0 3.8 1.2 3.8 4v4.78a15 15 0 0 0 .11 2.27h-1.32zM431 10.3h-2.2V9.15h2.2v-.78c0-2.27.08-4.57 2.87-4.57a3.26 3.26 0 0 1 1.25.21l-.08 1.17A2.36 2.36 0 0 0 434 5c-1.83 0-1.64 2-1.64 3.27v.93h2.44v1.1h-2.44V20H431zm12.5 0h-2.46v7c0 1 .36 1.78 1.44 1.78a3.06 3.06 0 0 0 1.23-.25l.1 1.1a4.84 4.84 0 0 1-1.64.3c-2.38 0-2.46-1.63-2.46-3.6V10.3h-2.13V9.15h2.13v-2.6l1.34-.47v3.08h2.46zM96.84 36.13a7.64 7.64 0 0 0-3.31-.64c-3.85 0-6 2.72-6 6.4s2.1 6.4 6 6.4a7.18 7.18 0 0 0 3.31-.64l.1 1.28a8 8 0 0 1-3.4.63c-4.67 0-7.48-3.07-7.48-7.66s2.9-7.67 7.48-7.67a9.66 9.66 0 0 1 3.4.55zm9.73 12.28c2.34 0 3.6-2 3.6-4.52s-1.25-4.53-3.6-4.53-3.6 2-3.6 4.53 1.26 4.52 3.6 4.52m0-10.2c3.5 0 5.06 2.72 5.06 5.68s-1.55 5.66-5.06 5.66-5-2.72-5-5.66 1.55-5.68 5-5.68m9.23 2.8l-.08-2.55H117v1.95a3.45 3.45 0 0 1 3.51-2.19c2.68 0 3.7 1.8 3.7 4.17v6.92h-1.33v-6.58c0-2-.72-3.36-2.57-3.36-2.44 0-3.2 2.15-3.2 4v6h-1.34zm14.38-1.4H128v-1.14h2.18v-.8c0-2.27.1-4.57 2.87-4.57a3.23 3.23 0 0 1 1.25.21l-.08 1.18a2.37 2.37 0 0 0-1.06-.24c-1.83 0-1.64 2-1.64 3.27v.94H134v1.14h-2.44v9.7h-1.34zm12.2-5.33h1.7l-2.68 3.06h-1zm2.24 8.84c0-1.9-.77-3.76-2.77-3.76s-3.18 2-3.18 3.76zm.65 5.84a8.88 8.88 0 0 1-3.14.59c-3.6 0-4.93-2.42-4.93-5.67s1.83-5.67 4.57-5.67c3.06 0 4.3 2.47 4.3 5.37v.68h-7.4c0 2.3 1.23 4.15 3.57 4.15a7 7 0 0 0 3-.81zm9.05-.55c2.38 0 3.2-2.55 3.2-4.53s-.83-4.52-3.2-4.52c-2.55 0-3.2 2.42-3.2 4.52s.65 4.53 3.2 4.53m4.55.9h-1.34v-1.72a3.47 3.47 0 0 1-3.38 2c-3 0-4.46-2.46-4.46-5.67s1.27-5.67 4.46-5.67a3.65 3.65 0 0 1 3.38 2.08v-6.95h1.34zm9.26-15.02h1.68l-2.68 3.06h-1zm2.23 8.84c0-1.9-.76-3.76-2.76-3.76s-3.2 2-3.2 3.76zM171 49a8.92 8.92 0 0 1-3.14.59c-3.6 0-4.93-2.42-4.93-5.67s1.82-5.67 4.56-5.67c3.06 0 4.32 2.47 4.32 5.37v.68h-7.42c0 2.3 1.24 4.15 3.57 4.15a7 7 0 0 0 3-.81zm5-8.1a20.59 20.59 0 0 0-.08-2.42h1.33v2.08h.05a3.22 3.22 0 0 1 2.78-2.34 3.74 3.74 0 0 1 .94.13v1.4a3.75 3.75 0 0 0-1-.13c-2.13 0-2.7 2.38-2.7 4.34v5.35H176zm14.86 2.95h-.38c-2.32 0-5.08.23-5.08 2.6 0 1.43 1 2 2.25 2 3.14 0 3.2-2.74 3.2-3.9zm.13 3.72h-.05a3.81 3.81 0 0 1-3.44 2c-3.08 0-3.57-2.08-3.57-3 0-3.64 3.87-3.8 6.67-3.8h.26v-.55c0-1.85-.66-2.78-2.46-2.78a5.73 5.73 0 0 0-3.19.89V39a8.61 8.61 0 0 1 3.19-.74c2.67 0 3.8 1.2 3.8 4V47a16.29 16.29 0 0 0 .1 2.27H191zm10.72-7.95h-2.46v7c0 1 .36 1.8 1.44 1.8a3.29 3.29 0 0 0 1.24-.25l.08 1.1a5.14 5.14 0 0 1-1.64.29c-2.38 0-2.46-1.63-2.46-3.6V39.6h-2.12v-1.14h2.12v-2.6l1.34-.47v3.08h2.46zm4.06-1.14h1.34V49.3h-1.34zm1.34-2.9h-1.34V33.8h1.34zm9.26 12.83c2.34 0 3.6-2 3.6-4.52s-1.25-4.53-3.6-4.53-3.6 2-3.6 4.53 1.25 4.52 3.6 4.52m0-10.2c3.5 0 5 2.72 5 5.68s-1.55 5.66-5 5.66-5.05-2.72-5.05-5.66 1.55-5.68 5.05-5.68m9.23 2.8l-.08-2.55h1.3v1.95h.05a3.42 3.42 0 0 1 3.5-2.19c2.68 0 3.7 1.8 3.7 4.17v6.92h-1.34v-6.58c0-2-.72-3.36-2.57-3.36-2.45 0-3.2 2.15-3.2 4v6h-1.34zm20.2 6.73a6.46 6.46 0 0 0 2.83.68c1.27 0 2.4-.7 2.4-1.93 0-2.57-5.2-2.17-5.2-5.3 0-2.15 1.75-3 3.53-3a8.63 8.63 0 0 1 2.68.49l-.13 1.17a6.3 6.3 0 0 0-2.4-.51c-1.38 0-2.34.42-2.34 1.8 0 2 5.33 1.75 5.33 5.3 0 2.3-2.14 3.07-3.78 3.07a8 8 0 0 1-3-.51zm19.2-.98a24.53 24.53 0 0 0 .09 2.55h-1.3v-1.93a3.43 3.43 0 0 1-3.5 2.18c-2.68 0-3.7-1.78-3.7-4.16v-6.92h1.34v6.58c0 2 .72 3.36 2.57 3.36 2.44 0 3.2-2.15 3.2-3.95v-6h1.3zm5-8.28h1.34V49.3H270zm1.34-2.9H270V33.8h1.34zm4.23 12.15a6.42 6.42 0 0 0 2.83.68c1.27 0 2.4-.7 2.4-1.93 0-2.57-5.2-2.17-5.2-5.3 0-2.15 1.74-3 3.53-3a8.63 8.63 0 0 1 2.68.49l-.13 1.17a6.3 6.3 0 0 0-2.4-.51c-1.38 0-2.34.42-2.34 1.8 0 2 5.33 1.75 5.33 5.3 0 2.3-2.15 3.07-3.78 3.07a8 8 0 0 1-3-.51zm9.92 0a6.46 6.46 0 0 0 2.83.68c1.27 0 2.4-.7 2.4-1.93 0-2.57-5.2-2.17-5.2-5.3 0-2.15 1.75-3 3.53-3a8.63 8.63 0 0 1 2.68.49l-.13 1.17a6.3 6.3 0 0 0-2.4-.51c-1.38 0-2.34.42-2.34 1.8 0 2 5.33 1.75 5.33 5.3 0 2.3-2.14 3.07-3.78 3.07a8 8 0 0 1-3-.51zm17.36-4.6c0-1.9-.77-3.76-2.76-3.76s-3.2 2-3.2 3.76zm.65 5.88a8.88 8.88 0 0 1-3.14.59c-3.6 0-4.93-2.42-4.93-5.67s1.83-5.67 4.57-5.67c3.06 0 4.3 2.47 4.3 5.37v.68h-7.4c0 2.3 1.23 4.15 3.57 4.15a7 7 0 0 0 3-.81zM96.84 65.44a7.78 7.78 0 0 0-3.31-.63c-3.85 0-6 2.72-6 6.4s2.1 6.4 6 6.4a7.31 7.31 0 0 0 3.31-.6l.1 1.27a8 8 0 0 1-3.4.64c-4.67 0-7.48-3.08-7.48-7.67s2.9-7.67 7.48-7.67a9.66 9.66 0 0 1 3.4.55zm9.73 12.3c2.34 0 3.6-2 3.6-4.53s-1.25-4.53-3.6-4.53-3.6 2-3.6 4.53 1.26 4.53 3.6 4.53m0-10.2c3.5 0 5.06 2.72 5.06 5.67s-1.55 5.67-5.06 5.67-5-2.72-5-5.67 1.55-5.67 5-5.67"/><path d="M115.8 70.33l-.08-2.55H117v1.93a3.45 3.45 0 0 1 3.51-2.18c2.68 0 3.7 1.78 3.7 4.16v6.93h-1.33V72c0-2-.72-3.36-2.57-3.36-2.44 0-3.2 2.15-3.2 4v6h-1.34zm14.38-1.4H128v-1.15h2.18V67c0-2.28.1-4.57 2.87-4.57a3.05 3.05 0 0 1 1.25.21l-.08 1.17a2.36 2.36 0 0 0-1.06-.23c-1.83 0-1.64 2-1.64 3.27v.93H134v1.15h-2.44v9.7h-1.34zm14.43 3.5c0-1.9-.77-3.76-2.77-3.76s-3.18 2-3.18 3.76zm.65 5.85a8.88 8.88 0 0 1-3.14.59c-3.6 0-4.93-2.42-4.93-5.67s1.83-5.67 4.57-5.67c3.06 0 4.3 2.46 4.3 5.37v.68h-7.4c0 2.3 1.23 4.15 3.57 4.15a6.85 6.85 0 0 0 3-.82zm9.05-.55c2.38 0 3.2-2.56 3.2-4.53s-.83-4.53-3.2-4.53c-2.55 0-3.2 2.43-3.2 4.53s.65 4.53 3.2 4.53m4.55.9h-1.34V76.9a3.47 3.47 0 0 1-3.38 2c-3 0-4.46-2.46-4.46-5.67s1.27-5.67 4.46-5.67a3.65 3.65 0 0 1 3.38 2.08v-6.96h1.34zm11.5-6.2c0-1.9-.76-3.76-2.76-3.76s-3.2 2-3.2 3.76zm.66 5.85a8.92 8.92 0 0 1-3.14.59c-3.6 0-4.93-2.42-4.93-5.67s1.82-5.67 4.56-5.67c3.06 0 4.32 2.46 4.32 5.37v.68h-7.42c0 2.3 1.24 4.15 3.57 4.15a6.89 6.89 0 0 0 3-.82zM176 70.2a20.68 20.68 0 0 0-.08-2.42h1.33v2.08h.05a3.22 3.22 0 0 1 2.78-2.33 4.3 4.3 0 0 1 .94.12v1.4a3.37 3.37 0 0 0-1-.13c-2.13 0-2.7 2.38-2.7 4.33v5.36H176zm14.86 2.96h-.38c-2.32 0-5.08.23-5.08 2.6 0 1.42 1 2 2.25 2 3.14 0 3.2-2.75 3.2-3.9zm.13 3.7h-.05a3.8 3.8 0 0 1-3.44 2c-3.08 0-3.57-2.08-3.57-3.06 0-3.63 3.87-3.8 6.67-3.8h.26v-.55c0-1.85-.66-2.78-2.46-2.78a5.73 5.73 0 0 0-3.19.89v-1.3a8.61 8.61 0 0 1 3.19-.74c2.67 0 3.8 1.2 3.8 4v4.78a16.51 16.51 0 0 0 .1 2.28H191zm5.05.62l6.52-8.56h-6.26v-1.15h7.8v1.15l-6.52 8.54h6.52v1.15h-8.07v-1.1zm12.1-9.7h1.34v10.84h-1.34zm1.34-2.9h-1.34V63.1h1.34zm9.26 12.84c2.33 0 3.6-2 3.6-4.53s-1.26-4.53-3.6-4.53-3.6 2-3.6 4.53 1.25 4.53 3.6 4.53m0-10.2c3.5 0 5.06 2.72 5.06 5.67s-1.56 5.67-5.06 5.67-5.06-2.72-5.06-5.67 1.55-5.67 5.06-5.67m9.26 2.8a24.62 24.62 0 0 0-.09-2.55h1.3v1.93a3.44 3.44 0 0 1 3.5-2.18c2.68 0 3.7 1.78 3.7 4.16v6.93h-1.34V72c0-2-.72-3.36-2.57-3.36-2.44 0-3.2 2.15-3.2 4v6H228zm20 2.1c0-1.9-.76-3.76-2.76-3.76s-3.18 2-3.18 3.76zm.66 5.85a9 9 0 0 1-3.14.59c-3.6 0-4.93-2.42-4.93-5.67s1.83-5.67 4.56-5.67c3.06 0 4.32 2.46 4.32 5.37v.68h-7.37c0 2.3 1.23 4.15 3.56 4.15a6.89 6.89 0 0 0 3-.82zM261 76.73a5.85 5.85 0 0 0 3.27.87c1.83 0 3.34-.94 3.34-3 0-2.9-6.8-3.27-6.8-7.16 0-2.38 2.08-3.87 4.7-3.87a8.88 8.88 0 0 1 2.91.49l-.23 1.34a6.07 6.07 0 0 0-2.7-.55c-1.53 0-3.2.63-3.2 2.55 0 3 6.8 3 6.8 7.33 0 3-2.57 4.18-4.86 4.18a8.47 8.47 0 0 1-3.36-.64zm16.3 1.9h-1.57l-3.67-10.84h1.46l3 9.37h.04l3.14-9.37h1.4l-3.8 10.84zm7.33-10.84H286v10.84h-1.34zm1.36-2.9h-1.34v-1.8H286zM290 77.5l6.52-8.56h-6.27v-1.15h7.82v1.15l-6.53 8.54h6.53v1.15H290V77.5zm11.08 0l6.53-8.56h-6.27v-1.15h7.8v1.15l-6.52 8.54h6.52v1.15h-8.07V77.5zm18.7-5.06c0-1.9-.76-3.76-2.76-3.76s-3.18 2-3.18 3.76zm.67 5.85a9 9 0 0 1-3.15.59c-3.6 0-4.93-2.42-4.93-5.67s1.83-5.67 4.57-5.67c3.06 0 4.3 2.46 4.3 5.37v.68h-7.4c0 2.3 1.23 4.15 3.57 4.15a6.93 6.93 0 0 0 3-.82zm5-8.08a18.39 18.39 0 0 0-.09-2.42h1.34v2.08a3.22 3.22 0 0 1 2.79-2.33 4.12 4.12 0 0 1 .93.12v1.4a3.28 3.28 0 0 0-1-.13c-2.12 0-2.7 2.38-2.7 4.33v5.36h-1.34zm14.83 2.96h-.38c-2.32 0-5.1.23-5.1 2.6 0 1.42 1 2 2.26 2 3.14 0 3.2-2.75 3.2-3.9zm.12 3.7a3.8 3.8 0 0 1-3.44 2c-3.08 0-3.57-2.08-3.57-3.06 0-3.63 3.87-3.8 6.67-3.8h.26v-.55c0-1.85-.66-2.78-2.47-2.78a5.7 5.7 0 0 0-3.18.89v-1.3a8.56 8.56 0 0 1 3.18-.74c2.67 0 3.8 1.2 3.8 4v4.78a15 15 0 0 0 .11 2.28h-1.32zM96.84 94.76a7.64 7.64 0 0 0-3.31-.64c-3.85 0-6 2.72-6 6.4s2.1 6.4 6 6.4a7.18 7.18 0 0 0 3.31-.64l.1 1.28a8 8 0 0 1-3.4.64c-4.67 0-7.48-3.1-7.48-7.68s2.9-7.66 7.48-7.66a9.66 9.66 0 0 1 3.4.55zm9.73 12.24c2.34 0 3.6-2 3.6-4.53S108.9 98 106.57 98s-3.6 2-3.6 4.52 1.26 4.53 3.6 4.53m0-10.2c3.5 0 5.06 2.72 5.06 5.67s-1.55 5.68-5.06 5.68-5-2.73-5-5.68 1.55-5.67 5-5.67"/><path d="M115.8 99.64l-.08-2.55H117V99a3.45 3.45 0 0 1 3.51-2.19c2.68 0 3.7 1.8 3.7 4.16v6.93h-1.33v-6.6c0-2-.72-3.35-2.57-3.35-2.44 0-3.2 2.14-3.2 4v6h-1.34zm14.38-1.4H128V97.1h2.18v-.78c0-2.27.1-4.57 2.87-4.57a3.23 3.23 0 0 1 1.25.21l-.08 1.17a2.36 2.36 0 0 0-1.06-.23c-1.83 0-1.64 2-1.64 3.27v.93H134v1.15h-2.44v9.7h-1.34zm14.43 3.5c0-1.9-.77-3.75-2.77-3.75s-3.18 2-3.18 3.75zm.65 5.85a8.89 8.89 0 0 1-3.14.6c-3.6 0-4.93-2.43-4.93-5.68s1.83-5.67 4.57-5.67c3.06 0 4.3 2.47 4.3 5.37v.7h-7.4c0 2.3 1.23 4.14 3.57 4.14a7 7 0 0 0 3-.81zm9.05-.6c2.38 0 3.2-2.55 3.2-4.53s-.83-4.47-3.2-4.47c-2.55 0-3.2 2.42-3.2 4.52s.65 4.53 3.2 4.53m4.55.9h-1.34v-1.72a3.48 3.48 0 0 1-3.38 2c-3 0-4.46-2.47-4.46-5.68s1.27-5.67 4.46-5.67a3.65 3.65 0 0 1 3.38 2.08V92h1.34zm11.5-6.2c0-1.9-.76-3.75-2.76-3.75s-3.2 2-3.2 3.75zm.66 5.85a8.93 8.93 0 0 1-3.14.6c-3.6 0-4.93-2.43-4.93-5.68s1.82-5.67 4.56-5.67c3.06 0 4.32 2.47 4.32 5.37v.7h-7.42c0 2.3 1.24 4.14 3.57 4.14a7 7 0 0 0 3-.81zm4.98-8.07a20.86 20.86 0 0 0-.08-2.43h1.33v2.1h.05a3.2 3.2 0 0 1 2.78-2.34 5 5 0 0 1 .94.12v1.4a3.75 3.75 0 0 0-1-.13c-2.13 0-2.7 2.38-2.7 4.34v5.35H176zm14.86 2.95h-.38c-2.32 0-5.08.23-5.08 2.6 0 1.43 1 2 2.25 2 3.14 0 3.2-2.75 3.2-3.9zm.13 3.72h-.05a3.82 3.82 0 0 1-3.44 2c-3.08 0-3.57-2.1-3.57-3.07 0-3.63 3.87-3.8 6.67-3.8h.26v-.55c0-1.85-.66-2.78-2.46-2.78a5.73 5.73 0 0 0-3.19.89v-1.3a8.61 8.61 0 0 1 3.19-.74c2.67 0 3.8 1.2 3.8 4v4.78a16.43 16.43 0 0 0 .1 2.27H191zm5.05.6l6.52-8.56h-6.26V97.1h7.8v1.15l-6.52 8.54h6.52v1.15h-8.07v-1.13zm12.1-9.7h1.34v10.84h-1.34zm1.34-2.9h-1.34V92.4h1.34zm13.52 11.2l.08 2.55h-1.3V106a3.43 3.43 0 0 1-3.5 2.19c-2.68 0-3.7-1.8-3.7-4.17V97.1h1.34v6.6c0 2 .72 3.36 2.57 3.36 2.44 0 3.2-2.15 3.2-4v-6h1.3zm5-5.74a24.72 24.72 0 0 0-.09-2.55h1.3V99a3.43 3.43 0 0 1 3.5-2.19c2.68 0 3.7 1.8 3.7 4.16v6.93h-1.34v-6.6c0-2-.72-3.35-2.57-3.35-2.44 0-3.2 2.14-3.2 4v6H228zm20.17 6.72a6.46 6.46 0 0 0 2.83.64c1.27 0 2.4-.7 2.4-1.94 0-2.56-5.2-2.17-5.2-5.3 0-2.14 1.74-3 3.53-3a8.25 8.25 0 0 1 2.67.49l-.13 1.17a6.22 6.22 0 0 0-2.39-.51c-1.38 0-2.34.42-2.34 1.8 0 2 5.33 1.77 5.33 5.3 0 2.3-2.14 3.1-3.78 3.1a8 8 0 0 1-3-.52zm14.5 1.57h-1.57l-3.68-10.84h1.47l3 9.37h.05l3.14-9.37h1.4l-3.8 10.84zM270 97.1h1.34v10.84H270zm1.34-2.9H270v-1.78h1.34zm4.04 12.6l6.52-8.56h-6.27V97.1h7.82v1.15l-6.52 8.54h6.52v1.15h-8.07v-1.13zm12.1-7.28a18.56 18.56 0 0 0-.09-2.43h1.34v2.1a3.2 3.2 0 0 1 2.78-2.34 4.79 4.79 0 0 1 .94.12v1.4a3.75 3.75 0 0 0-1-.13c-2.12 0-2.7 2.38-2.7 4.34v5.35h-1.34zm14.82 2.95h-.38c-2.32 0-5.08.23-5.08 2.6 0 1.43 1 2 2.26 2 3.14 0 3.2-2.75 3.2-3.9zm.13 3.72a3.83 3.83 0 0 1-3.44 2c-3.08 0-3.57-2.1-3.57-3.07 0-3.63 3.86-3.8 6.67-3.8h.25v-.55c0-1.85-.66-2.78-2.46-2.78a5.76 5.76 0 0 0-3.19.89v-1.3a8.61 8.61 0 0 1 3.19-.74c2.67 0 3.8 1.2 3.8 4v4.78a15 15 0 0 0 .11 2.27h-1.32zm-207.9 48.26a7.79 7.79 0 0 0-3-.64 2.07 2.07 0 0 0-2.34 2.06c0 2.57 6.5 1.5 6.5 6.46 0 3.25-2.58 4.48-5.57 4.48a13 13 0 0 1-3.8-.57l.27-2.68a7.09 7.09 0 0 0 3.36.92c1.12 0 2.63-.58 2.63-1.92 0-2.82-6.5-1.65-6.5-6.56 0-3.3 2.56-4.53 5.18-4.53a11.18 11.18 0 0 1 3.54.54zm2.67 1.17h3.02l2.42 8.1h.04l2.2-8.1h3.32l2.38 8.1h.04l2.27-8.1h2.72l-3.36 10.94h-3.35l-2.38-8.35h-.04l-2.34 8.35h-3.25l-3.7-10.94zm20.5 0h2.85v10.94h-2.85zm0-4.72h2.85v2.72h-2.85zm12.66 7a6.93 6.93 0 0 0-2.55-.47c-.76 0-1.67.28-1.67 1.22 0 1.74 5 .63 5 4.58 0 2.55-2.28 3.57-4.6 3.57a12.55 12.55 0 0 1-3.23-.47l.17-2.33a6.33 6.33 0 0 0 2.8.72c.72 0 1.87-.28 1.87-1.34 0-2.14-5-.68-5-4.63 0-2.36 2.06-3.4 4.3-3.4a13.09 13.09 0 0 1 3.1.41zm9.75 0a6.89 6.89 0 0 0-2.55-.47c-.76 0-1.68.28-1.68 1.22 0 1.74 5 .63 5 4.58 0 2.55-2.28 3.57-4.6 3.57a12.61 12.61 0 0 1-3.23-.47l.17-2.33a6.3 6.3 0 0 0 2.8.72c.72 0 1.87-.28 1.87-1.34 0-2.14-5-.68-5-4.63 0-2.36 2.06-3.4 4.3-3.4a13.09 13.09 0 0 1 3.1.41zm15.6-3.2l-2.14 6.1h4.33zm-1.63-3h3.36l5.82 14.83H160l-1.27-3.4h-6l-1.3 3.4h-3.08zm18.35 9.3c0-1.87-.72-3.4-2.38-3.4-1.93 0-2.55 1.8-2.55 3.47 0 1.5.8 3.3 2.43 3.3s2.5-1.55 2.5-3.38m2.85-5.35v9.88c0 3-1.2 5.77-5.78 5.77a9.69 9.69 0 0 1-3.78-.74l.23-2.42a8.18 8.18 0 0 0 3.19.95c3.14 0 3.3-2.35 3.3-4.24a3.91 3.91 0 0 1-3.4 1.74c-3.23 0-4.46-2.6-4.46-5.52 0-2.64 1.36-5.68 4.63-5.68a3.64 3.64 0 0 1 3.36 1.74v-1.48zm10.1 4.35c-.1-1.4-.72-2.58-2.32-2.58a2.49 2.49 0 0 0-2.53 2.58zm1.9 5.92a7.55 7.55 0 0 1-3.76.87c-3.6 0-5.7-2.08-5.7-5.67 0-3.16 1.67-5.78 5.07-5.78 4.06 0 5.2 2.78 5.2 6.6h-7.57a2.87 2.87 0 0 0 3.13 2.76 7.41 7.41 0 0 0 3.63-1.1zm3.36-10.3h2.7v1.48a4.09 4.09 0 0 1 3.59-1.74c2.6 0 3.7 1.83 3.7 4.3v6.9h-2.84v-5.84c0-1.35 0-3.15-1.85-3.15-2.06 0-2.5 2.23-2.5 3.64v5.35h-2.84zm20.4 2.38a4.33 4.33 0 0 0-1.93-.41c-1.76 0-2.9 1.4-2.9 3.47s.95 3.56 2.95 3.56a5.89 5.89 0 0 0 2.19-.51l.13 2.36a9.15 9.15 0 0 1-2.85.36c-3.6 0-5.4-2.44-5.4-5.77 0-3.17 1.87-5.68 5.3-5.68a9.33 9.33 0 0 1 2.76.36zm7.2 5.6l2.64-8h2.88l-4.1 10.85c-.9 2.43-1.57 4.8-4.54 4.8a7.31 7.31 0 0 1-2-.29l.2-2.1a4.51 4.51 0 0 0 1.47.18 1.78 1.78 0 0 0 1.85-1.95l-4.2-11.5h3.15zm14.85-5.9H231v-2.08h2.1v-1.53c0-2.2 1.23-3.72 3.48-3.72a9.79 9.79 0 0 1 2.08.23l-.23 2.36a2.28 2.28 0 0 0-1.23-.38c-1 0-1.25.83-1.25 1.68v1.36h2.48v2.08H236v8.86h-2.85zm12.55 6.9c2.2 0 2.76-1.95 2.76-3.78 0-1.68-.9-3.25-2.76-3.25s-2.74 1.6-2.74 3.25c0 1.8.57 3.78 2.74 3.78m0-9.24a5.49 5.49 0 0 1 5.74 5.81 5.73 5.73 0 0 1-11.45 0 5.47 5.47 0 0 1 5.71-5.81m8.36.27h2.53v2.48a3.36 3.36 0 0 1 3-2.74 3 3 0 0 1 .88.09v2.86a3.08 3.08 0 0 0-1.28-.23c-2.3 0-2.3 2.9-2.3 4.46v4H254zm18 8.6h1.66a5.08 5.08 0 0 0 0-10.16H272zm-3-12.5h4.05c4.55 0 8.57 1.53 8.57 7.4s-4 7.42-8.57 7.42H269zm22.27 8.27c-.1-1.4-.72-2.58-2.32-2.58a2.48 2.48 0 0 0-2.52 2.58zm1.9 5.92a7.55 7.55 0 0 1-3.76.87c-3.6 0-5.7-2.08-5.7-5.67 0-3.16 1.67-5.78 5.07-5.78 4.06 0 5.2 2.78 5.2 6.6h-7.56a2.85 2.85 0 0 0 3.12 2.76 7.41 7.41 0 0 0 3.63-1.1zm2.14-10.3h3.06l2.72 7.97h.05l2.63-7.97h2.85l-4.04 10.94h-3.2l-4.06-10.94zm20.2 4.38c-.1-1.4-.72-2.58-2.32-2.58a2.49 2.49 0 0 0-2.53 2.58zm1.9 5.92a7.55 7.55 0 0 1-3.76.87c-3.6 0-5.72-2.08-5.72-5.67 0-3.16 1.7-5.78 5.08-5.78 4.06 0 5.2 2.78 5.2 6.6h-7.57a2.86 2.86 0 0 0 3.13 2.76 7.41 7.41 0 0 0 3.63-1.1zm3.42-15.3h2.85v15.93h-2.85zm11.17 14c2.2 0 2.76-1.95 2.76-3.78 0-1.68-.9-3.25-2.76-3.25s-2.74 1.6-2.74 3.25c0 1.8.58 3.78 2.74 3.78m0-9.24a5.49 5.49 0 0 1 5.74 5.81 5.73 5.73 0 0 1-11.45 0 5.47 5.47 0 0 1 5.71-5.81"/><path d="M343.18 161.06c0 1.55.62 3.54 2.5 3.54s2.4-2 2.4-3.54-.5-3.5-2.36-3.5-2.55 2-2.55 3.5m-2.86-5.44h2.7v1.55h.05a3.71 3.71 0 0 1 3.4-1.81c3.35 0 4.6 2.68 4.6 5.7s-1.24 5.75-4.66 5.75a3.74 3.74 0 0 1-3.2-1.5v5.7h-2.84zm13.25 0h2.66v1.52a3.87 3.87 0 0 1 3.25-1.78 3.2 3.2 0 0 1 3.23 1.94 3.75 3.75 0 0 1 3.42-1.94c2.7 0 3.46 1.85 3.46 4.3v6.9h-2.85V160c0-1 0-2.46-1.63-2.46-1.9 0-2.13 2.25-2.13 3.68v5.3h-2.84V160c0-1 0-2.46-1.64-2.46-1.9 0-2.12 2.25-2.12 3.68v5.3h-2.85zm26.1 4.38c-.08-1.4-.72-2.58-2.3-2.58a2.49 2.49 0 0 0-2.53 2.58zm1.92 5.92a7.55 7.55 0 0 1-3.76.87c-3.6 0-5.72-2.08-5.72-5.67 0-3.16 1.68-5.78 5.08-5.78 4.06 0 5.2 2.78 5.2 6.6h-7.57a2.86 2.86 0 0 0 3.13 2.76 7.41 7.41 0 0 0 3.63-1.1zm3.4-10.3h2.7v1.48h.05a4.09 4.09 0 0 1 3.59-1.74c2.58 0 3.7 1.83 3.7 4.3v6.9h-2.85v-5.84c0-1.35 0-3.15-1.84-3.15-2.06 0-2.5 2.23-2.5 3.64v5.35H385zm14.18 2.08h-2.1v-2.08h2.1v-2.2l2.85-.9v3.1h2.52v2.08H402v5.1c0 .93.25 1.8 1.33 1.8a2.48 2.48 0 0 0 1.3-.3l.08 2.26a7.46 7.46 0 0 1-2.1.25 3.22 3.22 0 0 1-3.46-3.55zM90.13 194a2.42 2.42 0 0 0 2-1 3.64 3.64 0 0 0 .59-2.25H91.5c-1.27 0-3.16.22-3.16 1.9 0 .93.78 1.33 1.8 1.33m-3.34-8.54a10 10 0 0 1 3.81-.82c3.33 0 4.7 1.37 4.7 4.6v4.14l.14 2.44H93a12.48 12.48 0 0 1-.13-1.64 3.9 3.9 0 0 1-3.38 1.89c-1.93 0-3.82-1.16-3.82-3.25a3.21 3.21 0 0 1 1.87-3.12 8.65 8.65 0 0 1 3.67-.63h1.57c0-1.77-.78-2.37-2.46-2.37a5.7 5.7 0 0 0-3.38 1.2zm11.65-.5h2.7v1.5h.05a4.09 4.09 0 0 1 3.59-1.74c2.6 0 3.7 1.82 3.7 4.3v6.9h-2.84V190c0-1.34 0-3.14-1.85-3.14-2.06 0-2.5 2.23-2.5 3.63v5.35h-2.84zm17.97 8.98c1.9 0 2.5-2 2.5-3.54s-.72-3.48-2.55-3.48-2.35 2-2.35 3.48.53 3.54 2.4 3.54m2.6.73a4.07 4.07 0 0 1-3.36 1.48c-3.36 0-4.6-2.76-4.6-5.75s1.23-5.7 4.6-5.7a3.89 3.89 0 0 1 3.27 1.53v-6.27h2.85v15.93H119zm23.28 1.02a15.29 15.29 0 0 1-3.38.46c-4.8 0-8.13-2.4-8.13-7.4s3.1-7.92 8.13-7.92a9.89 9.89 0 0 1 3.36.61l-.2 2.5a6.12 6.12 0 0 0-3.21-.79c-3.06 0-5 2.34-5 5.38s1.87 5.3 5 5.3a8.28 8.28 0 0 0 3.25-.62zm7.26-1.75c2.2 0 2.77-1.95 2.77-3.78 0-1.67-.9-3.24-2.77-3.24s-2.74 1.6-2.74 3.24c0 1.8.58 3.78 2.74 3.78m0-9.23a5.48 5.48 0 0 1 5.74 5.8 5.73 5.73 0 0 1-11.45 0 5.47 5.47 0 0 1 5.71-5.8m13.3 9.23c2.2 0 2.76-1.95 2.76-3.78 0-1.67-.9-3.24-2.76-3.24s-2.74 1.6-2.74 3.24c0 1.8.58 3.78 2.74 3.78m0-9.23a5.48 5.48 0 0 1 5.74 5.8 5.73 5.73 0 0 1-11.45 0 5.47 5.47 0 0 1 5.71-5.8m11.14 5.68c0 1.55.62 3.54 2.5 3.54s2.4-2 2.4-3.54-.5-3.48-2.36-3.48-2.55 2-2.55 3.48m-2.86-5.44h2.72v1.55a3.71 3.71 0 0 1 3.4-1.8c3.35 0 4.6 2.67 4.6 5.7s-1.24 5.75-4.66 5.75a3.74 3.74 0 0 1-3.21-1.5v5.7h-2.84zm20.16 4.4c-.08-1.4-.72-2.57-2.3-2.57a2.49 2.49 0 0 0-2.53 2.57zm1.92 5.93a7.58 7.58 0 0 1-3.76.86c-3.6 0-5.72-2.08-5.72-5.67 0-3.16 1.68-5.77 5.08-5.77 4.06 0 5.2 2.77 5.2 6.6h-7.56a2.86 2.86 0 0 0 3.12 2.76 7.42 7.42 0 0 0 3.64-1.1zm3.42-10.33h2.52v2.5h.05a3.34 3.34 0 0 1 3-2.74 3.28 3.28 0 0 1 .87.08v2.87a2.83 2.83 0 0 0-1.27-.24c-2.32 0-2.32 2.9-2.32 4.46v4h-2.84zM209 194a2.39 2.39 0 0 0 2-1 3.52 3.52 0 0 0 .6-2.25h-1.23c-1.28 0-3.17.22-3.17 1.9 0 .93.8 1.33 1.8 1.33m-3.34-8.54a10 10 0 0 1 3.81-.82c3.33 0 4.7 1.37 4.7 4.6v1.4l.05 2.75.12 2.44h-2.5a12.48 12.48 0 0 1-.13-1.64 3.87 3.87 0 0 1-3.37 1.89c-1.94 0-3.82-1.16-3.82-3.25a3.21 3.21 0 0 1 1.86-3.12 8.72 8.72 0 0 1 3.68-.63h1.57c0-1.77-.78-2.37-2.46-2.37a5.68 5.68 0 0 0-3.38 1.2zM218.2 187h-2.1v-2.08h2.1v-2.2l2.84-.9v3.1h2.53V187h-2.53v5.1c0 .93.26 1.8 1.34 1.8a2.58 2.58 0 0 0 1.3-.29l.08 2.25a7.46 7.46 0 0 1-2.1.25 3.21 3.21 0 0 1-3.46-3.54zm7.7-2.07h2.85v10.94h-2.85zm0-4.72h2.85v2.72h-2.85zm11.17 13.7c2.2 0 2.76-1.95 2.76-3.78 0-1.67-.9-3.24-2.76-3.24s-2.74 1.6-2.74 3.24c0 1.8.58 3.78 2.74 3.78m0-9.23a5.48 5.48 0 0 1 5.74 5.8 5.73 5.73 0 0 1-11.45 0 5.47 5.47 0 0 1 5.71-5.8m8.33.25h2.7v1.5a4.11 4.11 0 0 1 3.6-1.74c2.6 0 3.7 1.82 3.7 4.3v6.9h-2.84V190c0-1.34 0-3.14-1.85-3.14-2.06 0-2.5 2.23-2.5 3.63v5.35h-2.84zm27.74-1.17a7.75 7.75 0 0 0-3-.64 2.07 2.07 0 0 0-2.34 2.07c0 2.57 6.5 1.48 6.5 6.45 0 3.25-2.56 4.48-5.56 4.48a13.08 13.08 0 0 1-3.8-.57l.28-2.67a7.12 7.12 0 0 0 3.35.91c1.13 0 2.63-.58 2.63-1.9 0-2.83-6.5-1.66-6.5-6.56 0-3.32 2.56-4.53 5.18-4.53a11.18 11.18 0 0 1 3.54.53zm7.13 9.77h1.66a5.08 5.08 0 0 0 0-10.15h-1.66zm-3-12.48h4.06c4.55 0 8.56 1.53 8.56 7.4s-4 7.4-8.56 7.4h-4.06zm26.48 14.6a15.45 15.45 0 0 1-3.38.46c-4.8 0-8.13-2.4-8.13-7.4s3.1-7.92 8.13-7.92a10 10 0 0 1 3.36.61l-.22 2.5a6.07 6.07 0 0 0-3.2-.79c-3.06 0-5 2.34-5 5.38s1.88 5.3 5 5.3a8.28 8.28 0 0 0 3.25-.62z"/></g><path d="M60.54 4.9S49.24 0 30.33 0C11.4 0 .1 4.9.1 4.9s-1 21.73 3.27 34A45.67 45.67 0 0 0 30.32 66.6a45.64 45.64 0 0 0 26.94-27.67c4.3-12.3 3.28-34 3.28-34" fill="#e21e26"/><path d="M50.4 23.64v11.98h-14.1V49.6H24.25V35.62h-14.1V23.64h14.1V9.68h12.07v13.96h14.1z" fill="#fff"/></svg>