<svg xmlns="http://www.w3.org/2000/svg" viewBox="0 0 536.11 119.34"><path d="M117.25 0h3.45c11.24.72 20.58 11.42 19.6 22.67a21.44 21.44 0 0 1-17 19.55 21.44 21.44 0 0 1 16 15.36c1 3.66.6 7.5.7 11.24-.07 7.3.14 14.62-.1 21.92-.62 7.62-8.23 12.57-15.35 12.88h-28.1V116a3.79 3.79 0 0 1-2.52 3.33H93a23.88 23.88 0 0 1-4.51-2.93q-7.92-5.77-15.8-11.54c-.8-.53-1.52-1.35-2.55-1.26h-55.7a14 14 0 0 1-7.78-2.3c-4-2.66-6-7.45-6.65-12.06v-21c.68-6.53 6.2-11.85 12.57-12.94a14.81 14.81 0 0 1-.46-28.77c6.87-2 14.63 1.9 17.42 8.42a17.25 17.25 0 0 1 6.33-13.54 17 17 0 0 1 26.38 6.62 18.81 18.81 0 0 1 35.4-7.75C97.9 9.86 106.86.7 117.25 0zm-32 47.35A19.93 19.93 0 0 1 98.08 58a21.54 21.54 0 0 1 16.3-15.81 21.73 21.73 0 0 1-14.63-11.47 19 19 0 0 1-14.49 16.63zM63.5 36a17.15 17.15 0 0 1-14.09 15.4 17.59 17.59 0 0 1 13.07 10 20.1 20.1 0 0 1 14.27-14A19.07 19.07 0 0 1 63.5 36zm-32.8 4.7A15 15 0 0 1 19 55.42a15.79 15.79 0 0 1 11 8.93 17.33 17.33 0 0 1 13.77-12.92A17.28 17.28 0 0 1 30.7 40.71z" fill="#5bc6e5"/><path d="M177.17 23.5q13.38-.12 26.77 0c.1 1.12.08 2.25.06 3.37-3.82.15-7.64 0-11.46.07V56.3c-1.23.1-2.76.52-3.83-.15v-29.2h-11.25c-.78-.94-.27-2.35-.3-3.44zm31.96 0a37.05 37.05 0 0 1 3.8 0c.24 8.1 0 16.23.12 24.35l20.08-20.56v-3.73a14.52 14.52 0 0 1 3.84 0v32.76a19.7 19.7 0 0 1-3.84 0V32.14L213 52.77a14.28 14.28 0 0 1-.2 3.58 16 16 0 0 1-3.73 0l.06-32.85zm36.42-.04c1.32.1 2.8-.26 4 .2 4.22 6.7 8.18 13.57 12.35 20.3l12.6-20.52h3.9c.24 10.55 0 21.12.1 31.68.3 2-2.35 1-3.56 1.3a8.09 8.09 0 0 1-.32-3.36V30.48L263.7 48.2c-1.1.57-3.18.77-3.8-.6l-10.62-17.24v25.9a12.21 12.21 0 0 1-3.72.06l-.01-32.85zm-68.95 40.7c2.4-1.6 6-2.16 8.3-.07a4.22 4.22 0 0 1-1.24 6.92 4.48 4.48 0 0 1 2.25 7c-2.1 2.57-6 2.42-8.83 1.16-1-.34-.2-1.34.13-1.92a6.26 6.26 0 0 0 6.19.59 3.14 3.14 0 0 0 .37-5.07c-1.55-1.2-3.6-.63-5.4-.8v-1.64c1.62-.12 3.45.33 4.9-.63a2.88 2.88 0 0 0-.42-4.81c-1.84-.92-3.93-.1-5.56.87-.23-.6-.47-1.1-.7-1.6zm17.57-1.24h2.15l6.6 16.74h-2.14l-1.62-4.1h-7.86c-.54 1.37-1 2.77-1.62 4.13h-2c2.05-5.68 4.33-11.18 6.5-16.77zm1.07 2.43l-3.4 8.62h6.82l-3.4-8.62zm16.76.03c2.94-3.16 8.1-3.4 11.65-1.2l-.77 1.7c-3.45-2.4-8.9-1.53-10.6 2.55a6.85 6.85 0 0 0 3.23 9.1 8.21 8.21 0 0 0 7.43-.78l.8 1.67A10 10 0 0 1 212.5 78a8.72 8.72 0 0 1-.5-12.63zm18.54-2.28a8.85 8.85 0 0 1 11 5.89 8.6 8.6 0 0 1-5.85 10.57 8.83 8.83 0 0 1-11-5.74 8.67 8.67 0 0 1 5.85-10.72zm1.25 1.66a6.71 6.71 0 1 0 7.94 6.66 6.69 6.69 0 0 0-7.94-6.66zm12.73-1.87h1.87V77.8h9.66V62.9a13.9 13.9 0 0 1 2 0v14.86c.85 0 1.7 0 2.56.07v7.55h-2c-.1-1.94 0-3.87-.05-5.8h-14.18c.13-5.53.03-11.1.14-16.7zm18.02.12a12.49 12.49 0 0 1 2 0v12.34c3.46-3.4 6.77-6.93 10.16-10.4v-1.88c.68 0 1.36 0 2 .05v16.66a15 15 0 0 1-2 0V67.55c-3.46 3.4-6.8 6.93-10.17 10.4v1.75h-2l.01-16.7zM287 63a12.62 12.62 0 0 1 2 0v10.53a6.47 6.47 0 0 1-1.86 5 6.83 6.83 0 0 1-8.85-.26c.32-.52.64-1 1-1.54 2.1 2.3 6.74 2 7.5-1.38.42-4.17.08-8.28.2-12.35zm10-.1h2.16l6.5 16.7c-.7 0-1.37.06-2.06.07L302 75.55h-7.86l-1.63 4.13h-2c2.06-5.68 4.37-11.2 6.5-16.77zm-2.34 11h6.83q-1.7-4.3-3.43-8.58l-3.4 8.67zm13.65-10.98c4-.08 8 0 12.05 0v16.73h-1.94v-14.8h-8.1c-.1 5 .28 10.47-2.64 14.8a17 17 0 0 1-1.75 0c2.77-5.1 2.3-11.1 2.4-16.72zm15.45-.01h1.86c.1 2.5 0 5 .05 7.48h10l.05-7.48h1.87v16.73h-1.94v-7.47h-10v7.47h-1.93l.04-16.73zm23.24.02a8.81 8.81 0 0 1 10.49 6.35 8.59 8.59 0 0 1-6.14 10.33c-4.64 1.4-10.07-1.7-10.94-6.53A8.66 8.66 0 0 1 347 62.94zm.76 1.78a6.72 6.72 0 1 0 3.24 13c3.68-1.05 5.56-5.5 4.13-9a6.69 6.69 0 0 0-7.36-4zm16.6-1.72c.82 0 2.12-.46 2.5.58l4.87 9.45q2.27-4.73 4.5-9.46c.33-1 1.58-.53 2.35-.62-1 2.9-2.64 5.56-3.86 8.37-1.36 2.47-2.13 5.42-4.43 7.23a6.8 6.8 0 0 1-4.79 1.15v-1.6a5.16 5.16 0 0 0 5.2-3c-2.1-4.1-4.42-8-6.33-12.1zm15.74-.12h1.87c.05 2.48 0 5 0 7.44h1.85l6.13-7c.64-.83 1.8-.4 2.67-.4-2.24 2.85-4.8 5.43-7.14 8.2 2.4 2.85 5 5.53 7.3 8.43a9 9 0 0 1-2.44-.06c-2.26-2.4-4.33-5-6.6-7.38H382v7.48h-2l.1-16.7zm15.57.54c0-.67.8-.5 1.26-.54 3.65.08 7.3-.1 10.94.1.05 2.46 0 4.93 0 7.38 2.8.17 5.78-.5 8.38.8 3.05 1.6 2.7 6.8-.54 8s-6.62.3-9.9.52v-14.8h-8.1c0 4.7.23 9.75-2.1 14-.42 1.06-1.63.78-2.53.78 3.26-4.78 2.45-10.8 2.6-16.23zm12.23 8.63v6c2.27-.1 4.67.32 6.84-.5s2.1-4.57-.2-5.24-4.44-.12-6.65-.25zm10.58-9.12c.7 0 1.6-.25 2.22.16 1.82 3.24 3.36 6.63 5.15 9.9l4.5-9.47c.33-1 1.58-.5 2.35-.6-1.77 4.4-4.07 8.6-6.08 12.88a6.63 6.63 0 0 1-7 3.87V78a5 5 0 0 0 5.17-3c-2.1-4-4.4-7.94-6.3-12.07zm15.36-.01h2c.3 2.56-.47 5.3.5 7.72 1.8 2.4 5.26 1.23 7.65.5v-8.17a12.49 12.49 0 0 1 2 0v16.7h-2c-.1-2.2 0-4.4-.06-6.6-2.83.85-6.45 1.58-8.84-.64-2.08-2.7-1.08-6.4-1.25-9.52zm15.42.74c-.1-1.15 1.32-.7 2-.73.1 4.12 0 8.25.05 12.4l10.18-10.45v-1.85h1.92v16.74c-.65 0-1.3 0-1.93-.06V67.4c-3.32 3.56-6.86 6.9-10.13 10.5 0 .57 0 1.15-.05 1.72h-2l-.04-15.97zm17.55-.74c3 .15 6.34-.6 9.16.84a4.16 4.16 0 0 1-.28 7.18c3.77.3 4.94 5.9 1.75 7.77s-7.13.6-10.65.93l.02-16.72zm1.92 1.65v5.8c1.83-.1 3.73.26 5.52-.25 2.15-.72 2.2-4.2.16-5.1-1.8-.78-3.8-.33-5.68-.44zm0 7.48v6c2.34-.1 4.82.33 7-.56a2.94 2.94 0 0 0-.56-5.32c-2.08-.34-4.28-.04-6.44-.12zm17.96-9.14h2.15l6.56 16.74h-2.08c-.6-1.36-1.14-2.73-1.65-4.12h-7.87l-1.63 4.1h-2c2.08-5.64 4.34-11.15 6.52-16.73zm-2.4 11.1h6.88l-3.4-8.58c-1.2 2.8-2.3 5.7-3.47 8.58zm12.63-11.1h1.95v7.4h9.92c0-2.38-.08-4.78 0-7.16.43-.6 1.33-.2 2-.28.1 2.5 0 5 .05 7.44 3 .2 6.3-.6 9 1.12 2.67 2 1.85 6.87-1.42 7.76-3.1.83-6.4.24-9.58.38-.06-2.52 0-5.05 0-7.57h-9.92v7.58h-2c-.15-5.5-.2-11.1 0-16.68zm13.95 9.14v6c2.3-.1 4.73.3 6.93-.5s2.14-4.3 0-5.13-4.64-.2-6.93-.36zM524 62.93c4-.07 8.05 0 12.07 0v1.77h-10v5.66h8.6c0 .6 0 1.2.05 1.78h-8.65v5.67h10.05v1.78H524V62.93zm-321.6 26.6a9.4 9.4 0 0 1 11.67-1.14l-.86 1.65a8.15 8.15 0 0 0-6.2-1.12 6.81 6.81 0 0 0-5 7 6.58 6.58 0 0 0 5.94 6.35 8.8 8.8 0 0 0 5.33-1.32c.28.56.55 1.14.8 1.7a10.14 10.14 0 0 1-11.18-.42 8.75 8.75 0 0 1-.51-12.71zm139.24.3c2.9-3.4 8.3-3.84 12-1.46l-.8 1.66c-3-1.9-7.34-1.88-9.65 1.07a7 7 0 0 0 .87 9.74c2.52 2 6.2 1.72 8.84.07l.8 1.66c-3.43 2.2-8.4 2.13-11.5-.66a8.72 8.72 0 0 1-.58-12.08zm53.07-2.77a8.8 8.8 0 0 1 9.64 4.71 8.54 8.54 0 0 1-1.84 10 8.91 8.91 0 0 1-12.14-.07 8.49 8.49 0 0 1-1.93-9.7 8.71 8.71 0 0 1 6.27-4.94zm-.26 2c-5 1.38-6.28 8.84-2 11.8 3.63 3 9.76.7 10.5-4 1.22-4.7-3.83-9.53-8.5-7.8zM177.33 87.1h2c.1 4.08 0 8.16.05 12.24 3.4-3.37 6.67-6.86 10-10.27 0-.66 0-1.32.07-2h2q.06 8.37 0 16.73h-2c-.1-4 0-8.1-.05-12.14-3.26 3.2-6.4 6.53-9.58 9.8-.8.57-.15 1.72-.77 2.33a12.63 12.63 0 0 1-1.74 0l.02-16.7zm39.1.01h2.1l6.27 10.4 6.3-10.4h2.15q.1 8.34 0 16.68h-2c-.1-4.35 0-8.7-.06-13.06-1.94 3-3.68 6.14-5.65 9.13-.6-.1-1.44.16-1.76-.5l-5.46-8.8v13.23h-1.83c-.16-5.52-.08-11.1-.04-16.7zm18.26 16.74c2.1-5.65 4.38-11.24 6.6-16.84.83 0 2.15-.4 2.4.73l6.24 16.1h-2c-.77-1.28-1-2.94-1.84-4.1a107.28 107.28 0 0 0-7.61 0c-.86 1.16-1.12 2.78-1.84 4.08zm4.22-5.8h6.8l-3.42-8.48c-1.2 2.8-2.28 5.64-3.38 8.48zm12.58-10.95h2c.1 2.45 0 4.9.05 7.34h9.92v-7.33h2c.1 2.43 0 4.87.05 7.3 2.83.1 5.87-.38 8.5.92 2.9 1.63 2.52 6.7-.64 7.84s-6.63.46-9.92.63c-.05-2.57 0-5.14 0-7.7h-9.95c-.05 2.58.1 5.16-.1 7.74h-1.93V87.12zm14 9v6c2.22-.14 4.56.38 6.7-.38a2.89 2.89 0 0 0 .22-5.16c-2.2-.84-4.62-.3-6.92-.44zm13.15-9h12c0 .6 0 1.2-.05 1.8h-10v5.66h8.73c-.05.56.2 1.24-.14 1.72-2.86.2-5.73 0-8.6.08v5.67h10c0 .6 0 1.2-.05 1.8h-11.9v-16.7zm14.3 0h1.9c.05 2.44 0 4.88 0 7.32h9.9c.06-2.45-.1-4.9.1-7.34h1.94c.1 2.45 0 4.9.05 7.34 2.85.15 6-.45 8.6 1 3 1.67 2.47 6.82-.78 7.9s-6.55.37-9.8.57c-.18-2.57 0-5.15-.1-7.73h-9.9v7.72h-1.9zm13.93 9v6c2.26-.13 4.63.38 6.8-.4a2.86 2.86 0 0 0 .25-5.09c-2.2-.94-4.72-.32-7.06-.5zm13.14-9h11.95v1.78h-9.9v5.66h8.64v1.78c-2.87.05-5.74 0-8.6 0V102H332v1.78h-11.92q-.14-8.3-.08-16.67zm36 .01h2V99.4q5.2-5.14 10.2-10.4v-1.82h1.93v16.73h-1.9V91.64c-3.3 3.24-6.45 6.62-9.7 9.9-.7.57-.43 1.56-.52 2.35h-2q-.1-8.4-.01-16.77zm17.48-.01h7.48a5.31 5.31 0 0 1 4.85 3.65 5.54 5.54 0 0 1-3.24 7c-2.33.62-4.77.37-7.15.43l-.05 5.66h-1.9V87.12zm1.94 1.8v7.47c2.2-.1 4.5.3 6.62-.4 2.8-1.2 2.65-5.95-.32-6.87-2.06-.44-4.2-.12-6.3-.2zm32.36-1.8c.8.1 2-.42 2.45.55l5.92 9.83 6.32-10.4h2.08c.14 5.58.14 11.18 0 16.76h-1.9c-.2-4.34 0-8.7-.1-13-1.83 2.83-3.5 5.77-5.3 8.6-.34.64-1.17.37-1.75.47-2-3-3.78-6.22-5.78-9.26l-.05 13.23h-1.87q-.06-8.43 0-16.8zm18.22 16.7l6.7-16.87c.78.1 2.08-.33 2.3.73l6.3 16.14h-2.07c-.6-1.35-1.08-2.73-1.63-4.1h-7.9l-1.65 4.1c-.66.02-1.35.01-2.04-.01zm4.26-5.78h6.8l-3.4-8.5c-1.2 2.8-2.28 5.65-3.37 8.5zm12.57-10.93h2c.1 5 0 9.94 0 14.9h8.63c.06-5-.1-10 .1-14.95h1.93c.1 5 0 10 .05 14.95h8.76V87.1h2v16.75H442.8q-.04-8.34.02-16.7zm25 .03c4.58-.1 9.16 0 13.75 0 0 .6 0 1.2-.06 1.8h-5.85l-.05 14.95h-1.87V88.98c-2 0-3.94 0-5.9-.05a26.41 26.41 0 0 1-.02-1.77zm15.22 0c3 .15 6.2-.62 9 .65s2.84 5.9 0 7.27c3.66.46 4.82 5.82 1.72 7.75-3.26 1.84-7.2.8-10.76 1q-.02-8.34.04-16.67zm2 1.64v5.66c1.7 0 3.42.1 5.13-.06 2.26-.4 2.7-3.87.85-5s-4-.4-5.96-.6zm0 7.34v6c2.34-.17 4.85.46 7.05-.53a2.91 2.91 0 0 0-.24-5.15c-2.17-.65-4.53-.2-6.8-.32zm11.4 7.73c2.1-5.68 4.37-11.3 6.63-16.9l2.07.06 6.54 16.8h-2.08l-1.64-4.1h-7.88c-.94 1.7-.88 5.02-3.64 4.15zm4.2-5.8h6.82l-3.43-8.56-3.4 8.56z" fill="#3457a5"/></svg>