<svg xmlns="http://www.w3.org/2000/svg" xmlns:xlink="http://www.w3.org/1999/xlink" viewBox="0 0 283.5 283.5"><g fill="#ed1c24"><path d="M117.4 174.2v.7l-3.3 5.1h2.4l.1-.8h1l-.1 1.9h-5.1v-.7l3.3-5h-2.2l-.1.8h-1l.1-1.9h4.9z"/><use xlink:href="#B"/><path d="M125.2 180.2l.5-.1 2.1-5.9h1.4l2 5.9.5.1v.8h-2.3v-.8l.5-.1-.3-.9h-2.2l-.3.9.5.1v.8h-2.3v-.8zm2.4-2h1.6l-.8-2.4-.8 2.4z"/><use xlink:href="#B" x="14.1"/><path d="M145.1 174.2v.8l-.7.1v3.8c0 .7-.2 1.2-.6 1.6s-1 .6-1.6.6c-.7 0-1.3-.2-1.7-.5s-.6-.9-.6-1.5h1.3c0 .4.1.6.3.8s.4.2.7.2.5-.1.6-.3c.2-.2.3-.5.3-.8v-3.8l-.7-.1v-.8h2.7zm5 3.8h-2.3v1.9h2.2l.1-.8h1v1.9h-5.4v-.8l.7-.1v-4.9l-.7-.1v-.8h5.3v1.9h-1l-.1-.8h-2.2v1.7h2.3v.9zm8.5-2l-1.8 5h-.9l-1.8-5 .1 3v1.1l.7.1v.8h-2.8v-.8l.7-.1v-4.9l-.7-.1v-.8h2.5l1.7 5 1.7-5h2.5v.8l-.7.1v4.9l.7.1v.8h-2.8v-.8l.7-.1V179l.2-3zm-43.2 6.7c.8 0 1.5.3 2.1.8.5.5.8 1.2.8 2v1.1c0 .8-.3 1.5-.8 2s-1.2.8-2.1.8h-3.1v-.8l.7-.1v-4.9l-.7-.1v-.8h3.1zm-.9 1.1v4.7h.9c.5 0 .9-.2 1.1-.5.3-.3.4-.8.4-1.3v-1.1c0-.5-.1-1-.4-1.3s-.7-.5-1.1-.5h-.9zm10.9 2.4c0 1-.3 1.8-.9 2.5s-1.3 1-2.2 1-1.7-.3-2.2-1c-.6-.7-.8-1.5-.8-2.5v-.1c0-1 .3-1.8.8-2.5.6-.7 1.3-1 2.2-1s1.7.3 2.2 1c.6.7.9 1.5.9 2.5v.1zm-1.3-.2c0-.7-.1-1.3-.4-1.7s-.7-.7-1.3-.7-1 .2-1.3.7c-.3.4-.4 1-.4 1.7v.1c0 .7.1 1.3.4 1.7s.7.7 1.3.7 1-.2 1.3-.7c.3-.4.4-1 .4-1.7v-.1zm7.9-3.3c.8 0 1.4.2 1.8.6.5.4.7.9.7 1.6s-.2 1.2-.7 1.6-1.1.6-1.8.6h-1.1v1.5l.7.1v.8h-2.8v-.8l.7-.1v-4.9l-.7-.1v-.8h3.2zm-1.1 3.3h1.1c.4 0 .7-.1.9-.3s.3-.5.3-.8-.1-.6-.3-.8-.5-.3-.9-.3h-1.1v2.2zm10.6.2c0 1-.3 1.8-.9 2.5s-1.3 1-2.2 1-1.7-.3-2.2-1c-.6-.7-.8-1.5-.8-2.5v-.1c0-1 .3-1.8.8-2.5.6-.7 1.3-1 2.2-1s1.7.3 2.2 1c.6.7.9 1.5.9 2.5v.1zm-1.4-.2c0-.7-.1-1.3-.4-1.7s-.7-.7-1.3-.7-1 .2-1.3.7c-.3.4-.4 1-.4 1.7v.1c0 .7.1 1.3.4 1.7s.7.7 1.3.7 1-.2 1.3-.7c.3-.4.4-1 .4-1.7v-.1zm7.3-1.1h-1l-.2-.9c-.1-.1-.3-.1-.5-.2s-.5-.1-.7-.1c-.4 0-.7.1-.9.2-.2.2-.3.4-.3.6s.1.4.3.6l1.1.5c.8.2 1.3.5 1.7.8s.6.8.6 1.4-.2 1-.7 1.4c-.5.3-1.1.5-1.8.5-.5 0-1-.1-1.5-.3-.4-.2-.8-.4-1.1-.7v-1.4h1.1l.1 1c.1.1.3.2.6.3.2.1.5.1.8.1.4 0 .7-.1.9-.2.2-.2.3-.4.3-.6 0-.3-.1-.5-.3-.6-.2-.2-.5-.3-1-.4-.8-.2-1.4-.5-1.8-.8s-.6-.8-.6-1.3c0-.6.2-1 .7-1.4.5-.3 1.1-.5 1.8-.5.5 0 1 .1 1.4.2l1.1.6v1.2zm.9 4.6v-.8l.7-.1v-4.9l-.7-.1v-.8h2.8v.8l-.7.1v4.8h1.9l.1-.9h1v1.9h-5.1zm5.8-.8l.5-.1 2.1-5.9h1.4l2.1 5.9.5.1v.8h-2.3v-.8l.5-.1-.3-.9h-2.2l-.3.9.5.1v.8h-2.3v-.8zm2.4-2h1.6l-.8-2.4-.8 2.4z"/></g><use xlink:href="#C" fill="#585eaa"/><use xlink:href="#C" x="15.412" y="15.405" fill="#00aaa5"/><use xlink:href="#D" fill="#39b54a"/><use xlink:href="#D" x="15.408" y="15.404" fill="#8dc63f"/><use xlink:href="#D" x="-15.398" y="-15.405" fill="#00a651"/><use xlink:href="#C" x="15.405" y="-15.412" fill="#6c8cc7"/><path d="M204.316 82.035L188.9 97.45l-15.415-15.415L188.9 66.62z" fill="#8ed8f8"/><use xlink:href="#C" x="-15.411" y="-15.404" fill="#007dc5"/><use xlink:href="#D" x="-30.796" y="-30.809" fill="#0054a6"/><use xlink:href="#C" x="-0.008" y="-30.815" fill="#5da9dd"/><use xlink:href="#E"/><use xlink:href="#F"/><use xlink:href="#E" x="13.2"/><g fill="#009444"><use xlink:href="#E"/><use xlink:href="#F"/><use xlink:href="#E" x="13.2"/></g><path d="M85 67.7c-1.3-1.4-3.5-1.4-4.9 0L69.6 78.5c-1.3 1.4-1.3 3.6 0 5l10.5 10.8c1.3 1.4 1.3 3.6 0 5l-10.5 10.8c-1.3 1.4-1.3 3.6 0 5l10.5 10.8c1.3 1.4 1.3 3.6 0 5l-10.5 10.8c-1.3 1.4-1.3 3.6 0 5l10.5 10.8c1.3 1.4 1.3 3.6 0 5l-10.5 10.8c-1.3 1.4-1.3 3.6 0 5l10.5 10.8c1.3 1.4 3.5 1.4 4.9 0 23.3-15.2 42.2-34.5 56.8-58 1.3-1.4 1.3-3.6 0-5-15.1-23.6-36.4-41.7-56.8-58.4z" fill="#ed1c24"/><g fill="#f15a29"><circle cx="95.5" cy="92.7" r="3.9"/><path d="M120.4 99.3c-8.2 9.4-27.8 10.3-38.5 7.5-2.4-.6-4.7-1.4-6.9-2.4l-3.8 3.8c14.6 7.3 35.8 8.1 49.3-2.4 1.2-.9 2.3-1.9 3.2-3-1.1-1.1-2.2-2.3-3.3-3.5z"/></g><path d="M114.8 134.9l6.7 3.3 3.3-6.9-6.7-3.3zm17.5-22.2c-12.4 2.9-24.1 7.9-35.2 15.7-8.7 6.1-17 13.4-24 21.5l3.5 3.6c2.1-2.4 4.3-4.6 6.3-6.6 8.5-8.4 18.1-15.8 28.6-21.4 7.7-4.1 15.7-6.9 24.1-8.6-1.1-1.5-2.2-2.8-3.3-4.2z" fill="#be1e2d"/><path d="M89.7 175.4l5.8-9.2-10.3-.3zm32.6-31.3c-11.2 2.8-23 2.6-33.9-1.7-4.6-1.8-8.9-4.2-12.9-7l-3.6 3.7c2.1 1.5 4.3 2.8 6.5 4.1 16.3 9.2 35 9.9 52 3.8 1.9-2.5 3.8-5 5.6-7.6-4.6 2.1-9.5 3.6-13.7 4.7z" fill="#f7941d"/><g fill="#009444"><path d="M115 193.7h-1.4v1.1h1.3v-.5h.6v1.1h-3.2v-.4l.4-.1V192l-.4-.1v-.5h3.1v1.1h-.6v-.5h-1.3v1h1.4v.7zm3.4-2.2c.5 0 .9.2 1.2.5s.5.7.5 1.2v.7c0 .5-.2.9-.5 1.2s-.7.5-1.2.5h-1.8v-.6l.4-.1V192l-.4-.1v-.5h1.8zm-.6.6v2.8h.5c.3 0 .5-.1.7-.3s.2-.4.2-.8v-.7c0-.3-.1-.6-.2-.8s-.4-.3-.7-.3h-.5zm4.8-.6v.5l-.4.1v2.1c0 .3.1.5.2.6s.3.2.6.2.4-.1.6-.2c.1-.1.2-.3.2-.6V192l-.4-.1v-.5h1.7v.5l-.4.1v2.1c0 .5-.1.8-.4 1s-.7.4-1.2.4-.9-.1-1.2-.4c-.3-.2-.4-.6-.4-1V192h-.5v-.5h1.6zm6.5 1.3h-.6l-.1-.5c-.1-.1-.2-.1-.3-.2-.1 0-.3-.1-.4-.1-.3 0-.6.1-.8.4a1.69 1.69 0 0 0-.3 1v.1a1.69 1.69 0 0 0 .3 1c.2.3.5.4.8.4.2 0 .3 0 .4-.1.1 0 .2-.1.3-.2l.1-.5h.6v.8c-.2.2-.4.3-.6.4-.3.1-.5.2-.8.2-.5 0-1-.2-1.3-.6s-.5-.9-.5-1.4v-.1c0-.6.2-1.1.5-1.4.3-.4.8-.6 1.3-.6.3 0 .6.1.8.2.3.1.5.3.6.4v.8zm.9 2.2h.3l1.2-3.5h.8l1.2 3.5h.3v.5h-1.4v-.5h.3l-.2-.6h-1.3l-.2.6h.3v.5H130v-.5zm1.5-1.2h.9l-.5-1.4-.4 1.4zm6.3-2.3v1.1h-.6v-.4h-.7v2.8l.4.1v.5h-1.7v-.6l.4-.1v-2.8h-.7v.4h-.6v-1.1h3.5zm.8.5v-.5h1.7v.5l-.4.1v2.9l.4.1v.5h-1.7v-.6l.4-.1V192h-.4zm6.2 1.5c0 .6-.2 1.1-.5 1.5s-.8.6-1.3.6-1-.2-1.3-.6-.5-.9-.5-1.5v-.1c0-.6.2-1.1.5-1.5s.8-.6 1.3-.6 1 .2 1.3.6.5 1 .5 1.6zm-.8-.1c0-.4-.1-.8-.3-1-.2-.3-.4-.4-.8-.4s-.6.1-.8.4-.2.6-.2 1v.1c0 .4.1.8.3 1 .2.3.4.4.8.4.3 0 .6-.1.8-.4.2-.2.2-.6.2-1.1zm5.8-1.9v.5l-.4.1v3.4h-.8l-1.6-2.7v2.1l.4.1v.5h-1.7v-.5l.4-.1V192l-.4-.1v-.5h1.2l1.6 2.7V192l-.4-.1v-.5h1.7zm6.3 0v1.1h-.6v-.4h-.7v2.8l.4.1v.5h-1.7v-.6l.4-.1v-2.8h-.7v.4h-.6v-1.1h3.5zm4.5 2c0 .6-.2 1.1-.5 1.5s-.8.6-1.3.6-1-.2-1.3-.6-.5-.9-.5-1.5v-.1c0-.6.2-1.1.5-1.5s.8-.6 1.3-.6 1 .2 1.3.6.5 1 .5 1.6zm-.8-.1c0-.4-.1-.8-.3-1-.2-.3-.4-.4-.8-.4s-.6.1-.8.4-.2.6-.2 1v.1c0 .4.1.8.3 1 .2.3.4.4.8.4.3 0 .6-.1.8-.4.1-.2.2-.6.2-1.1z"/><use xlink:href="#G"/><path d="M120.7 197.4l-1.1 3h-.5l-1.1-3 .1 1.8v.6l.4.1v.5h-1.7v-.5l.4-.1v-2.9l-.4-.1v-.5h1.4l1 2.9 1-2.9h1.5v.5l-.4.1v2.9l.4.1v.5H120v-.5l.4-.1v-.6l.3-1.8zm4.2-1.1c.5 0 .8.1 1.1.4.3.2.4.5.4.9s-.1.7-.4.9-.6.3-1.1.3h-.7v.9l.4.1v.5H123v-.5l.4-.1v-2.9l-.4-.1v-.5h1.9zm-.6 2h.7c.2 0 .4-.1.5-.2s.2-.3.2-.5-.1-.4-.2-.5-.3-.2-.5-.2h-.7v1.4zm3.3 2v-.5l.4-.1v-2.9l-.4-.1v-.5h1.6v.5l-.4.1v2.8h1.1v-.5h.6v1.1h-2.9zm7.7-1.9c0 .6-.2 1.1-.5 1.5s-.8.6-1.3.6-1-.2-1.3-.6-.5-.9-.5-1.5v-.1c0-.6.2-1.1.5-1.5s.8-.6 1.3-.6 1 .2 1.3.6c.4.4.5.9.5 1.6zm-.8-.1c0-.4-.1-.8-.3-1-.2-.3-.4-.4-.8-.4-.3 0-.6.1-.8.4s-.2.6-.2 1v.1c0 .4.1.8.3 1 .2.3.4.4.8.4.3 0 .6-.1.8-.4.1-.3.2-.6.2-1.1zm3.4-1.5h-.3l.6 1.3.6-1.3h-.3v-.5h1.5v.5l-.3.1-1.1 2.1v.8l.4.1v.5h-1.7v-.5l.4-.1v-.9l-1.1-2-.3-.1v-.5h1.5v.5zm7.1.6l-1.1 3h-.5l-1.1-3 .1 1.8v.6l.4.1v.5h-1.7v-.5l.4-.1v-2.9l-.4-.1v-.5h1.4l1 2.9 1-2.9h1.5v.5l-.4.1v2.9l.4.1v.5h-1.7v-.5l.4-.1v-.6l.3-1.8z"/><use xlink:href="#G" x="34.9"/><path d="M155.9 196.3v.5l-.4.1v3.4h-.8l-1.6-2.7v2.1l.4.1v.5h-1.7v-.5l.4-.1v-2.9l-.4-.1v-.5h1.2l1.6 2.7v-2.1l-.4-.1v-.5h1.7zm4.7 0v1.1h-.6v-.4h-.7v2.8l.4.1v.5H158v-.5l.4-.1V197h-.7v.4h-.7v-1.1h3.6z"/></g><defs ><path id="B" d="M125.2 174.2v.8l-.7.1v5.8h-1.4l-2.7-4.6v3.6l.7.1v.8h-2.8v-.8l.7-.1V175l-.7-.1v-.8h2.1l2.7 4.6v-3.6l-.7-.1v-.8h2.8z"/><path id="C" d="M188.918 128.262l-15.415 15.415-15.415-15.415 15.415-15.415z"/><path id="D" d="M158.192 159.062l15.415-15.415 15.415 15.415-15.415 15.415z"/><path id="E" d="M184.3 175h-2.6v2.2h2.4l.1-.9h1.2v2.1h-6v-.9l.8-.2v-5.4l-.8-.2v-.9h6v2.1h-1.2l-.1-.9h-2.4v1.9h2.6v1.1z"/><path id="F" d="M186.5 178.3v-1l2.4-2.6c.4-.4.6-.7.8-1 .1-.3.2-.5.2-.8s-.1-.6-.3-.8-.4-.3-.7-.3-.6.1-.8.4c-.2.2-.3.6-.3.9h-1.5c0-.7.2-1.3.7-1.7.5-.5 1.1-.7 1.9-.7s1.4.2 1.8.6.7.9.7 1.6c0 .5-.1.9-.4 1.3l-1.2 1.5-1.3 1.5h2l.1-.7h1.2v1.9h-5.3z"/><path id="G" d="M115 198.6h-1.4v1.1h1.3v-.5h.6v1.1h-3.2v-.5l.4-.1v-2.9l-.4-.1v-.5h3.1v1.1h-.6v-.5h-1.3v1h1.4v.8z"/></defs></svg>