<svg xmlns="http://www.w3.org/2000/svg" viewBox="0 0 861.82 304.69"><path d="M8.9 91.87a4.79 4.79 0 0 0-1.79-.67c-.6-.1-1.2-.2-1.8-.2a12.66 12.66 0 0 1-1.79-.31 4.25 4.25 0 0 1-1.79-1 3.19 3.19 0 0 1-1.3-1.49 5.2 5.2 0 0 1-.44-2 7.53 7.53 0 0 1 .31-2.41 12.91 12.91 0 0 1 1.07-2.65q8.6-1.07 17.7-1.56 9.1-.5 18.5-.36 9.4.14 19 .8 9.6.67 19.16 1.92a7.7 7.7 0 0 1 .76 1.34 4.46 4.46 0 0 1 .36 1.57 4.21 4.21 0 0 1-.27 1.7 4.64 4.64 0 0 1-1.12 1.66 42.2 42.2 0 0 1-7.38 2.24 71 71 0 0 1-8 1.16l-8.4.4a210.91 210.91 0 0 1-8.69-.09l-8.77-.3-8.7-.27c-2.87-.06-5.7-.06-8.46 0l-8.15.52zm82.74-15.13l-2.1-.54-2.06-.58-2.06-.62-2.2-.58a6.31 6.31 0 0 1-1.07-1.48 6.42 6.42 0 0 1-.63-2 7.24 7.24 0 0 1 .32-2.78A7.84 7.84 0 0 1 82.92 66a9.88 9.88 0 0 1 1.52-1.7l1.7-1.53a18.93 18.93 0 0 0 1.62-1.61A6.91 6.91 0 0 0 89 59.32a7.06 7.06 0 0 0 .5-2.32 9 9 0 0 0-.45-3.14l.18-6.85.45-13.43.18-6.85a18 18 0 0 1-.54-2.55l-.27-2.68-.17-2.74a22.38 22.38 0 0 0-.36-2.76 2.21 2.21 0 0 0-1.17-.85 8 8 0 0 0-1.61-.32c-.6 0-1.2-.1-1.8-.13a6.73 6.73 0 0 1-1.52-.22v-3l-.32-.3c-.08-.1-.25-.26-.5-.5a11.11 11.11 0 0 1-.31-2.91 8.11 8.11 0 0 1 .49-2.6 6.8 6.8 0 0 1 1.39-2.24 8.53 8.53 0 0 1 2.28-1.75l5.15-.26L95.9.76l5.2.14 4.88.53 5.55 13.34a3.25 3.25 0 0 1 .8.68 2.63 2.63 0 0 1 .54 1.2q1.26 2.25 2.46 4.62 1.2 2.37 2.38 4.7 1.16 2.33 2.33 4.6l2.4 4.43a3.4 3.4 0 0 0 1.08.72 1.51 1.51 0 0 0 1.25 0l.63-1.75.54-1.7.53-1.75.63-1.88c.24-.66.6-1.15.9-1.65l.9-1.53.9-1.56.9-1.7a28.07 28.07 0 0 1 1.21-3.05l1.3-3a31.15 31.15 0 0 0 1.07-3.22 16.76 16.76 0 0 0 .54-3.63 3.33 3.33 0 0 0 1.07-.71 6.48 6.48 0 0 0 .81-1 10.69 10.69 0 0 0 .67-1.16l.58-1.26.6-1.25a6.42 6.42 0 0 1 .71-1.16 5.85 5.85 0 0 1 .94-1 4.73 4.73 0 0 1 1.17-.72l3.58-.17 3.76-.23a27.69 27.69 0 0 1 3.58.14 10.44 10.44 0 0 1 3.13.8 2 2 0 0 0 .54-.58 2 2 0 0 1 .54-.58 6.5 6.5 0 0 1 2.77-.27 7.89 7.89 0 0 1 2.69 1A4.48 4.48 0 0 1 163.28 3a9.63 9.63 0 0 1 .63 2.33 18.66 18.66 0 0 1 .18 2.64v2.74a4.15 4.15 0 0 1-1.16 1.88 7.65 7.65 0 0 1-1.88 1.2l-2.24 1a8.47 8.47 0 0 0-2.06 1.21 24.81 24.81 0 0 0-.45 2.64l-.27 3a26.54 26.54 0 0 0 0 3.09 14.35 14.35 0 0 0 .45 2.87 6.27 6.27 0 0 0-.09 1.88l.13 2.15a6.92 6.92 0 0 1-.18 2 2.47 2.47 0 0 1-.94 1.37.43.43 0 0 0 .14.31 1.74 1.74 0 0 1 .22.27 1.84 1.84 0 0 0 .23.27 1.07 1.07 0 0 1 .22.4c.06.42.1.94.13 1.57v1.84a7.84 7.84 0 0 1-.18 1.7 2.47 2.47 0 0 1-.63 1.25 10.25 10.25 0 0 1 .81 3.49q.1 1.8 0 3.72l-.18 3.9a17.39 17.39 0 0 0 .27 3.94c.06.24 0 .4 0 .45a1 1 0 0 1-.35.14l-.45.1a.28.28 0 0 0-.23.31.76.76 0 0 0 .36.58l.72.32a1.25 1.25 0 0 1 .49.94l.1 1.16a11.13 11.13 0 0 0 .14 1.16 1.37 1.37 0 0 0 .53.94 1.13 1.13 0 0 0 .41-.09 6 6 0 0 1 .58-.18.69.69 0 0 1 .62 0 1.33 1.33 0 0 1 .45.36 2.76 2.76 0 0 1 .32.49 1.5 1.5 0 0 0 .31.45 3.4 3.4 0 0 1 1.25 0 3 3 0 0 1 1 .45 4.57 4.57 0 0 1 .8.72 6.11 6.11 0 0 1 .72 1 1.07 1.07 0 0 1 .4.85 4.8 4.8 0 0 1-.18.85l-.22.9a1.6 1.6 0 0 0 .27 1.08.86.86 0 0 1-.18.8l-.58.54a3.26 3.26 0 0 0-.54.58 1.63 1.63 0 0 0-.22.94l-2.24 1.2a23.74 23.74 0 0 1-2.38 1 17.35 17.35 0 0 1-2.46.72 11.83 11.83 0 0 1-2.51.27 38.87 38.87 0 0 0-5.41-.54l-5.6-.18-5.5-.45a21.5 21.5 0 0 1-5.23-1.34 7.22 7.22 0 0 1-1.21-1.88 6.29 6.29 0 0 1-.58-2.24 8 8 0 0 1 .17-2.33 7.89 7.89 0 0 1 1-2.33 5.36 5.36 0 0 1 1.79-1.92 8 8 0 0 1 2.37-1 16.76 16.76 0 0 1 2.69-.4l2.82-.18a2.21 2.21 0 0 0 1.07-1.12 3.84 3.84 0 0 0 .18-1.74q-.18-3.32-.27-6.63-.1-3.3-.17-6.58-.1-3.27-.27-6.45-.18-3.18-.45-6.3a13.94 13.94 0 0 1-1 1.07l-1 1.08a9.56 9.56 0 0 0-.85 1.21 3.6 3.6 0 0 0-.49 1.48 7.08 7.08 0 0 0-.18.62 6.67 6.67 0 0 1-.23.72l-.27.76c-.1.27-.16.55-.22.85a15 15 0 0 0-1.61 3l-1.2 3.32-1.25 3.45a17 17 0 0 1-1.75 3.35 9.7 9.7 0 0 0-.88 2.04 12.29 12.29 0 0 0-.54 2.28 6.1 6.1 0 0 1-2.24 1.3 12.57 12.57 0 0 1-2.69.54 16.15 16.15 0 0 1-3 0l-3-.23A9.34 9.34 0 0 1 115.2 57a21.27 21.27 0 0 1-2.15-3.9q-.9-2.1-1.66-4.43l-1.65-4.48a3.42 3.42 0 0 1-.49-.94l-.5-1.12a3.79 3.79 0 0 0-.62-.89 1.34 1.34 0 0 0-1-.36l-3.76-10.48a1.69 1.69 0 0 0-.49.18c-.1.06-.14.12-.14.18a1.63 1.63 0 0 0 0 .76 4.41 4.41 0 0 1 .09.94 61.83 61.83 0 0 1 .36 6.67v13.4a47.42 47.42 0 0 0 .58 6.81 7.14 7.14 0 0 0 2.19 2.5 17 17 0 0 0 3 1.7l3.27 1.4a14 14 0 0 1 3 1.66 9.29 9.29 0 0 1 0 1.61 13.35 13.35 0 0 1-.22 1.84l-.45 1.92-.53 1.88a10.79 10.79 0 0 1-2.33 1.48 12.68 12.68 0 0 1-2.6.89 20.52 20.52 0 0 1-2.77.45l-3 .14h-3l-3-.13-2.95-.1a20.94 20.94 0 0 0-2.73.17zm100.1.36a11.19 11.19 0 0 0-2.87-.72l-2.95-.45a15.53 15.53 0 0 1-2.78-.8 6.37 6.37 0 0 1-2.33-1.62 16.24 16.24 0 0 1-.4-2 12.29 12.29 0 0 1-.09-2.11 9.62 9.62 0 0 1 .36-2.19 9.93 9.93 0 0 1 .85-2.1 6.59 6.59 0 0 1 2.82-1.66 18.49 18.49 0 0 1 3.58-.67l3.9-.36a35.8 35.8 0 0 0 3.76-.54 1.87 1.87 0 0 0 1.07-1 5.68 5.68 0 0 0 .36-1.56 10.36 10.36 0 0 0 0-1.93 10.25 10.25 0 0 1 0-1.92 26.36 26.36 0 0 0 .36-6.09 24 24 0 0 0-1-5.6 17.47 17.47 0 0 0-2.4-4.96 17.86 17.86 0 0 0-3.89-4.08q-2.52-4.2-5.15-8.5-2.63-4.3-5.24-8.87c-.54-.42-1.14-.83-1.8-1.25A14.6 14.6 0 0 0 176 15a16.94 16.94 0 0 0-2.1-.76 11.22 11.22 0 0 0-1.88-.4.93.93 0 0 0-.36-.63A1.44 1.44 0 0 0 171 13a3.22 3.22 0 0 0-.76 0 1 1 0 0 1-.67-.14 19.49 19.49 0 0 1-.57-4.35 12.31 12.31 0 0 1 .73-4.51l.76-1.52a5.11 5.11 0 0 1 1-1.26 5.3 5.3 0 0 1 1.34-.89 4.05 4.05 0 0 1 1.74-.33 11 11 0 0 0 2.82.72 24.33 24.33 0 0 0 3 .18l3-.05 2.95-.1 3 .05a21.91 21.91 0 0 1 2.86.35 12.75 12.75 0 0 1 2.69.85 9.27 9.27 0 0 1 2.46 1.66 19.32 19.32 0 0 1 .27 3.18 12.77 12.77 0 0 1-.36 3 12.15 12.15 0 0 1-1.07 2.82 10.19 10.19 0 0 1-1.79 2.42 42.56 42.56 0 0 1 2.23 3.76l2 3.67 2.15 3.5a19.8 19.8 0 0 0 2.78 3.22 2.67 2.67 0 0 0 1.66-.4 3.19 3.19 0 0 0 1.29-1.48l.63-1.8a12.19 12.19 0 0 1 .81-1.66 17.19 17.19 0 0 1 1-1.52l1.08-1.48 1.07-1.47c.36-.47.7-1 1-1.53a15.37 15.37 0 0 0 .81-1.56 14.38 14.38 0 0 0 .63-1.71l-1.88-1.2a15.32 15.32 0 0 1-1.88-1.3 7.09 7.09 0 0 1-1.53-1.7 6 6 0 0 1-.8-2.42 6.18 6.18 0 0 1 .09-3.14 4.69 4.69 0 0 1 1.79-2.5 47.91 47.91 0 0 1 6.58-1.17q3.36-.34 6.72-.44l6.67.1 6.62.53a1.81 1.81 0 0 1 1 .27 3.62 3.62 0 0 1 .72.63l.63.76a2.33 2.33 0 0 0 .85.67 4.85 4.85 0 0 1 .76 1.48 9 9 0 0 1 .12 1.65 6.87 6.87 0 0 1 0 1.75l-.32 1.88a3.13 3.13 0 0 1-.67 1.38 4 4 0 0 1-1.12.94 6.73 6.73 0 0 1-1.34.59l-1.52.44-1.62.4a8.44 8.44 0 0 0-1.52.49 5.14 5.14 0 0 0-2.33 2l-1.83 2.42-1.8 2.42-1.6 2.6a16.54 16.54 0 0 0-1.3 2.95 2.14 2.14 0 0 0-.76.81l-.45.94-.5 1a3.31 3.31 0 0 1-.81.94 11.21 11.21 0 0 1-1.21 1.66L218 34a13.1 13.1 0 0 0-1.25 1.66 7.65 7.65 0 0 0-.94 2.06 10.3 10.3 0 0 0-1.93 2.37 14.62 14.62 0 0 0-1.25 2.73 16.4 16.4 0 0 0-.72 3 26.54 26.54 0 0 0-.27 3.17v3.32l.26 3.3.36 3.22.27 3.1a2.77 2.77 0 0 0 .94.36 7.5 7.5 0 0 1 1 .27 7.17 7.17 0 0 0 1.3.58 5.43 5.43 0 0 0 1.39.27 12.83 12.83 0 0 0 1.52 0h3.18a4.46 4.46 0 0 1 1.43.22 7.17 7.17 0 0 1 1.3.58 3.07 3.07 0 0 1 1.07 1.08 5.37 5.37 0 0 1 1 1.65 10.85 10.85 0 0 1 .54 1.93 9.78 9.78 0 0 1-.18 4.12A13.44 13.44 0 0 1 222.2 76a18.41 18.41 0 0 1-2.73.76c-.93.18-1.88.3-2.86.4l-3 .13h-3.05l-3-.1h-2.9a6.25 6.25 0 0 0-1.34-.23c-.48 0-.94-.07-1.4-.13a4.76 4.76 0 0 1-1.21-.32 1.46 1.46 0 0 1-.8-.85l-5.82.9-.32-.58c-.1-.15-.25-.2-.5-.14l-.36.4-.36.45a2.42 2.42 0 0 1-.35.36.73.73 0 0 1-.45.04zm60.9 14.77a4.92 4.92 0 0 0-1.79-.67l-1.8-.23a12.66 12.66 0 0 1-1.79-.31 4.31 4.31 0 0 1-1.79-1 3.25 3.25 0 0 1-1.3-1.43 5.59 5.59 0 0 1-.44-2 7.82 7.82 0 0 1 .31-2.41 13.5 13.5 0 0 1 1.07-2.65q8.6-1.07 17.7-1.56 9.08-.5 18.5-.36 9.4.14 19 .8 9.6.67 19.16 1.92a7.75 7.75 0 0 1 .77 1.34 4.68 4.68 0 0 1 .35 1.57 4.21 4.21 0 0 1-.27 1.7 4.61 4.61 0 0 1-1.11 1.66 42.31 42.31 0 0 1-7.39 2.24 71 71 0 0 1-8 1.16l-8.4.4a211.09 211.09 0 0 1-8.69-.09l-8.77-.3-8.7-.27a198.82 198.82 0 0 0-8.46 0l-8.14.5zM360.1 78.7a42.66 42.66 0 0 1-7.35-1.17 58.47 58.47 0 0 1-7.25-2.33 2.56 2.56 0 0 0-1-1 8 8 0 0 0-1.39-.58l-1.47-.5a3.41 3.41 0 0 1-1.3-.81 23.65 23.65 0 0 1-4.08-2.87 33.44 33.44 0 0 1-3.4-3.44 42.84 42.84 0 0 1-2.95-3.9q-1.4-2.05-2.74-4.3a21.27 21.27 0 0 1-.89-2.86c-.24-1-.43-2.06-.58-3.14l-.45-3.3-.4-3.4q-.18-3-.14-6.18.04-3.18.4-6.27a52.85 52.85 0 0 1 1.07-6.22 33.74 33.74 0 0 1 2-5.95 40.56 40.56 0 0 1 2.6-4 40 40 0 0 1 3.13-3.81q1.7-1.83 3.63-3.54a43.39 43.39 0 0 1 4-3.13 53.19 53.19 0 0 1 5.37-2.24 44.86 44.86 0 0 1 5.73-1.61 40.08 40.08 0 0 1 6-.81 34 34 0 0 1 6 .18 26.31 26.31 0 0 0 3.27 1l3.3.85 3.27 1a16.35 16.35 0 0 1 3.14 1.43 1.46 1.46 0 0 0 1.21-.18 6.47 6.47 0 0 0 1.11-.89l1.08-1.12a3.36 3.36 0 0 1 1.16-.85 4.16 4.16 0 0 1 1.57-.23 5 5 0 0 1 1.48.32 8.05 8.05 0 0 1 1.39.67l1.3.85a27.34 27.34 0 0 1 1.62 5.5 44.53 44.53 0 0 1 .67 5.91 33.5 33.5 0 0 1-.27 6 53.38 53.38 0 0 1-1.12 5.87 3.74 3.74 0 0 1-.94 1.07 3.53 3.53 0 0 1-1.12.54l-1.3.3A9 9 0 0 0 384 30a3.11 3.11 0 0 1-1.56.13 5.75 5.75 0 0 1-1.44-.45 6.54 6.54 0 0 1-1.29-.8 13 13 0 0 1-1.17-1 14.76 14.76 0 0 0-2-4.88 19 19 0 0 0-7.48-6.58 32.82 32.82 0 0 0-4.83-2 25.34 25.34 0 0 0-5.78-.23 18.16 18.16 0 0 0-5.15 1.17 22.45 22.45 0 0 0-4.57 2.41 23.73 23.73 0 0 0-4 3.54 16.64 16.64 0 0 0-3.23 4 23.63 23.63 0 0 0-2.15 5.06 35.66 35.66 0 0 0-1.16 5.73 40.59 40.59 0 0 0-.27 6 27 27 0 0 0 .9 5.56 28.3 28.3 0 0 0 1.83 4.92 27.78 27.78 0 0 0 2.61 4.42c1 1.37 2.12 2.7 3.32 4a13.4 13.4 0 0 0 2.42 1.81 17.11 17.11 0 0 0 2.73 1.3 24 24 0 0 0 2.95.9 24.94 24.94 0 0 0 3.09.53 28 28 0 0 0 3.18.18l3.23-.1 3.13-.26 2.95-.45a.87.87 0 0 1 .45-.36 7.91 7.91 0 0 0 2.55-.22 10.31 10.31 0 0 0 2.24-.86 11.31 11.31 0 0 0 2-1.29l1.88-1.53 1.88-1.52a12.89 12.89 0 0 1 2-1.3 11.4 11.4 0 0 1 2.2-.85 8 8 0 0 1 2.59-.22 7.36 7.36 0 0 1 1.57 1.48 8.06 8.06 0 0 1 1.12 1.92 17.07 17.07 0 0 1 .76 2.29 13.81 13.81 0 0 1 .4 2.64 12.39 12.39 0 0 1-2.32 3.35 30.3 30.3 0 0 1-3.09 2.78 40.48 40.48 0 0 1-3.5 2.46l-3.62 2.42a43.82 43.82 0 0 1-4.57 1.07l-4.88.72-4.92.45zm98.67-.8a6.92 6.92 0 0 0-1.7-.67l-1.8-.36a12.07 12.07 0 0 0-1.79-.13h-1.8l-1.8-.1a8.51 8.51 0 0 1-1.75-.27 9.9 9.9 0 0 1-1.66-.58 5.15 5.15 0 0 1-1.5-1.12 7.51 7.51 0 0 1-1.16-1 4.63 4.63 0 0 1-.85-1.3 4.39 4.39 0 0 1-.36-1.52 7.59 7.59 0 0 1 .13-1.79 5.62 5.62 0 0 1 1.39-2.87 9.48 9.48 0 0 1 2.37-1.79 21 21 0 0 1 2.82-1.25q1.5-.54 2.82-1.17c-.06 0-.08-.06-.08-.18v-.85a.48.48 0 0 0-.09-.31l-.8-1.16a8.61 8.61 0 0 0-.76-1 2.78 2.78 0 0 0-2.28-1q-3.4-.54-6.8-.86a67.4 67.4 0 0 0-6.81-.26c-2.26 0-4.55.18-6.84.44a50.41 50.41 0 0 0-6.85 1.3 2.32 2.32 0 0 0-.45.67 2.84 2.84 0 0 0-.23.9v1.07a6.77 6.77 0 0 0 .09 1.12l.76.72a4.29 4.29 0 0 0 .94.63 7.24 7.24 0 0 0 1.12.44l1.25.36 1.3.4 1.2.45a7.7 7.7 0 0 1 1.12.54 3 3 0 0 1 .89.76 4.18 4.18 0 0 1 .68 2.11 7.1 7.1 0 0 1-.27 2.23 14.25 14.25 0 0 1-.85 2.24l-1.08 2.1a5.48 5.48 0 0 1-2.64 1.52 11.34 11.34 0 0 1-3.54.36 21 21 0 0 0-3.09-.32h-3.17l-3.23.14-3.18.1a27.37 27.37 0 0 1-3.13-.18 26.24 26.24 0 0 1-3.09-.54 16.59 16.59 0 0 1-2.91-1 14.85 14.85 0 0 1-2.73-1.62 2.34 2.34 0 0 1-.58-1.47 7.93 7.93 0 0 1 .13-1.84 16.19 16.19 0 0 1 .49-2 17 17 0 0 0 .5-1.88 11.58 11.58 0 0 1 2.19-1.88 6.25 6.25 0 0 1 2.82-1 1.1 1.1 0 0 0 .85-.14 2 2 0 0 0 .54-.58l.45-.76a3.13 3.13 0 0 1 .58-.76 32.29 32.29 0 0 0 2.37-4.66l2-5 2-4.83a23.56 23.56 0 0 1 2.46-4.35q.9-2.32 1.84-4.6.94-2.3 1.76-4.46 1-2.3 1.84-4.66.84-2.36 1.57-4.88a7.68 7.68 0 0 1 .22-1.88 14.09 14.09 0 0 1 .54-1.7l.62-1.6a6.43 6.43 0 0 0 .41-1.62 10.7 10.7 0 0 0-1.61-.71 10.32 10.32 0 0 0-1.66-.41l-1.75-.22-1.8-.13-1.83-.14-1.84-.22a12.24 12.24 0 0 1-1.74-.4 9 9 0 0 1-1.66-.72 3.71 3.71 0 0 1-.72-1.79 13.74 13.74 0 0 1-.09-2.28 23.85 23.85 0 0 1 .22-2.51 10.94 10.94 0 0 0 .09-2.41A5.65 5.65 0 0 1 410 3a11.9 11.9 0 0 1 2.77-.85 20.47 20.47 0 0 1 3.09-.31l3.22-.14h3.23l3.27-.14 3.3-.13h3.27a28 28 0 0 1 3.18.27 24.79 24.79 0 0 1 3 .62 16.57 16.57 0 0 1 2.87 1.08 19.47 19.47 0 0 1 2.64 1.56l2 4c.35.68.63 1.33.9 2s.52 1.45.76 2.28q.72 2.34 1.56 4.57.84 2.23 1.8 4.52.93 2.28 2 4.6 1.07 2.33 1.83 4.75l2 5.06 2 5 2.04 4.86 2.24 4.7 2 4.3.94 2.14a15.84 15.84 0 0 0 1 2.06 16.53 16.53 0 0 0 1.26 1.84 10.23 10.23 0 0 0 1.52 1.57 8.72 8.72 0 0 0 1.88 1.2 10.14 10.14 0 0 0 2.37.77 3.87 3.87 0 0 1 1.39 1.74 6.07 6.07 0 0 1 .4 2.24 13.8 13.8 0 0 1-.22 2.46 25.24 25.24 0 0 1-.58 2.51 6.52 6.52 0 0 1-1.48 1.39 8.19 8.19 0 0 1-1.84.94q-1 .36-2 .63a17.8 17.8 0 0 1-2.15.4l-2.24.18-2.24.1h-2.2l-2.03.13zM434 42.62l10.3-.27-8.06-18.08-8.33 17.1zm69.54 35a27 27 0 0 0-2.73-.58l-2.82-.3-2.87-.1c-.96 0-1.9 0-2.86-.05l-2.82-.18a26.77 26.77 0 0 1-2.73-.4 16.24 16.24 0 0 1-2.64-.76 13.72 13.72 0 0 1-2.56-1.3 2.24 2.24 0 0 1-.89-.89 3 3 0 0 1-.31-1.21 5.08 5.08 0 0 1 .09-1.39l.22-1.43a5.12 5.12 0 0 1 1.16-2 5.56 5.56 0 0 1 1.79-1.17 4 4 0 0 1 1.53-1.07 12.57 12.57 0 0 1 1.83-.58 11.22 11.22 0 0 0 1.88-.63 3.89 3.89 0 0 0 1.57-1.21 22.13 22.13 0 0 0 1.16-5.51q.27-3 .32-6.1.05-3.1-.05-6.26-.1-3.18 0-6.14a14.58 14.58 0 0 1-.18-2.24 4.71 4.71 0 0 1 .54-2.14 7.12 7.12 0 0 1-.58-2.06l-.18-2.24a19.33 19.33 0 0 1 0-2.29l.14-2.28v-2.37l-.1-2.33a10.44 10.44 0 0 0-.44-2.24 12 12 0 0 0-.9-2.1 7.35 7.35 0 0 0-1.39-.54l-1.43-.3-1.4-.24-1.43-.32a9.27 9.27 0 0 1-1.7-1.79 6.38 6.38 0 0 1-1-2.15 7.55 7.55 0 0 1-.23-2.5 9.74 9.74 0 0 1 .63-2.78 4.66 4.66 0 0 1 1.08-1.21 8 8 0 0 1 1.34-.85 6.52 6.52 0 0 1 1.52-.53l1.66-.32 1.74-.22 1.8-.18 1.75-.22a5.35 5.35 0 0 0 1.57-.5l5.24-.1 5.55-.13h5.73l5.68.22 5.78.4a49.72 49.72 0 0 1 5.95.8 30 30 0 0 1 5.64 1.7A18.83 18.83 0 0 1 539 7.25a14.74 14.74 0 0 1 3.85 3.58 19.19 19.19 0 0 1 2.6 4.84 25.75 25.75 0 0 1 1.34 11.73 21.59 21.59 0 0 1-1.48 5 23.73 23.73 0 0 1-2.5 4.43 28.23 28.23 0 0 1-3.32 3.85A36 36 0 0 1 535.6 44a1.52 1.52 0 0 0-.23.68 2.4 2.4 0 0 0 0 .8 4.28 4.28 0 0 0 .27.81 3.74 3.74 0 0 0 .36.67 11.09 11.09 0 0 1 1.83 1.48 16.12 16.12 0 0 1 1.57 1.83l1.43 2a8.93 8.93 0 0 0 1.7 1.83 19.38 19.38 0 0 0 3.14 3.9 35.43 35.43 0 0 0 3.72 3.18l4.12 2.87 4.3 2.95a9.72 9.72 0 0 1 .41 1.83 12.67 12.67 0 0 1 .09 2.17 6.94 6.94 0 0 1-.41 2.11 4.17 4.17 0 0 1-1.16 1.7 7.33 7.33 0 0 1-3.27 1.79 16.11 16.11 0 0 1-3.85.45 26.88 26.88 0 0 1-4.07-.32l-3.85-.5a2.38 2.38 0 0 1-.41-.27 1.31 1.31 0 0 1-.35-.4 1.43 1.43 0 0 1-.18-.54 1.72 1.72 0 0 1 0-.67.63.63 0 0 0-.22-.81 4.08 4.08 0 0 0-.94-.44 16.46 16.46 0 0 0-1.21-2.33l-1.43-2.06a24.28 24.28 0 0 0-1.62-1.88l-3.4-3.58c-.57-.6-1.1-1.23-1.6-1.88a20.09 20.09 0 0 1-1.32-2.1 22 22 0 0 1-1.19-2.28 24.39 24.39 0 0 0-2.6-2.42l-2.73-2-3-1.84-3.17-1.8a22.1 22.1 0 0 1-2.82 0c-1-.06-2-.07-2.9 0a12.69 12.69 0 0 0-2.78.41 5.6 5.6 0 0 0-2.33 1.25 11 11 0 0 1 .14 3l-.32 2.9-.22 3a12.37 12.37 0 0 0 .31 3.09 5.54 5.54 0 0 0 1.17.9 9.73 9.73 0 0 0 1.34.62 8.32 8.32 0 0 0 1.48.41l1.56.26 1.62.23a15.45 15.45 0 0 1 1.61.27l1.56.4a4.59 4.59 0 0 1 1.39.67 6 6 0 0 1 .58 1.61 14.92 14.92 0 0 1 .32 2 7.15 7.15 0 0 1-.14 2.1 4.49 4.49 0 0 1-.85 1.88 6.51 6.51 0 0 1-2.6 2.04 13.6 13.6 0 0 1-3.4 1 25.89 25.89 0 0 1-3.76.36l-3.72.27zM509 35.46a37.59 37.59 0 0 0 5.82-.09 54.28 54.28 0 0 0 5.56-.81 30.14 30.14 0 0 1 2.91-1.43l2.86-1.25a19.7 19.7 0 0 0 2.64-1.44 8.25 8.25 0 0 0 2.15-2 3.7 3.7 0 0 1 .63-.31 3.57 3.57 0 0 0 .58-.27 1.5 1.5 0 0 0 .4-.36.48.48 0 0 0 .09-.49 13.08 13.08 0 0 0-.8-4.74 7.67 7.67 0 0 0-2.42-3.27 8.82 8.82 0 0 0-2-.94l-1.93-.62-1.88-.6a13.69 13.69 0 0 1-1.92-.71l-3.8-.45-3.85-.18-3.76.18a17.37 17.37 0 0 0-3.54.72 14.34 14.34 0 0 0-1 4.56 32.12 32.12 0 0 0 .08 4.7l.6 4.7a43.26 43.26 0 0 1 .44 4.57.81.81 0 0 0 .41.23 2.72 2.72 0 0 0 .53 0h.63a.81.81 0 0 1 .59.29zm59.46 43.25l-2.1-1.12-2.37-1.2a8.46 8.46 0 0 1-.76-1.57 7 7 0 0 1-.4-1.79 8.25 8.25 0 0 1 0-1.92 6.44 6.44 0 0 1 .5-1.79 3.84 3.84 0 0 1 1.47-1.84 7.85 7.85 0 0 1 2.15-.9l2.5-.53a12 12 0 0 0 2.55-.76 11.58 11.58 0 0 0 .94-2.69 23.25 23.25 0 0 0 .45-3l.13-3.18v-3.27l-.36-6.67V43.1a27 27 0 0 1 .17-3.17q-.1-3.3.1-6.68l.14-6.67-.4-6.44a22.62 22.62 0 0 0-1.53-6l-2.15-.23a15 15 0 0 1-2.06-.4 9.71 9.71 0 0 1-1.92-.76 8.68 8.68 0 0 1-1.75-1.21 4.36 4.36 0 0 1-.8-1.43 5.49 5.49 0 0 1-.27-1.75 8.11 8.11 0 0 1 .22-1.88 7 7 0 0 1 .67-1.74 3.74 3.74 0 0 1 .94-1.08 7.85 7.85 0 0 1 1.21-.76 5 5 0 0 1 1.39-.45 13.22 13.22 0 0 1 1.57-.18l1.6-.1h3.3a9.74 9.74 0 0 0 1.61-.22l7-.36q3.45-.18 6.8-.27 3.36-.1 6.7-.1l6.94.1q6.63.1 13.2.4 6.58.32 13 .58a.23.23 0 0 0 0 .36l.1 3.22.2 3.1.18 3.27c.06 1.1.07 2.2 0 3.3l-.13 3.32a24 24 0 0 1-.41 3.27 31.53 31.53 0 0 1-.8 3.22 19.45 19.45 0 0 1-1.21 3 4.73 4.73 0 0 1-1.84 1 6.52 6.52 0 0 1-2.19.27 8 8 0 0 1-2.33-.45 8.43 8.43 0 0 1-2.06-1 6.66 6.66 0 0 1-1-1.48 9 9 0 0 1-.58-1.57 7.67 7.67 0 0 1-.27-1.66l-.05-1.74.05-1.8a17 17 0 0 0 0-1.75q0-.86-.18-1.74a10.16 10.16 0 0 0-.4-1.71h-1.15a3.65 3.65 0 0 1-.59 0 3.61 3.61 0 0 0-.62-.05l-6.72-.5-6.76-.4a45.69 45.69 0 0 0-6.71.31 26.71 26.71 0 0 0-6.58 1.66l-.5 4.2a45.52 45.52 0 0 0-.22 4.56l.22 4.66a25.17 25.17 0 0 0 .85 4.48h8.5a3.63 3.63 0 0 0 1-.85l.76-1a7.26 7.26 0 0 0 .63-1.17l.53-1.25c.17-.42.38-.82.6-1.2a6.21 6.21 0 0 1 .71-1.07 4.51 4.51 0 0 1 .9-.85 3.45 3.45 0 0 1 1.21-.54 12.39 12.39 0 0 1 2.06-.18 7.17 7.17 0 0 1 1.83.22 4.67 4.67 0 0 1 1.57.76 4.93 4.93 0 0 1 1.28 1.43q.54 2.87 1 6a51 51 0 0 1 .49 6.45 36.76 36.76 0 0 1-.49 6.53 28 28 0 0 1-1.88 6.41 2.58 2.58 0 0 1-1 .85 5 5 0 0 1-1.34.44 8 8 0 0 1-1.48.14 13.86 13.86 0 0 1-1.56-.09 4.5 4.5 0 0 1-2.49-1.09 8.65 8.65 0 0 1-1.52-2.06 18 18 0 0 1-1.08-2.42 11 11 0 0 0-1.16-2.33 12.05 12.05 0 0 1-2.24 0 20.23 20.23 0 0 0-2.33-.14 14.22 14.22 0 0 0-2.28.18 7.57 7.57 0 0 0-2.2.72 15.09 15.09 0 0 0-1.07 4 25.87 25.87 0 0 0-.18 4.34l.36 4.53.54 4.43a.79.79 0 0 0 .49.45 2.89 2.89 0 0 0 .94.22h1.16a6.52 6.52 0 0 1 1.08.09q3.57.36 7 .5 3.43.14 6.76.1 3.36 0 6.76-.27 3.4-.27 6.9-.67a4.87 4.87 0 0 0 1.16-2.11 11.69 11.69 0 0 0 .31-2.33v-2.4a15.6 15.6 0 0 1 .18-2.38 18.44 18.44 0 0 1 .76-2.06 8.72 8.72 0 0 1 .94-1.61 5 5 0 0 1 1.3-1.21 9.09 9.09 0 0 1 1.74-.85 7.68 7.68 0 0 1 3.14.45 6.2 6.2 0 0 1 2.41 1.61 21.12 21.12 0 0 1 1.75 6.14A50.73 50.73 0 0 1 632 65l-.26 6.58-.27 6.36zm73.33 0l-2.1-1.12-2.37-1.2a7.87 7.87 0 0 1-.76-1.57 7 7 0 0 1-.41-1.79 8.26 8.26 0 0 1 .05-1.92 6.44 6.44 0 0 1 .49-1.79 3.85 3.85 0 0 1 1.48-1.84 7.6 7.6 0 0 1 2.15-.9l2.5-.53a11.91 11.91 0 0 0 2.56-.76 12.07 12.07 0 0 0 .94-2.69 25.16 25.16 0 0 0 .44-3l.14-3.18v-3.27l-.36-6.67V43.1a26.92 26.92 0 0 1 .18-3.17q-.1-3.3.1-6.68l.13-6.67a64.16 64.16 0 0 0-.4-6.44 23 23 0 0 0-1.52-6l-2.15-.23a14.73 14.73 0 0 1-2.06-.4 9.55 9.55 0 0 1-1.93-.76 8.9 8.9 0 0 1-1.74-1.21 4.21 4.21 0 0 1-.81-1.43 5.49 5.49 0 0 1-.33-1.75 8.12 8.12 0 0 1 .23-1.88 6.62 6.62 0 0 1 .67-1.74 3.6 3.6 0 0 1 .94-1.08 7.4 7.4 0 0 1 1.16-.76 4.93 4.93 0 0 1 1.39-.45 13 13 0 0 1 1.61-.18l1.6-.1h3.32a10 10 0 0 0 1.61-.22l7-.36 6.8-.27 6.72-.1 6.94.1q6.63.1 13.2.4l13 .58a.23.23 0 0 0 0 .36l.1 3.22.2 3.1.18 3.27.05 3.3-.14 3.32a23.94 23.94 0 0 1-.4 3.27 31.6 31.6 0 0 1-.81 3.22 19.45 19.45 0 0 1-1.21 3 4.69 4.69 0 0 1-1.83 1 6.62 6.62 0 0 1-2.2.27 7.94 7.94 0 0 1-2.32-.45 8.08 8.08 0 0 1-2.06-1 6.38 6.38 0 0 1-1-1.48 9.87 9.87 0 0 1-.58-1.57 7.67 7.67 0 0 1-.27-1.66v-3.53a17 17 0 0 0 0-1.75q0-.86-.18-1.74a10.16 10.16 0 0 0-.4-1.71h-1.2a3.52 3.52 0 0 1-.58 0 3.83 3.83 0 0 0-.63-.05l-6.7-.5s-4.53-.34-6.76-.4a45.82 45.82 0 0 0-6.72.31 26.82 26.82 0 0 0-6.58 1.66l-.5 4.2a45.49 45.49 0 0 0-.23 4.56c0 1.56.08 3.1.23 4.66a24.3 24.3 0 0 0 .85 4.48h8.5a3.5 3.5 0 0 0 1-.85l.77-1a8.1 8.1 0 0 0 .62-1.17l.54-1.25.58-1.2a6.25 6.25 0 0 1 .72-1.07 4.46 4.46 0 0 1 .89-.85 3.45 3.45 0 0 1 1.21-.54 12.48 12.48 0 0 1 2.06-.18 7.19 7.19 0 0 1 1.84.22 4.62 4.62 0 0 1 1.56.76 5 5 0 0 1 1.3 1.43l1 6a51 51 0 0 1 .49 6.45 36.76 36.76 0 0 1-.49 6.53 27.47 27.47 0 0 1-1.88 6.41 2.62 2.62 0 0 1-1 .85 5.09 5.09 0 0 1-1.35.44 7.88 7.88 0 0 1-1.47.14 14.17 14.17 0 0 1-1.57-.09 4.53 4.53 0 0 1-2.51-1.16 8.93 8.93 0 0 1-1.52-2.06 16.8 16.8 0 0 1-1.07-2.42 10.59 10.59 0 0 0-1.17-2.33 12.08 12.08 0 0 1-2.24 0 20.1 20.1 0 0 0-2.33-.14 14.41 14.41 0 0 0-2.28.18 7.41 7.41 0 0 0-2.19.72 14.73 14.73 0 0 0-1.08 4 25.87 25.87 0 0 0-.18 4.34 58.73 58.73 0 0 0 .36 4.53l.54 4.43a.82.82 0 0 0 .49.45 2.89 2.89 0 0 0 .94.22h1.17a6.49 6.49 0 0 1 1.07.09q3.58.36 7 .5l6.76.1s4.5-.12 6.76-.27 4.56-.37 6.9-.67a4.67 4.67 0 0 0 1.16-2.11 11.69 11.69 0 0 0 .32-2.33v-2.4a15.6 15.6 0 0 1 .18-2.38 18.44 18.44 0 0 1 .76-2.06 8.72 8.72 0 0 1 .94-1.61 5 5 0 0 1 1.3-1.21 9.19 9.19 0 0 1 1.75-.85 7.63 7.63 0 0 1 3.13.45 6.24 6.24 0 0 1 2.42 1.61 21.1 21.1 0 0 1 1.81 6.19 50.73 50.73 0 0 1 .41 6.44 80.78 80.78 0 0 1-.27 6.58l-.27 6.36zm90.8-1.08a28.18 28.18 0 0 0-2.73-.58 28.13 28.13 0 0 0-2.86-.31 46.81 46.81 0 0 0-2.87-.09c-.96 0-1.9 0-2.86-.05s-1.9-.1-2.82-.18a27.38 27.38 0 0 1-2.74-.4 16.83 16.83 0 0 1-2.64-.76 14 14 0 0 1-2.55-1.3 2.12 2.12 0 0 1-.89-.89 3.19 3.19 0 0 1-.32-1.21 5.51 5.51 0 0 1 .09-1.39l.23-1.43a5 5 0 0 1 1.16-2 5.45 5.45 0 0 1 1.79-1.17 4.08 4.08 0 0 1 1.52-1.07 13.1 13.1 0 0 1 1.84-.58 11.54 11.54 0 0 0 1.88-.63 3.89 3.89 0 0 0 1.57-1.21 22.59 22.59 0 0 0 1.16-5.51q.27-3 .3-6.1.04-3.1 0-6.26-.1-3.18 0-6.14a14.58 14.58 0 0 1-.18-2.24 4.71 4.71 0 0 1 .54-2.14 7.14 7.14 0 0 1-.59-2.06 22.87 22.87 0 0 1-.17-2.24 17.41 17.41 0 0 1 0-2.29 53.94 53.94 0 0 0 .13-2.28v-2.37s0-1.58-.1-2.33a9.89 9.89 0 0 0-.45-2.24 12.74 12.74 0 0 0-.89-2.1 7.35 7.35 0 0 0-1.39-.54 17.88 17.88 0 0 0-1.43-.31L715 15l-1.43-.32a9.33 9.33 0 0 1-1.71-1.79 6.57 6.57 0 0 1-1-2.15 7.83 7.83 0 0 1-.22-2.5 9.74 9.74 0 0 1 .63-2.78 4.63 4.63 0 0 1 1.07-1.21 8.53 8.53 0 0 1 1.35-.85 6.36 6.36 0 0 1 1.52-.53l1.65-.32s1.15-.16 1.75-.22l1.8-.18 1.75-.22a5.28 5.28 0 0 0 1.56-.5l5.24-.1s3.67-.1 5.55-.13h5.73l5.7.22 5.78.4a49.72 49.72 0 0 1 6 .8 30 30 0 0 1 5.64 1.7 19.17 19.17 0 0 1 4.84 2.91 14.9 14.9 0 0 1 3.85 3.58 18.86 18.86 0 0 1 2.59 4.84 25 25 0 0 1 1.35 5.69 26.52 26.52 0 0 1 0 6 21.59 21.59 0 0 1-1.48 5 23.77 23.77 0 0 1-2.51 4.43 28.15 28.15 0 0 1-3.31 3.85 35.16 35.16 0 0 1-3.9 3.31 1.52 1.52 0 0 0-.22.68 2.4 2.4 0 0 0 0 .8 4.28 4.28 0 0 0 .27.81 4.51 4.51 0 0 0 .36.67 10.76 10.76 0 0 1 1.84 1.48 16 16 0 0 1 1.56 1.83l1.44 2a8.66 8.66 0 0 0 1.7 1.83 18.71 18.71 0 0 0 3 3.95 36.37 36.37 0 0 0 3.71 3.18l4.12 2.87s2.87 1.9 4.3 2.9a9.75 9.75 0 0 1 .4 1.83 12.67 12.67 0 0 1 .09 2.15 6.93 6.93 0 0 1-.4 2.11 4.27 4.27 0 0 1-1.16 1.7 7.33 7.33 0 0 1-3.27 1.79 16.17 16.17 0 0 1-3.85.45 27 27 0 0 1-4.08-.32 73.96 73.96 0 0 0-3.85-.49 2.34 2.34 0 0 1-.4-.27 1.5 1.5 0 0 1-.36-.4 1.43 1.43 0 0 1-.18-.54 1.73 1.73 0 0 1 .05-.67.64.64 0 0 0-.23-.81 3.72 3.72 0 0 0-.94-.44 15.48 15.48 0 0 0-1.21-2.33 22.87 22.87 0 0 0-1.46-2.04 24.15 24.15 0 0 0-1.61-1.88l-1.7-1.8-1.7-1.8a23.85 23.85 0 0 1-1.61-1.88 18.59 18.59 0 0 1-1.39-2.06 22 22 0 0 1-1.15-2.28 24.31 24.31 0 0 0-2.59-2.42q-1.35-1.08-2.73-2l-3-1.84-3.18-1.8a22.1 22.1 0 0 1-2.82 0c-1-.06-2-.07-2.9 0a12.69 12.69 0 0 0-2.77.41 5.54 5.54 0 0 0-2.33 1.25 11 11 0 0 1 .13 3l-.3 2.9a29.27 29.27 0 0 0-.22 3 11.92 11.92 0 0 0 .31 3.09 5.48 5.48 0 0 0 1.16.9 10.45 10.45 0 0 0 1.35.62 8.21 8.21 0 0 0 1.47.41l1.57.26 1.6.23a14.62 14.62 0 0 1 1.61.27 23.99 23.99 0 0 1 1.57.4 4.59 4.59 0 0 1 1.39.67 6 6 0 0 1 .58 1.61 14.91 14.91 0 0 1 .31 2 7.14 7.14 0 0 1-.13 2.1 4.49 4.49 0 0 1-.85 1.88 6.57 6.57 0 0 1-2.6 2.04 13.73 13.73 0 0 1-3.4 1 25.89 25.89 0 0 1-3.77.36l-3.7.27zm5.46-42.17a37.59 37.59 0 0 0 5.82-.09 53.68 53.68 0 0 0 5.55-.81l2.9-1.43 2.87-1.25a21 21 0 0 0 2.64-1.44 8.41 8.41 0 0 0 2.15-2 3.7 3.7 0 0 1 .63-.31 4 4 0 0 0 .58-.27 1.5 1.5 0 0 0 .4-.36.48.48 0 0 0 .09-.49 12.86 12.86 0 0 0-.81-4.74 7.58 7.58 0 0 0-2.41-3.27 9 9 0 0 0-2-.94l-1.93-.62-1.88-.6a13.24 13.24 0 0 1-1.92-.71q-1.9-.27-3.8-.45a41.33 41.33 0 0 0-3.85-.18l-3.76.18a17.23 17.23 0 0 0-3.54.72 14.36 14.36 0 0 0-1 4.56 30.79 30.79 0 0 0 .09 4.7l.58 4.7a40.83 40.83 0 0 1 .45 4.57.78.78 0 0 0 .4.23 2.83 2.83 0 0 0 .54 0h.63a.81.81 0 0 1 .58.29z" fill="#fbb041"/><path d="M800.28 68.5a3.72 3.72 0 0 0-1.16-.31c-.36 0-.73-.08-1.12-.14a7.34 7.34 0 0 1-1.25-.31 6.13 6.13 0 0 1-1.48-.76 7.27 7.27 0 0 1-1.61-1.84 7.47 7.47 0 0 1-1-2.51 7.61 7.61 0 0 1-.09-2.86 7.38 7.38 0 0 1 1.12-2.91 4.66 4.66 0 0 1 2.37-2.2 11.08 11.08 0 0 1 3.58-.8 24.93 24.93 0 0 1 4.21.09l4.34.58a4.38 4.38 0 0 1 1.52 1.61 8.68 8.68 0 0 1 .94 2.46 13.86 13.86 0 0 1 .32 3 23.27 23.27 0 0 1-.27 3.45c-.66.48-1.4 1-2.2 1.43a17.74 17.74 0 0 1-2.55 1.25 12.1 12.1 0 0 1-2.77.76 8.38 8.38 0 0 1-2.9.01zm-.45-37.6a13.78 13.78 0 0 1-2.14-.67 10.18 10.18 0 0 1-1.8-.94 7.49 7.49 0 0 1-1.47-1.3 9.41 9.41 0 0 1-1.21-1.74l.36-3.14a13.39 13.39 0 0 1 .67-2.91 9.1 9.1 0 0 1 1.43-2.6 9.23 9.23 0 0 1 2.64-2.19 4.75 4.75 0 0 1 2.6-.94 7.05 7.05 0 0 1 2.73.49 17.73 17.73 0 0 1 2.73 1.35l2.6 1.7a4.62 4.62 0 0 1 1.74 1.88 7.2 7.2 0 0 1 .72 2.59 10.08 10.08 0 0 1-.22 3.05 22 22 0 0 1-1.08 3.4 3.14 3.14 0 0 1-.72.94 3.06 3.06 0 0 1-1.07.63 6.39 6.39 0 0 1-1.34.31 11.88 11.88 0 0 1-1.48.09h-3.04l-1.44-.05a7.46 7.46 0 0 0-1.21.05z" fill="#fff"/><path d="M71.5 193.22l-6.7-.1Q63 193 61.06 193c-1.28 0-2.54 0-3.76-.1a18.73 18.73 0 0 1-3.63-.54 11.73 11.73 0 0 1-3.49-1.52 9.06 9.06 0 0 1-.85-1 4 4 0 0 1-.62-1.21 5.64 5.64 0 0 1-.27-1.48 8.43 8.43 0 0 1 0-1.52 5 5 0 0 1 .4-1.66 4.16 4.16 0 0 1 .81-1.16 6.69 6.69 0 0 1 1.12-.9 10.92 10.92 0 0 1 1.3-.71l1.43-.6 1.52-.53 1.52-.58a6.9 6.9 0 0 0 1.39-.77 19.55 19.55 0 0 0 .63-5l-.13-5.15-.27-5.2a33.34 33.34 0 0 1 .13-5.19q0-3.22.18-6.5.18-3.27.18-6.63a57 57 0 0 0-.4-6.67 27.32 27.32 0 0 0-1.66-6.54l-4-1.34-1.88-.76a17.11 17.11 0 0 1-1.79-.94 1.66 1.66 0 0 1-.67-.76 3.43 3.43 0 0 1-.27-1.21l-.05-1.43V124q.27-.7.54-1.47a10.43 10.43 0 0 1 .63-1.44 4.49 4.49 0 0 1 .94-1.2 3.78 3.78 0 0 1 1.39-.81l2.82-.54a29.33 29.33 0 0 1 2.77-.4 18.44 18.44 0 0 1 2.78 0 10.07 10.07 0 0 1 2.64.54q3.4-.18 6.72-.27l6.62-.18 6.72-.17 6.8-.36a50 50 0 0 0 6.72.27l6.8-.14 6.76.14a33.1 33.1 0 0 1 6.5 1 62.46 62.46 0 0 1 .76 6.27 60.35 60.35 0 0 1 .09 6.45 52.31 52.31 0 0 1-.68 6.44 42.16 42.16 0 0 1-1.52 6.27 3 3 0 0 1-1.39 1.16 5.34 5.34 0 0 1-1.88.41 9.42 9.42 0 0 1-2.19-.18l-2.24-.4a5.48 5.48 0 0 1-2.24-2 9.42 9.42 0 0 1-1.16-3 25.22 25.22 0 0 1-.49-3.41l-.14-3.35a1 1 0 0 0-.27-.59 1.12 1.12 0 0 0-.4-.18 1.91 1.91 0 0 1-.45-.13.9.9 0 0 1-.4-.36 3.86 3.86 0 0 1-.76-.22l-.58-.23a5.29 5.29 0 0 0-.54-.13 4.67 4.67 0 0 0-.72 0l-6.8-.68-6.8-.35a66.09 66.09 0 0 0-6.76.26 47.63 47.63 0 0 0-6.67 1.12 29.94 29.94 0 0 1 .09 4l-.1 4.12a29.54 29.54 0 0 0 .27 4 12.79 12.79 0 0 0 1.25 3.94l3.68.18 4 .27a4.65 4.65 0 0 0 .94-.81 5.24 5.24 0 0 0 .72-1l.67-1.2.67-1.2a12.32 12.32 0 0 1 .72-1.17 6 6 0 0 1 .9-1 5.51 5.51 0 0 1 1.12-.8 5 5 0 0 1 1.43-.54 7.63 7.63 0 0 1 4.34.54 6.83 6.83 0 0 1 1.84 1.16 7.31 7.31 0 0 1 1.34 1.61l.72 4.6.3 4.75a45 45 0 0 1-.18 4.88 32.38 32.38 0 0 1-.85 5 11.21 11.21 0 0 1-.94 2.73 12.08 12.08 0 0 1-1.66 2.56 4.07 4.07 0 0 1-2.24 1 6.76 6.76 0 0 1-2.68-.18 8.57 8.57 0 0 1-2.21-1.21 8.72 8.72 0 0 1-1.65-1.56 10.2 10.2 0 0 1-1.35-2.06l-1-2.5a9.89 9.89 0 0 0-1.79-.45 17.71 17.71 0 0 0-2.24-.22 20.13 20.13 0 0 0-2.33 0 9.37 9.37 0 0 0-2.24.45l-.5 3.5a39.72 39.72 0 0 0-.45 3.85 34.55 34.55 0 0 0 0 3.94 15.32 15.32 0 0 0 .63 3.76 7.83 7.83 0 0 0 2.28 1.21 16.75 16.75 0 0 0 2.51.63 25.21 25.21 0 0 0 2.68.31l2.73.14a25.17 25.17 0 0 1 2.64.22 18.48 18.48 0 0 1 2.56.54 10.44 10.44 0 0 1 2.32 1 7.46 7.46 0 0 1 2 1.7 3.54 3.54 0 0 1 .45 1.75 8.51 8.51 0 0 1-.26 1.94 12.17 12.17 0 0 1-.63 2l-.85 2a24.51 24.51 0 0 1-4.58 1.5 39.31 39.31 0 0 1-5.1.85l-5.3.32-5.06.05zm72.7-.54l-2.73-.58-2.82-.3-2.87-.1h-2.86l-2.82-.18a26.77 26.77 0 0 1-2.73-.4 16.24 16.24 0 0 1-2.64-.76 13.72 13.72 0 0 1-2.56-1.3 2.24 2.24 0 0 1-.89-.89 3 3 0 0 1-.31-1.21 5.49 5.49 0 0 1 .08-1.39l.23-1.43a5.2 5.2 0 0 1 1.16-2 5.56 5.56 0 0 1 1.79-1.17 4 4 0 0 1 1.53-1.07 12.57 12.57 0 0 1 1.83-.58 11.54 11.54 0 0 0 1.88-.63 3.89 3.89 0 0 0 1.57-1.21 22.59 22.59 0 0 0 1.16-5.48q.27-3 .32-6.08.05-3.08-.05-6.27-.1-3.18 0-6.14a14.55 14.55 0 0 1-.18-2.23 4.72 4.72 0 0 1 .54-2.15 7.12 7.12 0 0 1-.58-2.06l-.18-2.24a19.33 19.33 0 0 1 0-2.29l.14-2.28v-2.37l-.1-2.33a10 10 0 0 0-.45-2.24 11.52 11.52 0 0 0-.89-2.1 7.35 7.35 0 0 0-1.39-.54l-1.43-.3-1.48-.27-1.43-.3a9.31 9.31 0 0 1-1.7-1.8 6.42 6.42 0 0 1-1-2.14 7.64 7.64 0 0 1-.23-2.51 9.74 9.74 0 0 1 .63-2.78 4.83 4.83 0 0 1 1.08-1.21 8 8 0 0 1 1.34-.85 7 7 0 0 1 1.52-.53l1.66-.32 1.74-.22 1.8-.18 1.75-.22a5.35 5.35 0 0 0 1.57-.5l5.24-.1 5.55-.13h5.73l5.68.22 5.78.4a49.72 49.72 0 0 1 6 .8 30 30 0 0 1 5.64 1.7 18.83 18.83 0 0 1 4.84 2.91 14.61 14.61 0 0 1 3.85 3.59 19 19 0 0 1 2.6 4.83 25.75 25.75 0 0 1 1.34 11.73 21.59 21.59 0 0 1-1.48 5 23.73 23.73 0 0 1-2.5 4.43 28.94 28.94 0 0 1-3.32 3.85 37.25 37.25 0 0 1-3.89 3.32 1.44 1.44 0 0 0-.23.67 2.4 2.4 0 0 0 .05.8 4.28 4.28 0 0 0 .27.81 4.55 4.55 0 0 0 .35.67 10.76 10.76 0 0 1 1.84 1.48 16.12 16.12 0 0 1 1.57 1.83l1.43 2a8.93 8.93 0 0 0 1.7 1.83 19.38 19.38 0 0 0 3.09 3.94 35.43 35.43 0 0 0 3.72 3.18l4.12 2.87 4.3 2.82a9.72 9.72 0 0 1 .41 1.83A12.67 12.67 0 0 1 199 186a7.25 7.25 0 0 1-.41 2.11 4.17 4.17 0 0 1-1.16 1.7 7.33 7.33 0 0 1-3.27 1.79 16.11 16.11 0 0 1-3.85.45 26.88 26.88 0 0 1-4.07-.32l-3.85-.5a2.38 2.38 0 0 1-.41-.27 1.5 1.5 0 0 1-.36-.4 1.63 1.63 0 0 1-.17-.54 1.55 1.55 0 0 1 0-.67.63.63 0 0 0-.22-.81 4.54 4.54 0 0 0-.94-.44 16.46 16.46 0 0 0-1.21-2.33c-.45-.72-.93-1.4-1.44-2.06a22.17 22.17 0 0 0-1.61-1.88l-3.4-3.58c-.57-.6-1.1-1.23-1.6-1.88a20.09 20.09 0 0 1-1.39-2.06 21.08 21.08 0 0 1-1.16-2.33 24.39 24.39 0 0 0-2.6-2.42q-1.35-1.08-2.73-2l-3-1.84-3.14-1.8a22.26 22.26 0 0 1-2.83 0c-1-.06-2-.07-2.9 0a12.1 12.1 0 0 0-2.77.4 5.6 5.6 0 0 0-2.33 1.25 11.44 11.44 0 0 1 .14 3l-.32 2.9-.22 3a12.37 12.37 0 0 0 .31 3.09 5.54 5.54 0 0 0 1.17.9 8.68 8.68 0 0 0 1.34.62 8.32 8.32 0 0 0 1.48.41l1.56.26 1.6.23a15.2 15.2 0 0 1 1.62.27l1.56.4a4.59 4.59 0 0 1 1.39.67 6 6 0 0 1 .58 1.61 14.92 14.92 0 0 1 .32 2 7.13 7.13 0 0 1-.14 2.1 4.43 4.43 0 0 1-.85 1.88 6.51 6.51 0 0 1-2.64 2.24 13.6 13.6 0 0 1-3.4 1 25.89 25.89 0 0 1-3.76.36c-1.28-.05-2.52.02-3.7.14zm5.46-42.17a37.59 37.59 0 0 0 5.82-.09 54.28 54.28 0 0 0 5.56-.81 30.14 30.14 0 0 1 2.91-1.43l2.86-1.25a19.7 19.7 0 0 0 2.64-1.44 8.25 8.25 0 0 0 2.15-2 3.7 3.7 0 0 1 .63-.31 3.57 3.57 0 0 0 .58-.27 1.5 1.5 0 0 0 .4-.36.48.48 0 0 0 .09-.49 13.08 13.08 0 0 0-.8-4.74 7.67 7.67 0 0 0-2.42-3.32 9 9 0 0 0-2-.94l-1.93-.62-1.88-.6a12.54 12.54 0 0 1-1.92-.71l-3.8-.45-3.85-.18-3.76.18a17.37 17.37 0 0 0-3.54.72 14.64 14.64 0 0 0-1 4.56 32.13 32.13 0 0 0 .09 4.7l.6 4.7a42.82 42.82 0 0 1 .44 4.56.81.81 0 0 0 .41.23 2.72 2.72 0 0 0 .53 0h.63a.81.81 0 0 1 .58.34zm85.96 42.9a9.77 9.77 0 0 0-2.37-.76l-2.28-.5c-.7-.17-1.42-.4-2.1-.63a5.74 5.74 0 0 1-1.92-1.16 49.69 49.69 0 0 1-4.84-2 37.52 37.52 0 0 1-4.43-2.51 25.3 25.3 0 0 1-3.85-3.09 23.7 23.7 0 0 1-3.18-3.85 12.76 12.76 0 0 0-1.3-2.19l-1.56-2.06a25.06 25.06 0 0 1-1.53-2.19 14.93 14.93 0 0 1-1.25-2.6 12.27 12.27 0 0 0-.45-2.51 18.61 18.61 0 0 1-.54-2.5 13.09 13.09 0 0 1-.13-2.38 3.36 3.36 0 0 1 .76-2 .93.93 0 0 0-.22-.4 1.84 1.84 0 0 1-.23-.27 3 3 0 0 1-.18-.32 1.23 1.23 0 0 1-.08-.53 44.07 44.07 0 0 1 0-4.44l.45-4.52a35.93 35.93 0 0 1 .89-4.39 21.32 21.32 0 0 1 1.48-3.94 19.12 19.12 0 0 1 .72-2.23c.3-.78.62-1.56 1-2.33a23.91 23.91 0 0 1 1.21-2.29l1.4-2.1 3.3-3.58a39.74 39.74 0 0 1 3.45-3.54 29 29 0 0 1 4-3 18.27 18.27 0 0 1 4.75-2.06q2.4-.7 5.06-1.25a39.35 39.35 0 0 1 10.61-.72 22.77 22.77 0 0 1 5.28 1 37.72 37.72 0 0 1 4.52 2.37 36.79 36.79 0 0 1 4 2.87 38.41 38.41 0 0 1 3.63 3.35l3.3 3.76a36.54 36.54 0 0 1 2.69 4.35q1.25 2.37 2.33 4.88a52.61 52.61 0 0 1 1.88 5.15q.8 2.64 1.43 5.14a4.61 4.61 0 0 0-.18 1.8l.22 1.83.23 1.88a7.77 7.77 0 0 1-.09 2 16.69 16.69 0 0 0-.58 1.92l-.4 1.93a18.78 18.78 0 0 0-.26 1.92l-.27 1.93-.36 1.92a15.75 15.75 0 0 1-.49 1.88 19.49 19.49 0 0 1-.72 1.84 8.37 8.37 0 0 1-1.12 1.79 10.24 10.24 0 0 1-.76.85 4.39 4.39 0 0 0-.67.85 4.64 4.64 0 0 0-.45 1 4.74 4.74 0 0 0-.18 1.39 1.57 1.57 0 0 0-.94.67 6.73 6.73 0 0 0-.54 1 5.37 5.37 0 0 1-.53 1 1.33 1.33 0 0 1-.94.54 4.63 4.63 0 0 1-1.21 1.52 18.21 18.21 0 0 1-1.66 1.21l-1.8 1.08a9.27 9.27 0 0 0-1.7 1.21 22.36 22.36 0 0 1-4.21 3.13 28.31 28.31 0 0 1-5 2.24 30.17 30.17 0 0 1-5.46 1.3 33.76 33.76 0 0 1-5.63.33zm3.5-13.6l2.95-.76a20.19 20.19 0 0 0 3-1 18 18 0 0 0 2.65-1.43 10.23 10.23 0 0 0 2.1-1.88 1.28 1.28 0 0 1 .18-.72 2 2 0 0 1 .4-.45 1.62 1.62 0 0 1 .5-.27l.53-.18a3.77 3.77 0 0 1 .36-1.7 5.81 5.81 0 0 1 .9-1.3l1-1.16a4.58 4.58 0 0 0 .76-1.3 2.89 2.89 0 0 1 .31-.94l.4-.76a5.78 5.78 0 0 0 .32-.76 3.31 3.31 0 0 0 .13-1l.22-2 .36-2a13.72 13.72 0 0 1 .58-1.88 7 7 0 0 1 .9-1.61 6.73 6.73 0 0 0 .27-1.75 5.49 5.49 0 0 0-.18-1.43l-.3-1.43a9.52 9.52 0 0 1-.14-1.66l-1-2.5-1-2.5-1-2.47c-.33-.8-.75-1.6-1.17-2.37l-1.3-2.2a10.52 10.52 0 0 0-1.57-1.88 13.51 13.51 0 0 0-1.93-1.53 15.26 15.26 0 0 0-2.28-1.21 7.8 7.8 0 0 0-3.13-1.83 13.46 13.46 0 0 0-3.41-.54 19.87 19.87 0 0 0-3.49.23l-3.4.44-2.78 1.17a27.68 27.68 0 0 0-2.68 1.16 15 15 0 0 0-2.38 1.48A6 6 0 0 0 223 138q-1 2.68-1.93 5.33-.93 2.65-1.7 5.28a53.37 53.37 0 0 0-1.25 5.42 38.5 38.5 0 0 0-.58 5.82 20.06 20.06 0 0 0 1.16 4.3 32.14 32.14 0 0 0 1.88 4 26.64 26.64 0 0 0 2.42 3.63l2.6 3.3a56 56 0 0 0 6.72 2.69l6.8 2zm46.88 12l-2.1-.54-2.06-.58-2.06-.63-2.2-.58a6.07 6.07 0 0 1-1.08-1.48 6.33 6.33 0 0 1-.62-2 7.25 7.25 0 0 1 .31-2.78 8.47 8.47 0 0 1 1.07-2.1 9.93 9.93 0 0 1 1.53-1.7l1.7-1.53a20.38 20.38 0 0 0 1.61-1.61 6.79 6.79 0 0 0 1.21-1.88 7.06 7.06 0 0 0 .54-2.37 9.24 9.24 0 0 0-.45-3.14l.18-6.84.44-13.44.18-6.85a18 18 0 0 1-.53-2.55l-.27-2.68-.18-2.74a20.52 20.52 0 0 0-.36-2.68 2.23 2.23 0 0 0-1.16-.85 8.19 8.19 0 0 0-1.61-.32c-.6 0-1.2-.1-1.8-.13a6.91 6.91 0 0 1-1.52-.22v-3l-.8-.8a11.13 11.13 0 0 1-.32-2.91 8.17 8.17 0 0 1 .5-2.6 6.77 6.77 0 0 1 1.38-2.24 8.63 8.63 0 0 1 2.29-1.75l5.15-.26 5.28-.14 5.2.14 4.88.53 5.55 13.34a3.49 3.49 0 0 1 .81.68 2.67 2.67 0 0 1 .54 1.21q1.25 2.23 2.46 4.6l2.37 4.7 2.33 4.6 2.42 4.43a3.36 3.36 0 0 0 1.07.72 1.54 1.54 0 0 0 1.26 0l.62-1.75.54-1.7.54-1.75.62-1.88c.24-.66.6-1.14.9-1.65l.9-1.52.9-1.57.9-1.7a30.27 30.27 0 0 1 1.21-3l1.3-3a29 29 0 0 0 1.08-3.22 17.32 17.32 0 0 0 .53-3.63 3.38 3.38 0 0 0 1.08-.71 6.42 6.42 0 0 0 .8-1 10.73 10.73 0 0 0 .68-1.16l.58-1.26.58-1.25a7.08 7.08 0 0 1 .72-1.16 5.48 5.48 0 0 1 .94-1 4.21 4.21 0 0 1 1.16-.71c1.13 0 2.33-.06 3.58-.18l3.76-.23a27.62 27.62 0 0 1 3.58.14 10.81 10.81 0 0 1 3.14.8 2 2 0 0 0 .54-.58 1.79 1.79 0 0 1 .53-.58 6.54 6.54 0 0 1 2.78-.27 7.92 7.92 0 0 1 2.68 1 4.47 4.47 0 0 1 1.35 1.8 9.42 9.42 0 0 1 .62 2.32 18.7 18.7 0 0 1 .18 2.65v2.73a4.06 4.06 0 0 1-1.16 1.88 7.78 7.78 0 0 1-1.88 1.21l-2.24 1a8.66 8.66 0 0 0-2.06 1.21 25.72 25.72 0 0 0-.45 2.64l-.26 3a22.76 22.76 0 0 0 0 3.09 13.67 13.67 0 0 0 .44 2.87 6.27 6.27 0 0 0-.09 1.88l.14 2.15a6.88 6.88 0 0 1-.18 2 2.47 2.47 0 0 1-.94 1.43.4.4 0 0 0 .13.31 1.84 1.84 0 0 1 .23.27 1.74 1.74 0 0 0 .22.27 1.07 1.07 0 0 1 .22.4 17.24 17.24 0 0 1 .14 1.57v1.84a7.84 7.84 0 0 1-.18 1.7 2.46 2.46 0 0 1-.62 1.25 10.48 10.48 0 0 1 .8 3.49q.1 1.8 0 3.72-.1 1.92-.18 3.9a17.47 17.47 0 0 0 .27 3.94c.06.23.05.38 0 .44a1 1 0 0 1-.36.14l-.45.1c-.15 0-.22.13-.22.3a.76.76 0 0 0 .36.58l.7.32a1.3 1.3 0 0 1 .5.94c0 .38.05.77.08 1.16l.14 1.16a1.41 1.41 0 0 0 .54.94 1.08 1.08 0 0 0 .4-.09l.58-.17a.68.68 0 0 1 .63 0 1.33 1.33 0 0 1 .45.36 3.41 3.41 0 0 1 .31.49 1.7 1.7 0 0 0 .31.45 3.46 3.46 0 0 1 1.26 0 3 3 0 0 1 1 .45 4.64 4.64 0 0 1 .81.72 6.76 6.76 0 0 1 .71 1 1.08 1.08 0 0 1 .41.85 4.8 4.8 0 0 1-.18.85l-.23.9a1.6 1.6 0 0 0 .27 1.08.85.85 0 0 1-.18.8l-.58.54a3.65 3.65 0 0 0-.54.58 1.63 1.63 0 0 0-.22.94l-2.24 1.2a24.61 24.61 0 0 1-2.37 1 18.15 18.15 0 0 1-2.46.72 12 12 0 0 1-2.51.27 39 39 0 0 0-5.42-.54l-5.6-.18-5.5-.45a21.57 21.57 0 0 1-5.24-1.34 7.49 7.49 0 0 1-1.21-1.88 6.51 6.51 0 0 1-.58-2.24 7.56 7.56 0 0 1 1.16-4.65 5.4 5.4 0 0 1 1.79-1.93 8 8 0 0 1 2.38-1 15.6 15.6 0 0 1 2.68-.41L335 177a2.24 2.24 0 0 0 1.08-1.12 3.84 3.84 0 0 0 .18-1.74q-.18-3.32-.27-6.63-.1-3.3-.18-6.58-.1-3.27-.27-6.45l-.45-6.3c-.3.36-.62.72-1 1.08a13.94 13.94 0 0 0-1 1.07 9.56 9.56 0 0 0-.85 1.21 3.6 3.6 0 0 0-.49 1.48l-.18.62a6.59 6.59 0 0 1-.22.72l-.27.76a5.56 5.56 0 0 0-.22.85 14.87 14.87 0 0 0-1.62 3.05l-1.2 3.3-1.25 3.45a17 17 0 0 1-1.75 3.35 11 11 0 0 0-.89 1.93 12.29 12.29 0 0 0-.54 2.28 6 6 0 0 1-2.24 1.3 12.48 12.48 0 0 1-2.68.54 16.26 16.26 0 0 1-3 0l-2.95-.23a9.28 9.28 0 0 1-3.23-2.86 20.92 20.92 0 0 1-2.14-3.9q-.9-2.1-1.66-4.43-.76-2.33-1.66-4.48a3.71 3.71 0 0 1-.49-.94l-.5-1.12a3.54 3.54 0 0 0-.63-.89 1.33 1.33 0 0 0-1-.36l-3.77-10.48a1.82 1.82 0 0 0-.49.18c-.1.06-.13.12-.13.18a1.63 1.63 0 0 0 0 .76 4.41 4.41 0 0 1 .09.94 61.83 61.83 0 0 1 .36 6.67v13.4a47.42 47.42 0 0 0 .58 6.81 7.07 7.07 0 0 0 2.2 2.5 16.91 16.91 0 0 0 3 1.71l3.26 1.38a13.55 13.55 0 0 1 3 1.66 9.26 9.26 0 0 1 .05 1.61 15.1 15.1 0 0 1-.22 1.84l-.45 1.92-.54 1.88a10.56 10.56 0 0 1-2.33 1.48 13.24 13.24 0 0 1-2.59.9 20.92 20.92 0 0 1-2.78.44l-3 .14h-3l-3-.13-3-.1a21.06 21.06 0 0 0-2.67.14zm153.15.9l-12.9-1.25a16.21 16.21 0 0 0-2.47-.18q-1.3 0-2.64.1l-2.73.18-2.77.1c-.92 0-1.83 0-2.7-.1a10.72 10.72 0 0 1-2.46-.45 11 11 0 0 1-2.2-.94 6.6 6.6 0 0 1-1.83-1.57 20.62 20.62 0 0 1-.05-3.62 30.4 30.4 0 0 1 .5-3.76 16.34 16.34 0 0 1 1.07-3.5 11.48 11.48 0 0 1 1.79-2.91 31.3 31.3 0 0 1 4.08-5.55 60.2 60.2 0 0 1 5.05-4.92 6.45 6.45 0 0 1 1.21-2.11l3.23-3.3a6.73 6.73 0 0 0 1.21-2l1.74-2.78 1.8-2.55 2-2.37 2.1-2.33a25.92 25.92 0 0 1 2.73-4.08q1.56-1.92 3.18-3.9l3-4a21.75 21.75 0 0 0 2.33-4.16 12.73 12.73 0 0 0-3.14-.9 23.73 23.73 0 0 0-3.53-.26H433q-1.93 0-3.63-.1a7.49 7.49 0 0 0-3.36 1.12 5.11 5.11 0 0 0-2.1 2.82l-.05 2.24v2.32a15.14 15.14 0 0 0 .18 2.33 11.27 11.27 0 0 0 .54 2.15 3.76 3.76 0 0 0-1.12 1.3l-.85 1.48a7.68 7.68 0 0 1-1 1.29 4.08 4.08 0 0 1-1.57.94 12.34 12.34 0 0 1-1.84.23 8.77 8.77 0 0 1-1.79-.09 5.1 5.1 0 0 1-1.61-.54 3.11 3.11 0 0 1-1.21-1.12 1.28 1.28 0 0 0-.18-1 3.37 3.37 0 0 0-.62-.63l-.77-.54a1.55 1.55 0 0 1-.58-.71 12.87 12.87 0 0 0-.62-2.38q-.45-1.2-.8-2.46a18 18 0 0 1-.54-2.55 9.72 9.72 0 0 1 0-2.64 14.12 14.12 0 0 0 .58-2 16 16 0 0 0 .32-2.06l.13-2.1.18-4.4.18-2.15a16.55 16.55 0 0 1 .4-2.1 12.47 12.47 0 0 1 .72-2 34.56 34.56 0 0 1 5.51-.26l5.68.26 5.78.32a56.44 56.44 0 0 0 6 0q3.4 0 6.8-.3l6.8-.58a64.52 64.52 0 0 1 6.81-.18 35.17 35.17 0 0 1 6.89.89 4.7 4.7 0 0 1 1.08 1.3 5.91 5.91 0 0 1 .53 1.44 5.37 5.37 0 0 1 .14 1.56c0 .54-.08 1.1-.14 1.66l-.26 1.8-.32 1.84-.18 1.74a11.48 11.48 0 0 0 .05 1.75 2.05 2.05 0 0 1-.09 1.07 2.4 2.4 0 0 1-.54.81 9.38 9.38 0 0 1-.8.71 5.17 5.17 0 0 0-.81.81 29.65 29.65 0 0 1-1.93 2.42l-2.05 2.28-2 2.33a25.5 25.5 0 0 0-1.75 2.55 9.14 9.14 0 0 0-1.39 1.08 7.29 7.29 0 0 0-1.16 1.34l-1 1.52a17.65 17.65 0 0 0-.89 1.66l-.9 1.7-1 1.57a8.58 8.58 0 0 1-1.17 1.34 9.06 9.06 0 0 1-1.39 1.07 4.77 4.77 0 0 1-.8 1.61 17.12 17.12 0 0 1-1.21 1.44l-1.34 1.47a7.94 7.94 0 0 0-1.12 1.66q-3 3.94-6 7.84-3 3.9-5.9 7.92a4.42 4.42 0 0 0 1.61.67l2 .4 1.88.4a2.44 2.44 0 0 1 1.34.76 13.25 13.25 0 0 1 3.36-.31l3.8.13h4a17 17 0 0 0 3.94-.63 5.32 5.32 0 0 0 1.16-1.43 8.25 8.25 0 0 0 .72-1.75 19.19 19.19 0 0 0 .44-1.92l.36-2 .32-2a11.55 11.55 0 0 1 .44-2 17.45 17.45 0 0 1 .72-1.88 6.41 6.41 0 0 1 1-1.61 4.6 4.6 0 0 1 2.15-1.93 5.76 5.76 0 0 1 3.31-.22 4.09 4.09 0 0 1 1.88.81 6.73 6.73 0 0 1 1.39 1.43c.4.54.76 1.12 1.12 1.74l1.07 1.84a51.42 51.42 0 0 0 .05 6.45q.22 3.23.36 6.4a55.26 55.26 0 0 1-.09 6.31 25.11 25.11 0 0 1-1.21 6.09zm36.53 1.08l-2.1-1.12-2.37-1.2a7.87 7.87 0 0 1-.76-1.57 7 7 0 0 1-.41-1.79 8.26 8.26 0 0 1 0-1.92 6.44 6.44 0 0 1 .49-1.79 3.85 3.85 0 0 1 1.48-1.84 7.6 7.6 0 0 1 2.15-.9l2.5-.53a11.91 11.91 0 0 0 2.56-.76 11.89 11.89 0 0 0 .94-2.69 24.86 24.86 0 0 0 .44-3l.14-3.18-.05-3.27-.36-6.67v-3.36a26.92 26.92 0 0 1 .18-3.17l.1-6.67.13-6.68a64.16 64.16 0 0 0-.4-6.44 23 23 0 0 0-1.52-6l-2.15-.23a14.73 14.73 0 0 1-2.06-.4 9.55 9.55 0 0 1-1.93-.76 8.9 8.9 0 0 1-1.74-1.21 4.21 4.21 0 0 1-.81-1.43 5.49 5.49 0 0 1-.27-1.75 8.12 8.12 0 0 1 .23-1.88 6.76 6.76 0 0 1 .67-1.74 3.6 3.6 0 0 1 .94-1.08 7.4 7.4 0 0 1 1.21-.76 4.93 4.93 0 0 1 1.39-.45 13 13 0 0 1 1.56-.18c.54 0 1.08 0 1.6-.1h3.32a9 9 0 0 0 1.61-.22l7-.36 6.8-.27 6.72-.1 6.94.1q6.63.1 13.2.4l13 .58a.23.23 0 0 0 0 .36l.1 3.22.36 6.5c.06 1.1.08 2.2 0 3.32s-.08 2.2-.14 3.3a23.94 23.94 0 0 1-.4 3.27 31.6 31.6 0 0 1-.81 3.22 19.45 19.45 0 0 1-1.21 3 4.69 4.69 0 0 1-1.83 1 6.59 6.59 0 0 1-2.19.27 8.27 8.27 0 0 1-2.33-.44 8.44 8.44 0 0 1-2.06-1 6.38 6.38 0 0 1-1-1.48 9.87 9.87 0 0 1-.58-1.57 7.67 7.67 0 0 1-.27-1.66v-3.53a17 17 0 0 0 0-1.75c0-.56-.1-1.15-.18-1.74a10.16 10.16 0 0 0-.4-1.71H522a3.52 3.52 0 0 1-.58 0 3.83 3.83 0 0 0-.63-.05l-6.7-.5s-4.53-.34-6.76-.4a45.82 45.82 0 0 0-6.72.31 26.82 26.82 0 0 0-6.6 1.57l-.5 4.2a45.49 45.49 0 0 0-.23 4.56c0 1.56.08 3.1.23 4.66a24.15 24.15 0 0 0 .85 4.48h8.5a3.5 3.5 0 0 0 1-.85 22.34 22.34 0 0 0 .77-1 8.1 8.1 0 0 0 .62-1.17l.54-1.25.58-1.2a6.67 6.67 0 0 1 .72-1.07 4.46 4.46 0 0 1 .89-.85 3.45 3.45 0 0 1 1.21-.54 12.48 12.48 0 0 1 2.06-.18 7.67 7.67 0 0 1 1.84.22 4.62 4.62 0 0 1 1.56.76 5 5 0 0 1 1.26 1.44l1 6a51 51 0 0 1 .49 6.45 36.76 36.76 0 0 1-.49 6.53 27.47 27.47 0 0 1-1.88 6.41 2.62 2.62 0 0 1-1 .85 5.11 5.11 0 0 1-1.35.45 8.83 8.83 0 0 1-1.47.13 14.17 14.17 0 0 1-1.57-.09 4.53 4.53 0 0 1-2.51-1.16 8.93 8.93 0 0 1-1.52-2.06 16.33 16.33 0 0 1-1.07-2.42 10.59 10.59 0 0 0-1.17-2.33 11.27 11.27 0 0 1-2.24 0 20.1 20.1 0 0 0-2.33-.14 14.41 14.41 0 0 0-2.28.18 7.41 7.41 0 0 0-2.19.72 14.73 14.73 0 0 0-1.08 4 25.87 25.87 0 0 0-.18 4.34 58.73 58.73 0 0 0 .36 4.53l.54 4.43a.82.82 0 0 0 .49.45 2.89 2.89 0 0 0 .94.22h1.17a6.49 6.49 0 0 1 1.07.09q3.6.36 7 .5l6.76.1s4.5-.12 6.76-.27 4.56-.37 6.9-.67a4.67 4.67 0 0 0 1.16-2.11 11.69 11.69 0 0 0 .32-2.33v-2.4a15.6 15.6 0 0 1 .18-2.38 18.44 18.44 0 0 1 .76-2.06 8.72 8.72 0 0 1 .94-1.61 5.17 5.17 0 0 1 1.3-1.21 9.19 9.19 0 0 1 1.75-.85 7.63 7.63 0 0 1 3.13.45 6.24 6.24 0 0 1 2.42 1.61 21.44 21.44 0 0 1 1.75 6.14 52.77 52.77 0 0 1 .4 6.44 80.78 80.78 0 0 1-.27 6.58l-.27 6.36zm90.8-1.08l-2.73-.58s-1.87-.25-2.82-.3a45.6 45.6 0 0 0-2.87-.09h-2.86s-1.9-.1-2.82-.18a27.38 27.38 0 0 1-2.74-.4 16.83 16.83 0 0 1-2.64-.76 14 14 0 0 1-2.55-1.3 2.17 2.17 0 0 1-.89-.89 3.14 3.14 0 0 1-.32-1.21 5.51 5.51 0 0 1 .09-1.39l.23-1.43a5.07 5.07 0 0 1 1.16-2 5.45 5.45 0 0 1 1.79-1.17 4.08 4.08 0 0 1 1.52-1.07 13.1 13.1 0 0 1 1.84-.58 11.54 11.54 0 0 0 1.88-.63 3.89 3.89 0 0 0 1.57-1.21 22.59 22.59 0 0 0 1.16-5.51q.27-3 .3-6.08.04-3.08 0-6.27-.1-3.18 0-6.14a14.55 14.55 0 0 1-.18-2.23 4.72 4.72 0 0 1 .54-2.15 7.14 7.14 0 0 1-.59-2.06l-.17-2.24a19.33 19.33 0 0 1 0-2.29 53.94 53.94 0 0 0 .13-2.28 61.59 61.59 0 0 0 .05-2.37l-.1-2.33a10 10 0 0 0-.45-2.24 12.26 12.26 0 0 0-.89-2.1 7.35 7.35 0 0 0-1.39-.54 17.88 17.88 0 0 0-1.43-.31l-1.48-.27a17.88 17.88 0 0 1-1.43-.31 9.31 9.31 0 0 1-1.7-1.8 6.23 6.23 0 0 1-1-2.14 7.64 7.64 0 0 1-.23-2.51 9.74 9.74 0 0 1 .63-2.78 4.8 4.8 0 0 1 1.07-1.21 8.53 8.53 0 0 1 1.35-.85 6.83 6.83 0 0 1 1.52-.53l1.65-.32s1.15-.16 1.75-.22l1.8-.18a30.95 30.95 0 0 0 1.75-.22 5.28 5.28 0 0 0 1.56-.5l5.24-.1s3.67-.1 5.55-.13h5.73l5.7.22 5.78.4a49.72 49.72 0 0 1 6 .8 30 30 0 0 1 5.64 1.7 19.17 19.17 0 0 1 4.84 2.91 14.76 14.76 0 0 1 3.85 3.59 18.63 18.63 0 0 1 2.59 4.83 25 25 0 0 1 1.35 5.69 26.52 26.52 0 0 1 0 6 21.59 21.59 0 0 1-1.48 5 23.77 23.77 0 0 1-2.51 4.43 28.15 28.15 0 0 1-3.31 3.85 36.36 36.36 0 0 1-3.9 3.32 1.44 1.44 0 0 0-.22.67 2.4 2.4 0 0 0 .05.8 3.63 3.63 0 0 0 .26.81 4.51 4.51 0 0 0 .36.67 10.76 10.76 0 0 1 1.84 1.48 16 16 0 0 1 1.56 1.83l1.44 2a8.66 8.66 0 0 0 1.7 1.83 18.71 18.71 0 0 0 3.09 3.94 36.37 36.37 0 0 0 3.71 3.18l4.12 2.87s2.87 1.9 4.3 2.9a9.75 9.75 0 0 1 .4 1.83 12.67 12.67 0 0 1 .09 2.15 6.93 6.93 0 0 1-.4 2.11 4.27 4.27 0 0 1-1.16 1.7 7.33 7.33 0 0 1-3.27 1.79 16.17 16.17 0 0 1-3.85.45 27 27 0 0 1-4.08-.32 73.96 73.96 0 0 0-3.85-.49 2.34 2.34 0 0 1-.4-.27 1.5 1.5 0 0 1-.36-.4 1.43 1.43 0 0 1-.18-.54 1.73 1.73 0 0 1 .05-.67.64.64 0 0 0-.23-.81 4.1 4.1 0 0 0-.94-.44 15.48 15.48 0 0 0-1.21-2.33 22.87 22.87 0 0 0-1.43-2.06 24.15 24.15 0 0 0-1.61-1.88l-3.4-3.58a23.85 23.85 0 0 1-1.61-1.88 20.09 20.09 0 0 1-1.39-2.06 21.09 21.09 0 0 1-1.17-2.33 24.31 24.31 0 0 0-2.59-2.42q-1.35-1.08-2.73-2l-3-1.84-3.18-1.8a22.1 22.1 0 0 1-2.82 0c-1-.06-2-.07-2.9 0a12.1 12.1 0 0 0-2.77.4 5.54 5.54 0 0 0-2.33 1.25 11 11 0 0 1 .13 3 92.42 92.42 0 0 1-.31 2.91 29.27 29.27 0 0 0-.22 3 11.92 11.92 0 0 0 .31 3.09 5.48 5.48 0 0 0 1.16.9 9.26 9.26 0 0 0 1.35.62 8.21 8.21 0 0 0 1.47.41l1.57.26 1.6.23a14.62 14.62 0 0 1 1.61.27 23.99 23.99 0 0 1 1.57.4 4.59 4.59 0 0 1 1.39.67 6 6 0 0 1 .58 1.61 14.91 14.91 0 0 1 .31 2 7.12 7.12 0 0 1-.13 2.1 4.43 4.43 0 0 1-.85 1.88 6.57 6.57 0 0 1-2.64 2.24 13.73 13.73 0 0 1-3.4 1 25.89 25.89 0 0 1-3.77.36c-1.32-.05-2.56.02-3.75.14zm5.46-42.17a37.59 37.59 0 0 0 5.82-.09 53.68 53.68 0 0 0 5.55-.81l2.9-1.43 2.87-1.25a21 21 0 0 0 2.64-1.44 8.41 8.41 0 0 0 2.15-2 3.7 3.7 0 0 1 .63-.31 4 4 0 0 0 .58-.27 1.5 1.5 0 0 0 .4-.36.48.48 0 0 0 .09-.49 12.86 12.86 0 0 0-.81-4.74 7.58 7.58 0 0 0-2.41-3.32 9 9 0 0 0-2-.94l-1.93-.62-1.88-.6a12.16 12.16 0 0 1-1.92-.71q-1.9-.27-3.8-.45a41.33 41.33 0 0 0-3.85-.18l-3.76.18a17.23 17.23 0 0 0-3.54.72 14.36 14.36 0 0 0-1 4.56 30.79 30.79 0 0 0 .09 4.7l.58 4.7a40.43 40.43 0 0 1 .45 4.56.78.78 0 0 0 .4.23 2.83 2.83 0 0 0 .54 0h.63a.81.81 0 0 1 .58.34zm75.93 42.98a1.07 1.07 0 0 0-.54-.4 5.88 5.88 0 0 0-.71-.23l-.8-.22a2.55 2.55 0 0 1-.89-.49 22.07 22.07 0 0 1-4.57-2.24 29.35 29.35 0 0 1-3.81-3 27 27 0 0 1-3.22-3.58 38 38 0 0 1-2.73-4.21 19.57 19.57 0 0 0-.81-2.42 39.5 39.5 0 0 0-.94-2.1 21 21 0 0 1-.85-2.1 7.65 7.65 0 0 1-.35-2.42 8.52 8.52 0 0 1-.68-1.84 13.3 13.3 0 0 1-.31-2 14.61 14.61 0 0 1 0-2.1c0-.72.07-1.43.13-2.15a51.65 51.65 0 0 0 .13-2.15v-2.06a12.23 12.23 0 0 0-.26-2 6.85 6.85 0 0 0-.68-1.79 2.78 2.78 0 0 1-.31-1.39 7.06 7.06 0 0 1 .22-1.34l.36-1.4a4.25 4.25 0 0 0 .09-1.52 53.48 53.48 0 0 1 .85-5.51q.58-2.82 1.4-5.5.8-2.68 1.84-5.33 1-2.64 2.1-5a23.56 23.56 0 0 0 1.66-1.84 18.4 18.4 0 0 1 1.56-1.7 9.57 9.57 0 0 1 1.75-1.3 5.09 5.09 0 0 1 2.1-.62v-1.35a20.22 20.22 0 0 1 6-2.28 24.17 24.17 0 0 1 6.4-.49 26.86 26.86 0 0 1 6.4 1.16 24.32 24.32 0 0 1 5.87 2.69 44.64 44.64 0 0 1 4.74 5.37 46.66 46.66 0 0 1 3.76 5.82l-.08 1.43 1.52.45.22 1.52s.2 1.1.36 1.66.28 1.12.4 1.66l.36 1.6.3 1.6a6.66 6.66 0 0 1 .09 1.52 7.07 7.07 0 0 1-.22 1.39 4 4 0 0 1-.54 1.21 2.75 2.75 0 0 1 1 1.61 9.64 9.64 0 0 1 .23 2.15l-.1 2.33a7 7 0 0 0 .18 2.24l-.5 4.88a160.74 160.74 0 0 1-.53 4.92l-.8 4.93a27 27 0 0 1-1.48 4.88 18.39 18.39 0 0 1-6.32 11.53 19.41 19.41 0 0 1-3.8 3.4 23.68 23.68 0 0 1-4.57 2.42 22.9 22.9 0 0 1-5.15 1.39 30.93 30.93 0 0 1-5.46.28zm2.42-13.88a22.31 22.31 0 0 0 2.6 0 11.13 11.13 0 0 0 2.55-.35 6.48 6.48 0 0 0 2.19-1 4.58 4.58 0 0 0 1.52-2 15 15 0 0 1 1.26-3.23l1.52-3.13a22.37 22.37 0 0 0 1.16-3.27 8.15 8.15 0 0 0 .09-3.63 111.82 111.82 0 0 1 .18-6.31l.1-6.3a43.71 43.71 0 0 0-.62-6.18 27.51 27.51 0 0 0-1.8-6 15.16 15.16 0 0 0-.94-1.65 12.69 12.69 0 0 0-1.11-1.48 11 11 0 0 0-1.35-1.3l-1.43-1.2a20.59 20.59 0 0 0-3.13-.89 14.38 14.38 0 0 0-3.36-.32 11.15 11.15 0 0 0-3.18.54 6 6 0 0 0-2.6 1.66 18.72 18.72 0 0 0-2.06 4.56c-.48 1.6-.88 3.26-1.2 4.93s-.62 3.3-.9 4.88a35.61 35.61 0 0 1-1 4.43 8.55 8.55 0 0 1 .76 3 40.52 40.52 0 0 1 .13 3.36l.1 3.5a11.55 11.55 0 0 0 .72 3.45 14.69 14.69 0 0 0 .18 4 14.44 14.44 0 0 0 1.16 3.58 12 12 0 0 0 2 2.95 11.83 11.83 0 0 0 2.73 2.2 3.55 3.55 0 0 0 1 .49 13.88 13.88 0 0 0 .94.22c.3.06.6.14.9.23s.63.17.92.3zm104.94 13.7a14.05 14.05 0 0 0-2.77-.45q-1.44-.1-2.9-.1-1.47 0-3 .1-1.53.1-3 .1c-1 0-1.94 0-2.87-.13a11.5 11.5 0 0 1-2.64-.58 8.12 8.12 0 0 1-2.33-1.3 9.66 9.66 0 0 1-2-2.2 12.26 12.26 0 0 1 0-2.1 9.07 9.07 0 0 1 .45-2.19 12.23 12.23 0 0 1 .9-2.06 7.12 7.12 0 0 1 1.25-1.71l3.22-.5 3.27-.45 3.27-.58a26.8 26.8 0 0 0 3.13-.89q.36-.63.72-1.17a4.48 4.48 0 0 0 .54-1.07 2.68 2.68 0 0 0 .13-1.08 2.4 2.4 0 0 0-.49-1.16q-.1-3.5-.14-6.9-.05-3.4 0-7.26.1-3.3.18-6.67.1-3.36.1-6.76a73.68 73.68 0 0 0-.32-6.8l-.94-6.8a4.44 4.44 0 0 0-2.19-.85 13.94 13.94 0 0 0-2.51 0 27.81 27.81 0 0 0-2.64.31 15.14 15.14 0 0 1-2.51.22 6.23 6.23 0 0 1-.18.72 2.43 2.43 0 0 1-.22.49 2.25 2.25 0 0 0-.22.54 2.78 2.78 0 0 0-.09.76 11.53 11.53 0 0 0-.81 3.18l-.36 3.3-.44 3.36a13.12 13.12 0 0 1-1 3.31 7.23 7.23 0 0 1-2.46 2 7.32 7.32 0 0 1-3.72.72A3.75 3.75 0 0 1 728 150a7.38 7.38 0 0 1-1.39-1.17 9.5 9.5 0 0 1-1.12-1.47 11.35 11.35 0 0 1-.85-1.71l-.23-3.13-.3-3.27a112.89 112.89 0 0 1-.31-3.4l-.23-3.5-.1-3.5a27.39 27.39 0 0 1 .23-3.49 47.01 47.01 0 0 1 .58-3.49 21 21 0 0 1 1-3.36 1.76 1.76 0 0 1 1.25-.85 10.65 10.65 0 0 1 1.75-.13h2a5.92 5.92 0 0 0 1.88-.27 4.49 4.49 0 0 0 1.57.09l1.7-.14a7.06 7.06 0 0 1 1.61.09 1.5 1.5 0 0 1 1.12.85.54.54 0 0 0 .4-.13 2.86 2.86 0 0 0 .27-.31 4.86 4.86 0 0 0 .27-.41 2.38 2.38 0 0 1 .31-.4h4.57a121.11 121.11 0 0 1 4.66-.09 37.08 37.08 0 0 1 4.52.27 15.13 15.13 0 0 1 4.07 1.07 1.09 1.09 0 0 0 .27-.4 2.54 2.54 0 0 0 .13-.45 2.78 2.78 0 0 1 .14-.44c.06-.15.15-.23.27-.23a18.32 18.32 0 0 0 2.82.32c.92 0 1.9.1 2.9.22q3.32.1 6.58 0l6.45-.13a56.45 56.45 0 0 1 6.35.36 27.06 27.06 0 0 1 6.32 1.52 9.73 9.73 0 0 1 .18 2.6 44.77 44.77 0 0 0-.09 3q-.1 3.14 0 6.32.1 3.18 0 6.35a48.27 48.27 0 0 1-.67 6.27 24.18 24.18 0 0 1-2 6.13 4.51 4.51 0 0 1-1.57.77 9.38 9.38 0 0 1-1.83.26l-2.06.1a12.55 12.55 0 0 0-2 .23.58.58 0 0 0-.32-.27 2.25 2.25 0 0 0-.44-.14 2.54 2.54 0 0 1-.45-.13.52.52 0 0 1-.31-.36 13.31 13.31 0 0 1-1.35-3.62 36.64 36.64 0 0 1-.67-4.21l-.4-4.48a53.06 53.06 0 0 0-.54-4.43 5.78 5.78 0 0 0-2.28-1.21 10.38 10.38 0 0 0-2.91-.4 19.14 19.14 0 0 0-3.09.26 14.15 14.15 0 0 0-2.73.72l-.18 4.88-.1 4.7v4.7l-.13 4.88a56.93 56.93 0 0 1 0 6.4l-.13 6.5a55.73 55.73 0 0 0 .44 6.44 26.68 26.68 0 0 0 1.57 6.27 28.71 28.71 0 0 0 4.84.9q2.6.27 5.2.36l.76.53a8.73 8.73 0 0 0 .81.49 4.8 4.8 0 0 1 .76.54 3.61 3.61 0 0 1 .62.76 4 4 0 0 1 .94 1.84 10 10 0 0 1 .23 2.15 9.59 9.59 0 0 1-.27 2.24 14.75 14.75 0 0 1-.72 2.19 10.73 10.73 0 0 1-2.33 1.79 11.84 11.84 0 0 1-2.64 1.12 17.64 17.64 0 0 1-2.91.58 33.19 33.19 0 0 1-3.09.23h-9.44a27.92 27.92 0 0 0-2.94.14zm70.56.1a10.06 10.06 0 0 0-2.37-.76l-2.3-.5a21.19 21.19 0 0 1-2.1-.63 5.65 5.65 0 0 1-1.92-1.16 48.67 48.67 0 0 1-4.84-2 37.52 37.52 0 0 1-4.43-2.51 24.82 24.82 0 0 1-3.85-3.09 22.71 22.71 0 0 1-3.18-3.85 12.76 12.76 0 0 0-1.3-2.19l-1.57-2.06s-1-1.42-1.52-2.2a14.93 14.93 0 0 1-1.25-2.6 12.27 12.27 0 0 0-.45-2.51 18.61 18.61 0 0 1-.54-2.5 13.09 13.09 0 0 1-.13-2.38 3.36 3.36 0 0 1 .76-2 .93.93 0 0 0-.22-.4 1.84 1.84 0 0 1-.23-.27 3 3 0 0 1-.18-.32 1.2 1.2 0 0 1-.09-.53 44.13 44.13 0 0 1 0-4.44 57.62 57.62 0 0 1 .45-4.52 34.13 34.13 0 0 1 .89-4.39 21.32 21.32 0 0 1 1.48-3.94 21.08 21.08 0 0 1 .71-2.23 31.4 31.4 0 0 1 1-2.33 23.91 23.91 0 0 1 1.21-2.29l1.4-2.1a67.07 67.07 0 0 0 3.31-3.58 38.4 38.4 0 0 1 3.45-3.54 29 29 0 0 1 4-3 18 18 0 0 1 4.75-2.06l5.06-1.25a39.35 39.35 0 0 1 10.61-.72 22.77 22.77 0 0 1 5.28 1 37 37 0 0 1 8.55 5.24 39.68 39.68 0 0 1 3.63 3.35l3.3 3.76a37.88 37.88 0 0 1 2.69 4.35l2.32 4.88a50.2 50.2 0 0 1 1.89 5.15q.8 2.64 1.43 5.14a4.61 4.61 0 0 0-.18 1.8l.22 1.83a40.16 40.16 0 0 1 .23 1.88 7.77 7.77 0 0 1-.09 2 16.79 16.79 0 0 0-.59 1.92l-.4 1.93a22.69 22.69 0 0 0-.27 1.92 22.91 22.91 0 0 1-.27 1.93l-.35 1.92a14.1 14.1 0 0 1-.5 1.88 19.43 19.43 0 0 1-.71 1.84 8.37 8.37 0 0 1-1.12 1.79 10.24 10.24 0 0 1-.76.85 4 4 0 0 0-.67.85 4.64 4.64 0 0 0-.45 1 4.74 4.74 0 0 0-.18 1.39 1.57 1.57 0 0 0-.94.67 6.73 6.73 0 0 0-.54 1 4.85 4.85 0 0 1-.54 1 1.31 1.31 0 0 1-.94.54 4.6 4.6 0 0 1-1.2 1.52 19.72 19.72 0 0 1-1.66 1.21 31.53 31.53 0 0 1-1.79 1.08 8.94 8.94 0 0 0-1.7 1.21 22.68 22.68 0 0 1-4.21 3.13 28.31 28.31 0 0 1-5 2.24 30.17 30.17 0 0 1-5.46 1.3 33.76 33.76 0 0 1-5.64.33zm3.5-13.6l3-.76a20.19 20.19 0 0 0 3-1 17.4 17.4 0 0 0 2.64-1.43 10 10 0 0 0 2.11-1.88 1.28 1.28 0 0 1 .18-.72 2 2 0 0 1 .4-.45 1.57 1.57 0 0 1 .49-.27l.54-.18a3.77 3.77 0 0 1 .36-1.7 6.11 6.11 0 0 1 .89-1.3 15.05 15.05 0 0 0 1-1.16 4.15 4.15 0 0 0 .76-1.3 2.89 2.89 0 0 1 .32-.94 19.53 19.53 0 0 0 .4-.76 5.75 5.75 0 0 0 .31-.76 3.28 3.28 0 0 0 .14-1l.22-2s.2-1.3.36-2a12.46 12.46 0 0 1 .58-1.88 7 7 0 0 1 .9-1.61 6.73 6.73 0 0 0 .27-1.75 5.49 5.49 0 0 0-.18-1.43l-.32-1.43a9.56 9.56 0 0 1-.13-1.66l-1-2.5s-.66-1.67-1-2.5l-1-2.47c-.32-.8-.75-1.6-1.17-2.37s-.85-1.5-1.3-2.2a10.06 10.06 0 0 0-1.56-1.88 13.51 13.51 0 0 0-1.93-1.53 16.31 16.31 0 0 0-2.28-1.21 7.77 7.77 0 0 0-3.14-1.83 13.39 13.39 0 0 0-3.4-.54 19.87 19.87 0 0 0-3.49.23l-3.4.44a40.61 40.61 0 0 1-2.78 1.17 27.88 27.88 0 0 0-2.69 1.16 15.38 15.38 0 0 0-2.37 1.48 5.88 5.88 0 0 0-1.74 2.1q-1 2.68-1.93 5.33l-1.7 5.28a50.81 50.81 0 0 0-1.25 5.42 39.81 39.81 0 0 0-.59 5.82 20.68 20.68 0 0 0 1.17 4.3 30.76 30.76 0 0 0 1.88 4 25.75 25.75 0 0 0 2.42 3.63l2.6 3.3a56 56 0 0 0 6.72 2.69l6.7 2.04z" fill="#c2b59c"/><path d="M101.93 304.34l-58.1-32.7a2.21 2.21 0 0 1-.27-.53 1 1 0 0 1 0-.63 3 3 0 0 1 .45-.76l.85-1q5.64-3 11.15-6.1 5.5-3.1 11.06-6.36 5.55-3.23 11.24-6.5l11.6-6.67a14 14 0 0 0 1.7-.81l1.7-.94 1.8-1a19.4 19.4 0 0 1 1.83-.9 13.83 13.83 0 0 1 2-.67 12.35 12.35 0 0 1 2.06-.36 10.69 10.69 0 0 1 2.11 0 9.43 9.43 0 0 1 2.23.58 1.19 1.19 0 0 1 1.26.45 6.35 6.35 0 0 1 1 1.7l.8 2.24.7 2.06a29.68 29.68 0 0 1-4 4.25 44.26 44.26 0 0 1-4.66 3.58l-5.15 3.18-5.4 2.9-5.46 2.73-5.3 2.78-4.83 3a47.83 47.83 0 0 0-4.26 3.27 61.36 61.36 0 0 0 6.18 4.11L82.8 279l6.8 3.76 6.85 4 2.1 1.3 2.3 1.35 2.37 1.3a22.06 22.06 0 0 0 2.46 1.07 22 22 0 0 1 1.34 2.06 10.09 10.09 0 0 1 1 2.33 8.83 8.83 0 0 1 .31 2.73 8.94 8.94 0 0 1-.76 3.18 1.87 1.87 0 0 1-.71 1.43 3.92 3.92 0 0 1-1.53.63 9 9 0 0 1-1.79.18z" fill="#f2f2f2"/><path d="M142 303.44a15.5 15.5 0 0 0-2.42-.54 23.43 23.43 0 0 0-2.5-.22h-2.5s-1.66 0-2.46-.05l-2.38-.13a14.62 14.62 0 0 1-2.28-.36 8.32 8.32 0 0 1-2.1-.81 12.27 12.27 0 0 1-2-1.34 11 11 0 0 1-.32-1.17 15 15 0 0 1-.22-1.34l-.13-1.43-.14-1.52a4.37 4.37 0 0 1 1.12-2.15 10.78 10.78 0 0 1 1.93-1.61 18 18 0 0 1 2.28-1.3 20.13 20.13 0 0 0 2.19-1.21l.18-27a37.31 37.31 0 0 1-.13-4.08l.18-4.07.22-4.16a33.74 33.74 0 0 0-.09-4.26 3.47 3.47 0 0 0-.22-2.06 4.07 4.07 0 0 0-1.17-1.39 8.85 8.85 0 0 0-1.74-1 17.57 17.57 0 0 1-1.88-1 5.86 5.86 0 0 1-3-3.85 8.33 8.33 0 0 1-.23-2.6 8.7 8.7 0 0 1 .63-2.68 2.4 2.4 0 0 0 .63-.45l.58-.54.63-.54a1.67 1.67 0 0 1 .76-.35 37.84 37.84 0 0 1 6.44-.9 61.1 61.1 0 0 1 6.63 0 57.25 57.25 0 0 1 6.52.67l6 1.16 1.1 1.84a9.05 9.05 0 0 1 .9 2.24 9.64 9.64 0 0 1 .31 2.46 5.15 5.15 0 0 1-.62 2.42 3.36 3.36 0 0 1-1.44 1.43 6.79 6.79 0 0 1-2 .63l-2.28.3a20.56 20.56 0 0 0-2.37.4 25.15 25.15 0 0 0-.85 3.72 30.78 30.78 0 0 0-.36 4.12 28.15 28.15 0 0 0 .22 4.2 29.45 29.45 0 0 0 .81 4.08q2.87.72 5.9 1.2a60 60 0 0 0 6.09.67 46.49 46.49 0 0 0 6.13-.05 37.7 37.7 0 0 0 6.13-.94 5.19 5.19 0 0 0 .81-1.52 10 10 0 0 0 .4-1.7 12 12 0 0 0 .14-1.79l-.1-1.88-.23-2-.22-2-.18-2a10.8 10.8 0 0 1 0-2 5.53 5.53 0 0 0-1.57-1.75 13.62 13.62 0 0 0-2-1.2 23.46 23.46 0 0 0-2.42-1l-2.55-1a12.91 12.91 0 0 1-.94-1.21 4 4 0 0 1-.59-1.26 7.21 7.21 0 0 1-.22-1.47 7.71 7.71 0 0 1 .13-1.8 7 7 0 0 1 .09-1 3.3 3.3 0 0 1 .36-1.07 3.4 3.4 0 0 1 .72-.9 2.89 2.89 0 0 1 1-.58 41.29 41.29 0 0 1 6.63-1.07 58.47 58.47 0 0 1 6.89-.14 67 67 0 0 1 6.94.63q3.45.5 6.76 1.3a4.87 4.87 0 0 1 1.12 1.39 7.13 7.13 0 0 1 .63 1.7 10.6 10.6 0 0 1 .27 2 17.11 17.11 0 0 1 0 2.15 2.72 2.72 0 0 1-.89 1.61 7.2 7.2 0 0 1-1.66 1.08l-2 .85a8.85 8.85 0 0 0-1.92 1 37.8 37.8 0 0 0-.63 4.79q-.18 2.55-.27 5.2l-.13 5.38-.32 5.4q-.1 3.22 0 6.54.1 3.32.18 6.67.13 3.36.4 6.63.27 3.27.63 6.5a1.61 1.61 0 0 0 .45.13 3.79 3.79 0 0 1 .53.14l.58.22a2.25 2.25 0 0 1 .68.49 14.68 14.68 0 0 1 1.83 2.06 11.23 11.23 0 0 1 1.39 2.55A10.63 10.63 0 0 1 190 297a8.75 8.75 0 0 1-.31 3.14 4.35 4.35 0 0 1-.94 1.12 5.73 5.73 0 0 1-1.39.85 7.94 7.94 0 0 1-1.75.54 10.16 10.16 0 0 1-1.92.17l-3-.22h-9.44a26.09 26.09 0 0 1-3.09-.27 19.27 19.27 0 0 1-3-.67 13.29 13.29 0 0 1-2.73-1.21 12.51 12.51 0 0 1-2.46-1.92 7.92 7.92 0 0 1-.4-1.66 10.28 10.28 0 0 1-.09-1.93 7 7 0 0 1 .35-1.88 6.07 6.07 0 0 1 .86-1.61 19.57 19.57 0 0 1 3.58-1.61 17.87 17.87 0 0 1 4.21-.81 23.77 23.77 0 0 0 .85-3.49 28.69 28.69 0 0 0 .35-3.89 33 33 0 0 0-.17-4.08 23.68 23.68 0 0 0-.77-3.94 35.2 35.2 0 0 0-5.95-1.47 54.12 54.12 0 0 0-6.27-.63 57.43 57.43 0 0 0-12.49.85l-.67 4a33.73 33.73 0 0 0-.4 3.85 28.29 28.29 0 0 0 .09 3.9 23.71 23.71 0 0 0 .71 4 3.28 3.28 0 0 0 1.48 1.21 16.36 16.36 0 0 0 2 .71l2.1.68a5.35 5.35 0 0 1 1.83 1.07 5.74 5.74 0 0 1 1.12 1.34 6.66 6.66 0 0 1 .76 1.79 9.32 9.32 0 0 1 .32 2.06 7.47 7.47 0 0 1-.23 2.15A10.9 10.9 0 0 1 151 301a13.7 13.7 0 0 1-2.74 1.35 18.07 18.07 0 0 1-3.08.8 19.56 19.56 0 0 1-3.18.29zm58.28 1.25l-2.1-1.1-2.37-1.2a7.87 7.87 0 0 1-.76-1.57 7.07 7.07 0 0 1-.41-1.79 8.36 8.36 0 0 1 .05-1.93 6.64 6.64 0 0 1 .49-1.79 3.87 3.87 0 0 1 1.48-1.83 7.6 7.6 0 0 1 2.15-.9l2.5-.54a10.87 10.87 0 0 0 2.56-.76 11.81 11.81 0 0 0 .94-2.68 25.46 25.46 0 0 0 .44-3l.14-3.18v-3.27l-.36-6.67v-3.36a27.21 27.21 0 0 1 .18-3.18l.1-6.67.13-6.67a64.17 64.17 0 0 0-.4-6.45 23 23 0 0 0-1.52-6l-2.15-.23a14.45 14.45 0 0 1-2.06-.4 9.55 9.55 0 0 1-1.93-.76 8.61 8.61 0 0 1-1.74-1.21 4.31 4.31 0 0 1-.81-1.43 5.49 5.49 0 0 1-.27-1.75 8.06 8.06 0 0 1 .23-1.88 6.83 6.83 0 0 1 .67-1.75 3.68 3.68 0 0 1 .94-1.07 7.4 7.4 0 0 1 1.21-.76 4.93 4.93 0 0 1 1.39-.45 13 13 0 0 1 1.56-.18l1.6-.1h3.32a10 10 0 0 0 1.61-.22l7-.36 6.8-.27 6.72-.1 6.94.1q6.63.1 13.2.4l13 .6a.22.22 0 0 0 0 .35l.1 3.23.15 3.1.18 3.27a40.61 40.61 0 0 1 .05 3.31l-.14 3.32a23.6 23.6 0 0 1-.4 3.26 31.78 31.78 0 0 1-.81 3.23 19.45 19.45 0 0 1-1.21 3 4.82 4.82 0 0 1-1.83 1 6.59 6.59 0 0 1-2.19.27 8 8 0 0 1-2.33-.45 8.1 8.1 0 0 1-2.06-1 6.33 6.33 0 0 1-1-1.47 9.87 9.87 0 0 1-.58-1.57 7.67 7.67 0 0 1-.27-1.66v-3.54a16.83 16.83 0 0 0 0-1.74c0-.57-.1-1.15-.18-1.75a10.28 10.28 0 0 0-.4-1.7h-1.2a3.52 3.52 0 0 1-.58 0 3.83 3.83 0 0 0-.63-.05q-3.32-.18-6.7-.5l-6.76-.4a45.82 45.82 0 0 0-6.72.31 26.82 26.82 0 0 0-6.58 1.66l-.5 4.2a45.39 45.39 0 0 0-.23 4.57c0 1.57.08 3.1.23 4.66a24 24 0 0 0 .85 4.47h8.5a3.35 3.35 0 0 0 1-.85 9.77 9.77 0 0 0 .76-1 6.76 6.76 0 0 0 .63-1.16l.54-1.25.58-1.2a6.76 6.76 0 0 1 .72-1.08 5.1 5.1 0 0 1 .89-.85 3.63 3.63 0 0 1 1.21-.53 12.48 12.48 0 0 1 2.06-.18 7.19 7.19 0 0 1 1.84.22 4.53 4.53 0 0 1 1.56.76 5 5 0 0 1 1.26 1.43l1 6.05a51 51 0 0 1 .49 6.45 36.9 36.9 0 0 1-.49 6.53 27.25 27.25 0 0 1-1.88 6.4 2.46 2.46 0 0 1-1 .85 5.11 5.11 0 0 1-1.35.45 7.88 7.88 0 0 1-1.47.14 14.17 14.17 0 0 1-1.57-.09 4.47 4.47 0 0 1-2.51-1.17 8.53 8.53 0 0 1-1.52-2.06 16.22 16.22 0 0 1-1.07-2.41 10.38 10.38 0 0 0-1.17-2.33 11.28 11.28 0 0 1-2.24-.05 20.09 20.09 0 0 0-2.33-.13 14.41 14.41 0 0 0-2.28.18 7.69 7.69 0 0 0-2.19.71 14.9 14.9 0 0 0-1.08 4 25.87 25.87 0 0 0-.18 4.34l.36 4.52.54 4.44a.83.83 0 0 0 .49.44 2.88 2.88 0 0 0 .94.23h1.17a5.55 5.55 0 0 1 1.07.09q3.58.36 7 .5 3.42.13 6.77.1l6.76-.27s4.56-.37 6.9-.67a4.59 4.59 0 0 0 1.16-2.1 11.79 11.79 0 0 0 .32-2.33v-2.42a15.56 15.56 0 0 1 .18-2.37 18.44 18.44 0 0 1 .76-2.06 8.72 8.72 0 0 1 .94-1.61 5 5 0 0 1 1.3-1.21 8.63 8.63 0 0 1 1.75-.85 7.63 7.63 0 0 1 3.13.45 6.13 6.13 0 0 1 2.42 1.61 21 21 0 0 1 1.74 6.13 51 51 0 0 1 .41 6.45q0 3.27-.27 6.58-.27 3.3-.27 6.36zm90.8-1.07a28.18 28.18 0 0 0-2.73-.58l-2.82-.32s-1.9-.08-2.87-.08-1.9 0-2.86-.05-1.9-.1-2.82-.18a27.38 27.38 0 0 1-2.74-.4 16.83 16.83 0 0 1-2.64-.76 14 14 0 0 1-2.55-1.3 2.08 2.08 0 0 1-.89-.9 3.09 3.09 0 0 1-.32-1.21 5.46 5.46 0 0 1 .09-1.38 30.39 30.39 0 0 0 .23-1.44 5.15 5.15 0 0 1 1.16-2 5.59 5.59 0 0 1 1.79-1.16 3.87 3.87 0 0 1 1.52-1.07 13.14 13.14 0 0 1 1.84-.59 10.6 10.6 0 0 0 1.88-.62 3.89 3.89 0 0 0 1.57-1.21 22.59 22.59 0 0 0 1.16-5.51q.27-3 .3-6.1.04-3.1 0-6.27v-6.13a14.58 14.58 0 0 1-.18-2.24 4.78 4.78 0 0 1 .54-2.15 7 7 0 0 1-.59-2.06l-.17-2.23a17.41 17.41 0 0 1 0-2.29 53.94 53.94 0 0 0 .13-2.28 61.59 61.59 0 0 0 .05-2.37l-.1-2.33a9.89 9.89 0 0 0-.45-2.24 12.38 12.38 0 0 0-.89-2.1 7.35 7.35 0 0 0-1.39-.54l-1.43-.32-1.48-.26-1.43-.32a9.33 9.33 0 0 1-1.71-1.79 6.36 6.36 0 0 1-1-2.15 7.55 7.55 0 0 1-.23-2.5 9.74 9.74 0 0 1 .63-2.78 4.63 4.63 0 0 1 1.07-1.21 7.87 7.87 0 0 1 1.35-.85 6.38 6.38 0 0 1 1.52-.54 26.83 26.83 0 0 1 1.65-.31l1.75-.22 1.8-.18a30.86 30.86 0 0 0 1.75-.23 5.27 5.27 0 0 0 1.56-.49l5.24-.1s3.67-.1 5.55-.13h5.73l5.7.22 5.78.4a49.74 49.74 0 0 1 5.95.81 29.23 29.23 0 0 1 5.64 1.7 19.17 19.17 0 0 1 4.84 2.91 14.9 14.9 0 0 1 3.85 3.58 18.69 18.69 0 0 1 2.59 4.84 24.93 24.93 0 0 1 1.35 5.68 26.61 26.61 0 0 1 0 6 22.1 22.1 0 0 1-1.48 5 23.77 23.77 0 0 1-2.51 4.43 28.76 28.76 0 0 1-3.31 3.85 37.27 37.27 0 0 1-3.9 3.31 1.52 1.52 0 0 0-.22.67 2.46 2.46 0 0 0 0 .81 3.63 3.63 0 0 0 .26.81 5.08 5.08 0 0 0 .36.67 11.2 11.2 0 0 1 1.84 1.47 15.32 15.32 0 0 1 1.56 1.84l1.44 2a8.91 8.91 0 0 0 1.7 1.83 19 19 0 0 0 3.09 3.94 37.67 37.67 0 0 0 3.71 3.18 65.3 65.3 0 0 0 4.12 2.86l4.3 2.9a9.86 9.86 0 0 1 .4 1.84 12.63 12.63 0 0 1 .09 2.15 6.81 6.81 0 0 1-.4 2.1 4.14 4.14 0 0 1-1.16 1.7 7.26 7.26 0 0 1-3.27 1.8 16.17 16.17 0 0 1-3.85.44 27 27 0 0 1-4.08-.31 73.96 73.96 0 0 0-3.85-.49 2.34 2.34 0 0 1-.4-.27 1.5 1.5 0 0 1-.36-.4 1.43 1.43 0 0 1-.18-.54 1.73 1.73 0 0 1 .05-.67.64.64 0 0 0-.23-.81 3.73 3.73 0 0 0-.94-.45 15.85 15.85 0 0 0-1.21-2.32 21.53 21.53 0 0 0-1.43-2.06 22.43 22.43 0 0 0-1.61-1.88l-1.7-1.8-1.7-1.8a20.71 20.71 0 0 1-1.61-1.88 16.89 16.89 0 0 1-1.39-2.06 20.92 20.92 0 0 1-1.17-2.32 23.32 23.32 0 0 0-2.59-2.42 37.98 37.98 0 0 0-2.73-2l-3-1.83-3.18-1.8a22.1 22.1 0 0 1-2.82 0l-2.9-.05a12.11 12.11 0 0 0-2.77.41 5.33 5.33 0 0 0-2.33 1.25 10.93 10.93 0 0 1 .13 2.95l-.3 2.9a29.47 29.47 0 0 0-.22 3 12 12 0 0 0 .31 3.09 5.13 5.13 0 0 0 1.16.89 9.29 9.29 0 0 0 1.35.63 8.19 8.19 0 0 0 1.47.4l1.57.27 1.6.23a17.41 17.41 0 0 1 1.61.26c.53.1 1.06.26 1.57.4a4.59 4.59 0 0 1 1.39.67 5.87 5.87 0 0 1 .58 1.61 14.91 14.91 0 0 1 .31 2 7.16 7.16 0 0 1-.13 2.1 4.49 4.49 0 0 1-.85 1.88A6.57 6.57 0 0 1 302 302a13.73 13.73 0 0 1-3.4 1 25.89 25.89 0 0 1-3.77.36l-3.75.26zm5.46-42.17a37.59 37.59 0 0 0 5.82-.09 53.68 53.68 0 0 0 5.55-.81 30.09 30.09 0 0 1 2.91-1.43l2.87-1.26a19.74 19.74 0 0 0 2.64-1.43 8.59 8.59 0 0 0 2.15-2 3.26 3.26 0 0 1 .62-.31 3.72 3.72 0 0 0 .59-.27 1.5 1.5 0 0 0 .4-.36.49.49 0 0 0 .09-.49 13 13 0 0 0-.81-4.75A7.6 7.6 0 0 0 317 245a8.6 8.6 0 0 0-2-.94l-1.93-.63-1.88-.58a14.53 14.53 0 0 1-1.92-.71q-1.9-.27-3.8-.45a41.33 41.33 0 0 0-3.85-.18l-3.76.18a17.91 17.91 0 0 0-3.54.71 14.48 14.48 0 0 0-1 4.57 30.82 30.82 0 0 0 .09 4.7 80.4 80.4 0 0 0 .58 4.7 40.83 40.83 0 0 1 .45 4.57.76.76 0 0 0 .4.22 2.76 2.76 0 0 0 .54.05h.63a.81.81 0 0 1 .54.24zm85.96 42.9a9.62 9.62 0 0 0-2.37-.76l-2.3-.5a24.21 24.21 0 0 1-2.1-.62 5.65 5.65 0 0 1-1.93-1.17 49.45 49.45 0 0 1-4.83-2 37.52 37.52 0 0 1-4.43-2.51 24.82 24.82 0 0 1-3.85-3.09 23.11 23.11 0 0 1-3.18-3.85 12.39 12.39 0 0 0-1.3-2.19l-1.57-2.06a25.84 25.84 0 0 1-1.52-2.2 14.82 14.82 0 0 1-1.25-2.59 12.27 12.27 0 0 0-.45-2.51 18.75 18.75 0 0 1-.54-2.51 12.93 12.93 0 0 1-.13-2.37 3.31 3.31 0 0 1 .76-2 1.05 1.05 0 0 0-.23-.41 2.61 2.61 0 0 1-.22-.27 2.84 2.84 0 0 1-.18-.31 1.25 1.25 0 0 1-.09-.54 43.93 43.93 0 0 1 .05-4.43l.44-4.52a35.57 35.57 0 0 1 .9-4.39 21.32 21.32 0 0 1 1.48-3.94 19.74 19.74 0 0 1 .71-2.24l1-2.33a25 25 0 0 1 1.21-2.28l1.4-2.1q1.7-1.7 3.3-3.58a36 36 0 0 1 3.45-3.54 27.47 27.47 0 0 1 4-3 17.66 17.66 0 0 1 4.75-2.06l5.06-1.25a39.35 39.35 0 0 1 10.61-.72 23.29 23.29 0 0 1 5.28 1 37.94 37.94 0 0 1 8.56 5.2 41.26 41.26 0 0 1 3.63 3.36l3.3 3.76a37.73 37.73 0 0 1 2.69 4.34l2.32 4.88a48.69 48.69 0 0 1 1.88 5.15q.8 2.64 1.44 5.15a4.58 4.58 0 0 0-.18 1.79l.22 1.84a40.16 40.16 0 0 1 .23 1.88 8.14 8.14 0 0 1-.09 2 17.57 17.57 0 0 0-.59 1.93l-.4 1.92s-.2 1.3-.27 1.93-.15 1.27-.27 1.92l-.35 1.93a14.52 14.52 0 0 1-.5 1.88 18.25 18.25 0 0 1-.71 1.83 8.84 8.84 0 0 1-1.12 1.8l-.76.85a3.8 3.8 0 0 0-.67.85 4.64 4.64 0 0 0-.45 1 4.71 4.71 0 0 0-.18 1.38 1.58 1.58 0 0 0-.94.68 6.3 6.3 0 0 0-.54 1 5.46 5.46 0 0 1-.54 1 1.31 1.31 0 0 1-.94.54 4.6 4.6 0 0 1-1.21 1.52 18 18 0 0 1-1.65 1.21l-1.8 1.07a9.41 9.41 0 0 0-1.7 1.21 22.29 22.29 0 0 1-4.21 3.14 27.88 27.88 0 0 1-5 2.23 30.17 30.17 0 0 1-5.46 1.3 32.75 32.75 0 0 1-5.7.37zm3.5-13.6l3-.77a20.16 20.16 0 0 0 2.95-1 16.59 16.59 0 0 0 2.64-1.44 9.51 9.51 0 0 0 2.11-1.88 1.24 1.24 0 0 1 .18-.71 2 2 0 0 1 .4-.45 1.57 1.57 0 0 1 .49-.27l.54-.18a3.74 3.74 0 0 1 .36-1.7 5.55 5.55 0 0 1 .89-1.3l1-1.16a4.35 4.35 0 0 0 .76-1.3 2.89 2.89 0 0 1 .32-.94 19.53 19.53 0 0 0 .4-.76 6.36 6.36 0 0 0 .31-.76 3.33 3.33 0 0 0 .14-1l.22-2a23.32 23.32 0 0 1 .36-2 12.12 12.12 0 0 1 .58-1.88 7 7 0 0 1 .9-1.62 6.6 6.6 0 0 0 .27-1.74 5.44 5.44 0 0 0-.18-1.43l-.32-1.44a9.44 9.44 0 0 1-.13-1.65l-2-5.02-1-2.46s-.74-1.6-1.16-2.37-.85-1.5-1.3-2.2a11.21 11.21 0 0 0-1.56-1.88 14.18 14.18 0 0 0-1.93-1.52 15.32 15.32 0 0 0-2.28-1.21 7.77 7.77 0 0 0-3.14-1.83 13.39 13.39 0 0 0-3.4-.54 19.84 19.84 0 0 0-3.49.22l-3.4.45-2.78 1.16a27.89 27.89 0 0 0-2.69 1.17 15.38 15.38 0 0 0-2.37 1.48 5.84 5.84 0 0 0-1.75 2.1q-1 2.68-1.92 5.33-.92 2.65-1.7 5.28a52.77 52.77 0 0 0-1.26 5.42 41.27 41.27 0 0 0-.58 5.82 20.85 20.85 0 0 0 1.17 4.3 30.76 30.76 0 0 0 1.88 4 27.21 27.21 0 0 0 2.41 3.63l2.6 3.3a57.74 57.74 0 0 0 6.72 2.69q3.23 1.06 6.74 2.05z" fill="#29aae1"/><path d="M436 304.7a7.24 7.24 0 0 1-2.19-1.11 5.54 5.54 0 0 1-1.39-1.62 5.47 5.47 0 0 1-.67-2.19 16.81 16.81 0 0 1-.05-2.78 35.88 35.88 0 0 1 3.85-3.94 53.3 53.3 0 0 1 4.3-3.35l4.6-3c1.6-1 3.2-1.8 4.84-2.64l5-2.42 5.1-2.37 5-2.55 4.88-2.78a2.16 2.16 0 0 0 1.26-.18 1.6 1.6 0 0 0 .76-.76 2.83 2.83 0 0 0 .22-1.12 2.57 2.57 0 0 0-.27-1.16 8.28 8.28 0 0 1-2.33-.54 24.26 24.26 0 0 1-2.37-1.07l-2.55-1.2a17.83 17.83 0 0 0-2.78-.94q-3-2.24-6.35-4.35l-6.76-4.16-7-4.16q-3.54-2.1-7-4.35a4.91 4.91 0 0 1-1.12-1.11 4.27 4.27 0 0 1-.71-1.62 4.94 4.94 0 0 1 0-2.1 6.73 6.73 0 0 1 1-2.42 4.34 4.34 0 0 1 1.29-1.65 4.93 4.93 0 0 1 2-.94 8.2 8.2 0 0 1 2.42-.1 11.07 11.07 0 0 1 2.68.53l5.1 3 5.23 2.77 5.24 2.73 5.1 2.9q2.23 1.26 4.88 2.47l5.2 2.37 4.8 2.33a31.36 31.36 0 0 1 3.76 2.24 9.13 9.13 0 0 0 1.66 1.74 17 17 0 0 0 2.06 1.44 22.54 22.54 0 0 0 2.28 1.2l2.37 1.08 2.3 1.07a13 13 0 0 1 2 1.26 10.77 10.77 0 0 1 1.66 1.56 5.67 5.67 0 0 1 1.07 2z" fill="#fff"/><path d="M576.42 302.34l-54.37-30.58a2.34 2.34 0 0 1-.25-.5.88.88 0 0 1 0-.59 3.2 3.2 0 0 1 .42-.71l.8-1a337.15 337.15 0 0 0 10.43-5.7l10.34-5.95 10.52-6.07 10.9-6.24a14.59 14.59 0 0 0 1.59-.76l1.6-.88 1.68-.92q.84-.47 1.7-.84a13.88 13.88 0 0 1 1.85-.63 12.85 12.85 0 0 1 1.92-.33 8.8 8.8 0 0 1 4.07.59 1.09 1.09 0 0 1 1.17.41 6.08 6.08 0 0 1 .92 1.6l.76 2.1s.44 1.37.67 1.93a28.13 28.13 0 0 1-3.73 4 42.32 42.32 0 0 1-4.36 3.35l-4.8 3s-3.37 1.86-5.07 2.73l-5.1 2.55q-2.56 1.26-4.95 2.6l-4.52 2.8a45.36 45.36 0 0 0-4 3.06 58.11 58.11 0 0 0 5.78 3.86q3 1.76 6.16 3.47l6.37 3.52 6.4 3.73 2 1.2 2.14 1.26a52.51 52.51 0 0 0 2.22 1.22 18.6 18.6 0 0 0 2.3 1 22.84 22.84 0 0 1 1.26 1.93 9.22 9.22 0 0 1 .92 2.18 8.35 8.35 0 0 1 .29 2.55 8.15 8.15 0 0 1-.71 3 1.73 1.73 0 0 1-.67 1.34 3.57 3.57 0 0 1-1.42.58 8 8 0 0 1-1.68.17zm26.5-19.7a3 3 0 0 1-1.17-.37 3.39 3.39 0 0 1-.84-.67 3.54 3.54 0 0 1-.54-.84 7.89 7.89 0 0 1-.38-1l-.34-1.1-.58-2.18a4.22 4.22 0 0 0-.42-1 143 143 0 0 0-.42-5.15l-.5-5-.55-4.94-.54-4.94-.42-5s-.17-3.35-.17-5a78.94 78.94 0 0 1 .17-5.06l.6-5.16 1.6-1.6a9.92 9.92 0 0 1 2.18-1.63 10.67 10.67 0 0 1 2.76-1.09 7.56 7.56 0 0 1 3.44 0 5.07 5.07 0 0 1 2.89 1 8.39 8.39 0 0 1 1.92 2.14 16 16 0 0 1 1.39 2.81l1.25 3.06q-.68 2.6-1.1 5.2a111.9 111.9 0 0 0-.71 5.24l-.42 5.23-.3 5.2-.34 5.15a140.41 140.41 0 0 1-.42 5.07l-.67 5a46.29 46.29 0 0 1-1.08 4.82 1.89 1.89 0 0 1-1.05 1.21 6.53 6.53 0 0 1-1.72.55 8.38 8.38 0 0 1-1.88.12l-1.64-.08zm.76 20c-.34-.23-.66-.42-1-.6a5.26 5.26 0 0 0-1-.42 18.03 18.03 0 0 1-1.22-.42 10 10 0 0 1-1.51-.75 1.37 1.37 0 0 1-.67-1.09 7.26 7.26 0 0 1 0-1.72 17.41 17.41 0 0 1 .41-2.09q.3-1.14.63-2.22a3.85 3.85 0 0 1 1.68-1.22 7.15 7.15 0 0 1 2.26-.42 17.85 17.85 0 0 1 2.68.13q1.43.17 2.85.42a6.4 6.4 0 0 1 1.68 1.38 5 5 0 0 1 1 1.84 5.85 5.85 0 0 1 .13 2.31 8.18 8.18 0 0 1-.93 2.68 2.31 2.31 0 0 1-1.13 1.25 6.8 6.8 0 0 1-1.88.63 13.61 13.61 0 0 1-2.18.25l-1.8.08zm40.16-34a82.9 82.9 0 0 0-4.23-.38l-4.15-.2-4.3-.16-4.65-.17a2.16 2.16 0 0 1-1.39-1.34 6.7 6.7 0 0 1-.37-2.35 25.15 25.15 0 0 1 .17-2.89 28 28 0 0 0 .16-3h5.2l5.32-.17 5.44-.25q2.73-.12 5.5-.2h5.5l5.4.2 5.28.54s3.4.58 5 1a4.91 4.91 0 0 0-.26 1.59 17 17 0 0 0 .09 1.72 21.51 21.51 0 0 1 .08 1.84 6.31 6.31 0 0 1-.33 2 7.7 7.7 0 0 1-2.26 1.3 15.81 15.81 0 0 1-2.69.71 25.15 25.15 0 0 1-3 .34h-3.2s-2.15-.07-3.26-.13l-3.23-.17c-1-.05-2-.07-3.06 0s-1.9.07-2.74.18zM683 302.68a6.67 6.67 0 0 1-2-1.05 5 5 0 0 1-1.3-1.51 5.09 5.09 0 0 1-.63-2.05 14.76 14.76 0 0 1 0-2.6 31.41 31.41 0 0 1 3.6-3.69 49.22 49.22 0 0 1 4-3.14c1.4-1 2.83-1.9 4.3-2.76s3-1.7 4.53-2.47a127.21 127.21 0 0 1 4.69-2.27l4.78-2.22a102.95 102.95 0 0 0 4.69-2.38l4.56-2.6a2 2 0 0 0 1.18-.17 1.48 1.48 0 0 0 .71-.71 2.61 2.61 0 0 0 0-2.14 7.41 7.41 0 0 1-2.18-.5 21.47 21.47 0 0 1-2.22-1 44.52 44.52 0 0 0-2.39-1.14 17.67 17.67 0 0 0-2.6-.88l-6-4.06-6.32-3.9-6.54-3.9a253.08 253.08 0 0 1-6.57-4.06 4.75 4.75 0 0 1-1-1.05 4.09 4.09 0 0 1-.67-1.51 4.66 4.66 0 0 1 0-2 6.56 6.56 0 0 1 1-2.26 4.19 4.19 0 0 1 1.22-1.55 4.69 4.69 0 0 1 1.84-.88 7.82 7.82 0 0 1 2.31-.17 10.27 10.27 0 0 1 2.51.51q2.34 1.5 4.77 2.84a153.44 153.44 0 0 0 4.91 2.6l4.9 2.56 4.77 2.72q2.1 1.17 4.57 2.3l4.86 2.22 4.48 2.18a32.06 32.06 0 0 1 3.52 2.1 8.26 8.26 0 0 0 1.55 1.63 15.65 15.65 0 0 0 1.93 1.34 19.74 19.74 0 0 0 2.13 1.13l2.22 1 2.14 1a11.67 11.67 0 0 1 1.88 1.18 9.39 9.39 0 0 1 1.55 1.46 5.36 5.36 0 0 1 1 1.89z" fill="#4bc1ea"/><path d="M634.382 168.618l26.337-38.64 9.672 6.593-26.337 38.64z" fill="#c2b59c"/></svg>