<svg xmlns="http://www.w3.org/2000/svg" viewBox="0 0 565.08 1332.95"><path d="M120.88 1160.4l-2.6-.4 76.3-518.34 2.6.4-76.3 518.34zm78.06-794.3L54.17 1332.95l-2.6-.4 144.77-966.87 2.6.4zm327.48 123.1l-125.54 843.58h-2.66l125.6-843.98 2.6.4zm-379.2 763.8l-2.6-.4 76.3-518.34 2.6.4-76.3 518.33zm158.6-420.55l-73.65 500.33h-2.67l73.7-500.72 2.6.4zm77.47-3.42l-74.16 503.75h-2.66l74.22-504.15 2.6.4zm16.4 0l-74.16 503.75h-2.66l74.22-504.15 2.6.4zm12 0l-74.16 503.75h-2.66l74.2-504.15 2.6.4zm17.86 0l-74.16 503.75h-2.66l74.22-504.15 2.6.4zm14.94 0l-74.16 503.75h-2.67l74.22-504.15 2.6.4zm87.83 170.95l-49 332.8h-67.1l49.05-333.2 67.03.4zm32.76 107.75l-33.13 225.05h-26.1l33.2-225.44 26.03.4zm-327.8 73.9l-22.25 151.14h-67.08l22.3-151.53 67.02.4zm228-352.6l-74.16 503.75h-2.67l74.22-504.15 2.6.4zm-335.62 415.07l-2.6-.4 76.3-518.34 2.6.4-76.3 518.34zm-35.1 0l-2.6-.4 76.3-518.34 2.6.4-76.3 518.34zm7.84-429.46l-76.3 518.33-1.3-.2-1.32-.2 76.3-518.34 2.6.4zM58.5 953.48L2.67 1332.75H0L55.9 953.1l2.6.4zm-33.7 379.27h1.32l-.03.2-1.3-.2zm29.4 0l-.03.2-1.3-.2h1.33z" fill="#4ac0e9"/><path d="M195.5 583.7c1 3.86 4.72 7.2 5.75 6.55-.18 2.83 5.82 9.16 6.57 9 1.6 5.56 11.53 8.6 12.28 8.4.84 4.1 3.18 5.5 5.8 5.62 4.4.2 9.6-3.18 9.6-3.18l1.37 2.6.1.2.73 1.37 3.73 72.1 1.77 45.17c0 1.64-.4 5.1-1 9.7-3.18 23.32-12.52 76.46-12.13 76-4.18 19.25-10.16 96.55-10.22 97.25-1 7.52.84 29 .4 28a70.7 70.7 0 0 0-1 6c-3 22.43-.52 59.35-.94 58.88 0 .26 0 .52.07.77.15 1.48.27 2.92.36 4.3 1.26 18.88-2 30-2.24 30.6a7.62 7.62 0 0 0 0 5.15 8.35 8.35 0 0 0 1.45 2.54l-.33 1c-.7 2.18-2.32 7.3-2 7.87a7.06 7.06 0 0 0-.18 1.33 8.15 8.15 0 0 0 2.41 6 13.09 13.09 0 0 0-4-1.85 2.69 2.69 0 0 0-3.52 1.93c-.4 1.22-.4 2.52-.77 2.4-.93 22-16.9 51.76-16.14 51.34-1.88 6.27-6.92 23.25-5.37 22.17a28.49 28.49 0 0 0 1.23 6.84c.9 3.34 2 6.63 2.57 7.17.1.1.18.1.23 0 22.93 3.9 62.93-4.6 63.24-5.53 12.63-4.6 6.06-9.8 6.3-9.78.5-3.76 2.74-4.08 2.47-3.86 35.17-13.8 31.67-20.67 31.45-21.16l.22-.44c3.76-8.35-3.14-23-3.14-23l-7.1-31.53.4-.22a8 8 0 0 0 3.1-3.9 14.29 14.29 0 0 0 .83-2.79c1-5.06-.1-10.75-1.06-10.73h.1a6.8 6.8 0 0 0 4.07-4.27c1.56-4.06.8-9.47 1.24-11.06a1 1 0 0 1 .15-.33 12.68 12.68 0 0 0 5.08-6.43 14.46 14.46 0 0 0 .4-8.33c-.2-.67-.42-1-.53-.8 1.22-3.1 1.5-8.58 1.23-14.56a135.35 135.35 0 0 0-3.25-24.25c-.5-1.85-.92-2.87-1.22-2.66.25-.46.5-.93.74-1.43 9.23-18.7 12.7-61.22 13.14-60.73 5.6-13.92 6-39.37 6.26-49.88a35 35 0 0 1 .22-4.7c4.9-11.06 1.1-32.4 2.32-32.1.4-.78.83-1.8 1.3-3 4.07-10.57 10-34.77 9.94-33.5 2.9-5.86 6.73-23.5 13.3-59.5q1.73-9.48 3.72-20.7.86-5.05 1.77-9.78c4.77-24.45 10.9-42.06 15.4-52.9 1.3-3.1 2.45-5.67 3.42-7.67 1.72-3.6 2.8-5.4 2.8-5.4l-1 7.5-1 7.72L354.1 748.7c-1.46 15.7-.76 50.6.06 75.47v1.3l1.13 26.46c-8.13 11.3-12.9 58.42-12.48 59.63-4.48 10.07-3.53 31.24-2.86 43 .28 4.9.52 8.18.3 8.3a13.22 13.22 0 0 0-1.17 1.81c.12.58.27 1.18.45 1.8l-1.7 5.43a104.57 104.57 0 0 1-2.36 3.56c0-.22 0-.74-.05-1.53-2.52 8.13-4.2 17.17-3.88 17-5.36 13.58-3.87 20.74-2.06 24.58 1.12 2.36 2.37 3.47 2.22 4a.3.3 0 0 1 0 .1c-6 3.37-6.6 7-6.3 9.64.2 1.8.8 3.12.28 3.47a4.61 4.61 0 0 0-1.13 1.42 9.4 9.4 0 0 0-.94 3.45c-.45 4.3.78 9.35-.58 9.42-6.8 17.57 5.4 35 6.3 36.22a10.24 10.24 0 0 1 1.12 3.24c1.7 7.8 2 24.87 2.26 24.48-.42 6.62 6.85 8.52 7.37 8.08 43 6.18 44.3-2.27 43.8-2.3 2.8-5.27.37-21.08.37-21.08l1.4-21.72c5.95-8.14.6-17 1.07-16.53a21.25 21.25 0 0 0 2.34-5.69 32.4 32.4 0 0 0 .94-6.61c.14-2.87-.06-5 .07-5.26a27.07 27.07 0 0 0 2.95-4.78c2.1-4.52 1.52-7.5 1-8.6-.12-.27-.25-.43-.3-.44 1.3-1.38 2.07-3.72 2.52-6.13l.15-.9c.6-4 .37-7.8.2-7.66 13.6-19.5 16.62-51.3 15.86-50.86 7.95-16.3 20.77-77.35 21.5-77.07.82-3.35 1.8-12.93 2.77-25.15l.7-9.37 4.88-75.9c.13-4 1.33-10.85 3.06-18.92 5.17-24.1 15-58.84 15-58.84l23.24-58.22c3.4-10.17 5.8-22 7.47-34.3 1.1-8 1.88-16.2 2.44-24.22 1.23-17.47 1.37-34.16 1.24-46.5 0-4-.1-7.6-.17-10.57l-.17-7.17v-2.1a1.87 1.87 0 0 1 0-.52c2.94.44 9.24-1.76 8.78-2.26 5-.85 3.67-3.3 3.67-3.3l-.78-3.26c-.92-4.05-2.3-10.45-1.76-10.9 5-3.36 11.16-10.28 15.12-15.42 2.92-3.76 4.68-6.57 4-6.3 13.48-10.25 2.86-21.4 2.86-21.4l-19.05-60.3c5.52-5.33-4.2-22.8-4.2-22.8s2.08-5.55 1.4-6.3a16.88 16.88 0 0 0 .64-1.67c3-9 5.5-32.38 7.28-54.86l2-28 1.23-22.65c1.12-3 4.18-15.7 6.3-25 1.3-5.68 2.23-10.1 2.15-10.27a26.77 26.77 0 0 0 3.9-6.34 37.71 37.71 0 0 0 2.94-13.25c.4-7.57-1.1-13.6-1.25-13.48-2.5-7.27 1.75-19.56 2.23-19.3 2.17-5.6 1.75-14.93 1-22-.6-5.5-1.4-9.67-1.4-9.77a6.34 6.34 0 0 0 2.46-7.37 8.71 8.71 0 0 1-.42-1.27c1.76-.6.5-7.8.26-7.8 2.92-11 3-54.1 3-54.1a5 5 0 0 0-.14-1 8.2 8.2 0 0 0-2-3.61c-1.48-4.25 2.52-17.03 2.52-17.03a20.76 20.76 0 0 0 .67-2.37c1.5-6.66.16-14.5-1.3-20.08a64.53 64.53 0 0 0-2.36-7.39c-1-7.42-9.36-3.94-9.38-3.7-2-7-9.55-4.9-9.58-4.43-7.44-6.9-13.7 2.17-13.7 2.17-4.53-6.23-10 5.5-9.47 5.3a7.08 7.08 0 0 1 0 .88c-.2 3.55-1.7 14.42-1.7 14.42s3.57 9.72 3.26 10.65c-2.16-.86-4.5 1.12-4.5 1.12l.88 5.52 2.3 2.76s4.27 2.65 5.94 3.47l6.18 3.5s.1.47.16 1.1a7.31 7.31 0 0 1-.11 3 .67.67 0 0 1-.33.38c-1.26.4-2.93 3.37-2.93 3.37s-2.13 6.26-2.18 7c-.24 3.77-9 36.4-9.22 35.9-4.16 10.87-6 35.17-6.08 36.83a50.59 50.59 0 0 0-8.87 22.88c-3.33 1.92-2.44 11-3.16 10.7-7.56 2.58-9.1 11.25-11.2 13l-.62.1a18.53 18.53 0 0 0-7.72 3.15c-2.3 1.623-.8-3.13-1.53-3.18-.93-.78-10-.9-10.36 0-.15-5.23-9.8-.9-9.8-.9l.55-2v-.13l.4-1.47 1.9-6.66c2.1 5.83 6.5 2.57 6.75 2.35 4.9-3.24 7.9-22.95 7.6-22.26.7-10.63-4-6.9-4.5-6.7-1.65 2.73-3.8 1.64-3.8 1.64s-.8-3.13-.54-3.12c6.67-46-9.47-59.67-9.6-61.34-21.63-23.7-54.6-6-54.86-6-20.57 8.26-21.16 40.27-20.8 54.1v.3c.1 3.7.27 6 .1 6.13a1.73 1.73 0 0 0-.35-.56c-1.4-1.52-4.6.2-5.27-.06-4.23 12 4.4 35.16 4.16 34.9.77 1.53 1.48 2.2 2.12 2.38 1.9.5 3.1-3.5 3.1-3.5.1.18 3.2 5.68 4.87 6.9l.1.08a19.48 19.48 0 0 1 .54 2.16 31.9 31.9 0 0 1-.24 11.45l-.22 1.12a34.4 34.4 0 0 1-1.66 5.78 31.15 31.15 0 0 0-2.52-.67 47 47 0 0 0-15.6-.52 70.2 70.2 0 0 0-7.33 1.25 79.91 79.91 0 0 0-12.06 3.7h.08c-20.16-.86-26.8 10.32-26.8 10.32l-.94.47c-.6.3-1.38.73-2.2 1.2a10.51 10.51 0 0 0-3.32 2.63c-8 1.84-7.33 6.63-7.36 7.1-4.77-2.8-9.6 5.66-9.76 6-6.37 3.15-20 35.42-20.06 35.9-5.13 6.77-2.5 30.9-2.52 31.37-7.38 7.34-3.78 16.6-3.86 17.77-4.46 4.2-1.88 13.86-1.88 13.86s.3 10.46-.68 10.63c-4.8 1.58-1.47 7.5-1.47 7.5s-2.07 5.3-1.8 5.1c-4.8 5.6-1 11.8-1.78 12.22 1.74 11.26-6 23.8-5.57 25.24-3.28 5-1 15.1-1.24 15.33-4.94 7.74-6.88 26.34-7.14 26.56-3.48 8.07-9.2 66.26-9 66.5-.14 5.92 2.8 2.56 2.25 3.24-.07 1-.17 2-.3 3.06-1.84 17-8 35.26-8.43 36.48v.1a.08.08 0 0 0 0-.05c-.58 3.26-15.95 23.42-17.6 26-.1.16-.14.25-.13.27-3.62 11.1 3.38 13.27 3.8 13.96z" fill="#c1b49a"/><path d="M308.77 334.26l-9.26 63.17 29.28 85.23 71.55 37.76 69.74-20.13 36 2.4c-.92-4.05-2.3-10.45-1.76-10.9 5-3.36 11.16-10.28 15.12-15.42 2.92-3.76 4.68-6.57 4-6.3 13.48-10.25 2.86-21.4 2.86-21.4l-19.05-60.3c5.52-5.33-4.2-22.8-4.2-22.8s2.08-5.55 1.4-6.3a16.88 16.88 0 0 0 .64-1.67c3-9 5.5-32.38 7.28-54.86l2-28-38.78-60-15.82-28.16a18.53 18.53 0 0 0-7.72 3.15c-2.3 1.623-.8-3.13-1.53-3.18-.93-.78-10-.9-10.36 0-.15-5.23-9.8-.9-9.8-.9l.55-2v-.13l-28 6.34-42.17 11.3-18.15-1.14a70.2 70.2 0 0 0-7.33 1.25 79.91 79.91 0 0 0-12.06 3.7h.08c-20.16-.86-26.8 10.32-26.8 10.32l-.94.47c-.6.3-1.38.73-2.2 1.2l25.06 2.42 8.44 18.3-7.38 13.5z" fill="#808284"/><g fill="#be202e"><path d="M421.02 207.82s-43.8-9.1-61.87 4.34c0-.56 18.2-32.56 18.2-32.56l37.1 1.34z"/><path d="M463.43 224.84c21.13 10.8 27.74 51.74 27 52.07 26.12 19.36 8.17 56.8 8.12 57.56a43.35 43.35 0 0 0 6.53 23.09c3-9 5.5-32.38 7.28-54.86 2.07-25.92 3.2-50.62 3.2-50.62 1.12-3 4.18-15.7 6.3-25 1.3-5.68 2.23-10.1 2.15-10.27a26.77 26.77 0 0 0 3.9-6.34 37.71 37.71 0 0 0 2.94-13.25c.4-7.57-1.1-13.6-1.25-13.48-2.5-7.27 1.75-19.56 2.23-19.3 2.17-5.6 1.75-14.93 1-22-.6-5.5-1.4-9.67-1.4-9.77a6.34 6.34 0 0 0 2.46-7.37 8.71 8.71 0 0 1-.42-1.27c1.76-.6.5-7.8.26-7.8 2.92-11 3-54.1 3-54.1a5 5 0 0 0-.14-1c-12-13-24.44-9.3-32.24-4.6a.67.67 0 0 1-.33.38c-1.26.4-2.93 3.37-2.93 3.37s-2.13 6.26-2.18 7c-.24 3.77-9 36.4-9.22 35.9-4.16 10.87-6 35.17-6.08 36.83a50.59 50.59 0 0 0-8.87 22.88c-3.33 1.92-2.44 11-3.16 10.7-7.56 2.58-9.1 11.25-11.2 13a18.87 18.87 0 0 0-7.91 2.94c-1.05 8-2.12 19.86-1 29.82 6.47 2.65 12.73 5.36 12 5.5zm-128.18-23.57l23.9 10.9c6.55-7.9 5.74-13.28 3.26-16.7a33.84 33.84 0 0 1-1.66 5.78 31.15 31.15 0 0 0-2.52-.67c-7.87-1.78-16.34-.8-22.98.7z"/></g><path d="M322.96 1047c-6.8 17.57 5.4 35 6.3 36.22a10.24 10.24 0 0 1 1.12 3.24c1.7 7.8 2 24.87 2.26 24.48-.42 6.62 6.85 8.52 7.37 8.08 43 6.18 44.3-2.27 43.8-2.3 2.8-5.27.37-21.08.37-21.08l1.4-21.72c5.95-8.14.6-17 1.07-16.53a21.25 21.25 0 0 0 2.34-5.69 32.4 32.4 0 0 0 .94-6.61c.14-2.87-.06-5 .07-5.26a27.07 27.07 0 0 0 2.95-4.78c2.1-4.52 1.52-7.5 1-8.6-.12-.27-.25-.43-.3-.44 1.3-1.38 2.07-3.72 2.52-6.13l-66.74-4.42c1.12 2.36 2.37 3.47 2.22 4a.3.3 0 0 1 0 .1c-6 3.37-6.6 7-6.3 9.64.2 1.8.8 3.12.28 3.47a4.61 4.61 0 0 0-1.13 1.42 9.4 9.4 0 0 0-.94 3.45c-.47 4.3.77 9.35-.6 9.46z" fill="#fff"/><path d="M366.33 1121.73a191.56 191.56 0 0 1-26.25-2.24 1.28 1.28 0 0 1-.36 0 9.1 9.1 0 0 1-5.55-2.85 7.48 7.48 0 0 1-2-5.67 6.67 6.67 0 0 1-.11-1.09l-.16-2.76c-.28-5.32-.8-15.2-2-20.58v-.06a9.57 9.57 0 0 0-1.05-3.06c-.54-.74-13.33-18.63-6.34-36.68l.1-.3h.3c.3-.24.2-2.18.13-3.6a34.63 34.63 0 0 1 0-5.39 9.72 9.72 0 0 1 1-3.63 5.35 5.35 0 0 1 1.24-1.56 4.31 4.31 0 0 0-.17-1.25c-.1-.5-.23-1.1-.3-1.77-.45-4 1.62-7.3 6.33-10a7.89 7.89 0 0 0-.57-.92 19.6 19.6 0 0 1-1.58-2.7l-.36-.75 68.08 4.52-.1.53a13.62 13.62 0 0 1-2.35 6l.12.23c.26.57 1.45 3.7-1 9a27.55 27.55 0 0 1-2.94 4.79v5.07a33.66 33.66 0 0 1-1 6.71 22.05 22.05 0 0 1-2.29 5.64c2.62 6.08 2.2 12-1.18 16.65-.2 1.33-.9 13.42-1.34 21.46.17 1.14 2.3 15.68-.32 21.1v.16c.03.3-.32 4.98-18 4.98zm-26.46-3.25h.2a190.45 190.45 0 0 0 26.25 2.25c12.64 0 16.33-2.52 17-3.63h-.25l.36-.67c2.7-5.06.34-20.6.32-20.77v-.1a2026.84 2026.84 0 0 1 .6-10.87l.47-7.48.2-2.47c.07-.77.1-1.16.33-1.3 3.15-4.42 3.5-9.8 1-15.6-.16-.38-.24-.55-.1-.78l.14-.22a21.36 21.36 0 0 0 2.14-5.31 33.34 33.34 0 0 0 .93-6.51 38.96 38.96 0 0 0 0-3.77 5.43 5.43 0 0 1 .07-1.66l.06-.1a26.43 26.43 0 0 0 2.9-4.7c2.35-5 1.16-7.86 1-8.17a1 1 0 0 0-.11-.21l-.7-.17.57-.6a11.1 11.1 0 0 0 2.29-5.34l-65.3-4.28c.4.76.82 1.36 1.13 1.83.55.8.87 1.3.74 1.8a.67.67 0 0 1-.09.21l-.07.12-.1.06c-6 3.34-6.32 6.83-6.06 9.16.07.62.2 1.18.3 1.68.22 1 .4 1.82-.2 2.23a4.51 4.51 0 0 0-1 1.27 9 9 0 0 0-.89 3.27 33.79 33.79 0 0 0 0 5.23c.13 2.4.17 3.7-.37 4.3a.93.93 0 0 1-.33.24c-6.6 17.48 5.78 34.8 6.32 35.54a10.11 10.11 0 0 1 1.19 3.37c1.2 5.45 1.72 15.43 2 20.8l.13 2.34.28-.45-.13 2a6.58 6.58 0 0 0 1.74 5.07 8.21 8.21 0 0 0 4.86 2.55h.05z"/><path d="M188.08 1142.82a28.49 28.49 0 0 0 1.23 6.84c.9 3.34 2 6.63 2.57 7.17.1.1.18.1.23 0 22.93 3.9 62.93-4.6 63.24-5.53 12.63-4.6 6.06-9.8 6.3-9.78.5-3.76 2.74-4.08 2.47-3.86 35.17-13.8 31.67-20.67 31.45-21.16l.22-.44c3.76-8.35-3.14-23-3.14-23l-7.1-31.53.4-.22a8 8 0 0 0 3.1-3.9 14.29 14.29 0 0 0 .83-2.79c1-5.06-.1-10.75-1.06-10.73h.1a6.8 6.8 0 0 0 4.07-4.27c1.56-4.06.8-9.47 1.24-11.06a1 1 0 0 1 .15-.33 12.68 12.68 0 0 0 5.08-6.43 14.46 14.46 0 0 0 .4-8.33l-81.5-5.4c.15 1.48.27 2.92.36 4.3 1.26 18.88-2 30-2.24 30.6a7.62 7.62 0 0 0 0 5.15 8.35 8.35 0 0 0 1.45 2.54l-.33 1c-.7 2.18-2.32 7.3-2 7.87a7.06 7.06 0 0 0-.18 1.33 8.15 8.15 0 0 0 2.41 6 13.09 13.09 0 0 0-4-1.85 2.69 2.69 0 0 0-3.52 1.93c-.4 1.22-.4 2.52-.77 2.4-.93 22-16.9 51.76-16.14 51.34-1.86 6.24-6.9 23.22-5.3 22.14z" fill="#fff"/><path d="M206.15 1158.34a87.26 87.26 0 0 1-13.95-1 .59.59 0 0 1-.23.05.64.64 0 0 1-.48-.24c-.76-.77-2.1-5.16-2.68-7.37a37 37 0 0 1-1.26-6.57.43.43 0 0 1-.11-.12c-.3-.42-.9-1.22 5.46-22.4 0-.27.24-.85 1.37-3.3 3.85-8.37 14.07-30.6 14.8-48.1v-.63l.3.1c0-.15.08-.35.1-.52a10.28 10.28 0 0 1 .36-1.49 3.15 3.15 0 0 1 4-2.25h.05a10 10 0 0 1 2.12.76 8.12 8.12 0 0 1-1.1-4.44 6.88 6.88 0 0 1 .15-1.28c-.1-.48 0-2 2-8v-.06l.24-.73a8.78 8.78 0 0 1-1.35-2.48 8.12 8.12 0 0 1 0-5.46c.05-.12 3.5-11.08 2.22-30.42a128.55 128.55 0 0 0-.35-4.26l-.06-.57h.56l81.83 5.43.1.32a15 15 0 0 1-.4 8.64 13.14 13.14 0 0 1-5.18 6.61.34.34 0 0 0 0 .1 13.94 13.94 0 0 0-.16 2.71c0 2.4 0 5.67-1.1 8.4a7.43 7.43 0 0 1-3.73 4.3c.88 1.56 1.5 6.33.65 10.65a14.62 14.62 0 0 1-.87 2.89 8.33 8.33 0 0 1-3.29 4.12c.2.67.5 2 1.1 4.6l2.42 10.84 3.42 15.7c.52 1.1 6.86 15 3.12 23.34l-.12.27a3.65 3.65 0 0 1-.2 2.49c-1.45 3.62-8.1 9.87-31.6 19.1l-.73.3a4.49 4.49 0 0 0-1.41 3 4.67 4.67 0 0 1 1.36 4.28c-.57 2.3-3.23 4.33-7.9 6-.35.25-1.38.62-4.8 1.4-3.27.74-7.42 1.53-11.7 2.22a219 219 0 0 1-32.98 3.09zm-14.08-2h.07a85.23 85.23 0 0 0 14 1c21.14 0 46.6-5.28 48.76-6.36v-.08l.22-.07c4.35-1.6 6.9-3.47 7.4-5.42a3.88 3.88 0 0 0-1.16-3.42.64.64 0 0 1-.23-.63 7.46 7.46 0 0 1 .68-2.32l-.33.13.47-.4a3 3 0 0 1 2.08-1.67h.06c24.22-9.52 29.74-15.65 30.86-18.46a2.59 2.59 0 0 0 .13-1.94l-.1-.22.1-.22.2-.42c3.63-8-3.06-22.43-3.13-22.58v-.1l-6.95-31.18-1.38-.1 1.5-.8.35-.2a7.5 7.5 0 0 0 2.92-3.68 14.05 14.05 0 0 0 .81-2.7c1-4.9-.12-9.8-.68-10.17a.14.14 0 0 0 .09 0l-.08-1a6.3 6.3 0 0 0 3.77-4c1-2.56 1-5.74 1-8.06a13.84 13.84 0 0 1 .19-2.95 1.53 1.53 0 0 1 .23-.5l.05-.06h.07a12.21 12.21 0 0 0 4.89-6.19 14.13 14.13 0 0 0 .48-7.71l-80.6-5.35.3 3.76c1.33 19.86-2.24 30.7-2.28 30.8a7.1 7.1 0 0 0 0 4.79 7.68 7.68 0 0 0 1.35 2.38l.2.2-.1.27-.3.94c-1.48 4.53-2.07 7-2 7.5l.07.14v.2a6.38 6.38 0 0 0-.16 1.24 7.62 7.62 0 0 0 2.26 5.61l-.58.76a12.87 12.87 0 0 0-3.81-1.78 4.39 4.39 0 0 0-.85-.09 2.1 2.1 0 0 0-2.12 1.71 10.9 10.9 0 0 0-.32 1.35 2.35 2.35 0 0 1-.44 1.22c-.85 17.65-11 39.8-14.87 48.15l-1.1 2.42-.17.58c-4.6 15.32-5.54 19.94-5.65 21.3l.35-.24-.06 1a28.17 28.17 0 0 0 1.22 6.69 37.55 37.55 0 0 0 2.35 6.93zm192.4-49.58s-17.95-27.68-51.24-4.7c0 0-7.72 4.87-1.54 12.3 1.53-.72 5.53 6.14.73 11.6-.76.36-14.7 21.3 26.65 22.8 1.52-.76 45.24 9.7 25.4-42zm4.54-55.1s-13.73 44.62-9.54 63.77c1.17-2.8 5.6 20 5.6 20s9.15 7.36 3.57-55.3c1-4.44 8.94-35.42.36-28.5"/><path d="M243.18 731.5c0 1.64-.4 5.1-1 9.7-3.18 23.32-12.52 76.46-12.13 76-4.18 19.25-10.16 96.55-10.22 97.25-1 7.52.84 29 .4 28a70.7 70.7 0 0 0-1 6c-3 22.43-.52 59.35-.94 58.88a147.33 147.33 0 0 1 .43 5.08c1.26 18.88-2 30-2.24 30.6a7.62 7.62 0 0 0 0 5.15 8.35 8.35 0 0 0 1.45 2.54l-.33 1c-.7 2.18-2.32 7.3-2 7.87a7.06 7.06 0 0 0-.18 1.33l20.74-2.82 32.25-18.12 20.6 17.52a14.29 14.29 0 0 0 .83-2.79c1-5.06-.1-10.75-1.06-10.73h.1a6.8 6.8 0 0 0 4.07-4.27c1.56-4.06.8-9.47 1.24-11.06a1 1 0 0 1 .15-.33 12.68 12.68 0 0 0 5.08-6.43c1.75-4.9.24-9.74-.13-9.12 1.22-3.1 1.5-8.58 1.23-14.56a135.35 135.35 0 0 0-3.25-24.25c-.5-1.85-.92-2.87-1.22-2.66.25-.46.5-.93.74-1.43 9.23-18.7 12.7-61.22 13.14-60.73 5.6-13.92 6-39.37 6.26-49.88a35 35 0 0 1 .22-4.7c4.9-11.06 1.1-32.4 2.32-32.1.4-.78.83-1.8 1.3-3 4.07-10.57 10-34.77 9.94-33.5 2.9-5.86 6.73-23.5 13.3-59.5q1.73-9.48 3.72-20.7.86-5.05 1.77-9.78c4.77-24.45 10.9-42.06 15.4-52.9 1.3-3.1 2.45-5.67 3.42-7.67 1.72-3.6 2.8-5.4 2.8-5.4l-1 7.5-1 7.72-14.26 103.43c-1.46 15.7-.76 50.6.06 75.47v1.3l1.13 26.46c-8.13 11.3-12.9 58.42-12.48 59.63-4.48 10.07-3.53 31.24-2.86 43 .28 4.9.52 8.18.3 8.3a13.22 13.22 0 0 0-1.17 1.81c.12.58.27 1.18.45 1.8l-1.7 5.43a104.57 104.57 0 0 1-2.36 3.56c0-.22 0-.74-.05-1.53-2.52 8.13-4.2 17.17-3.88 17-8.66 21.95.55 27.12.16 28.6a.3.3 0 0 1 0 .1c-6 3.37-6.6 7-6.3 9.64.2 1.8.8 3.12.28 3.47a4.61 4.61 0 0 0-1.13 1.42 9.4 9.4 0 0 0-.94 3.45c21.77 24.73 49.25 20.13 65.46 14.12a32.4 32.4 0 0 0 .94-6.61c.14-2.87-.06-5 .07-5.26a27.07 27.07 0 0 0 2.95-4.78c2.1-4.52 1.52-7.5 1-8.6-.12-.27-.25-.43-.3-.44 1.46-1.55 2.26-4.32 2.67-7 .6-4 .37-7.8.2-7.66 13.6-19.5 16.62-51.3 15.86-50.86 7.95-16.3 20.77-77.35 21.5-77.07.82-3.35 1.8-12.93 2.77-25.15l.7-9.37 4.88-75.9c.13-4 1.33-10.85 3.06-18.92 5.17-24.1 15-58.84 15-58.84l23.24-58.22c3.4-10.17 5.8-22 7.47-34.3 1.1-8 1.88-16.2 2.44-24.22 1.23-17.47 1.37-34.16 1.24-46.5 0-4-.1-7.63-.18-10.6l-27.13-.4-59.8 6.72-61.6-25.47-61.07.45s-24.84 7.3-24.74 5.08c-9.86 6.66-6.36 38.4-6.36 38.4l2.73 35.07-7.27 18.1-12.33 13.5.73 1.37 3.73 72.1 1.77 45.17z" fill="#27a8e0"/><path d="M214.85 1061.5v-.67a7.72 7.72 0 0 1 .15-1.27c-.1-.53.05-2 2-8v-.06l.23-.7a9.54 9.54 0 0 1-1.34-2.47 8.24 8.24 0 0 1 0-5.52c0-.1 3.5-11 2.2-30.36-.1-1.67-.26-3.36-.43-5l-.18-1.68.2.23c0-1-.07-2.53-.13-4.26-.38-10.88-1.25-36.34 1-53.3a96.03 96.03 0 0 1 1-6l.06-.26c0-.76-.1-2.9-.22-5.13-.34-6.58-.9-17.6-.26-22.57v-.7c1.46-18.38 6.5-79.64 10.17-96.6.05-1 .66-4.7 3.12-19.46l9-56.5c.67-4.88 1-8.12 1-9.63-.15-1-.34-5-1-22.65l-.8-22.5-3.73-72-.85-1.62L248.8 599l7.2-17.87-2.73-34.94c-.14-1.3-3.42-32.15 6.6-38.92l.93-.63-.06.92a3.31 3.31 0 0 0 .58 0c4.73 0 23.26-5.46 23.45-5.5h.15l61.28-.44 61.48 25.42 59.7-6.7 27.7.35v.54l.18 10.63c.16 16.72-.25 32.38-1.25 46.55-.6 8.64-1.42 16.8-2.44 24.25a192.71 192.71 0 0 1-7.48 34.43c-.1.68-.84 2.62-3.52 9.38l-8 20-11.73 28.9c-.34 1.2-9.95 35.22-15 58.72v.06c-1.9 8.88-2.94 15.2-3.06 18.82v.14c-.1.7-.48 7.22-1 15.43l-3.88 60.34-.72 9.38c-1.1 13.68-2 22.16-2.78 25.2l-.15.62h-.1c-.5 1.54-1.8 7.07-3.32 13.36-4.6 19.27-12.3 51.44-17.85 63 .24 1.66-.63 9.63-2.8 18.83s-6.13 22.07-13.07 32.12a31.34 31.34 0 0 1-.25 7.59c-.47 3.16-1.3 5.5-2.5 7l.1.2c.26.57 1.47 3.72-1 9.06a27 27 0 0 1-2.93 4.78v5.05a33.13 33.13 0 0 1-1 6.72l-.07.3-.27.1a72.25 72.25 0 0 1-25.06 4.79c-16.07 0-29.87-6.42-41-19.07l-.17-.18v-.25a10.07 10.07 0 0 1 1-3.66 5.49 5.49 0 0 1 1.26-1.58 4.72 4.72 0 0 0-.14-1.21c-.1-.5-.23-1.1-.3-1.78-.45-4 1.62-7.33 6.3-10a8.53 8.53 0 0 0-.54-.85c-2-2.93-6.6-9.77.4-27.6a30.81 30.81 0 0 1 1-5.72c.5-2.27 1.52-6.77 3-11.43l1-3.23.07 3.2q.7-1 1.35-2.07l1.64-5.2c-.17-.57-.3-1.13-.42-1.67v-.2l.1-.2a13.7 13.7 0 0 1 1.18-1.82c.07-.55-.07-3-.23-5.73 0-.7-.08-1.45-.13-2.24-.5-8.86-1.86-32.33 2.85-43.13-.1-2.2 1.22-14.67 3-26 1.94-12 5.14-27.52 9.43-33.68-.25-2.66-.83-17.68-1.12-26.27v-1.33c-.7-21-1.6-58.76-.05-75.5l.08-.86.1.06c.95-5.35 6-42.23 14.07-102.62l.6-4.6 1.02-7.65-1.35 2.72c-1.1 2.28-2.24 4.85-3.4 7.64-4.35 10.46-10.55 28.1-15.36 52.74v.22h-.05l-5.44 30.28c-6.8 37.23-10.53 53.95-13.34 59.65l-.1.2c-.2.68-.74 2.65-1.34 4.87-2 7.38-5.68 21.12-8.48 28.38-.48 1.23-.92 2.25-1.32 3l-.23.4c-.07.76 0 2.7.15 4.58.42 7.28 1.12 19.45-2.28 27.13-.1.37-.13 2.56-.17 4.5v.6c-.23 10.7-.76 35.72-6.3 49.48l-.07.16c-.1.58-.35 2.48-.62 4.64-1.4 11.25-5.16 41.12-12.44 55.9l-.5 1a8.14 8.14 0 0 1 1 2.59v.14a136.5 136.5 0 0 1 3.22 24.35c.28 6.57-.1 11.38-1.1 14.33.6.9 1.53 5.18 0 9.58a13.21 13.21 0 0 1-5.19 6.63.64.64 0 0 0 0 .07 13.7 13.7 0 0 0-.16 2.69c0 2.4-.05 5.7-1.1 8.43a7.57 7.57 0 0 1-3.69 4.3c.87 1.66 1.47 6.37.6 10.64a15.44 15.44 0 0 1-.86 2.9l-.3.7-20.87-17.75-32 18h-.1zm1.26-2.22l.1.14-.05.22a5.54 5.54 0 0 0-.11.56l20-2.72 32.48-18.25 20.3 17.27a15.26 15.26 0 0 0 .53-2c1-4.85-.1-9.66-.65-10.1a.25.25 0 0 0 .14 0l-.1-1.12h-.05.05a6.23 6.23 0 0 0 3.73-3.95c1-2.55 1-5.72 1-8a13.32 13.32 0 0 1 .2-3 1.39 1.39 0 0 1 .24-.52l.06-.08h.08a12.08 12.08 0 0 0 4.86-6.15c1.46-4.1.55-8.05.16-8.55a.4.4 0 0 0 .3.12.48.48 0 0 0 .4-.21l-1-.5c1.07-2.7 1.48-7.67 1.2-14.33a136.56 136.56 0 0 0-3.2-24h-.06v-.16a13.16 13.16 0 0 0-.68-2L294.4 973l1.16-2.1a40.73 40.73 0 0 0 .69-1.34v-.07c7.2-14.6 10.94-44.4 12.35-55.6l.47-3.65a4.77 4.77 0 0 1 .35-1.58c5.4-13.6 5.93-38.35 6.15-48.93v-.6c.08-3.94.12-4.64.28-4.95 3.28-7.4 2.56-19.88 2.18-26.58-.25-4.3-.27-5.2.13-5.6l.1-.1c.36-.73.75-1.65 1.17-2.75 2.78-7.2 6.47-20.9 8.45-28.26l1-3.8a5.44 5.44 0 0 1 .6-1.71c2.75-5.82 6.46-22.5 13.13-59.1l3.72-20.72c.54-3.27 1.14-6.56 1.77-9.8v-.2c4.83-24.66 11-42.33 15.4-52.82 1.17-2.8 2.32-5.4 3.43-7.7 1.7-3.58 2.77-5.36 2.8-5.44l1.38-2.3-.35 2.68-1.42 10.64-.6 4.55-8.6 63.73-3.88 28-1.24 8.54-.37 2.33a6.88 6.88 0 0 1-.19.84c-1.54 16.75-.62 54.37.07 75.32v1.27l1.1 26.32.1.22-.2.27c-4.18 5.82-7.36 21.14-9.28 33-2.18 13.33-3.24 25.12-3.1 26.17l.06.18-.1.2c-4.67 10.5-3.32 33.92-2.8 42.73 0 .8.1 1.54.13 2.24.34 5.8.33 6.3 0 6.52a13 13 0 0 0-1 1.47c.1.5.24 1 .4 1.54l.05.17-.06.16-1.68 5.35v.08l-.1.14c-.76 1.22-1.56 2.42-2.37 3.58l-.8 1.16a121.59 121.59 0 0 0-3 13.2l.4-.16-.47 1.2c-6.86 17.37-2.45 23.9-.57 26.7.55.82.9 1.3.75 1.85a1.33 1.33 0 0 1-.1.24l-.08.13-.13.08c-5.94 3.32-6.28 6.77-6 9.08a13.37 13.37 0 0 0 .29 1.67c.22 1 .4 1.87-.23 2.32a4.18 4.18 0 0 0-1 1.24 8.42 8.42 0 0 0-.85 3c10.9 12.28 24.35 18.5 40 18.5a70.86 70.86 0 0 0 24.4-4.63 32.09 32.09 0 0 0 .86-6.2 38.94 38.94 0 0 0 0-3.77 5.06 5.06 0 0 1 .08-1.69v-.07a26.23 26.23 0 0 0 2.89-4.68c2.33-5 1.16-7.8 1-8.1a.65.65 0 0 0-.09-.17l-.8-.2.67-.7c1.17-1.24 2-3.55 2.5-6.7a35.43 35.43 0 0 0 .35-6.54l-2.18 1.7 2.47-3c6.84-9.8 10.8-22.55 12.94-31.5a108.28 108.28 0 0 0 2.93-18.15l-.84.46.78-1.6c5.5-11.26 13.24-43.65 17.87-63 2.45-10.24 3.16-13.18 3.6-14 .73-3 1.65-11.46 2.74-25l.7-9.35 4.9-75.88c.12-3.66 1.15-10 3.06-18.95v-.06c5.12-23.84 14.94-58.53 15-58.88v-.06l22.62-56.32.63-1.9a190.81 190.81 0 0 0 7.45-34.19c1-7.43 1.84-15.57 2.44-24.18 1-14.14 1.4-29.77 1.24-46.46 0-3.43-.1-6.8-.17-10.07l-26.58-.34-59.9 6.74-.13-.06-61.47-25.48-60.88.45c-1.47.43-18.9 5.53-23.68 5.54a2.6 2.6 0 0 1-1.24-.23c-9 7-5.75 37.28-5.7 37.58l2.7 35.23-7.36 18.3-12.12 13.3.6 1.14v.13l3.73 72.1 1.74 45.16c0 1.57-.37 4.77-1.05 9.77-1.92 14.1-6 38.6-9 56.5l-2.9 17.57.24-.3-.48 2.24c-3.66 16.88-8.7 78.08-10.15 96.44 0 .45-.06.7-.06.74-.64 4.88-.07 15.84.26 22.38.27 5.24.28 5.68.1 5.92-.36 1.72-.7 3.64-1 5.7-2.28 16.86-1.4 42.26-1 53.1a55 55 0 0 1 .1 5.78c.17 1.65.3 3.3.42 5 1.3 19.33-2 30.13-2.27 30.8a7.07 7.07 0 0 0 0 4.76 8 8 0 0 0 1.33 2.36l.22.24-.1.32-.3.92v.07c-1.36 4.48-1.93 6.96-1.93 7.48z"/><path d="M215.9 500.62c-.14 5.92 2.8 2.56 2.25 3.24l-.3 3.06c8.1-3 21-4.23 38.74 5 .27-.24 12.8-7.16 12.8-7.16l29.1-.07 44.42-.3 32.38 14.16 45.23 6 74-3.15-.17-7.17v-2.1a1.87 1.87 0 0 1 0-.52c2.94.44 9.24-1.76 8.78-2.26 5-.85 3.67-3.3 3.67-3.3s-3.32-13.5-2.54-14.16c5-3.36 11.16-10.28 15.12-15.42-17.84 10.42-41.08 22.06-58.44 23.92l-41.5 15.72-40.16-5.48-39.65-21.76L319 456l-16.73-41.65V371l4.26-40.23 5.94-23.24 7-56.37 7.83-9.6 1.7-8.9s-15.73-14.52-33.45-16.95c-1.64.85-4.88 2.65-5.5 3.84-8 1.84-7.33 6.63-7.36 7.1-4.77-2.8-9.6 5.66-9.76 6-6.37 3.15-20 35.42-20.06 35.9-5.13 6.77-2.5 30.9-2.52 31.37-7.38 7.34-3.78 16.6-3.86 17.77-4.46 4.2-1.88 13.86-1.88 13.86s.3 10.46-.68 10.63c-4.8 1.58-1.47 7.5-1.47 7.5s-2.07 5.3-1.8 5.1c-4.8 5.6-1 11.8-1.78 12.22 1.74 11.26-6 23.8-5.57 25.24-3.28 5-1 15.1-1.24 15.33-4.94 7.74-6.88 26.34-7.14 26.56-3.5 8.07-9.23 66.26-9 66.5z" fill="#be202e"/><path d="M483.76 585.64s-63.18 42-108.84 27.1c.52.6-110.15-21.38-116.52-51.63-.5-.6 59.98 136.8 225.36 24.52z"/><path d="M320 819.37c4.07-10.57 10-34.77 9.94-33.5 2.9-5.86 6.73-23.5 13.3-59.5a234 234 0 0 0 5.49-30.49c4.77-24.45 10.9-42.06 15.4-52.9 1.3-3.1 2.45-5.67 3.42-7.67a33.52 33.52 0 0 0 1.8 2.12l-1 7.72 1.94-6.75 2.56-8.83 1.32-4.48-1-1.42c-5.34-7-10.25-7.88-14.74-4.27a25.08 25.08 0 0 0-5.62 7.14 51.4 51.4 0 0 0-1.33 2.48c-4.68 9.32-8.8 23.52-12.4 40.1l-.57 2.62c-6.1 29-10.62 64.57-13.7 94.07-2.6 24.48-4.17 44.77-4.8 53.55zm-68.64-59.72c12.7 70.53 52.63 32.2 73.38 6.16 7.74-9.7 12.82-17.7 12.82-17.7q3.34-11.9 5.67-21.73a234 234 0 0 0 5.49-30.49c1.9-19.6-2.1-27-9.44-26.77H339c-5 .3-11.55 4.08-18.77 9.95-28.84 23.4-68.84 79.98-68.88 80.58zM494.47 512l.52 35.33s-47.33-26.43-83.22-14.93c-1.1-.08-39.24-5.23-45.44-12.4-1.92 1-31.33-19-35-19.58 2-1.75-22.6-39.77-21.7-53.6-.74-.05-16 6.82-16 6.82l12.7-13.4L301.8 425l-16.07 8.3 13.4-18.62-2.8-8.07-8.74 3.55 3.1-7.67s-22.27-16.14-31.6-14.5c-.35-.4 13.74-6.6 32.72 8.92-.8.7 1.12-5.93 1.12-5.93s-16.7-10.48-22.28-10.1c-.35-.4 8.36-3.58 23 4.15 0 .75-18.63-15.12-35.28-15.1.35.4 20.5-2.4 37.58 8.12-.7-.8.6-9.33.6-9.33s-34.16-21-52.13-17.72c0-.37-4.46-11.18 51.77 11.7 1.9-.63.7-4.83.7-4.83s-23.16-19.55 3.8-1.63c-.74-.05 2.5-16 .52-19.47.27 1.52-18.75-53.4-18.7-60.14-1.2 1.42-23.7-16.58-30.34 5.86.46-1.47-5.24-27.73 31.32-9.55-1.4-1.22 19.22 57.55 20.57 59.52-1.5.27 4.7 1.8 4.7 1.8s7.28-67.05 14.9-81.92c-.34-.4-12 71.6-9.87 84.13.4-.35 1.58 27.12 1.58 27.12s23.84 72.1 34.76 86.34c.64 1.55-38.9-56.6-43.2-93.28-2.06-2.4-1.56 64.43 11.48 91.55.27 1.52 30.9 42.95 42.83 47.12-.2-2.64-4.05-23.16 17.34-4.86-1.9.63 35.13 17.34 43.13 13.75-.44 1.1-48.16-44.84 5.8-3.75-1.42-.84 13.45-25 37-11 1 1.57 41.17-1.77 54.6-14.76-2.7 1.7-12.5 21.68-49 25.64-.36 0-20.3 10.66-20.3 10.66zM334.92 358.88s9.3 44.9 18.4 53c-1.08-.45 10.5-13.56 13-24.28.42-.72-2.46 55.37 1.14 68.36-.7-.42 14.67 42.25-5.73 14.25-1.47-.1-16.77-26.62.4-6 0-.38-4.13-22-13.47-32-.73.32-30.5-42.93-13.74-73.33zm40.3 40.57s10.1-24.84 39.3 15.74c-.35-.4 31.85 22.37 58.88-18.23.35.4 17.17-19.5 21-9.86-.16 2.6-11.8-6.4-18.43 27.66-.7-.42-12.9 50.92-13.4 1.36-1.13.3-27.65 21.43-55.28-3.3-.1 1.5 41.78 92.07-1.36 9.67.32.77-30-51.14-11.25-3.38-1.15.3 54.3 127.04-19.47-19.67zM496.5 331.7s19.5-55.73-21.52-50.58c1.8.5-32.58 6.1-48.6 7.66-1.47-.1-33.25-.7-36.64.2 1.5-.28-15.63 7.2-16.74 1.5.32.77 8.22-24.2-10-5.54 0 0-16.66 11.65-18.27 19.42.54-2.6.5-59.24-7.82-73.68-.13 1.87 4.85 73.86 2.28 79.32-.4.35 11.3 19.5 14.8 22.74-1.8-.87-22.23 40.54-.14 7.87 1.74 1.6 7.88 21.16 3.26 35.48 0 .37 6.3 22.93 7.68-21.62 1.45.47-2-20.77-7.28-30.5 0-.37-8-12.92-8.2-16.3-1.22 1.8 7.06-17.54 11.48-17.25-1.5.28 5.88-5.24 8 1.3-1.18 1 25.3 95.1 6.34 4.92-.4.72 24.45-6.26 36.5-4-.32-.77 35.53-.26 42.06-4 .07-.3 52.67-18.56 42.78 43.06zm-39.13-133.16s33.66 57.4 4.27 2.54c-.4.72.97-9.32-4.27-2.54zm8.6-1.3s14.22 26.08 15 36.64c0-.38 19.9 35.83 4.5-6.83-1.87.62-13.57-30.17-19.5-29.8zm1.13-5.93s21.25 3.3 21.4 18.3c-.28-1.52 25.2-12.2-21.4-18.3zm50.38 39c-.4.34-6.57 32.95-6.57 32.95s-2.8 66.22-11.9 75.37c-.83 1.44 1.3 8.34 1.3 8.34s6.64-22.14 12.06-44.27c2.07-25.92 3.2-50.62 3.2-50.62 1.12-3 4.18-15.7 6.3-25 .24-22.33-3.08-46.84-18.92-52.53 0 .02 21.4 17.94 14.53 55.76zm-33.08-66.73c36.78-5.76 42.88 28.13 43.5 46.9a37.71 37.71 0 0 0 2.94-13.25c-11.68-53.97-45.6-33.93-46.43-33.66zm41.5 10.62s-11.5-28.15-40-16.16c-.05.38 22.76-26.25 40 16.16zM479.1 155s17.37-28.48 46-7.82c-.7-.8-3.74-28-39.5-6.75-.44.32-10.4 11.3-6.5 14.57zm12.44-33.34c6.18-6.86 15.7-.8 17.3-.7-13.24 1-11.1 7.88-10.8 9 16.9-5.4 30.6 7.8 34.77 12.47-.6-5.5-1.4-9.67-1.4-9.77a6.34 6.34 0 0 0 2.46-7.37c-1.14-1.1-2.12-1.6-2.12-1.72 5.56-11.64-.3-58.55-1-59-16.48-2.56-16.4 42.1-15.66 42.9 6.58 1.2 11 12.37 11 12.74-20.62-13-11-1.48-10.3-.68-23.78-10.58-24.62 2.48-24.23 2.14z"/><path d="M488.98 37.13l.88 5.52 2.3 2.76 5.94 3.47 6.18 3.5.16 1.1.5.15c-.87-5.55 5.26-12.65 4.3-13.22-5.23-3.1-1.76-7.1-1-7.06 7.85-3.23 2.3-9.1 1.82-9.14-3.64-1-7.53-9.5-7.26-9.74.1-5.24 6.32-6.33 7.06-6.28 2.53-1.08 13.08-.13 13.1-.38-1.16-4.83-5.22-3.1-6-2.9-2.8 1.07-7-2.2-7-2.2-3.2 0-7 5.78-7.54 6-3.7-2.7-8 0-10.47 2.23-.2 3.55-1.7 14.42-1.7 14.42s3.57 9.72 3.26 10.65c-2.16-.86-4.5 1.12-4.5 1.12z" fill="#c1b49a"/><path d="M419.4 209.8l-9.3-23.13s-6.43-14.93 7.52-1.75c-1.45-.6 13.68 28.67 13.68 28.67s-8.4-4.58-11.9-3.8zM377.34 185L362 212.74l-10.06-.9s13.72-29.12 25.4-26.83zm-44.78 44.3s-19.85-21.08-35.64-13.37c.55-1 28.78 12.66 29.92 21.74.65 1.34 4.8-1.93 5.72-8.37zm-4.1 2.23s2.14 8.9-6.9 3.8c.46.53-42.15-23.3-23.2-3.3 0 .5 10.18 25.7-4.16 3.23 1.18.83-13.42-9.9-5.6 6.63.5 0 7.92 56.8-2.85 17.32.43 1-18.42-62.25-4.43-.05.18 1 4.43 15.3-3.26.8-.1 1.5-10.6-.2-.63 6 .46.53 8.28 1.55 14.76 19.74.27-.48 19.25-11.73 16-26.95.05-.75 9.43-8.63 5.44 7.36-.47-.28-2.84 74.6-16.9 36.4 0 .5-11.82-15.54-3.74 4.5.47.28 14 31.45 14 31.45l3.84-2.25 1.82-31.9 7.34-48.78s13.1-11.68 8.5-24zm18.34 273.84s-82.92-3-89.52 7.57c-.15-1.5-.47-8-.47-8s53.45-14.25 90 .43zm-59.22-95.22s-17.6 58.6-23.14 68.25c.54-.72-17 34.14-6.33 21.6 0 .5-.94 6.94-.94 6.94s17.34-1.1 8.92-12.17c.53-.46.78-4.45 6.38-3.32.3-.74 6.52-1.57-1.73-11.37-.06 1-1.94-8.14 6.73-4.8-.25 0 6.6-6.82-1-15.32-.62-1.8 8.8-6.42 10.66-12.3 0 0-10.5 5.8-6.27-2.17-.52.47 13.43-28.37 6.72-35.32zM256.4 515.12l.88-2.2s-29.15-10.7-36.3-6.9c0 .25-2.43-.66-2.43-.66s16.77-7.65 39.4 4.86c.23.27 6.57 1.44-1.54 4.9zm-2.27 4.6s-2.9 18.32-5 20.18c-.73 0-2.64 10.33-2.68 11.08l1.62 20.12s20 14.34 31.5 16.35c-.44-.78-18.92-20.27-22.4-35 .26.26 14.57-30.3-3.03-32.73z"/><path d="M236.85 612.66l.83 1.57 3.73 72.1 1.77 45.17c0 1.64-.4 5.1-1 9.7 12.76-12 10.4-55.26 11.1-54.7-10.33-29.86 4.58-21.23 4.86-20.92 26.24 21.25 8-5.47 8-5.47l-18.2-19.72c42.5 27.62 24.42 9.86 24.15 10.62-35.26-23.1-14.16-25.2-12.7-25.1-11.5-12.77 1.64-13.9 2.2-14.86-2.4-8.4.8-12.45 1-12.2 3.77-4 3.83-11.3 3.18-16.8a53 53 0 0 0-1.38-7.34c-10.2-13.93-16.44-5.1-16.3-3.58 1.68 12.12-.06 16.25-1.6 16.9-.23 3.66-2.4 8-4.43 11.2a53.15 53.15 0 0 1-3.52 5c.53 1.07.17 3.07-.52 5.23-.32 1.06-.74 2.16-1.18 3.2zM195.5 583.7c1 3.86 4.72 7.2 5.75 6.55-.18 2.83 5.82 9.16 6.57 9 1.6 5.56 11.53 8.6 12.28 8.4.84 4.1 3.18 5.5 5.8 5.62 1.88-4.4 6-10.8 12.16-3.78l.86 1c0-.5 8.85-15.8 9.18-16.38a14 14 0 0 1-6 5.07 10 10 0 0 1-6.67.32c-.5.22-11.18 1.26-11.7 5.73-.23-.27-1.24-7.6-1.24-7.6l-2.8 9.07s-5.7-3.63-4.88-8.58c-1 .68-9.63-3.64-7.06-9 .13-.24 3.26-10.6-3.3-2.22-.72-.3-6.42.07-6.36-4.68-1.2 1.5-6.33-5.84-6.2-12.86-.1.16-.14.25-.13.27-3.64 11.18 3.36 13.36 3.78 14.05zm33.58 7.64l4.38-6.7s4.78-5.18-3.1-1.46c-.24 0-3.73-3.24-3.5-7-.05.75-2.34-9.66-5.36-4.86-1-.06 5.08 5.34 2.56 9.93-.28 0 7.8 4.54 5.02 10.1zm46.55-140.98s-20.67-19.88-32.65-13.92c-.5.22 29.4 11 30.62 18.54-.01.25 3.7.02 2.03-4.62zm-2.8 9.07s-10.64-11-26.1-12c-.08 1.24 23 6.28 23.36 20.3zm6.8 128.02s75.56 49.22 29.3 112.57c.14-2.25 4.25 37.42 4.25 37.42l22.54-57 19.53-61.74zm216.62-13.15v.6a.8.8 0 0 0 0-.6zM354.08 824.06a2 2 0 0 0-.17.23l.2 1.07c2.76 13.6 7.47 22.85 14.88 25 12.32 3.64 32.1-12.22 62.8-60.06-.3-.35 5.38-14.8 13.48-36.33 5.17-24.1 15-58.84 15-58.84l23.24-58.22c3.4-10.17 5.8-22 7.47-34.3 1.1-8 1.88-16.2 2.44-24.22a83 83 0 0 1-13.72 9.88c-3.34 2-7.2 4.14-11.56 6.34h-.07A282.64 282.64 0 0 1 420.43 613c-10.9 3.17-23 6.13-36.3 8.67l-.9.17-10.1 1.78-6 1-.87 5.17-.52 3.1-1.6 10.08c1.3-3.1 2.45-5.67 3.42-7.67a33.52 33.52 0 0 0 1.8 2.12l-1 7.72-14.26 103.43c-1.46 15.7-.76 50.6.06 75.47zm-53.78 177.08v-1.4c-.1.84-.1 1.32 0 1.4z"/><path d="M297.26 973.86c1.33 10.87 2.92 20.42 3 25.9 0-.45.12-1 .2-1.64a135.35 135.35 0 0 0-3.21-24.25zm-8.56-65.2c.8-.7 4.93 33.36 8.08 61.1 9.23-18.7 12.7-61.22 13.14-60.73 5.6-13.92 6-39.37 6.26-49.88-12.27-5.66-38.15-11.28-27.48 49.5zm50.8 57.68l-1.7 5.43a138.64 138.64 0 0 0 12.4-26.24c11.17-30.73 16.4-68.82 18.83-95.13 1.72-18.67 2-31.42 2-31.42-6.87-3.37-12.44-1.07-16.94 5.07a2 2 0 0 0-.17.23l.2 1.07 1.13 26.46c-8.13 11.3-12.9 58.42-12.48 59.63-4.48 10.07-3.53 31.24-2.86 43 .28 4.9.52 8.18.3 8.3a13.22 13.22 0 0 0-1.17 1.81c.14.58.3 1.18.47 1.8zm-16.17 59.46a12.14 12.14 0 0 0 2 3.4c1.88 2.4 5.4 5.63 11.75 8-.67 0-5.28 1.3-7.6 4.23s-2.34 7.34 5.78 13.68c.67 1 38.38 5.3 40.58 1.7 0 0-28.47-2.14-29.93-10 0 0 34.6 6.57 44-1.75.14-2.87-.06-5 .07-5.26a27.07 27.07 0 0 0 2.95-4.78 51 51 0 0 1-42.13 4.36c-.48-.28 26.78.28 29.18-5.3-.57.55-29.82 2.87-33.08-7 1.16-.16 36.94 8.1 47-.7-.12-.27-.25-.43-.3-.44 1.46-1.55 2.26-4.32 2.67-7a68.76 68.76 0 0 0-10.39 3.51c-.3.73-36.4 6.08-40.13-8.67.16 1.26-13.8-34.68 12.8-18.9 1.46.35 26.5-1.74 33.73-18.27.22.52 4-12-23.1 6.47.55-1-23.54 16.95-19-37.53a17.71 17.71 0 0 0-10.26 8.91c.28 4.9.52 8.18.3 8.3a13.22 13.22 0 0 0-1.17 1.81c.12.58.27 1.18.45 1.8l-1.7 5.43c-2.58 8.44-7.17 24.47-7.1 31.5.75-.2 2.83 13.45 9.3 16.63 0 .54-3.57 4.07-8.33-.44-1.75-1.65-3.66-4.38-5.63-8.74-.56 1.2-2.7 15.07-2.7 15.07zm108.75-175.87s-15.37 43.25-33.3 76.57c-.2-.76-13.2 51.65 14-7.07-.25.73 39.36-85.68 19.3-69.5zm-134.1 170.74l.06-.06q-.16-.04-.06.06z"/><path d="M213.84 1065c1.4 1.52 4.72 2.32 4.72 2.32 2.7 1.94 6.52 1.15 10.35-.67 1.05-.5 2.1-1.07 3.13-1.7a89.32 89.32 0 0 0 10.87-8.22c30.25-29.25 41.52 2.5 41.52 2.5q.76 1.14 1.47 2.1c2.2-1.35 3.38-3.92 3.93-6.7-5.83-1.24-10.43-9.25-10.43-9.25 1.75-3 5.85-2.6 9.46-1.5a6.8 6.8 0 0 0 4.07-4.27c-7.56-5.85-3.7-9.08-3.7-9.08l4.93-2a1 1 0 0 1 .15-.33 12.68 12.68 0 0 0 5.08-6.43 12.85 12.85 0 0 1-1.44-1.12c-9.74 10.27-10.47 2.5-10.24 2.76 11.06-7 5.42-41.9 5.2-42.17-12.74-66.38-9.45-2.63-8.68-3.08-16.6 82-56.25-22.7-56.26-22.5-4-7.3-6.86-9-8.8-7.28-3 22.43-.52 59.35-.94 58.88a147.33 147.33 0 0 1 .43 5.08 34 34 0 0 0 8 13.26c17.9 1.44 2.65 8.68 2.63 8.93a36.39 36.39 0 0 0-12.84 13.56c-1.32 2.47-1.8 4.13-2.1 4.2a6 6 0 0 0 3.23-.68c4.6-2.2 9.2-8.66 9.18-8.25 8.73-10.32 46.28-13.83 46.3-13.94 14.1-1.06 5.5 6.12 4.48 6.8-6.83-1.2-26.7 4.73-26.48 5.25-10.44 12.8-29.22 17.07-29.43 16.55a30 30 0 0 0-6.19 2.79c-2.6 1.7-2.56 3.1-1.58 4.16zm115.4 18.18a10.24 10.24 0 0 1 1.12 3.24c-.14-9.76-.5-27.7 4.9-31.32-.7-.95-2.78-7.74-5.78-13.68a26.36 26.36 0 0 0-5-7.33c-2.33 4.35.24 12.78-1.52 12.87-6.8 17.57 5.4 34.98 6.3 36.22zm-137.16 73.66c22.93 3.9 62.93-4.6 63.24-5.53 12.63-4.6 6.06-9.8 6.3-9.78.5-3.76 2.74-4.08 2.47-3.86 35.17-13.8 31.67-20.67 31.45-21.16l.22-.44c-5-6.4-16.87-13.9-43.63-3.2-.05.75-26.25 20.77-32.36 27.62.95.3-22.2 15.16-27.7 16.36zm-.24-.01c.1.1.18.1.23 0s-.08-.06-.23 0zm4.5-12.9l-8.3-1.1a28.49 28.49 0 0 0 1.23 6.84z"/><path d="M188.08 1142.82s21.86-14 33-25.52c0-.25-12.73 2.4-5.45-14.87-.92-1.06.54-12.22 5.66-18.88 0-.5 9.46-14.75 10.84-18.6.54-1.52-.15-1.44-3.13 1.7-.85.9-1.9 2-3.13 3.46 0 0-10.7 2.08-15.46-3.18-.4 1.22-.4 2.52-.77 2.4-.93 22-16.9 51.76-16.14 51.34-1.97 6.27-7 23.25-5.42 22.17zm164-967.94zm1.58-12.72c3.22 6.44-1.08 12.4-1.53 12.7a8.32 8.32 0 0 0 2.11 2.39c2.6 1.72 3.1-3.5 3.1-3.5l6.13 4.3-2.84 5.8 2.23-1 4.12-1.84-2.7 7.33 5.44-4.14 1.55 6.58 6.05-5.85-.55 8.47 3.62-2.5.38 5.53 7-5.54-.42 6.47 4.86-6.43-.37 5.73 5.9-7.36.85 6.06 4.3-5.47 1.35 5.84 2.83-5.75 2.33 5.9.4-6.22 1.3-.26 7.38-1.5 1.57-.3 7.52-2 3.26-1.85 2.33-8.26c2.1 5.83 6.5 2.57 6.75 2.35-6.1-4.74.2-10.92.74-11.4 3-4.8 1.56-8.9 1.3-8.66-.2-.77 1.07-8.9 1.07-8.9l-1.37-1.62 3.3-1.28-2.8-2.44 4.4-1.2-3.6-3.5 4.83-2.3-4.25-2.78 4.85-2.56-5-1.08 3.63-2.76s-4.22-1.53-3.63-3l5.37-2.9-6-.4 6.4-1.7-6.9-3.7 8.33.8-8.93-5 5.07-2-5.5-2.86 3-3.18-4.1-1.4 4.2-2.1-6.63-2.32 3.76-2.87-5-1L438.7 90h-3.82l3.9-5-6.18.22 2-9.25-5.4 5.52 1.67-10.65-5.28 7.4.43-8.6-4.3 5.46-.1-8.26-2.84 5.82-.7-6.3-3.65 5-.17-8.77-5.47 8.27-1-9.07-4.08 7.85-.13-9.5-3.36 8.16-1.45-7.3-2.13 8.24-3.1-9.46-1 9.7-3.67-10-.5 11.6-3.44-9.73-2.32 11.1-4.67-11.7.23 9.77L374.9 64l.33 8.27-5.38-6.48 1.34 6.1-5.3-4 2.1 9.4-6.93-3.67 3.36 7.4-7.52-3.75 4.73 7-7-2.22 5.4 6.24-6.1-1.27 4.2 5.78-4.1.35 2.26 3.16-4.7.43 2.85 3.7-5.08.28 4.07 3.78-4.7.18 4 3.52-3.25.78 2.77 4.8-4.4 1.2 3.8 2.5-2.88.56 2.5 3.54-3.5.9 4 3.64L347 128l4.78 2.32-5.75 3.12 7.44.74h.28l-.27.27-2.4 2.28 2.1 3.26.35.56s-2.1 6-3.1 5.9c-.54 5.22 3.46 15.74 3.22 15.72zm23.25 481.6c-.06 0-.13-.08-.2-.13a.77.77 0 0 0 .2.13zm119.34-69.44v.6a.8.8 0 0 0 0-.6zm-167.77-5.83c0 .3 35.43 38.54 41.75 43.44l13 10 7.3 5.53 25.1 18.9L477.8 611s5.78-3.17 13.24-8.38c1.1-8 1.88-16.2 2.44-24.22 1.23-17.47 1.37-34.16 1.24-46.5l-1.14-.44c-11.2-4.32-26.08-8.17-45.43-11.34a82.47 82.47 0 0 1 .76 12c0 23.78-39.43 39.6-110.42 37q-4.82-.1-10.02-.63z"/><path d="M505.6 46.94c4.48-6.27 7.3-6 17.1-3.12 14.9 6.54 12.75-3.9 15.06-5.63 1.5-6.66.16-14.5-1.3-20.08-1.87-4.6-3.9-7.5-3.88-7.78-2.23-5.58-6.18-1.72-6-1.52-1.9.63-5.93-2.64-5.93-2.64-16.8-.74-19.6 7.45-19.78 7.44 1.18 8.45 3.56 5.92 3.67 7.06-5.27 4.15.9 25.88 1.07 26.27z" fill="#c1b49a"/><path d="M381.83 341.46c-.715 13.704 9.785 25.408 23.486 26.18s25.448-9.68 26.275-23.38-9.576-25.487-23.27-26.37c-13.8-.768-25.648 9.764-26.5 23.57z"/><path d="M384.9 339.78c-.65 12.477 8.906 23.133 21.38 23.843s23.176-8.793 23.947-21.263-8.68-23.22-21.146-24.05c-12.595-.718-23.402 8.878-24.18 21.47z" fill="#808284"/><path d="M414.55 351.38a1.49 1.49 0 0 1-.42 0 .85.85 0 0 1-.36-.17.66.66 0 0 1-.19-.42 3.7 3.7 0 0 1-.23-1 4.62 4.62 0 0 1 0-.84 3.17 3.17 0 0 1 .19-.72 6.32 6.32 0 0 1 .27-.65 4.22 4.22 0 0 0 .54-.36l.52-.43.5-.44.45-.43 1.5-1.3 1.5-1.24 1.43-1.22a14.24 14.24 0 0 0 1.34-1.35 11.52 11.52 0 0 0-1-.93l-1.16-.85-1.26-.77-1.3-.75-1.3-.8-1.24-.9a10.84 10.84 0 0 1-1.13-1 8.69 8.69 0 0 1-1-1.24c0-.2.08-.4.12-.64a7 7 0 0 1 .15-.69 2 2 0 0 1 .19-.53c.08-.14.17-.2.28-.16a1.91 1.91 0 0 1 .5-.21 1.56 1.56 0 0 1 .48 0 2.36 2.36 0 0 1 .94.26 3.75 3.75 0 0 1 .44.24l.83.54a3.23 3.23 0 0 0 .41.22l5.46 3.7 2.65 1.78 2.66 1.7.22.3a1 1 0 0 1 .11.23.33.33 0 0 1 0 .19.7.7 0 0 1-.06.17l-12.7 10.78zm-3.1 0a3.32 3.32 0 0 1-.44.06.79.79 0 0 1-.38-.08.43.43 0 0 1-.21-.35 7.64 7.64 0 0 1-.59-1.14l-.47-1.22-.43-1.18a8.5 8.5 0 0 0-.47-1.05l-.85-2.2-.9-2.1-.93-2.06-.9-2.06-.88-2.06-.82-2.12-.75-2.18-.65-2.27a1 1 0 0 1 .65-.73 1.23 1.23 0 0 1 .47 0 1.76 1.76 0 0 1 .49.16 9.85 9.85 0 0 1 .58 1l.53 1.06.5 1q.25.5.5.9a5 5 0 0 0 .17.74 6.09 6.09 0 0 0 .22.61l.25.54.26.5.27.47.23.5a4.61 4.61 0 0 1 .2.56 3.87 3.87 0 0 1 .14.68l.93 1.94.86 2 .83 2 .82 1.7a5.09 5.09 0 0 0 .22.75l.27.67.27.6.28.6.26.57a5.77 5.77 0 0 1 .22.58 3.62 3.62 0 0 1 .16.63q.06.34.1.7c0 .13-.07.26-.1.38l-.12.35a1.77 1.77 0 0 1-.15.31.88.88 0 0 1-.24.23.94.94 0 0 0-.41.01zm-24.27-7.97a2 2 0 0 1 .21-.63 2.81 2.81 0 0 1 .35-.5 3.32 3.32 0 0 1 .43-.41l.5-.36.52-.36a4.61 4.61 0 0 0 .5-.4l.45-.46a2.61 2.61 0 0 0 .34-.56 9.06 9.06 0 0 1 .82-.74l1.06-.77 1.14-.8a12 12 0 0 0 1.07-.82l1.12-1c.38-.35.76-.6 1.14-.9l1.15-.92 1.1-1a1.82 1.82 0 0 1 .61-.2 1.36 1.36 0 0 1 .57 0 1.17 1.17 0 0 1 .46.26 1.32 1.32 0 0 1 .33.49 2.6 2.6 0 0 1 .28.72 2.06 2.06 0 0 1 0 .64 1.66 1.66 0 0 1-.13.5 1.61 1.61 0 0 1-.24.36l-1.53 1.42-1.52 1.37-1.47 1.36-1.38 1.42a3 3 0 0 0-.61.32l-.57.4a4.06 4.06 0 0 1-.52.36 1.51 1.51 0 0 1-.52.2.82.82 0 0 0 0 .35 1.14 1.14 0 0 0 .07.34.41.41 0 0 0 .19.22.4.4 0 0 0 .29 0l1.17.78 1.2.7 1.2.65 1.2.67 1.16.73c.38.25.75.54 1.1.84a13.43 13.43 0 0 1 1 1 9.91 9.91 0 0 1 1 1.15v.84a2.29 2.29 0 0 1-.12.68 1.56 1.56 0 0 1-.28.51 1.54 1.54 0 0 1-.49.37z"/><path d="M429.56 220.83s-20.63-72.5-61.53-25c1.14-2.07-7.28 5.43-7.28 5.43s41.75-65.6 70.48 12.33c0-.01 2.57 10.33-1.67 7.24z" fill="#808284"/></svg>